<?xml version="1.0" encoding="utf-8"?>
<!-- Generator: Adobe Illustrator 18.0.0, SVG Export Plug-In . SVG Version: 6.00 Build 0)  -->
<!DOCTYPE svg PUBLIC "-//W3C//DTD SVG 1.1//EN" "http://www.w3.org/Graphics/SVG/1.1/DTD/svg11.dtd">
<svg version="1.1" id="Layer_1" xmlns="http://www.w3.org/2000/svg" xmlns:xlink="http://www.w3.org/1999/xlink" x="0px" y="0px"
	 viewBox="0 0 154 145" enable-background="new 0 0 154 145" xml:space="preserve">
<g>
	<g>
		
			<image overflow="visible" opacity="0.28" width="173" height="165" xlink:href="DE234853.png"  transform="matrix(1 0 0 1 -8.7646 -9.7646)">
		</image>
		<g>
			<g>
				<ellipse fill="#EAEAEA" cx="77" cy="72.5" rx="71.6" ry="67.6"/>
				<ellipse opacity="0.49" fill="#FECEAB" cx="78.1" cy="118.1" rx="25.9" ry="3.5"/>
			</g>
		</g>
	</g>
	<g>
		<g>
			<g enable-background="new    ">
				<g>
					<polygon fill="#B49279" points="84.4,60.7 82.1,59.5 92.4,58 94.7,59.2 					"/>
				</g>
				<g>
					<polygon fill="#826957" points="72.7,97.7 70.5,96.4 70.5,71.4 72.8,72.7 					"/>
				</g>
				<g enable-background="new    ">
					<defs>
						<path id="SVGID_1_" enable-background="new    " d="M86.9,38.6l-2.3-1.2c4.1-0.6,8.1-0.5,8.3-0.5l2.3,1.2
							C95,38.1,90.9,38,86.9,38.6z"/>
					</defs>
					<clipPath id="SVGID_2_">
						<use xlink:href="#SVGID_1_"  overflow="visible"/>
					</clipPath>
					<g clip-path="url(#SVGID_2_)" enable-background="new    ">
						<path fill="#A88871" d="M86.9,38.6l-2.3-1.2c4.1-0.6,8.1-0.5,8.3-0.5l2.3,1.2C95,38.1,90.9,38,86.9,38.6"/>
					</g>
				</g>
				<g>
					<polygon fill="#826957" points="72.8,62.3 70.5,61.1 70.5,53.2 72.8,54.4 					"/>
				</g>
				<g>
					<polygon fill="#B49279" points="63.4,63.7 61.1,62.4 70.5,61.1 72.8,62.3 					"/>
				</g>
				<g>
					<polygon fill="#826957" points="63.4,74 61.1,72.8 61.1,62.4 63.4,63.7 					"/>
				</g>
				<g enable-background="new    ">
					<defs>
						<path id="SVGID_3_" enable-background="new    " d="M72.8,54.4l-2.3-1.2c0-9,5.6-14.7,14-15.9l2.3,1.2
							C78.4,39.8,72.8,45.5,72.8,54.4z"/>
					</defs>
					<clipPath id="SVGID_4_">
						<use xlink:href="#SVGID_3_"  overflow="visible"/>
					</clipPath>
					<g clip-path="url(#SVGID_4_)" enable-background="new    ">
						<path fill="#846B59" d="M72.8,54.4l-2.3-1.2c0-2.3,0.4-4.3,1-6.2l2.3,1.2C73.2,50.1,72.8,52.2,72.8,54.4"/>
						<path fill="#896F5C" d="M73.9,48.3L71.6,47c0.2-0.7,0.5-1.3,0.9-1.9l2.3,1.2C74.4,47,74.1,47.6,73.9,48.3"/>
						<path fill="#8E7360" d="M74.7,46.4l-2.3-1.2c0.3-0.5,0.6-1,0.9-1.4l2.3,1.2C75.3,45.4,75,45.9,74.7,46.4"/>
						<path fill="#937763" d="M75.6,44.9l-2.3-1.2c0.3-0.4,0.6-0.8,1-1.2l2.3,1.2C76.2,44.1,75.9,44.5,75.6,44.9"/>
						<path fill="#987C67" d="M76.5,43.7l-2.3-1.2c0.4-0.4,0.7-0.8,1.1-1.1l2.3,1.2C77.3,42.9,76.9,43.3,76.5,43.7"/>
						<path fill="#9D806A" d="M77.7,42.6l-2.3-1.2c0.5-0.4,0.9-0.8,1.4-1.1l2.3,1.2C78.6,41.8,78.1,42.2,77.7,42.6"/>
						<path fill="#A3846D" d="M79.1,41.4l-2.3-1.2c0.7-0.5,1.5-0.9,2.3-1.3l2.3,1.2C80.6,40.5,79.8,41,79.1,41.4"/>
						<path fill="#A88871" d="M81.4,40.1l-2.3-1.2c1.6-0.8,3.5-1.3,5.5-1.6l2.3,1.2C84.9,38.8,83,39.4,81.4,40.1"/>
					</g>
				</g>
				<g>
					<path fill="#DEB495" d="M90.5,47.6c-4.6,0.6-6.1,3.6-6.1,6.4l0,6.7l10.3-1.4L93,69.8L84.4,71l0,25l-11.6,1.6l0-25L63.4,74
						l0-10.3l9.4-1.3l0-7.9c0-9,5.6-14.7,14-15.9c4.1-0.6,8.1-0.5,8.3-0.5l0,8.8L90.5,47.6z"/>
				</g>
			</g>
		</g>
	</g>
</g>
</svg>
