<?xml version="1.0" encoding="utf-8"?>
<!-- Generator: Adobe Illustrator 18.0.0, SVG Export Plug-In . SVG Version: 6.00 Build 0)  -->
<!DOCTYPE svg PUBLIC "-//W3C//DTD SVG 1.1//EN" "http://www.w3.org/Graphics/SVG/1.1/DTD/svg11.dtd">
<svg version="1.1" id="Layer_1" xmlns="http://www.w3.org/2000/svg" xmlns:xlink="http://www.w3.org/1999/xlink" x="0px" y="0px"
	 viewBox="0 0 102.8 97.1" enable-background="new 0 0 102.8 97.1" xml:space="preserve">
<g>
	<ellipse fill="#F0F0F0" cx="51.4" cy="48.8" rx="51.4" ry="48.6"/>
	<ellipse opacity="0.49" fill="#727A6F" cx="52.2" cy="81.6" rx="18.6" ry="2.5"/>
	<g>
		<g>
			<g enable-background="new    ">
				<g>
					<polygon fill="#666E64" points="56.7,40.1 55.1,39.2 62.5,38.1 64.1,39 					"/>
				</g>
				<g>
					<polygon fill="#4A5048" points="48.4,66.6 46.7,65.7 46.7,47.8 48.4,48.7 					"/>
				</g>
				<g enable-background="new    ">
					<defs>
						<path id="SVGID_1_" enable-background="new    " d="M58.5,24.2l-1.6-0.9c2.9-0.4,5.8-0.3,6-0.3l1.6,0.9
							C64.3,23.8,61.4,23.8,58.5,24.2z"/>
					</defs>
					<clipPath id="SVGID_2_">
						<use xlink:href="#SVGID_1_"  overflow="visible"/>
					</clipPath>
					<g clip-path="url(#SVGID_2_)" enable-background="new    ">
						<path fill="#60675D" d="M58.5,24.2l-1.6-0.9c2.9-0.4,5.8-0.3,6-0.3l1.6,0.9C64.3,23.8,61.4,23.8,58.5,24.2"/>
					</g>
				</g>
				<g>
					<polygon fill="#4A5048" points="48.4,41.3 46.8,40.4 46.8,34.7 48.4,35.6 					"/>
				</g>
				<g>
					<polygon fill="#666E64" points="41.6,42.2 40,41.3 46.8,40.4 48.4,41.3 					"/>
				</g>
				<g>
					<polygon fill="#4A5048" points="41.6,49.6 40,48.7 40,41.3 41.6,42.2 					"/>
				</g>
				<g enable-background="new    ">
					<defs>
						<path id="SVGID_3_" enable-background="new    " d="M48.4,35.6l-1.6-0.9c0-6.4,4-10.6,10.1-11.4l1.6,0.9
							C52.4,25,48.4,29.2,48.4,35.6z"/>
					</defs>
					<clipPath id="SVGID_4_">
						<use xlink:href="#SVGID_3_"  overflow="visible"/>
					</clipPath>
					<g clip-path="url(#SVGID_4_)" enable-background="new    ">
						<path fill="#4B5149" d="M48.4,35.6l-1.6-0.9c0-1.6,0.3-3.1,0.7-4.4l1.6,0.9C48.7,32.5,48.4,34,48.4,35.6"/>
						<path fill="#4E544C" d="M49.2,31.2l-1.6-0.9c0.2-0.5,0.4-0.9,0.6-1.4l1.6,0.9C49.5,30.2,49.3,30.7,49.2,31.2"/>
						<path fill="#51574F" d="M49.8,29.8l-1.6-0.9c0.2-0.4,0.4-0.7,0.6-1l1.6,0.9C50.2,29.1,50,29.4,49.8,29.8"/>
						<path fill="#545A52" d="M50.4,28.8l-1.6-0.9c0.2-0.3,0.4-0.6,0.7-0.9l1.6,0.9C50.8,28.2,50.6,28.5,50.4,28.8"/>
						<path fill="#575E55" d="M51.1,27.9L49.5,27c0.3-0.3,0.5-0.6,0.8-0.8l1.6,0.9C51.6,27.3,51.3,27.6,51.1,27.9"/>
						<path fill="#5A6157" d="M51.9,27.1l-1.6-0.9c0.3-0.3,0.7-0.6,1-0.8l1.6,0.9C52.6,26.5,52.2,26.8,51.9,27.1"/>
						<path fill="#5D645A" d="M52.9,26.2l-1.6-0.9c0.5-0.3,1-0.7,1.6-0.9l1.6,0.9C54,25.6,53.4,25.9,52.9,26.2"/>
						<path fill="#60675D" d="M54.6,25.3l-1.6-0.9c1.2-0.6,2.5-0.9,3.9-1.1l1.6,0.9C57.1,24.4,55.7,24.8,54.6,25.3"/>
					</g>
				</g>
				<g>
					<path fill="#7F887B" d="M61.1,30.6c-3.3,0.5-4.4,2.6-4.4,4.6l0,4.8l7.4-1l-1.2,7.6l-6.2,0.9l0,17.9l-8.3,1.2l0-17.9l-6.8,1
						l0-7.4l6.8-1l0-5.7c0-6.4,4-10.6,10.1-11.4c2.9-0.4,5.8-0.3,6-0.3l0,6.3L61.1,30.6z"/>
				</g>
			</g>
		</g>
	</g>
</g>
</svg>
