<?xml version="1.0" encoding="utf-8"?>
<!-- Generator: Adobe Illustrator 18.0.0, SVG Export Plug-In . SVG Version: 6.00 Build 0)  -->
<!DOCTYPE svg PUBLIC "-//W3C//DTD SVG 1.1//EN" "http://www.w3.org/Graphics/SVG/1.1/DTD/svg11.dtd">
<svg version="1.1" id="Layer_1" xmlns="http://www.w3.org/2000/svg" xmlns:xlink="http://www.w3.org/1999/xlink" x="0px" y="0px"
	 viewBox="0 0 154 145" enable-background="new 0 0 154 145" xml:space="preserve">
<g>
	<g>
		
			<image overflow="visible" opacity="0.28" width="173" height="166" xlink:href="1475569F.png"  transform="matrix(1 0 0 1 -8.7646 -9.7646)">
		</image>
		<g>
			<g>
				<ellipse fill="#EAEAEA" cx="77" cy="72.8" rx="71.6" ry="67.6"/>
				<ellipse opacity="0.49" fill="#FECEAB" cx="78.1" cy="118.5" rx="25.9" ry="3.5"/>
			</g>
		</g>
	</g>
	<g>
		<g>
			<g enable-background="new    ">
				<g enable-background="new    ">
					<defs>
						<path id="SVGID_1_" enable-background="new    " d="M94,43.2l2.3,1.2c1.6,0.9,2.8,2.2,3.5,4c1.4,3.5,1.1,12.5,1.1,16.6
							c0,4.1,0.3,13-1.1,16.9l-2.3-1.2c1.4-3.9,1.1-12.8,1.1-16.9c0-4.1,0.4-13.1-1.1-16.6C96.8,45.4,95.6,44,94,43.2z"/>
					</defs>
					<clipPath id="SVGID_2_">
						<use xlink:href="#SVGID_1_"  overflow="visible"/>
					</clipPath>
					<g clip-path="url(#SVGID_2_)" enable-background="new    ">
						<polyline fill="#896F5C" points="99.7,81.9 97.4,80.7 97.4,80.7 99.7,81.9 99.7,81.9 						"/>
						<path fill="#846B59" d="M99.7,81.9l-2.3-1.2c1.4-3.9,1.1-12.8,1.1-16.9c0-4.1,0.4-13.1-1.1-16.6c-0.7-1.7-1.9-3.1-3.5-4
							l2.3,1.2c1.6,0.9,2.8,2.2,3.5,4c1.4,3.5,1.1,12.5,1.1,16.6C100.9,69.1,101.2,78,99.7,81.9"/>
					</g>
				</g>
				<g enable-background="new    ">
					<defs>
						<path id="SVGID_3_" enable-background="new    " d="M92.5,46.6l2.3,1.2c-0.5-0.3-1.2-0.4-1.8-0.3l-2.3-1.2
							C91.4,46.2,92,46.3,92.5,46.6z"/>
					</defs>
					<clipPath id="SVGID_4_">
						<use xlink:href="#SVGID_3_"  overflow="visible"/>
					</clipPath>
					<g clip-path="url(#SVGID_4_)" enable-background="new    ">
						<path fill="#A88871" d="M93,47.5l-2.3-1.2c0.4-0.1,0.8,0,1.2,0.1l2.3,1.2C93.8,47.5,93.4,47.5,93,47.5"/>
						<path fill="#A3846D" d="M94.2,47.6l-2.3-1.2c0.2,0,0.4,0.1,0.5,0.2l2.3,1.2C94.5,47.7,94.4,47.6,94.2,47.6"/>
						<path fill="#9D806A" d="M94.7,47.8l-2.3-1.2c0,0,0.1,0,0.1,0.1L94.7,47.8C94.8,47.8,94.7,47.8,94.7,47.8"/>
					</g>
				</g>
				<g enable-background="new    ">
					<defs>
						<path id="SVGID_5_" enable-background="new    " d="M91.1,54l-2.3-1.2c-0.9-0.5-1.5-1.4-1.5-2.6c0-1.9,1.5-3.6,3.3-3.9
							l2.3,1.2c-1.8,0.3-3.3,2-3.3,3.9C89.6,52.6,90.2,53.5,91.1,54z"/>
					</defs>
					<clipPath id="SVGID_6_">
						<use xlink:href="#SVGID_5_"  overflow="visible"/>
					</clipPath>
					<g clip-path="url(#SVGID_6_)" enable-background="new    ">
						<path fill="#846B59" d="M91.1,54l-2.3-1.2c-0.9-0.5-1.5-1.4-1.5-2.6c0-0.4,0.1-0.9,0.2-1.3l2.3,1.2c-0.1,0.4-0.2,0.8-0.2,1.3
							C89.6,52.6,90.2,53.5,91.1,54"/>
						<path fill="#896F5C" d="M89.9,50.1l-2.3-1.2c0.1-0.2,0.1-0.4,0.2-0.5l2.3,1.2C90,49.8,89.9,49.9,89.9,50.1"/>
						<path fill="#8E7360" d="M90.1,49.6l-2.3-1.2c0.1-0.1,0.2-0.3,0.3-0.4l2.3,1.2C90.3,49.3,90.2,49.4,90.1,49.6"/>
						<path fill="#937763" d="M90.4,49.2l-2.3-1.2c0.1-0.1,0.2-0.3,0.3-0.4l2.3,1.2C90.6,48.9,90.5,49,90.4,49.2"/>
						<path fill="#987C67" d="M90.7,48.8l-2.3-1.2c0.1-0.1,0.2-0.2,0.3-0.3l2.3,1.2C90.9,48.6,90.8,48.7,90.7,48.8"/>
						<path fill="#9D806A" d="M91,48.5l-2.3-1.2c0.1-0.1,0.3-0.2,0.4-0.3l2.3,1.2C91.3,48.2,91.1,48.4,91,48.5"/>
						<path fill="#A3846D" d="M91.4,48.1l-2.3-1.2c0.2-0.1,0.4-0.2,0.6-0.3l2.3,1.2C91.8,47.9,91.6,48,91.4,48.1"/>
						<path fill="#A88871" d="M92,47.8l-2.3-1.2c0.3-0.2,0.7-0.3,1-0.3l2.3,1.2C92.6,47.6,92.3,47.7,92,47.8"/>
					</g>
				</g>
				<g enable-background="new    ">
					<defs>
						<path id="SVGID_7_" enable-background="new    " d="M81,58.3l2.3,1.2c2.5,1.4,4.1,4,4.1,7.3c0,5.2-4.2,10.1-9.3,10.8l-2.3-1.2
							c5.1-0.7,9.2-5.6,9.3-10.8C85.1,62.4,83.5,59.7,81,58.3z"/>
					</defs>
					<clipPath id="SVGID_8_">
						<use xlink:href="#SVGID_7_"  overflow="visible"/>
					</clipPath>
					<g clip-path="url(#SVGID_8_)" enable-background="new    ">
						<path fill="#A88871" d="M78.1,77.7l-2.3-1.2c1-0.1,1.9-0.4,2.8-0.8l2.3,1.2C80.1,77.2,79.1,77.5,78.1,77.7"/>
						<path fill="#A3846D" d="M80.9,76.8l-2.3-1.2c0.5-0.3,1-0.5,1.5-0.9l2.3,1.2C82,76.3,81.5,76.6,80.9,76.8"/>
						<path fill="#9D806A" d="M82.5,75.9l-2.3-1.2c0.4-0.3,0.8-0.6,1.1-0.9l2.3,1.2C83.3,75.4,82.9,75.7,82.5,75.9"/>
						<path fill="#987C67" d="M83.6,75l-2.3-1.2c0.3-0.3,0.6-0.6,0.9-0.9l2.3,1.2C84.3,74.4,83.9,74.7,83.6,75"/>
						<path fill="#937763" d="M84.6,74.1l-2.3-1.2c0.3-0.3,0.6-0.7,0.8-1l2.3,1.2C85.1,73.4,84.8,73.8,84.6,74.1"/>
						<path fill="#8E7360" d="M85.4,73.1l-2.3-1.2c0.3-0.4,0.5-0.8,0.7-1.2l2.3,1.2C85.9,72.3,85.6,72.7,85.4,73.1"/>
						<path fill="#896F5C" d="M86.1,71.9l-2.3-1.2c0.3-0.5,0.5-1,0.7-1.5l2.3,1.2C86.6,70.9,86.3,71.4,86.1,71.9"/>
						<path fill="#846B59" d="M86.7,70.4l-2.3-1.2c0.4-1.1,0.6-2.3,0.6-3.6c0-3.3-1.6-6-4.1-7.3l2.3,1.2c2.5,1.4,4.1,4,4.1,7.3
							C87.4,68.1,87.2,69.3,86.7,70.4"/>
					</g>
				</g>
				<g enable-background="new    ">
					<defs>
						<path id="SVGID_9_" enable-background="new    " d="M73,76.8l-2.3-1.2c1.5,0.8,3.2,1.1,5.1,0.9l2.3,1.2
							C76.2,77.9,74.5,77.6,73,76.8z"/>
					</defs>
					<clipPath id="SVGID_10_">
						<use xlink:href="#SVGID_9_"  overflow="visible"/>
					</clipPath>
					<g clip-path="url(#SVGID_10_)" enable-background="new    ">
						<path fill="#9D806A" d="M73,76.8l-2.3-1.2c0.1,0.1,0.2,0.1,0.3,0.1l2.3,1.2C73.2,76.9,73.1,76.9,73,76.8"/>
						<path fill="#A3846D" d="M73.3,76.9L71,75.7c0.5,0.2,1,0.4,1.5,0.6l2.3,1.2C74.3,77.4,73.8,77.2,73.3,76.9"/>
						<path fill="#A88871" d="M74.8,77.5l-2.3-1.2c1,0.3,2.1,0.3,3.3,0.2l2.3,1.2C77,77.8,75.8,77.8,74.8,77.5"/>
					</g>
				</g>
				<g enable-background="new    ">
					<defs>
						<path id="SVGID_11_" enable-background="new    " d="M60,92l-2.3-1.2c0.5,0.3,1.1,0.5,1.8,0.7C62,92.1,66.9,91.5,71,91
							c1.8-0.3,3.5-0.5,4.8-0.7c1.3-0.2,3-0.4,4.9-0.7c4.1-0.6,8.9-1.4,11.4-2.8c2.4-1.3,4.3-3.5,5.3-6.1l2.3,1.2
							c-1,2.6-2.8,4.8-5.3,6.1c-2.5,1.4-7.3,2.2-11.4,2.8c-1.9,0.3-3.6,0.5-4.9,0.7c-1.2,0.2-2.9,0.4-4.8,0.7
							c-4.1,0.6-9,1.1-11.6,0.5C61.1,92.5,60.6,92.3,60,92z"/>
					</defs>
					<clipPath id="SVGID_12_">
						<use xlink:href="#SVGID_11_"  overflow="visible"/>
					</clipPath>
					<g clip-path="url(#SVGID_12_)" enable-background="new    ">
						<path fill="#9D806A" d="M60,92l-2.3-1.2c0.1,0.1,0.2,0.1,0.3,0.1l2.3,1.2C60.2,92.1,60.1,92,60,92"/>
						<path fill="#A3846D" d="M60.3,92.1L58,90.9c0.5,0.2,1,0.4,1.5,0.6c0,0,0,0,0,0l2.3,1.2c0,0,0,0,0,0
							C61.2,92.5,60.8,92.3,60.3,92.1"/>
						<path fill="#A88871" d="M61.8,92.7l-2.3-1.2C62,92.1,66.9,91.5,71,91c1.8-0.3,3.5-0.5,4.8-0.7c1.3-0.2,3-0.4,4.9-0.7
							c3.8-0.5,8.3-1.3,10.9-2.5l2.3,1.2c-2.6,1.2-7.1,2-10.9,2.5c-1.9,0.3-3.6,0.5-4.9,0.7c-1.2,0.2-2.9,0.4-4.8,0.7
							C69.2,92.8,64.3,93.3,61.8,92.7"/>
						<path fill="#A3846D" d="M94,88.3l-2.3-1.2c0.2-0.1,0.3-0.2,0.5-0.2c0.3-0.2,0.7-0.4,1-0.6l2.3,1.2c-0.3,0.2-0.6,0.4-1,0.6
							C94.3,88.2,94.1,88.2,94,88.3"/>
						<path fill="#9D806A" d="M95.4,87.5l-2.3-1.2c0.4-0.3,0.8-0.6,1.2-0.9l2.3,1.2C96.2,86.9,95.8,87.2,95.4,87.5"/>
						<path fill="#987C67" d="M96.6,86.5l-2.3-1.2c0.3-0.3,0.6-0.6,0.9-0.9l2.3,1.2C97.2,85.9,96.9,86.2,96.6,86.5"/>
						<path fill="#937763" d="M97.5,85.6l-2.3-1.2c0.3-0.3,0.6-0.7,0.8-1l2.3,1.2C98.1,84.9,97.8,85.3,97.5,85.6"/>
						<path fill="#8E7360" d="M98.3,84.6L96,83.3c0.3-0.4,0.5-0.8,0.7-1.2l2.3,1.2C98.8,83.8,98.6,84.2,98.3,84.6"/>
						<path fill="#896F5C" d="M99.1,83.4l-2.3-1.2c0.3-0.5,0.5-1,0.7-1.5l2.3,1.2C99.5,82.4,99.3,82.9,99.1,83.4"/>
					</g>
				</g>
				<g enable-background="new    ">
					<defs>
						<path id="SVGID_13_" enable-background="new    " d="M83.8,53.7l2.3,1.2c-2.3-1.2-5-1.7-7.9-1.3l-2.3-1.2
							C78.8,52,81.5,52.5,83.8,53.7z"/>
					</defs>
					<clipPath id="SVGID_14_">
						<use xlink:href="#SVGID_13_"  overflow="visible"/>
					</clipPath>
					<g clip-path="url(#SVGID_14_)" enable-background="new    ">
						<path fill="#A88871" d="M78.2,53.6l-2.3-1.2c1.8-0.3,3.6-0.2,5.2,0.3l2.3,1.2C81.7,53.5,80,53.3,78.2,53.6"/>
						<path fill="#A3846D" d="M83.3,53.9L81,52.6c0.8,0.2,1.6,0.5,2.3,0.9l2.3,1.2C84.9,54.4,84.1,54.1,83.3,53.9"/>
						<path fill="#9D806A" d="M85.6,54.7l-2.3-1.2c0.1,0.1,0.3,0.1,0.4,0.2l2.3,1.2C85.9,54.9,85.8,54.8,85.6,54.7"/>
					</g>
				</g>
				<g enable-background="new    ">
					<defs>
						<path id="SVGID_15_" enable-background="new    " d="M70.2,81.4L68,80.2c-3.8-2.1-6.3-6.2-6.3-11.3c0-8.1,6.4-15.5,14.2-16.6
							l2.3,1.2c-7.9,1.1-14.2,8.5-14.2,16.6C63.9,75.3,66.4,79.4,70.2,81.4z"/>
					</defs>
					<clipPath id="SVGID_16_">
						<use xlink:href="#SVGID_15_"  overflow="visible"/>
					</clipPath>
					<g clip-path="url(#SVGID_16_)" enable-background="new    ">
						<path fill="#846B59" d="M70.2,81.4L68,80.2c-3.8-2.1-6.3-6.2-6.3-11.3c0-1.9,0.4-3.8,1-5.5l2.3,1.2c-0.6,1.8-1,3.6-1,5.5
							C63.9,75.3,66.4,79.4,70.2,81.4"/>
						<path fill="#896F5C" d="M64.9,64.7l-2.3-1.2c0.3-0.8,0.6-1.5,1-2.2l2.3,1.2C65.6,63.2,65.2,63.9,64.9,64.7"/>
						<path fill="#8E7360" d="M65.9,62.4l-2.3-1.2c0.3-0.6,0.7-1.2,1.1-1.8l2.3,1.2C66.6,61.2,66.3,61.8,65.9,62.4"/>
						<path fill="#937763" d="M67,60.7l-2.3-1.2c0.4-0.5,0.8-1.1,1.2-1.6l2.3,1.2C67.8,59.6,67.4,60.1,67,60.7"/>
						<path fill="#987C67" d="M68.3,59.1L66,57.9c0.4-0.5,0.9-1,1.4-1.4l2.3,1.2C69.2,58.1,68.7,58.6,68.3,59.1"/>
						<path fill="#9D806A" d="M69.7,57.7l-2.3-1.2c0.5-0.5,1.1-1,1.7-1.4l2.3,1.2C70.8,56.7,70.3,57.2,69.7,57.7"/>
						<path fill="#A3846D" d="M71.4,56.3L69.2,55c0.7-0.5,1.5-1,2.4-1.4l2.3,1.2C73,55.3,72.2,55.8,71.4,56.3"/>
						<path fill="#A88871" d="M73.8,54.9l-2.3-1.2c1.4-0.6,2.9-1.1,4.4-1.3l2.3,1.2C76.6,53.8,75.2,54.3,73.8,54.9"/>
					</g>
				</g>
				<g enable-background="new    ">
					<defs>
						<path id="SVGID_17_" enable-background="new    " d="M57.2,96.6L55,95.4c-0.8-0.4-1.5-0.9-2.2-1.5c-3.2-2.9-4.3-6.8-4.5-11.3
							c-0.2-4.7-0.2-18.7,0-23.5c0.2-4.6,1.2-8.8,4.5-12.6c3.3-3.8,7.2-5.4,11.6-6.2c2.3-0.5,6.9-1.2,11.4-1.8
							c4.6-0.6,9.1-1.2,11.4-1.4c3.5-0.3,6.7-0.1,9.4,1.4l2.3,1.2c-2.8-1.5-5.9-1.7-9.4-1.4c-2.3,0.2-6.9,0.8-11.4,1.4
							c-4.6,0.6-9.1,1.4-11.4,1.8c-4.4,0.8-8.4,2.4-11.6,6.2c-3.3,3.8-4.3,8-4.5,12.6c-0.3,4.7-0.3,18.8,0,23.5
							c0.2,4.5,1.2,8.4,4.5,11.3C55.8,95.7,56.5,96.2,57.2,96.6z"/>
					</defs>
					<clipPath id="SVGID_18_">
						<use xlink:href="#SVGID_17_"  overflow="visible"/>
					</clipPath>
					<g clip-path="url(#SVGID_18_)" enable-background="new    ">
						<path fill="#846B59" d="M57.2,96.6L55,95.4c-0.8-0.4-1.5-0.9-2.2-1.5c-3.2-2.9-4.3-6.8-4.5-11.3c-0.2-4.7-0.2-18.7,0-23.5
							c0.1-2.5,0.5-4.9,1.3-7.2l2.3,1.2c-0.8,2.3-1.2,4.7-1.3,7.2c-0.3,4.7-0.3,18.8,0,23.5c0.2,4.5,1.2,8.4,4.5,11.3
							C55.8,95.7,56.5,96.2,57.2,96.6"/>
						<path fill="#896F5C" d="M52,53.1l-2.3-1.2c0.3-0.8,0.6-1.5,1-2.2l2.3,1.2C52.6,51.6,52.2,52.4,52,53.1"/>
						<path fill="#8E7360" d="M53,50.9l-2.3-1.2c0.3-0.6,0.7-1.2,1.1-1.7l2.3,1.2C53.6,49.8,53.3,50.3,53,50.9"/>
						<path fill="#937763" d="M54,49.2L51.7,48c0.3-0.5,0.7-1,1.1-1.4c0-0.1,0.1-0.1,0.1-0.2l2.3,1.2c0,0.1-0.1,0.1-0.1,0.2
							C54.7,48.2,54.4,48.7,54,49.2"/>
						<path fill="#987C67" d="M55.3,47.6L53,46.4c0.5-0.5,1-1,1.5-1.5l2.3,1.2C56.3,46.6,55.8,47.1,55.3,47.6"/>
						<path fill="#9D806A" d="M56.8,46.1l-2.3-1.2c0.5-0.5,1.1-0.9,1.7-1.3l2.3,1.2C57.9,45.2,57.3,45.6,56.8,46.1"/>
						<path fill="#A3846D" d="M58.4,44.8l-2.3-1.2c0.8-0.6,1.6-1,2.5-1.4l2.3,1.2C60.1,43.8,59.2,44.2,58.4,44.8"/>
						<path fill="#A88871" d="M60.9,43.4l-2.3-1.2c1.8-0.9,3.8-1.4,5.8-1.8c2.3-0.5,6.9-1.2,11.4-1.8c4.6-0.6,9.1-1.2,11.4-1.4
							c2.4-0.2,4.6-0.2,6.7,0.4l2.3,1.2c-2.1-0.5-4.3-0.6-6.7-0.4c-2.3,0.2-6.9,0.8-11.4,1.4c-4.6,0.6-9.1,1.4-11.4,1.8
							C64.7,41.9,62.8,42.5,60.9,43.4"/>
						<path fill="#A3846D" d="M96.3,38.7l-2.3-1.2c0.8,0.2,1.6,0.5,2.3,0.8l2.3,1.2C97.9,39.2,97.1,38.9,96.3,38.7"/>
						<path fill="#9D806A" d="M98.6,39.5l-2.3-1.2c0.1,0.1,0.3,0.1,0.4,0.2l2.3,1.2C98.9,39.7,98.8,39.6,98.6,39.5"/>
					</g>
				</g>
				<g>
					<path fill="#DEB495" d="M105.7,52.6c0.3,4.7,0.2,18.7,0,23.5c-0.2,4.6-1.2,8.8-4.5,12.5c-3.3,3.8-7.2,5.4-11.6,6.2
						c-2.3,0.5-6.9,1.2-11.4,1.8c-4.6,0.6-9.1,1.2-11.4,1.4c-4.4,0.4-8.4-0.1-11.6-3c-3.2-2.9-4.3-6.8-4.5-11.3
						c-0.2-4.7-0.2-18.7,0-23.5c0.2-4.6,1.2-8.8,4.5-12.6c3.3-3.8,7.2-5.4,11.6-6.2c2.3-0.5,6.9-1.2,11.4-1.8
						c4.6-0.6,9.1-1.2,11.4-1.4c4.4-0.4,8.4,0.1,11.6,3C104.5,44.2,105.5,48.1,105.7,52.6z M99.7,81.9c1.4-3.9,1.1-12.8,1.1-16.9
						c0-4.1,0.4-13.1-1.1-16.6c-1-2.4-2.8-4-5.3-4.7c-2.5-0.7-7.4-0.1-11.6,0.4c-1.8,0.3-3.5,0.5-4.8,0.7c-1.3,0.2-3,0.4-4.8,0.6
						c-4.1,0.6-9,1.4-11.5,2.8c-2.4,1.3-4.3,3.5-5.3,6.1c-1.4,3.9-1.1,12.8-1.1,16.9c0,4.1-0.4,13.1,1.1,16.6c1,2.4,2.8,4,5.3,4.7
						c2.5,0.7,7.4,0.1,11.6-0.5c1.8-0.3,3.5-0.5,4.8-0.7c1.3-0.2,3-0.4,4.9-0.7c4.1-0.6,8.9-1.4,11.4-2.8
						C96.9,86.7,98.7,84.5,99.7,81.9"/>
				</g>
				<g>
					<path fill="#DEB495" d="M93,47.5c1.8-0.3,3.3,1.1,3.3,2.9c0,1.9-1.5,3.6-3.3,3.9c-1.8,0.3-3.3-1.1-3.3-2.9
						C89.6,49.5,91.1,47.8,93,47.5z"/>
				</g>
				<g>
					<path fill="#DEB495" d="M78.2,53.6c7.9-1.1,14.2,4.5,14.2,12.6c0,8.1-6.4,15.5-14.2,16.6c-7.9,1.1-14.2-4.5-14.2-12.6
						S70.3,54.7,78.2,53.6z M78.1,77.7c5.1-0.7,9.2-5.6,9.3-10.8c0-5.2-4.1-8.9-9.2-8.2s-9.2,5.6-9.3,10.8
						C68.9,74.7,73.1,78.4,78.1,77.7"/>
				</g>
			</g>
		</g>
	</g>
</g>
</svg>
