<?xml version="1.0" encoding="utf-8"?>
<!-- Generator: Adobe Illustrator 18.0.0, SVG Export Plug-In . SVG Version: 6.00 Build 0)  -->
<!DOCTYPE svg PUBLIC "-//W3C//DTD SVG 1.1//EN" "http://www.w3.org/Graphics/SVG/1.1/DTD/svg11.dtd">
<svg version="1.1" id="Layer_1" xmlns="http://www.w3.org/2000/svg" xmlns:xlink="http://www.w3.org/1999/xlink" x="0px" y="0px"
	 viewBox="0 0 102.8 97.1" enable-background="new 0 0 102.8 97.1" xml:space="preserve">
<g>
	<ellipse fill="#EAEAEA" cx="51.4" cy="48.8" rx="51.4" ry="48.6"/>
	<ellipse opacity="0.49" fill="#FECEAB" cx="52.2" cy="81.6" rx="18.6" ry="2.5"/>
	<g>
		<g>
			<g enable-background="new    ">
				<g enable-background="new    ">
					<defs>
						<path id="SVGID_1_" enable-background="new    " d="M63.6,27.5l1.6,0.9c1.1,0.6,2,1.6,2.5,2.9c1,2.5,0.8,9,0.8,11.9
							c0,3,0.2,9.3-0.8,12.2l-1.6-0.9c1-2.8,0.8-9.2,0.8-12.2c0-3,0.3-9.4-0.8-11.9C65.6,29.1,64.7,28.1,63.6,27.5z"/>
					</defs>
					<clipPath id="SVGID_2_">
						<use xlink:href="#SVGID_1_"  overflow="visible"/>
					</clipPath>
					<g clip-path="url(#SVGID_2_)" enable-background="new    ">
						<polyline fill="#88786F" points="67.7,55.3 66.1,54.4 66.1,54.4 67.7,55.3 67.7,55.3 						"/>
						<path fill="#83746B" d="M67.7,55.3l-1.6-0.9c1-2.8,0.8-9.2,0.8-12.1c0-3,0.3-9.4-0.8-11.9c-0.5-1.3-1.4-2.2-2.5-2.9l1.6,0.9
							c1.1,0.6,2,1.6,2.5,2.9c1,2.5,0.8,9,0.8,11.9C68.5,46.1,68.8,52.5,67.7,55.3"/>
					</g>
				</g>
				<g enable-background="new    ">
					<defs>
						<path id="SVGID_3_" enable-background="new    " d="M62.6,30l1.6,0.9c-0.4-0.2-0.8-0.3-1.3-0.2l-1.6-0.9
							C61.7,29.7,62.2,29.8,62.6,30z"/>
					</defs>
					<clipPath id="SVGID_4_">
						<use xlink:href="#SVGID_3_"  overflow="visible"/>
					</clipPath>
					<g clip-path="url(#SVGID_4_)" enable-background="new    ">
						<path fill="#A69387" d="M62.9,30.6l-1.6-0.9c0.3,0,0.6,0,0.9,0l1.6,0.9C63.5,30.6,63.2,30.6,62.9,30.6"/>
						<path fill="#A18F83" d="M63.8,30.7l-1.6-0.9c0.1,0,0.3,0.1,0.4,0.1l1.6,0.9C64,30.8,63.9,30.7,63.8,30.7"/>
						<path fill="#9C8A7F" d="M64.1,30.8l-1.6-0.9c0,0,0,0,0.1,0L64.1,30.8C64.2,30.8,64.2,30.8,64.1,30.8"/>
					</g>
				</g>
				<g enable-background="new    ">
					<defs>
						<path id="SVGID_5_" enable-background="new    " d="M61.6,35.3l-1.6-0.9c-0.6-0.3-1.1-1-1.1-1.9c0-1.3,1.1-2.6,2.4-2.8
							l1.6,0.9c-1.3,0.2-2.4,1.4-2.4,2.8C60.5,34.2,60.9,34.9,61.6,35.3z"/>
					</defs>
					<clipPath id="SVGID_6_">
						<use xlink:href="#SVGID_5_"  overflow="visible"/>
					</clipPath>
					<g clip-path="url(#SVGID_6_)" enable-background="new    ">
						<path fill="#83746B" d="M61.6,35.3l-1.6-0.9c-0.6-0.3-1.1-1-1.1-1.9c0-0.3,0.1-0.6,0.2-0.9l1.6,0.9c-0.1,0.3-0.2,0.6-0.2,0.9
							C60.5,34.2,60.9,34.9,61.6,35.3"/>
						<path fill="#88786F" d="M60.7,32.5L59,31.6c0-0.1,0.1-0.3,0.2-0.4l1.6,0.9C60.8,32.2,60.7,32.4,60.7,32.5"/>
						<path fill="#8D7D73" d="M60.8,32.1l-1.6-0.9c0.1-0.1,0.1-0.2,0.2-0.3l1.6,0.9C60.9,31.9,60.9,32,60.8,32.1"/>
						<path fill="#928177" d="M61,31.8l-1.6-0.9c0.1-0.1,0.1-0.2,0.2-0.3l1.6,0.9C61.2,31.6,61.1,31.7,61,31.8"/>
						<path fill="#97867B" d="M61.2,31.5l-1.6-0.9c0.1-0.1,0.2-0.2,0.2-0.2l1.6,0.9C61.4,31.4,61.3,31.5,61.2,31.5"/>
						<path fill="#9C8A7F" d="M61.5,31.3l-1.6-0.9c0.1-0.1,0.2-0.2,0.3-0.2l1.6,0.9C61.7,31.1,61.6,31.2,61.5,31.3"/>
						<path fill="#A18F83" d="M61.8,31.1l-1.6-0.9c0.1-0.1,0.3-0.2,0.4-0.2l1.6,0.9C62,30.9,61.9,31,61.8,31.1"/>
						<path fill="#A69387" d="M62.2,30.8L60.5,30c0.2-0.1,0.5-0.2,0.7-0.2l1.6,0.9C62.6,30.7,62.4,30.7,62.2,30.8"/>
					</g>
				</g>
				<g enable-background="new    ">
					<defs>
						<path id="SVGID_7_" enable-background="new    " d="M54.3,38.4l1.6,0.9c1.8,1,3,2.9,3,5.2c0,3.8-3,7.2-6.6,7.7l-1.6-0.9
							c3.6-0.5,6.6-4,6.6-7.7C57.2,41.3,56.1,39.4,54.3,38.4z"/>
					</defs>
					<clipPath id="SVGID_8_">
						<use xlink:href="#SVGID_7_"  overflow="visible"/>
					</clipPath>
					<g clip-path="url(#SVGID_8_)" enable-background="new    ">
						<path fill="#A69387" d="M52.2,52.3l-1.6-0.9c0.7-0.1,1.4-0.3,2-0.6l1.6,0.9C53.6,52,52.9,52.2,52.2,52.3"/>
						<path fill="#A18F83" d="M54.3,51.7l-1.6-0.9c0.4-0.2,0.8-0.4,1.1-0.6l1.6,0.9C55,51.3,54.6,51.5,54.3,51.7"/>
						<path fill="#9C8A7F" d="M55.4,51l-1.6-0.9c0.3-0.2,0.6-0.4,0.8-0.6l1.6,0.9C55.9,50.6,55.6,50.8,55.4,51"/>
						<path fill="#97867B" d="M56.2,50.4l-1.6-0.9c0.2-0.2,0.5-0.4,0.7-0.7l1.6,0.9C56.6,49.9,56.4,50.2,56.2,50.4"/>
						<path fill="#928177" d="M56.8,49.7l-1.6-0.9c0.2-0.2,0.4-0.5,0.6-0.7l1.6,0.9C57.2,49.2,57.1,49.5,56.8,49.7"/>
						<path fill="#8D7D73" d="M57.4,49l-1.6-0.9c0.2-0.3,0.4-0.5,0.5-0.8l1.6,0.9C57.8,48.4,57.6,48.7,57.4,49"/>
						<path fill="#88786F" d="M57.9,48.1l-1.6-0.9c0.2-0.3,0.3-0.7,0.5-1l1.6,0.9C58.3,47.4,58.1,47.8,57.9,48.1"/>
						<path fill="#83746B" d="M58.4,47.1l-1.6-0.9c0.3-0.8,0.5-1.7,0.5-2.6c0-2.4-1.2-4.3-3-5.2l1.6,0.9c1.8,1,3,2.9,3,5.2
							C58.9,45.4,58.7,46.3,58.4,47.1"/>
					</g>
				</g>
				<g enable-background="new    ">
					<defs>
						<path id="SVGID_9_" enable-background="new    " d="M48.6,51.6l-1.6-0.9c1.1,0.6,2.3,0.8,3.7,0.6l1.6,0.9
							C50.9,52.5,49.6,52.2,48.6,51.6z"/>
					</defs>
					<clipPath id="SVGID_10_">
						<use xlink:href="#SVGID_9_"  overflow="visible"/>
					</clipPath>
					<g clip-path="url(#SVGID_10_)" enable-background="new    ">
						<path fill="#9C8A7F" d="M48.6,51.6l-1.6-0.9c0.1,0,0.1,0.1,0.2,0.1l1.6,0.9C48.7,51.7,48.6,51.7,48.6,51.6"/>
						<path fill="#A18F83" d="M48.8,51.8l-1.6-0.9c0.3,0.2,0.7,0.3,1.1,0.4l1.6,0.9C49.5,52.1,49.1,51.9,48.8,51.8"/>
						<path fill="#A69387" d="M49.8,52.1l-1.6-0.9c0.7,0.2,1.5,0.2,2.4,0.1l1.6,0.9C51.4,52.4,50.6,52.3,49.8,52.1"/>
					</g>
				</g>
				<g enable-background="new    ">
					<defs>
						<path id="SVGID_11_" enable-background="new    " d="M39.2,62.5l-1.6-0.9c0.4,0.2,0.8,0.4,1.2,0.5c1.8,0.5,5.4,0.1,8.3-0.3
							c1.3-0.2,2.5-0.4,3.4-0.5c0.9-0.1,2.1-0.3,3.5-0.5c3-0.4,6.4-1,8.3-2c1.8-1,3.1-2.5,3.8-4.4l1.6,0.9c-0.7,1.9-2,3.4-3.8,4.4
							c-1.8,1-5.3,1.6-8.3,2c-1.3,0.2-2.6,0.3-3.5,0.5c-0.9,0.1-2.1,0.3-3.4,0.5c-3,0.4-6.5,0.8-8.3,0.3
							C40,62.9,39.6,62.8,39.2,62.5z"/>
					</defs>
					<clipPath id="SVGID_12_">
						<use xlink:href="#SVGID_11_"  overflow="visible"/>
					</clipPath>
					<g clip-path="url(#SVGID_12_)" enable-background="new    ">
						<path fill="#9C8A7F" d="M39.2,62.5l-1.6-0.9c0.1,0,0.1,0.1,0.2,0.1l1.6,0.9C39.4,62.6,39.3,62.6,39.2,62.5"/>
						<path fill="#A18F83" d="M39.4,62.6l-1.6-0.9c0.3,0.2,0.7,0.3,1,0.4c0,0,0,0,0,0l1.6,0.9c0,0,0,0,0,0
							C40.1,62.9,39.8,62.8,39.4,62.6"/>
						<path fill="#A69387" d="M40.5,63l-1.6-0.9c1.8,0.5,5.3,0.1,8.3-0.3c1.3-0.2,2.5-0.4,3.4-0.5c0.9-0.1,2.1-0.3,3.5-0.5
							c2.8-0.4,6-0.9,7.9-1.8l1.6,0.9c-1.9,0.9-5.1,1.4-7.9,1.8c-1.3,0.2-2.6,0.3-3.5,0.5c-0.9,0.1-2.1,0.3-3.4,0.5
							C45.8,63.1,42.3,63.5,40.5,63"/>
						<path fill="#A18F83" d="M63.6,59.9L62,59c0.1-0.1,0.2-0.1,0.3-0.2c0.2-0.1,0.5-0.3,0.7-0.4l1.6,0.9c-0.2,0.2-0.5,0.3-0.7,0.4
							C63.8,59.8,63.7,59.9,63.6,59.9"/>
						<path fill="#9C8A7F" d="M64.6,59.3L63,58.4c0.3-0.2,0.6-0.4,0.8-0.7l1.6,0.9C65.2,58.9,64.9,59.1,64.6,59.3"/>
						<path fill="#97867B" d="M65.5,58.6l-1.6-0.9c0.2-0.2,0.5-0.4,0.7-0.7l1.6,0.9C65.9,58.2,65.7,58.4,65.5,58.6"/>
						<path fill="#928177" d="M66.2,58l-1.6-0.9c0.2-0.2,0.4-0.5,0.6-0.7l1.6,0.9C66.5,57.5,66.4,57.7,66.2,58"/>
						<path fill="#8D7D73" d="M66.7,57.2l-1.6-0.9c0.2-0.3,0.4-0.5,0.5-0.8l1.6,0.9C67.1,56.7,66.9,57,66.7,57.2"/>
						<path fill="#88786F" d="M67.2,56.4l-1.6-0.9c0.2-0.3,0.3-0.7,0.5-1.1l1.6,0.9C67.6,55.7,67.4,56.1,67.2,56.4"/>
						<polyline fill="#83746B" points="67.7,55.3 66.1,54.4 66.1,54.4 67.7,55.3 67.7,55.3 						"/>
					</g>
				</g>
				<g enable-background="new    ">
					<defs>
						<path id="SVGID_13_" enable-background="new    " d="M56.3,35.1l1.6,0.9c-1.6-0.9-3.6-1.2-5.7-1l-1.6-0.9
							C52.7,33.8,54.7,34.2,56.3,35.1z"/>
					</defs>
					<clipPath id="SVGID_14_">
						<use xlink:href="#SVGID_13_"  overflow="visible"/>
					</clipPath>
					<g clip-path="url(#SVGID_14_)" enable-background="new    ">
						<path fill="#A69387" d="M52.3,35l-1.6-0.9c1.3-0.2,2.6-0.1,3.7,0.2l1.6,0.9C54.8,34.9,53.6,34.8,52.3,35"/>
						<path fill="#A18F83" d="M56,35.2l-1.6-0.9c0.6,0.1,1.1,0.4,1.7,0.6l1.6,0.9C57.1,35.5,56.5,35.3,56,35.2"/>
						<path fill="#9C8A7F" d="M57.6,35.8L56,34.9c0.1,0.1,0.2,0.1,0.3,0.2l1.6,0.9C57.8,35.9,57.7,35.8,57.6,35.8"/>
					</g>
				</g>
				<g enable-background="new    ">
					<defs>
						<path id="SVGID_15_" enable-background="new    " d="M46.6,55l-1.6-0.9c-2.7-1.5-4.5-4.4-4.5-8.1c0-5.8,4.6-11.1,10.2-11.9
							l1.6,0.9C46.6,35.8,42,41.1,42,46.9C42,50.5,43.8,53.5,46.6,55z"/>
					</defs>
					<clipPath id="SVGID_16_">
						<use xlink:href="#SVGID_15_"  overflow="visible"/>
					</clipPath>
					<g clip-path="url(#SVGID_16_)" enable-background="new    ">
						<path fill="#83746B" d="M46.6,55l-1.6-0.9c-2.7-1.5-4.5-4.4-4.5-8.1c0-1.4,0.3-2.7,0.7-3.9l1.6,0.9c-0.5,1.3-0.7,2.6-0.7,3.9
							C42,50.5,43.8,53.5,46.6,55"/>
						<path fill="#88786F" d="M42.8,42.9l-1.6-0.9c0.2-0.6,0.4-1.1,0.7-1.6l1.6,0.9C43.2,41.9,43,42.4,42.8,42.9"/>
						<path fill="#8D7D73" d="M43.5,41.3l-1.6-0.9c0.2-0.4,0.5-0.9,0.8-1.3l1.6,0.9C44,40.5,43.7,40.9,43.5,41.3"/>
						<path fill="#928177" d="M44.3,40.1l-1.6-0.9c0.3-0.4,0.6-0.8,0.9-1.1l1.6,0.9C44.8,39.3,44.5,39.7,44.3,40.1"/>
						<path fill="#97867B" d="M45.2,38.9L43.5,38c0.3-0.4,0.7-0.7,1-1l1.6,0.9C45.8,38.2,45.5,38.6,45.2,38.9"/>
						<path fill="#9C8A7F" d="M46.2,37.9L44.5,37c0.4-0.4,0.8-0.7,1.2-1l1.6,0.9C47,37.2,46.6,37.5,46.2,37.9"/>
						<path fill="#A18F83" d="M47.4,36.9L45.8,36c0.5-0.4,1.1-0.7,1.7-1l1.6,0.9C48.5,36.2,48,36.5,47.4,36.9"/>
						<path fill="#A69387" d="M49.1,35.9L47.5,35c1-0.5,2-0.8,3.1-0.9l1.6,0.9C51.2,35.1,50.1,35.5,49.1,35.9"/>
					</g>
				</g>
				<g>
					<path fill="#DCC3B3" d="M52.3,35c5.6-0.8,10.2,3.2,10.2,9c0,5.8-4.6,11.1-10.2,11.9c-5.6,0.8-10.2-3.2-10.2-9
						C42,41.1,46.6,35.8,52.3,35z M52.2,52.3c3.6-0.5,6.6-4,6.6-7.7c0-3.8-3-6.4-6.6-5.9c-3.7,0.5-6.6,4-6.6,7.7
						C45.6,50.2,48.6,52.8,52.2,52.3"/>
				</g>
				<g>
					<path fill="#DCC3B3" d="M72,34.3c0.2,3.3,0.2,13.5,0,16.9c-0.2,3.3-0.9,6.3-3.2,9c-2.3,2.7-5.2,3.9-8.3,4.5
						c-1.6,0.3-4.9,0.8-8.2,1.3c-3.3,0.5-6.6,0.9-8.2,1c-3.2,0.3-6-0.1-8.3-2.1c-2.3-2.1-3.1-4.9-3.2-8.1c-0.2-3.3-0.2-13.5,0-16.9
						c0.2-3.3,0.9-6.3,3.2-9c2.3-2.7,5.2-3.9,8.3-4.5c1.6-0.3,4.9-0.8,8.2-1.3c3.3-0.5,6.6-0.9,8.2-1c3.2-0.3,6,0.1,8.3,2.1
						C71.2,28.2,71.9,31,72,34.3z M67.7,55.3c1-2.8,0.8-9.2,0.8-12.2c0-3,0.3-9.4-0.8-11.9c-0.7-1.7-2-2.9-3.8-3.4
						c-1.8-0.5-5.4-0.1-8.3,0.3c-1.3,0.2-2.5,0.4-3.4,0.5c-0.9,0.1-2.1,0.3-3.5,0.5c-3,0.4-6.5,1-8.3,2c-1.7,1-3.1,2.5-3.8,4.4
						c-1,2.8-0.8,9.2-0.8,12.2c0,3-0.3,9.4,0.8,11.9c0.7,1.7,2,2.9,3.8,3.4c1.8,0.5,5.4,0.1,8.3-0.3c1.3-0.2,2.5-0.4,3.4-0.5
						c0.9-0.1,2.1-0.3,3.5-0.5c3-0.4,6.4-1,8.3-2C65.7,58.8,67,57.2,67.7,55.3"/>
				</g>
				<g>
					<path fill="#DCC3B3" d="M62.9,30.6c1.3-0.2,2.4,0.8,2.4,2.1c0,1.4-1.1,2.6-2.4,2.8c-1.3,0.2-2.4-0.8-2.4-2.1
						S61.6,30.8,62.9,30.6z"/>
				</g>
				<g enable-background="new    ">
					<defs>
						<path id="SVGID_17_" enable-background="new    " d="M37.2,65.9L35.6,65c-0.5-0.3-1.1-0.7-1.6-1.1c-2.3-2.1-3.1-4.9-3.2-8.1
							c-0.2-3.3-0.2-13.5,0-16.9c0.2-3.3,0.9-6.3,3.2-9c2.3-2.7,5.2-3.9,8.3-4.5c1.6-0.3,4.9-0.8,8.2-1.3c3.3-0.5,6.6-0.9,8.2-1
							c2.5-0.2,4.8-0.1,6.8,1l1.6,0.9c-2-1.1-4.3-1.3-6.8-1c-1.6,0.1-4.9,0.5-8.2,1c-3.3,0.5-6.6,1-8.2,1.3c-3.2,0.6-6,1.7-8.3,4.5
							c-2.3,2.7-3.1,5.7-3.2,9c-0.2,3.4-0.2,13.5,0,16.9c0.1,3.2,0.9,6,3.2,8.1C36.2,65.2,36.7,65.6,37.2,65.9z"/>
					</defs>
					<clipPath id="SVGID_18_">
						<use xlink:href="#SVGID_17_"  overflow="visible"/>
					</clipPath>
					<g clip-path="url(#SVGID_18_)" enable-background="new    ">
						<path fill="#83746B" d="M37.2,65.9L35.6,65c-0.5-0.3-1.1-0.7-1.6-1.1c-2.3-2.1-3.1-4.9-3.2-8.1c-0.2-3.3-0.2-13.5,0-16.9
							c0.1-1.8,0.3-3.5,0.9-5.1l1.6,0.9c-0.6,1.6-0.9,3.3-0.9,5.1c-0.2,3.4-0.2,13.5,0,16.9c0.1,3.2,0.9,6,3.2,8.1
							C36.2,65.2,36.7,65.6,37.2,65.9"/>
						<path fill="#88786F" d="M33.4,34.7l-1.6-0.9c0.2-0.5,0.4-1.1,0.7-1.6l1.6,0.9C33.9,33.6,33.6,34.1,33.4,34.7"/>
						<path fill="#8D7D73" d="M34.2,33.1l-1.6-0.9c0.2-0.4,0.5-0.8,0.8-1.2l1.6,0.9C34.6,32.2,34.4,32.6,34.2,33.1"/>
						<path fill="#928177" d="M34.9,31.8l-1.6-0.9c0.2-0.3,0.5-0.7,0.8-1c0,0,0.1-0.1,0.1-0.1l1.6,0.9c0,0-0.1,0.1-0.1,0.1
							C35.4,31.1,35.2,31.5,34.9,31.8"/>
						<path fill="#97867B" d="M35.8,30.7l-1.6-0.9c0.3-0.4,0.7-0.7,1-1.1l1.6,0.9C36.5,29.9,36.2,30.3,35.8,30.7"/>
						<path fill="#9C8A7F" d="M36.9,29.6l-1.6-0.9c0.4-0.4,0.8-0.7,1.2-1l1.6,0.9C37.7,28.9,37.3,29.3,36.9,29.6"/>
						<path fill="#A18F83" d="M38.1,28.6l-1.6-0.9c0.6-0.4,1.2-0.7,1.8-1l1.6,0.9C39.3,27.9,38.7,28.2,38.1,28.6"/>
						<path fill="#A69387" d="M39.9,27.6l-1.6-0.9c1.3-0.6,2.7-1,4.2-1.3c1.6-0.3,4.9-0.8,8.2-1.3c3.3-0.5,6.6-0.9,8.2-1
							c1.7-0.2,3.3-0.1,4.8,0.3l1.6,0.9c-1.5-0.4-3.1-0.4-4.8-0.3c-1.6,0.1-4.9,0.5-8.2,1c-3.3,0.5-6.6,1-8.2,1.3
							C42.6,26.6,41.2,27,39.9,27.6"/>
						<path fill="#A18F83" d="M65.3,24.3l-1.6-0.9c0.6,0.1,1.1,0.3,1.7,0.6l1.6,0.9C66.4,24.6,65.9,24.4,65.3,24.3"/>
						<path fill="#9C8A7F" d="M67,24.9L65.3,24c0.1,0,0.2,0.1,0.3,0.2l1.6,0.9C67.2,25,67.1,24.9,67,24.9"/>
					</g>
				</g>
			</g>
		</g>
	</g>
</g>
</svg>
