<?xml version="1.0" encoding="utf-8"?>
<!-- Generator: Adobe Illustrator 18.0.0, SVG Export Plug-In . SVG Version: 6.00 Build 0)  -->
<!DOCTYPE svg PUBLIC "-//W3C//DTD SVG 1.1//EN" "http://www.w3.org/Graphics/SVG/1.1/DTD/svg11.dtd">
<svg version="1.1" id="Layer_1" xmlns="http://www.w3.org/2000/svg" xmlns:xlink="http://www.w3.org/1999/xlink" x="0px" y="0px"
	 viewBox="0 0 102.8 97.1" enable-background="new 0 0 102.8 97.1" xml:space="preserve">
<g>
	<ellipse fill="#F0F0F0" cx="51.4" cy="48.6" rx="51.4" ry="48.6"/>
	<ellipse opacity="0.49" fill="#727A6F" cx="52.2" cy="81.3" rx="18.6" ry="2.5"/>
	<g>
		<g>
			<g enable-background="new    ">
				<g enable-background="new    ">
					<defs>
						<path id="SVGID_1_" enable-background="new    " d="M67.3,51.1l-1.6-0.9c0.9,0.5,1.9,0.8,3.1,0.8c0.1,0,0.2,0,0.3,0.1l1.6,0.9
							c-0.1,0-0.2-0.1-0.3-0.1C69.2,51.9,68.2,51.6,67.3,51.1z"/>
					</defs>
					<clipPath id="SVGID_2_">
						<use xlink:href="#SVGID_1_"  overflow="visible"/>
					</clipPath>
					<g clip-path="url(#SVGID_2_)" enable-background="new    ">
						<path fill="#5A6157" d="M67.3,51.1l-1.6-0.9c0.1,0,0.2,0.1,0.3,0.1l1.6,0.9C67.5,51.2,67.4,51.2,67.3,51.1"/>
						<path fill="#5D645A" d="M67.6,51.3l-1.6-0.9c0.4,0.2,0.8,0.4,1.3,0.5l1.6,0.9C68.4,51.6,68,51.5,67.6,51.3"/>
						<path fill="#60675D" d="M68.9,51.8l-1.6-0.9c0.5,0.1,1,0.2,1.5,0.2c0,0,0.1,0,0.1,0l1.6,0.9c0,0-0.1,0-0.1,0
							C69.8,52,69.4,51.9,68.9,51.8"/>
						<path fill="#5D645A" d="M70.5,52l-1.6-0.9c0,0,0.1,0,0.1,0l1.6,0.9C70.6,52,70.5,52,70.5,52"/>
						<path fill="#5A6157" d="M70.6,52L69,51.2c0,0,0,0,0,0L70.6,52C70.6,52.1,70.6,52,70.6,52"/>
					</g>
				</g>
				<g enable-background="new    ">
					<defs>
						<path id="SVGID_3_" enable-background="new    " d="M65.1,39.1l1.6,0.9c-0.1-0.1-0.3-0.1-0.4-0.2l-1.6-0.9
							C64.8,39,64.9,39,65.1,39.1z"/>
					</defs>
					<clipPath id="SVGID_4_">
						<use xlink:href="#SVGID_3_"  overflow="visible"/>
					</clipPath>
					<g clip-path="url(#SVGID_4_)" enable-background="new    ">
						<path fill="#60675D" d="M66.3,39.8l-1.6-0.9c0,0,0,0,0,0L66.3,39.8C66.3,39.8,66.3,39.8,66.3,39.8"/>
						<path fill="#5D645A" d="M66.3,39.8L64.7,39c0.1,0,0.2,0.1,0.4,0.1l1.6,0.9C66.5,39.9,66.4,39.9,66.3,39.8"/>
						<path fill="#5A6157" d="M66.6,40L65,39.1c0,0,0,0,0.1,0L66.6,40C66.7,40,66.7,40,66.6,40"/>
					</g>
				</g>
				<g enable-background="new    ">
					<defs>
						<path id="SVGID_5_" enable-background="new    " d="M63.3,40.7l-1.6-0.9c0.4-0.1,1-0.3,1.5-0.7c0.2-0.1,0.4-0.2,0.7-0.2
							c0.3,0,0.5,0,0.8,0.1l1.6,0.9c-0.2-0.1-0.5-0.1-0.8-0.1c-0.2,0-0.5,0.1-0.7,0.2C64.3,40.4,63.7,40.6,63.3,40.7z"/>
					</defs>
					<clipPath id="SVGID_6_">
						<use xlink:href="#SVGID_5_"  overflow="visible"/>
					</clipPath>
					<g clip-path="url(#SVGID_6_)" enable-background="new    ">
						<path fill="#60675D" d="M63.3,40.7l-1.6-0.9c0.2,0,0.5-0.1,0.8-0.3l1.6,0.9C63.8,40.6,63.5,40.7,63.3,40.7"/>
						<path fill="#5D645A" d="M64.1,40.5l-1.6-0.9c0.2-0.1,0.5-0.3,0.7-0.4c0.1,0,0.1-0.1,0.2-0.1l1.6,0.9c-0.1,0-0.1,0.1-0.2,0.1
							C64.6,40.2,64.3,40.3,64.1,40.5"/>
						<path fill="#60675D" d="M65,39.9L63.4,39c0.2-0.1,0.3-0.1,0.5-0.2c0.2,0,0.5,0,0.7,0l1.6,0.9c-0.2-0.1-0.5-0.1-0.7,0
							C65.3,39.8,65.2,39.9,65,39.9"/>
						<path fill="#5D645A" d="M66.2,39.8l-1.6-0.9c0,0,0,0,0.1,0L66.2,39.8C66.3,39.8,66.2,39.8,66.2,39.8"/>
					</g>
				</g>
				<g enable-background="new    ">
					<defs>
						<path id="SVGID_7_" enable-background="new    " d="M62.7,40.6L61,39.8c0.1,0.1,0.3,0.1,0.6,0.1l1.6,0.9
							C63,40.8,62.8,40.7,62.7,40.6z"/>
					</defs>
					<clipPath id="SVGID_8_">
						<use xlink:href="#SVGID_7_"  overflow="visible"/>
					</clipPath>
					<g clip-path="url(#SVGID_8_)" enable-background="new    ">
						<path fill="#5D645A" d="M62.7,40.6L61,39.8c0,0,0.1,0,0.1,0l1.6,0.9C62.8,40.7,62.7,40.7,62.7,40.6"/>
						<path fill="#60675D" d="M62.8,40.7l-1.6-0.9c0.1,0,0.3,0,0.5,0l1.6,0.9C63.1,40.7,62.9,40.7,62.8,40.7"/>
					</g>
				</g>
				<g enable-background="new    ">
					<defs>
						<path id="SVGID_9_" enable-background="new    " d="M48.8,62.7l-1.6-0.9c-0.4-0.2-0.7-0.4-1-0.6c-0.3-0.2-0.7-0.4-0.9-0.6
							l1.6,0.9c0.3,0.2,0.6,0.3,0.9,0.6C48.1,62.3,48.5,62.5,48.8,62.7z"/>
					</defs>
					<clipPath id="SVGID_10_">
						<use xlink:href="#SVGID_9_"  overflow="visible"/>
					</clipPath>
					<g clip-path="url(#SVGID_10_)" enable-background="new    ">
						<path fill="#4B5149" d="M48.8,62.7l-1.6-0.9c-0.4-0.2-0.7-0.4-1-0.6c-0.3-0.2-0.7-0.4-0.9-0.6l1.6,0.9
							c0.3,0.2,0.6,0.3,0.9,0.6C48.1,62.3,48.5,62.5,48.8,62.7"/>
					</g>
				</g>
				<g enable-background="new    ">
					<defs>
						<path id="SVGID_11_" enable-background="new    " d="M40.7,61.8L39,60.9c-0.2-0.1-0.3-0.3-0.3-0.5c-0.2-0.7-0.3-1.6-0.5-1.8
							l1.6,0.9c0.1,0.2,0.3,1.1,0.5,1.8C40.4,61.5,40.5,61.7,40.7,61.8z"/>
					</defs>
					<clipPath id="SVGID_12_">
						<use xlink:href="#SVGID_11_"  overflow="visible"/>
					</clipPath>
					<g clip-path="url(#SVGID_12_)" enable-background="new    ">
						<path fill="#4B5149" d="M40.7,61.8L39,60.9c-0.2-0.1-0.3-0.3-0.3-0.5c-0.2-0.7-0.3-1.6-0.5-1.8l1.6,0.9
							c0.1,0.2,0.3,1.1,0.5,1.8C40.4,61.5,40.5,61.7,40.7,61.8"/>
					</g>
				</g>
				<g enable-background="new    ">
					<defs>
						<path id="SVGID_13_" enable-background="new    " d="M40.8,46.4l1.6,0.9c0.3,0.1,0.5,0.3,0.6,0.6c0.1,0.4,0.1,0.8-0.2,1.5
							l-1.6-0.9c0.3-0.6,0.3-1.1,0.2-1.5C41.3,46.7,41.1,46.5,40.8,46.4z"/>
					</defs>
					<clipPath id="SVGID_14_">
						<use xlink:href="#SVGID_13_"  overflow="visible"/>
					</clipPath>
					<g clip-path="url(#SVGID_14_)" enable-background="new    ">
						<path fill="#4E544C" d="M42.9,49.3l-1.6-0.9c0-0.1,0.1-0.2,0.1-0.2l1.6,0.9C42.9,49.2,42.9,49.3,42.9,49.3"/>
						<path fill="#4B5149" d="M43,49.1l-1.6-0.9c0.2-0.5,0.2-0.9,0.1-1.2c-0.1-0.3-0.3-0.4-0.6-0.6l1.6,0.9c0.3,0.1,0.5,0.3,0.6,0.6
							C43.2,48.2,43.2,48.6,43,49.1"/>
					</g>
				</g>
				<g enable-background="new    ">
					<defs>
						<path id="SVGID_15_" enable-background="new    " d="M57.1,27l1.6,0.9c-1.6-0.9-3.4-1.1-5.3-0.9l-1.6-0.9
							C53.7,25.8,55.5,26.1,57.1,27z"/>
					</defs>
					<clipPath id="SVGID_16_">
						<use xlink:href="#SVGID_15_"  overflow="visible"/>
					</clipPath>
					<g clip-path="url(#SVGID_16_)" enable-background="new    ">
						<path fill="#60675D" d="M53.4,27l-1.6-0.9c1.2-0.2,2.4-0.1,3.5,0.2l1.6,0.9C55.8,26.9,54.6,26.8,53.4,27"/>
						<path fill="#5D645A" d="M56.9,27.2l-1.6-0.9c0.5,0.1,1,0.3,1.5,0.6l1.6,0.9C57.9,27.5,57.4,27.3,56.9,27.2"/>
						<path fill="#5A6157" d="M58.4,27.7l-1.6-0.9c0.1,0,0.2,0.1,0.3,0.1l1.6,0.9C58.6,27.8,58.5,27.7,58.4,27.7"/>
					</g>
				</g>
				<g>
					<polygon fill="#676E64" points="52.7,27.1 51.1,26.2 51.8,26.1 53.4,27 					"/>
				</g>
				<g enable-background="new    ">
					<defs>
						<path id="SVGID_17_" enable-background="new    " d="M35.8,58.8L34.2,58c-0.5-0.3-0.8-0.6-0.8-1.1l1.6,0.9
							C35.1,58.3,35.4,58.6,35.8,58.8z"/>
					</defs>
					<clipPath id="SVGID_18_">
						<use xlink:href="#SVGID_17_"  overflow="visible"/>
					</clipPath>
					<g clip-path="url(#SVGID_18_)" enable-background="new    ">
						<path fill="#4B5149" d="M35.8,58.8L34.2,58c-0.5-0.3-0.8-0.6-0.8-1.1l1.6,0.9C35.1,58.3,35.4,58.6,35.8,58.8"/>
					</g>
				</g>
				<g enable-background="new    ">
					<defs>
						<path id="SVGID_19_" enable-background="new    " d="M35,57.8l-1.6-0.9c0-0.4,0.2-0.8,0.6-0.9c4.9-1.6,7.1-7.3,7.2-7.5
							l1.6,0.9c-0.1,0.2-2.3,6-7.2,7.5C35.3,57,35,57.4,35,57.8z"/>
					</defs>
					<clipPath id="SVGID_20_">
						<use xlink:href="#SVGID_19_"  overflow="visible"/>
					</clipPath>
					<g clip-path="url(#SVGID_20_)" enable-background="new    ">
						<path fill="#4B5149" d="M35,57.8l-1.6-0.9c0-0.1,0-0.2,0.1-0.4l1.6,0.9C35.1,57.5,35,57.7,35,57.8"/>
						<path fill="#4E544C" d="M35.1,57.4l-1.6-0.9c0,0,0-0.1,0.1-0.1l1.6,0.9C35.1,57.3,35.1,57.4,35.1,57.4"/>
						<path fill="#51574F" d="M35.2,57.3l-1.6-0.9c0,0,0-0.1,0.1-0.1l1.6,0.9C35.2,57.2,35.2,57.3,35.2,57.3"/>
						<path fill="#545A52" d="M35.2,57.2l-1.6-0.9c0,0,0-0.1,0.1-0.1L35.2,57.2C35.3,57.1,35.2,57.2,35.2,57.2"/>
						<path fill="#575E55" d="M35.3,57.1l-1.6-0.9c0,0,0-0.1,0.1-0.1L35.3,57.1C35.3,57.1,35.3,57.1,35.3,57.1"/>
						<path fill="#5A6157" d="M35.4,57l-1.6-0.9c0,0,0.1,0,0.1-0.1L35.4,57C35.4,57,35.4,57,35.4,57"/>
						<path fill="#5D645A" d="M35.5,57l-1.6-0.9c0,0,0.1-0.1,0.1-0.1l1.6,0.9C35.5,56.9,35.5,56.9,35.5,57"/>
						<path fill="#60675D" d="M35.6,56.9L33.9,56c0,0,0.1,0,0.1,0c0.4-0.1,0.7-0.2,1-0.4l1.6,0.9C36.4,56.6,36,56.7,35.6,56.9
							C35.6,56.9,35.6,56.9,35.6,56.9"/>
						<path fill="#5D645A" d="M36.7,56.5l-1.6-0.9c0.5-0.2,0.9-0.5,1.3-0.8l1.6,0.9C37.6,56,37.2,56.2,36.7,56.5"/>
						<path fill="#5A6157" d="M38,55.7l-1.6-0.9c0.4-0.3,0.7-0.6,1.1-0.9l1.6,0.9C38.8,55.1,38.4,55.4,38,55.7"/>
						<path fill="#575E55" d="M39.1,54.8l-1.6-0.9c0.4-0.3,0.7-0.7,1-1l1.6,0.9C39.8,54.2,39.5,54.5,39.1,54.8"/>
						<path fill="#545A52" d="M40.1,53.8l-1.6-0.9c0.4-0.4,0.7-0.9,1-1.3l1.6,0.9C40.8,53,40.5,53.4,40.1,53.8"/>
						<path fill="#51574F" d="M41.1,52.5l-1.6-0.9c0.4-0.6,0.8-1.2,1-1.7l1.6,0.9C41.9,51.4,41.5,51.9,41.1,52.5"/>
						<path fill="#4E544C" d="M42.1,50.9L40.5,50c0.4-0.8,0.7-1.4,0.7-1.5l1.6,0.9C42.8,49.5,42.6,50,42.1,50.9"/>
						<polyline fill="#4B5149" points="42.9,49.3 41.2,48.5 41.2,48.4 42.9,49.3 42.9,49.3 						"/>
					</g>
				</g>
				<g enable-background="new    ">
					<defs>
						<path id="SVGID_21_" enable-background="new    " d="M39.6,46.4L38,45.5c-0.8-0.5-1-1-0.9-1.5c0.1-0.8,1-1.4,1.8-1.5
							c0.2,0,0.4,0,0.6,0c0.6,0.2,1.2,0.3,1.7,0.2c0.4,0,0.6-0.2,0.7-0.3l1.6,0.9c-0.1,0.1-0.3,0.2-0.7,0.3c-0.5,0.1-1,0-1.7-0.2
							c-0.2-0.1-0.4-0.1-0.6,0c-0.7,0.1-1.6,0.8-1.8,1.5C38.7,45.3,38.8,45.9,39.6,46.4z"/>
					</defs>
					<clipPath id="SVGID_22_">
						<use xlink:href="#SVGID_21_"  overflow="visible"/>
					</clipPath>
					<g clip-path="url(#SVGID_22_)" enable-background="new    ">
						<path fill="#4B5149" d="M39.6,46.4L38,45.5c-0.8-0.5-1-1-0.9-1.5c0-0.1,0-0.2,0.1-0.2l1.6,0.9c0,0.1,0,0.2-0.1,0.2
							C38.7,45.3,38.8,45.9,39.6,46.4"/>
						<path fill="#4E544C" d="M38.8,44.6l-1.6-0.9c0-0.1,0.1-0.1,0.1-0.2l1.6,0.9C38.8,44.5,38.8,44.6,38.8,44.6"/>
						<path fill="#51574F" d="M38.9,44.4l-1.6-0.9c0-0.1,0.1-0.1,0.1-0.2l1.6,0.9C39,44.3,38.9,44.4,38.9,44.4"/>
						<path fill="#545A52" d="M39,44.3l-1.6-0.9c0-0.1,0.1-0.1,0.1-0.2l1.6,0.9C39.1,44.1,39,44.2,39,44.3"/>
						<path fill="#575E55" d="M39.1,44.1l-1.6-0.9c0.1-0.1,0.1-0.1,0.2-0.2l1.6,0.9C39.3,44,39.2,44,39.1,44.1"/>
						<path fill="#5A6157" d="M39.3,43.9L37.7,43c0.1-0.1,0.2-0.1,0.2-0.2l1.6,0.9C39.5,43.8,39.4,43.8,39.3,43.9"/>
						<path fill="#5D645A" d="M39.6,43.7l-1.6-0.9c0.1-0.1,0.2-0.1,0.3-0.2l1.6,0.9C39.8,43.6,39.7,43.6,39.6,43.7"/>
						<path fill="#60675D" d="M39.9,43.5l-1.6-0.9c0.2-0.1,0.4-0.2,0.6-0.2c0.2,0,0.3,0,0.5,0l1.6,0.9c-0.1,0-0.3,0-0.5,0
							C40.3,43.4,40.1,43.4,39.9,43.5"/>
						<path fill="#5D645A" d="M41,43.4l-1.6-0.9c0,0,0.1,0,0.1,0c0.2,0.1,0.3,0.1,0.5,0.1l1.6,0.9C41.4,43.5,41.2,43.4,41,43.4
							C41,43.4,41,43.4,41,43.4"/>
						<path fill="#60675D" d="M41.5,43.5l-1.6-0.9c0.4,0.1,0.8,0.1,1.2,0.1c0.2,0,0.4-0.1,0.5-0.1l1.6,0.9c-0.1,0.1-0.3,0.1-0.5,0.1
							C42.3,43.7,42,43.6,41.5,43.5"/>
						<path fill="#5D645A" d="M43.2,43.5l-1.6-0.9c0.1,0,0.1-0.1,0.2-0.1l1.6,0.9C43.3,43.4,43.3,43.4,43.2,43.5"/>
						<path fill="#5A6157" d="M43.4,43.4l-1.6-0.9c0,0,0,0,0,0L43.4,43.4C43.4,43.4,43.4,43.4,43.4,43.4"/>
					</g>
				</g>
				<g>
					<path fill="#7F887B" d="M53.4,27c3.7-0.5,7.2,1,8.9,4.9c0.9,2,0.5,6,0.4,8.7c0.1,0.1,0.3,0.1,0.6,0.1c0.4-0.1,1-0.3,1.5-0.7
						c0.2-0.1,0.4-0.2,0.7-0.2c0.3,0,0.5,0,0.8,0.1c0.7,0.2,1.1,0.6,1.1,1.2c0,0.7-0.6,1.5-1.8,2.2c-0.2,0.1-0.3,0.2-0.5,0.3
						c-0.7,0.3-1.7,0.8-2,1.6c-0.1,0.4-0.1,0.9,0.2,1.4c0.1,0.3,2.3,5.4,7.2,5.5c0.4,0,0.8,0.5,0.5,1.1c-0.4,1-1.9,1.9-4.7,2.7
						c-0.1,0.2-0.3,1.1-0.5,1.9c-0.1,0.4-0.4,0.7-0.9,0.8c-0.7,0.1-1.4-0.1-2.7,0.1c-1.9,0.3-2.5,0.8-4,2.1
						c-1.5,1.3-2.9,2.5-4.9,2.8c-0.1,0-0.2,0-0.3,0c-0.1,0-0.3,0.1-0.4,0.1c-2.1,0.3-3.8-0.8-4.7-1.4c-1.4-0.9-2.1-1.3-3.9-1
						c-1.3,0.2-2.2,0.7-2.7,0.7c-0.6,0.1-0.8-0.3-0.9-0.6c-0.2-0.7-0.3-1.6-0.5-1.8c-1.5,0-4.7-0.2-4.8-1.8c0-0.4,0.2-0.8,0.6-0.9
						c4.9-1.6,7.1-7.3,7.2-7.5c0.3-0.6,0.3-1.1,0.2-1.5c-0.4-0.8-1.9-1-2.5-1.1c-1.7-0.5-1.9-1.3-1.8-1.8c0.1-0.8,1-1.4,1.8-1.5
						c0.2,0,0.4,0,0.6,0c0.6,0.2,1.2,0.3,1.7,0.2c0.4,0,0.6-0.2,0.7-0.3c-0.1-2.7-0.5-6.5,0.4-8.8c2.4-6.1,7.4-7.2,8.9-7.4L53.4,27z
						"/>
				</g>
				<g enable-background="new    ">
					<defs>
						<path id="SVGID_23_" enable-background="new    " d="M43.4,43.4l-1.6-0.9c-0.1-2.7-0.5-6.5,0.4-8.8c2.4-6.1,7.4-7.2,8.9-7.4
							l1.6,0.9c-1.5,0.2-6.5,1.4-8.9,7.4C42.9,36.8,43.3,40.7,43.4,43.4z"/>
					</defs>
					<clipPath id="SVGID_24_">
						<use xlink:href="#SVGID_23_"  overflow="visible"/>
					</clipPath>
					<g clip-path="url(#SVGID_24_)" enable-background="new    ">
						<path fill="#4B5149" d="M43.4,43.4l-1.6-0.9c-0.1-2.7-0.5-6.4,0.4-8.7l1.6,0.9C42.9,36.9,43.3,40.7,43.4,43.4"/>
						<path fill="#4E544C" d="M43.8,34.6l-1.6-0.9c0,0,0-0.1,0-0.1c0.2-0.5,0.4-1.1,0.7-1.5l1.6,0.9c-0.3,0.5-0.5,1-0.7,1.5
							C43.8,34.6,43.8,34.6,43.8,34.6"/>
						<path fill="#51574F" d="M44.5,33l-1.6-0.9c0.2-0.5,0.5-0.9,0.8-1.3l1.6,0.9C45,32.1,44.8,32.5,44.5,33"/>
						<path fill="#545A52" d="M45.3,31.7l-1.6-0.9c0.3-0.4,0.5-0.7,0.8-1l1.6,0.9C45.8,31,45.6,31.4,45.3,31.7"/>
						<path fill="#575E55" d="M46.1,30.7l-1.6-0.9c0.3-0.3,0.6-0.6,0.9-0.9l1.6,0.9C46.7,30.1,46.4,30.4,46.1,30.7"/>
						<path fill="#5A6157" d="M47,29.8l-1.6-0.9c0.4-0.3,0.7-0.6,1.1-0.9l1.6,0.9C47.7,29.2,47.4,29.5,47,29.8"/>
						<path fill="#5D645A" d="M48.1,28.9L46.5,28c0.5-0.4,1.1-0.7,1.6-0.9l1.6,0.9C49.2,28.2,48.7,28.5,48.1,28.9"/>
						<path fill="#60675D" d="M49.7,28l-1.6-0.9c1.3-0.6,2.4-0.8,3-0.9l1.6,0.9C52.1,27.2,51,27.4,49.7,28"/>
					</g>
				</g>
			</g>
		</g>
	</g>
</g>
</svg>
