<?xml version="1.0" encoding="utf-8"?>
<!-- Generator: Adobe Illustrator 18.0.0, SVG Export Plug-In . SVG Version: 6.00 Build 0)  -->
<!DOCTYPE svg PUBLIC "-//W3C//DTD SVG 1.1//EN" "http://www.w3.org/Graphics/SVG/1.1/DTD/svg11.dtd">
<svg version="1.1" id="Layer_1" focusable="false" xmlns="http://www.w3.org/2000/svg" xmlns:xlink="http://www.w3.org/1999/xlink"
	 x="0px" y="0px" viewBox="-42.6 -33.7 102.8 97.1" enable-background="new -42.6 -33.7 102.8 97.1" xml:space="preserve">
<g>
	<ellipse fill="#EAEAEA" cx="9.1" cy="15.1" rx="51.4" ry="48.6"/>
	<ellipse opacity="0.49" fill="#FECEAB" cx="9.9" cy="47.9" rx="18.6" ry="2.5"/>
	<g>
		<g>
			<g enable-background="new    ">
				<g enable-background="new    ">
					<defs>
						<path id="SVGID_1_" enable-background="new    " d="M25,17.7l-1.6-0.9c0.9,0.5,1.9,0.8,3.1,0.8c0.1,0,0.2,0,0.3,0.1l1.6,0.9
							c-0.1,0-0.2-0.1-0.3-0.1C26.9,18.5,25.9,18.2,25,17.7z"/>
					</defs>
					<clipPath id="SVGID_2_">
						<use xlink:href="#SVGID_1_"  overflow="visible"/>
					</clipPath>
					<g clip-path="url(#SVGID_2_)" enable-background="new    ">
						<path fill="#9C8A7F" d="M25,17.7l-1.6-0.9c0.1,0,0.2,0.1,0.3,0.1l1.6,0.9C25.2,17.8,25.1,17.8,25,17.7"/>
						<path fill="#A18F83" d="M25.3,17.8L23.7,17c0.4,0.2,0.8,0.4,1.3,0.5l1.6,0.9C26.1,18.2,25.7,18,25.3,17.8"/>
						<path fill="#A69387" d="M26.6,18.3L25,17.4c0.5,0.1,1,0.2,1.5,0.2c0,0,0.1,0,0.1,0l1.6,0.9c0,0-0.1,0-0.1,0
							C27.6,18.5,27.1,18.5,26.6,18.3"/>
						<path fill="#A18F83" d="M28.2,18.6l-1.6-0.9c0,0,0.1,0,0.1,0l1.6,0.9C28.3,18.6,28.3,18.6,28.2,18.6"/>
						<path fill="#9C8A7F" d="M28.3,18.6l-1.6-0.9c0,0,0,0,0,0L28.3,18.6C28.4,18.6,28.4,18.6,28.3,18.6"/>
					</g>
				</g>
				<g enable-background="new    ">
					<defs>
						<path id="SVGID_3_" enable-background="new    " d="M22.8,5.7l1.6,0.9c-0.1-0.1-0.3-0.1-0.4-0.2l-1.6-0.9
							C22.5,5.6,22.7,5.6,22.8,5.7z"/>
					</defs>
					<clipPath id="SVGID_4_">
						<use xlink:href="#SVGID_3_"  overflow="visible"/>
					</clipPath>
					<g clip-path="url(#SVGID_4_)" enable-background="new    ">
						<path fill="#A69387" d="M24,6.4l-1.6-0.9c0,0,0,0,0,0L24,6.4C24,6.4,24,6.4,24,6.4"/>
						<path fill="#A18F83" d="M24,6.4l-1.6-0.9c0.1,0,0.2,0.1,0.3,0.1l1.6,0.9C24.3,6.5,24.2,6.4,24,6.4"/>
						<path fill="#9C8A7F" d="M24.4,6.5l-1.6-0.9c0,0,0,0,0.1,0L24.4,6.5C24.4,6.6,24.4,6.6,24.4,6.5"/>
					</g>
				</g>
				<g enable-background="new    ">
					<defs>
						<path id="SVGID_5_" enable-background="new    " d="M21,7.3l-1.6-0.9c0.4-0.1,1-0.3,1.6-0.7c0.2-0.1,0.4-0.2,0.7-0.2
							c0.3,0,0.5,0,0.8,0.1L24,6.4c-0.2-0.1-0.5-0.1-0.8-0.1c-0.2,0-0.5,0.1-0.7,0.2C22,7,21.5,7.2,21,7.3z"/>
					</defs>
					<clipPath id="SVGID_6_">
						<use xlink:href="#SVGID_5_"  overflow="visible"/>
					</clipPath>
					<g clip-path="url(#SVGID_6_)" enable-background="new    ">
						<path fill="#A69387" d="M21,7.3l-1.6-0.9c0.3-0.1,0.5-0.1,0.8-0.3L21.8,7C21.5,7.1,21.3,7.2,21,7.3"/>
						<path fill="#A18F83" d="M21.8,7l-1.6-0.9c0.2-0.1,0.5-0.2,0.7-0.4c0.1,0,0.1-0.1,0.2-0.1l1.6,0.9c-0.1,0-0.1,0.1-0.2,0.1
							C22.3,6.8,22.1,6.9,21.8,7"/>
						<path fill="#A69387" d="M22.7,6.5l-1.6-0.9c0.2-0.1,0.3-0.1,0.5-0.1c0.2,0,0.5,0,0.7,0l1.6,0.9c-0.2-0.1-0.5-0.1-0.7,0
							C23.1,6.4,22.9,6.4,22.7,6.5"/>
						<path fill="#A18F83" d="M23.9,6.4l-1.6-0.9c0,0,0,0,0.1,0L23.9,6.4C24,6.4,24,6.4,23.9,6.4"/>
					</g>
				</g>
				<g enable-background="new    ">
					<defs>
						<path id="SVGID_7_" enable-background="new    " d="M20.4,7.2l-1.6-0.9c0.1,0.1,0.3,0.1,0.6,0.1L21,7.3
							C20.7,7.3,20.5,7.3,20.4,7.2z"/>
					</defs>
					<clipPath id="SVGID_8_">
						<use xlink:href="#SVGID_7_"  overflow="visible"/>
					</clipPath>
					<g clip-path="url(#SVGID_8_)" enable-background="new    ">
						<path fill="#A18F83" d="M20.4,7.2l-1.6-0.9c0,0,0.1,0,0.1,0l1.6,0.9C20.5,7.2,20.4,7.2,20.4,7.2"/>
						<path fill="#A69387" d="M20.5,7.3l-1.6-0.9c0.1,0,0.3,0,0.5,0L21,7.3C20.8,7.3,20.7,7.3,20.5,7.3"/>
					</g>
				</g>
				<g enable-background="new    ">
					<defs>
						<path id="SVGID_9_" enable-background="new    " d="M6.5,29.3l-1.6-0.9c-0.4-0.2-0.7-0.4-1-0.6c-0.4-0.2-0.7-0.4-0.9-0.6
							l1.6,0.9c0.3,0.2,0.6,0.3,0.9,0.6C5.8,28.9,6.2,29.1,6.5,29.3z"/>
					</defs>
					<clipPath id="SVGID_10_">
						<use xlink:href="#SVGID_9_"  overflow="visible"/>
					</clipPath>
					<g clip-path="url(#SVGID_10_)" enable-background="new    ">
						<path fill="#83746B" d="M6.5,29.3l-1.6-0.9c-0.4-0.2-0.7-0.4-1-0.6c-0.4-0.2-0.7-0.4-0.9-0.6l1.6,0.9c0.3,0.2,0.6,0.3,0.9,0.6
							C5.8,28.9,6.2,29.1,6.5,29.3"/>
					</g>
				</g>
				<g enable-background="new    ">
					<defs>
						<path id="SVGID_11_" enable-background="new    " d="M-1.6,28.4l-1.6-0.9c-0.2-0.1-0.3-0.3-0.4-0.5l1.6,0.9
							C-1.9,28.1-1.8,28.3-1.6,28.4z"/>
					</defs>
					<clipPath id="SVGID_12_">
						<use xlink:href="#SVGID_11_"  overflow="visible"/>
					</clipPath>
					<g clip-path="url(#SVGID_12_)" enable-background="new    ">
						<path fill="#83746B" d="M-1.6,28.4l-1.6-0.9c-0.2-0.1-0.3-0.3-0.4-0.5l1.6,0.9C-1.9,28.1-1.8,28.3-1.6,28.4"/>
					</g>
				</g>
				<g enable-background="new    ">
					<defs>
						<path id="SVGID_13_" enable-background="new    " d="M-2,27.9L-3.6,27c-0.2-0.7-0.3-1.6-0.5-1.8l1.6,0.9
							C-2.3,26.3-2.2,27.2-2,27.9z"/>
					</defs>
					<clipPath id="SVGID_14_">
						<use xlink:href="#SVGID_13_"  overflow="visible"/>
					</clipPath>
					<g clip-path="url(#SVGID_14_)" enable-background="new    ">
						<path fill="#83746B" d="M-2,27.9L-3.6,27c-0.2-0.7-0.3-1.6-0.5-1.8l1.6,0.9C-2.3,26.3-2.2,27.2-2,27.9"/>
					</g>
				</g>
				<g enable-background="new    ">
					<defs>
						<path id="SVGID_15_" enable-background="new    " d="M-1.5,12.9l1.6,0.9c0.3,0.1,0.5,0.3,0.6,0.6c0.1,0.4,0.1,0.8-0.2,1.5
							L-1.1,15c0.3-0.7,0.3-1.1,0.2-1.5C-1,13.3-1.2,13.1-1.5,12.9z"/>
					</defs>
					<clipPath id="SVGID_16_">
						<use xlink:href="#SVGID_15_"  overflow="visible"/>
					</clipPath>
					<g clip-path="url(#SVGID_16_)" enable-background="new    ">
						<path fill="#88786F" d="M0.6,15.9L-1.1,15c0-0.1,0.1-0.2,0.1-0.2l1.6,0.9C0.6,15.7,0.6,15.8,0.6,15.9"/>
						<path fill="#83746B" d="M0.7,15.7L-1,14.8c0.2-0.5,0.2-0.9,0.1-1.2c-0.1-0.3-0.3-0.4-0.6-0.6l1.6,0.9c0.3,0.1,0.5,0.3,0.6,0.6
							C0.9,14.7,0.9,15.1,0.7,15.7"/>
					</g>
				</g>
				<g enable-background="new    ">
					<defs>
						<path id="SVGID_17_" enable-background="new    " d="M14.8-6.5l1.6,0.9c-1.6-0.9-3.4-1.1-5.3-0.9L9.5-7.3
							C11.4-7.6,13.2-7.3,14.8-6.5z"/>
					</defs>
					<clipPath id="SVGID_18_">
						<use xlink:href="#SVGID_17_"  overflow="visible"/>
					</clipPath>
					<g clip-path="url(#SVGID_18_)" enable-background="new    ">
						<path fill="#A69387" d="M11.1-6.5L9.5-7.3c1.2-0.2,2.4-0.1,3.5,0.2l1.6,0.9C13.5-6.6,12.3-6.6,11.1-6.5"/>
						<path fill="#A18F83" d="M14.6-6.3L13-7.2c0.5,0.1,1,0.3,1.5,0.6l1.6,0.9C15.7-6,15.2-6.1,14.6-6.3"/>
						<path fill="#9C8A7F" d="M16.1-5.7l-1.6-0.9c0.1,0,0.2,0.1,0.3,0.1l1.6,0.9C16.3-5.6,16.2-5.7,16.1-5.7"/>
					</g>
				</g>
				<g>
					<polygon fill="#B29E91" points="10.4,-6.3 8.8,-7.2 9.5,-7.3 11.1,-6.5 					"/>
				</g>
				<g enable-background="new    ">
					<defs>
						<path id="SVGID_19_" enable-background="new    " d="M-6.4,25.4l-1.6-0.9c-0.5-0.3-0.8-0.6-0.8-1.1l1.6,0.9
							C-7.2,24.8-6.9,25.2-6.4,25.4z"/>
					</defs>
					<clipPath id="SVGID_20_">
						<use xlink:href="#SVGID_19_"  overflow="visible"/>
					</clipPath>
					<g clip-path="url(#SVGID_20_)" enable-background="new    ">
						<path fill="#83746B" d="M-6.4,25.4l-1.6-0.9c-0.5-0.3-0.8-0.6-0.8-1.1l1.6,0.9C-7.2,24.8-6.9,25.2-6.4,25.4"/>
					</g>
				</g>
				<g enable-background="new    ">
					<defs>
						<path id="SVGID_21_" enable-background="new    " d="M-7.2,24.3l-1.6-0.9c0-0.4,0.2-0.8,0.6-0.9c4.9-1.6,7.1-7.3,7.2-7.5
							l1.6,0.9c-0.1,0.2-2.3,6-7.2,7.5C-7,23.5-7.3,23.9-7.2,24.3z"/>
					</defs>
					<clipPath id="SVGID_22_">
						<use xlink:href="#SVGID_21_"  overflow="visible"/>
					</clipPath>
					<g clip-path="url(#SVGID_22_)" enable-background="new    ">
						<path fill="#83746B" d="M-7.2,24.3l-1.6-0.9c0-0.1,0-0.2,0.1-0.4l1.6,0.9C-7.2,24.1-7.2,24.2-7.2,24.3"/>
						<path fill="#88786F" d="M-7.2,24l-1.6-0.9c0,0,0-0.1,0.1-0.1l1.6,0.9C-7.1,23.9-7.2,23.9-7.2,24"/>
						<path fill="#8D7D73" d="M-7.1,23.9L-8.8,23c0,0,0-0.1,0.1-0.1l1.6,0.9C-7.1,23.8-7.1,23.8-7.1,23.9"/>
						<path fill="#928177" d="M-7.1,23.8l-1.6-0.9c0,0,0-0.1,0.1-0.1L-7.1,23.8C-7,23.7-7,23.7-7.1,23.8"/>
						<path fill="#97867B" d="M-7,23.7l-1.6-0.9c0,0,0-0.1,0.1-0.1L-7,23.7C-6.9,23.6-7,23.7-7,23.7"/>
						<path fill="#9C8A7F" d="M-6.9,23.6l-1.6-0.9c0,0,0.1,0,0.1-0.1L-6.9,23.6C-6.9,23.6-6.9,23.6-6.9,23.6"/>
						<path fill="#A18F83" d="M-6.8,23.5l-1.6-0.9c0,0,0.1-0.1,0.1-0.1l1.6,0.9C-6.7,23.5-6.8,23.5-6.8,23.5"/>
						<path fill="#A69387" d="M-6.7,23.5l-1.6-0.9c0,0,0.1,0,0.1,0c0.4-0.1,0.7-0.2,1-0.4l1.6,0.9C-5.9,23.2-6.3,23.3-6.7,23.5
							C-6.6,23.4-6.7,23.4-6.7,23.5"/>
						<path fill="#A18F83" d="M-5.6,23l-1.6-0.9c0.5-0.2,0.9-0.5,1.3-0.8l1.6,0.9C-4.7,22.5-5.1,22.8-5.6,23"/>
						<path fill="#9C8A7F" d="M-4.2,22.2l-1.6-0.9c0.4-0.3,0.7-0.6,1.1-0.9l1.6,0.9C-3.5,21.7-3.9,22-4.2,22.2"/>
						<path fill="#97867B" d="M-3.2,21.4l-1.6-0.9c0.4-0.3,0.7-0.7,1-1l1.6,0.9C-2.5,20.7-2.8,21.1-3.2,21.4"/>
						<path fill="#928177" d="M-2.2,20.4l-1.6-0.9c0.4-0.4,0.7-0.9,1-1.3l1.6,0.9C-1.5,19.5-1.8,20-2.2,20.4"/>
						<path fill="#8D7D73" d="M-1.2,19.1l-1.6-0.9c0.4-0.6,0.8-1.2,1-1.7l1.6,0.9C-0.4,17.9-0.7,18.5-1.2,19.1"/>
						<path fill="#88786F" d="M-0.1,17.4l-1.6-0.9c0.4-0.8,0.7-1.4,0.7-1.5l1.6,0.9C0.5,16,0.3,16.6-0.1,17.4"/>
						<polyline fill="#83746B" points="0.6,15.9 -1.1,15 -1.1,15 0.6,15.9 0.6,15.9 						"/>
					</g>
				</g>
				<g enable-background="new    ">
					<defs>
						<path id="SVGID_23_" enable-background="new    " d="M-2.7,12.9L-4.3,12c-0.8-0.5-1-1-0.9-1.5c0.1-0.8,1-1.4,1.8-1.5
							c0.2,0,0.4,0,0.6,0c0.6,0.2,1.2,0.3,1.6,0.2c0.4,0,0.6-0.2,0.7-0.3l1.6,0.9C1,10,0.8,10.1,0.4,10.2c-0.5,0.1-1,0-1.6-0.2
							c-0.2-0.1-0.4-0.1-0.6,0c-0.7,0.1-1.6,0.8-1.8,1.5C-3.6,11.9-3.5,12.5-2.7,12.9z"/>
					</defs>
					<clipPath id="SVGID_24_">
						<use xlink:href="#SVGID_23_"  overflow="visible"/>
					</clipPath>
					<g clip-path="url(#SVGID_24_)" enable-background="new    ">
						<path fill="#83746B" d="M-2.7,12.9L-4.3,12c-0.8-0.5-1-1-0.9-1.5c0-0.1,0-0.2,0.1-0.2l1.6,0.9c0,0.1,0,0.2-0.1,0.2
							C-3.6,11.9-3.5,12.5-2.7,12.9"/>
						<path fill="#88786F" d="M-3.5,11.2l-1.6-0.9c0-0.1,0.1-0.1,0.1-0.2l1.6,0.9C-3.4,11.1-3.5,11.1-3.5,11.2"/>
						<path fill="#8D7D73" d="M-3.4,11L-5,10.1C-5,10.1-5,10-4.9,9.9l1.6,0.9C-3.3,10.9-3.4,10.9-3.4,11"/>
						<path fill="#928177" d="M-3.3,10.8l-1.6-0.9c0-0.1,0.1-0.1,0.1-0.2l1.6,0.9C-3.2,10.7-3.2,10.8-3.3,10.8"/>
						<path fill="#97867B" d="M-3.1,10.7l-1.6-0.9c0.1-0.1,0.1-0.1,0.2-0.2l1.6,0.9C-3,10.5-3.1,10.6-3.1,10.7"/>
						<path fill="#9C8A7F" d="M-3,10.5l-1.6-0.9c0.1-0.1,0.2-0.1,0.2-0.2l1.6,0.9C-2.8,10.3-2.9,10.4-3,10.5"/>
						<path fill="#A18F83" d="M-2.7,10.3l-1.6-0.9C-4.2,9.3-4.1,9.2-4,9.2l1.6,0.9C-2.5,10.1-2.6,10.2-2.7,10.3"/>
						<path fill="#A69387" d="M-2.4,10.1L-4,9.2C-3.8,9.1-3.6,9-3.4,9c0.2,0,0.3,0,0.5,0l1.6,0.9c-0.1,0-0.3,0-0.5,0
							C-2,9.9-2.2,10-2.4,10.1"/>
						<path fill="#A18F83" d="M-1.3,9.9L-2.9,9c0,0,0.1,0,0.1,0c0.2,0.1,0.3,0.1,0.5,0.2l1.6,0.9C-0.9,10.1-1.1,10-1.3,9.9
							C-1.3,9.9-1.3,9.9-1.3,9.9"/>
						<path fill="#A69387" d="M-0.8,10.1l-1.6-0.9C-2,9.3-1.6,9.3-1.2,9.3c0.2,0,0.4-0.1,0.5-0.1L0.9,10c-0.1,0.1-0.3,0.1-0.5,0.1
							C0.1,10.2-0.3,10.2-0.8,10.1"/>
						<path fill="#A18F83" d="M0.9,10l-1.6-0.9c0.1,0,0.1-0.1,0.2-0.1L1.1,10C1,10,1,10,0.9,10"/>
						<path fill="#9C8A7F" d="M1.1,10l-1.6-0.9c0,0,0,0,0,0L1.1,10C1.1,9.9,1.1,9.9,1.1,10"/>
					</g>
				</g>
				<g>
					<path fill="#DCC3B3" d="M11.1-6.5c3.7-0.5,7.2,1,8.9,4.9c0.9,2.1,0.5,6,0.4,8.7c0.1,0.1,0.3,0.1,0.6,0.1c0.4-0.1,1-0.3,1.6-0.7
						c0.2-0.1,0.4-0.2,0.7-0.2c0.3,0,0.5,0,0.8,0.1c0.7,0.2,1.1,0.6,1.1,1.2c0,0.7-0.6,1.5-1.8,2.2c-0.1,0.1-0.3,0.2-0.5,0.3
						c-0.7,0.3-1.7,0.8-2,1.6c-0.1,0.4-0.1,0.9,0.2,1.4c0.1,0.3,2.3,5.4,7.2,5.5c0.4,0,0.8,0.5,0.5,1.1c-0.4,1-1.9,1.9-4.7,2.7
						c-0.1,0.2-0.3,1.1-0.5,1.9c-0.1,0.4-0.4,0.7-0.9,0.8c-0.7,0.1-1.4-0.1-2.7,0.1c-1.9,0.3-2.5,0.8-4,2.1C14.4,28.6,13,29.7,11,30
						c-0.1,0-0.2,0-0.3,0c-0.1,0-0.2,0-0.4,0.1c-2.1,0.3-3.8-0.8-4.7-1.4c-1.4-0.9-2.1-1.3-3.9-1c-1.3,0.2-2.2,0.7-2.7,0.7
						c-0.6,0.1-0.8-0.3-0.9-0.6c-0.2-0.7-0.3-1.6-0.5-1.8c-1.5,0-4.7-0.2-4.8-1.8c0-0.4,0.2-0.8,0.6-0.9c4.9-1.6,7.1-7.3,7.2-7.5
						c0.3-0.7,0.3-1.1,0.2-1.5c-0.4-0.8-1.9-1-2.5-1.1c-1.7-0.5-1.9-1.3-1.8-1.8c0.1-0.8,1-1.4,1.8-1.5c0.2,0,0.4,0,0.6,0
						c0.6,0.2,1.2,0.3,1.6,0.2c0.4,0,0.6-0.2,0.7-0.3C1,7.2,0.6,3.4,1.5,1.1C3.9-5,8.9-6.1,10.4-6.3L11.1-6.5z"/>
				</g>
				<g enable-background="new    ">
					<defs>
						<path id="SVGID_25_" enable-background="new    " d="M1.1,9.9L-0.5,9C-0.7,6.3-1,2.5-0.1,0.2C2.3-5.9,7.3-7,8.8-7.2l1.6,0.9
							C8.9-6.1,3.9-5,1.5,1.1C0.6,3.4,1,7.2,1.1,9.9z"/>
					</defs>
					<clipPath id="SVGID_26_">
						<use xlink:href="#SVGID_25_"  overflow="visible"/>
					</clipPath>
					<g clip-path="url(#SVGID_26_)" enable-background="new    ">
						<path fill="#83746B" d="M1.1,9.9L-0.5,9C-0.7,6.4-1,2.6-0.1,0.3l1.6,0.9C0.6,3.5,1,7.3,1.1,9.9"/>
						<path fill="#88786F" d="M1.5,1.2l-1.6-0.9c0,0,0-0.1,0-0.1c0.2-0.5,0.4-1,0.7-1.5l1.6,0.9C2,0,1.7,0.5,1.5,1.1
							C1.5,1.1,1.5,1.2,1.5,1.2"/>
						<path fill="#8D7D73" d="M2.2-0.4L0.6-1.3c0.2-0.5,0.5-0.9,0.8-1.3L3-1.7C2.7-1.3,2.5-0.9,2.2-0.4"/>
						<path fill="#928177" d="M3-1.7L1.4-2.6c0.3-0.4,0.5-0.7,0.8-1l1.6,0.9C3.5-2.4,3.3-2.1,3-1.7"/>
						<path fill="#97867B" d="M3.8-2.7L2.2-3.6c0.3-0.3,0.6-0.6,0.9-0.9l1.6,0.9C4.4-3.4,4.1-3.1,3.8-2.7"/>
						<path fill="#9C8A7F" d="M4.7-3.6L3.1-4.5c0.4-0.3,0.7-0.6,1.1-0.9l1.6,0.9C5.5-4.3,5.1-4,4.7-3.6"/>
						<path fill="#A18F83" d="M5.8-4.5L4.2-5.4c0.5-0.4,1.1-0.7,1.6-0.9l1.6,0.9C6.9-5.2,6.4-4.9,5.8-4.5"/>
						<path fill="#A69387" d="M7.4-5.4L5.8-6.3c1.3-0.6,2.4-0.8,3-0.9l1.6,0.9C9.8-6.3,8.7-6,7.4-5.4"/>
					</g>
				</g>
			</g>
		</g>
	</g>
</g>
</svg>
