<?xml version="1.0" encoding="utf-8"?>
<!-- Generator: Adobe Illustrator 18.0.0, SVG Export Plug-In . SVG Version: 6.00 Build 0)  -->
<!DOCTYPE svg PUBLIC "-//W3C//DTD SVG 1.1//EN" "http://www.w3.org/Graphics/SVG/1.1/DTD/svg11.dtd">
<svg version="1.1" id="Layer_1" xmlns="http://www.w3.org/2000/svg" xmlns:xlink="http://www.w3.org/1999/xlink" x="0px" y="0px"
	 viewBox="0 0 640 480" enable-background="new 0 0 640 480" xml:space="preserve">
<g>
	<linearGradient id="SVGID_1_" gradientUnits="userSpaceOnUse" x1="397.6711" y1="556.2316" x2="337.6711" y2="160.2316">
		<stop  offset="0" style="stop-color:#FFFFFF;stop-opacity:0"/>
		<stop  offset="1" style="stop-color:#000000;stop-opacity:0.6"/>
	</linearGradient>
	<polygon fill="url(#SVGID_1_)" points="125,403.5 249.5,480 633.1,463.1 440.2,383.5 440.2,383.5 349.2,387.2 210.3,372.5 	"/>
	<g>
		<path fill="#FECEAB" d="M535,176.5c0,8,4.4,14,10.9,14c2.2,0,4.3-1.2,5-2.5c0,0,1.2,4.7,1.4,5.7c0.4,1.5,1.1,2.9,1.9,4.3
			c0.4-0.1,1.4-0.7,2.5-1.1c0.1-1.5,0-3-0.4-4.4c-0.4-1.7-2.6-11.1-2.6-11.1c0.4-1,0.7-2.1,0.7-3.2c0-3-1.8-5.3-3.9-5.3
			c-1.8,0-2.8,1.4-2.8,3c0,1.8,1.2,4.7,1.8,7.2c0.4,1.7-0.6,3.5-2.2,3.9c-0.3,0.1-0.6,0.1-1,0.1c-3.9,0-6.4-5-6.4-10.8
			c0-4.4,3-7.7,8.4-7.7c6.1,0,10,4.6,10,9.8c0,1.4-0.4,2.9-1.4,4c-0.3,0.3-0.4,0.7-0.3,1.1c0.1,0.4,0.3,1.2,0.4,1.7
			c0,0.4,0.4,0.7,0.8,0.6c0.1,0,0.1,0,0.3-0.1c2.9-1.1,4.1-4.3,4.1-7.7c0-5.8-4.8-12.7-14.5-12.7C540,164.8,535,170.4,535,176.5z"/>
		<path fill="#FECEAB" d="M34.4,65.7v13.1c0,5.1,4.3,9.3,9.4,9.1h13.4c5.1,0,9.3-4,9.4-9.1V65.7c0-5.1-4.3-9.3-9.4-9.1H43.8
			C38.6,56.4,34.4,60.6,34.4,65.7z M50.5,77.4c-2.9,0-5.3-2.4-5.4-5.3c0-2.9,2.4-5.3,5.1-5.3c2.9,0,5.3,2.2,5.4,5.1
			C55.6,75.1,53.2,77.4,50.5,77.4L50.5,77.4z M41.8,65.7L41.8,65.7c-1.1,0-1.9-0.8-1.9-1.9s0.8-1.9,1.9-1.9s1.9,0.8,1.9,1.9
			C43.7,64.7,42.9,65.7,41.8,65.7L41.8,65.7z"/>
		<path fill="#3F3D56" d="M269.9,383.2c-3.7-3-5.9-7.5-6.1-12.3V20.6c0-9,7.7-16.2,17.1-16.2h38.7v3.2c0,4,2.1,7.7,5.4,10.1
			c2.4,1.7,5,2.5,7.9,2.5h49.8c7.3,0,13.1-5.5,13.1-12.4V4.4h35.3c9.4,0,17.1,7.3,17.1,16.2v350.1c0,5.5-2.9,10.5-7.6,13.4
			c-2.9,1.8-6.2,2.8-9.5,2.8H281C277,387.1,273,385.7,269.9,383.2z M396.9,5.4v2.2c0,7.5-6.4,13.4-14.2,13.4h-49.8
			c-3,0-5.9-0.8-8.4-2.6c-3.6-2.5-5.7-6.5-5.8-10.8V5.4h-37.8c-8.9,0-16.2,6.8-16.2,15.2v350.1c0,4.6,2.1,8.9,5.7,11.6
			c2.9,2.4,6.6,3.7,10.5,3.6H431c3.2,0,6.4-0.8,9-2.6c4.4-2.8,7.1-7.5,7.1-12.6V20.6c0-8.4-7.2-15.2-16.2-15.2L396.9,5.4z"/>
		<path fill="#F2F2F2" d="M276,34.2v319.6c0,7.9,6.5,14.4,14.4,14.4h129.7c7.9,0,14.4-6.4,14.4-14.2l0,0V34.2
			c0-7.9-6.4-14.4-14.4-14.4l0,0h-19.4v2.5c0,6.5-5.3,11.9-11.9,11.9h-66c-2.5,0-5-0.8-7.1-2.4c-0.4-0.3-0.8-0.7-1.1-1
			c-2.4-2.2-3.6-5.3-3.6-8.6v-2.5h-20.7C282.5,19.8,276,26.3,276,34.2L276,34.2z"/>
		<path fill="#3F3D56" d="M311.7,183.1h86.7v93.3h-86.7L311.7,183.1L311.7,183.1z M397.3,184.2h-84.5v91.1h84.5V184.2z"/>
		<rect x="330.1" y="87.4" fill="#3F3D56" width="57" height="1.1"/>
		<rect x="330.1" y="102.6" fill="#3F3D56" width="57" height="1.1"/>
		<rect x="330.1" y="117.7" fill="#3F3D56" width="57" height="1.1"/>
		<path fill="#3F3D56" d="M404.1,386.7c0-0.1-2.6-12.2,2.8-22.3c5.4-10.1,17-14.5,17.1-14.5l0.6-0.1l0.1,0.6
			c0,0.1,2.6,12.2-2.8,22.3c-5.4,10.1-17,14.5-17.1,14.5l-0.6,0.1L404.1,386.7z M421,372c4.6-8.4,3.2-18.5,2.8-21
			c-2.4,1-11.5,5.4-16,13.8c-4.6,8.4-3.2,18.5-2.8,21C407.3,384.9,416.4,380.4,421,372L421,372z"/>
		<path fill="#FECEAB" d="M417.8,369c-9.7,5.8-13.6,17.6-13.6,17.6s12,2.1,21.8-3.7c9.8-5.8,13.6-17.6,13.6-17.6
			S427.5,363,417.8,369z"/>
		<polygon fill="#FFB9B9" points="308.5,378.4 323.3,377.4 318.3,399.7 301.6,392.7 		"/>
		<polygon fill="#2F2E41" points="172.9,337 207.4,303.4 227.1,318.8 266.1,365.6 261.6,372.5 214.3,340.5 182.3,382.4 151.7,367 		
			"/>
		<polygon opacity="0.1" enable-background="new    " points="172.9,337 207.4,303.4 227.1,318.8 266.1,365.6 261.6,372.5 
			214.3,340.5 182.3,382.4 151.7,367 		"/>
		<path fill="#FFB9B9" d="M170,359.1l4.4,3.5l36-12.3l8.4-3.5l16.7,3.5c0,0,0-13.8-15.8-13.3l-16.3,4l-19.2,1.5L170,359.1z"/>
		<polygon fill="#2F2E41" points="137.9,395.6 148.8,402.6 161.5,402.6 221.3,380.4 308.5,396.2 311,377.4 231.1,342.4 161.1,365.6 
					"/>
		<path fill="#FFB9B9" d="M207.8,308l7.3,1.5l1.7-1.9c2.6-3,3.2-7.3,1.4-10.9l0,0l-20.7-27.1c0,0-5.9-13.3-15.4-7.9
			c-9.4,5.4,7.9,14.2,7.9,14.2l10.4,16.3l-1,8.4L207.8,308z"/>
		<circle fill="#FFB9B9" cx="161.1" cy="256.7" r="19.2"/>
		<path fill="#FFB9B9" d="M169.7,270.6l-8.9,21.2l-21.2-8.9c0,0,6.9-16.7,6.9-17.3C146.6,265.1,169.7,270.6,169.7,270.6z"/>
		<path fill="#92A391" d="M111.3,333.4c0,11.6,1.8,23.1,5.4,34.2l1.4,4.4l6.9,31.5l7.3,1.9l5.4-6.9l10.8-7.9l7.9-12.9l6.8-11.3
			l2.1-3.5l7.3-36.9l28.1-15.8l9.4-1.5l-1.9-5.4l-8.4-11.3l-8.4-1l-2.5-1.9l-1.9,1l-7.9-4.4l-2.5,1l-14.4,1.4l-8.7-1.8l-12.6-6.8
			l-5.1,0.8L118,295.1C113.7,307.4,111.3,320.3,111.3,333.4z"/>
		<path fill="#2F2E41" d="M318.8,386.1c0,0-4.4-7.5-2.5-8.3c1.8-0.8,9.8-4.4,9.8-4.4l11.6-3.9c0,0,16.7-24.9,17.1-3.2
			c0.4,21.7-12.2,26.8-12.2,26.8s-11.2,24.2-17.6,20.3s-12.7-16.9-12.7-16.9S323.7,390.4,318.8,386.1z"/>
		<polygon opacity="0.1" enable-background="new    " points="116.7,329.1 135.4,341.4 163.5,366.6 165.5,363.1 171.5,333.6 
			170,333.6 154.6,305.5 		"/>
		<polygon fill="#92A391" points="154.6,302.4 170,330.6 175.4,330.6 178.8,340.5 186.7,342.4 165.5,365.6 135.4,338.5 116.7,326.1 
					"/>
		<path fill="#2F2E41" d="M176,242.3l2.1,0.8c1.4-1,1.7-2.8,0.8-4l0,0l3.9-0.1c-9.7-12.9-27.9-15.5-40.7-5.8c-1,0.7-1.8,1.5-2.8,2.4
			c-0.1-0.6-2.1,0.6-2.9,1.8c-0.3-1-2.1,3.7-2.6,7.2c-0.3-1.1-1.4,0.7-0.4,2.4c-0.7-0.1-1,1.5-0.4,2.4c-0.7-0.3-0.6,1.7,0.1,2.9
			c-1-0.1,7.7,13.4,11.2,21.3c1-4.7,2.2-9.7,5.5-13.1c0.6-0.6,1.1-1.1,1.8-1.7l3.3-2.9c3.9-3.5,7.3-7.6,12.4-8.9
			c3.5-0.8,5.8-1.1,3.9-5c1.8,0.7,3.3,1.8,5.1,2.5C176.2,243.5,176,242.8,176,242.3z"/>
		<circle fill="#FFB9B9" cx="151.4" cy="258.9" r="3.5"/>
		<path fill="#FECEAB" d="M341.3,219.7c0,0.4,0,0.8,0,1.1c0,11.9,9,25.4,25.4,25.4c4.8,0,9.7-1.4,13.7-4c-0.7,0.1-1.4,0.1-2.1,0.1
			c-4,0-7.9-1.4-11.1-3.9c3.9-0.1,7.2-2.6,8.3-6.2c-0.6,0.1-1.1,0.1-1.7,0.1c-0.8,0-1.5-0.1-2.4-0.3c4.1-0.8,7.2-4.6,7.2-8.7v-0.1
			c-1.2,0.7-2.6,1.1-4,1.1c3.9-2.6,5.1-7.9,2.8-11.9c-4.6,5.5-11.2,9-18.4,9.4c0.1-0.7,0.3-1.4,0.3-2.1c0-5-4-9-9-9
			c-2.5,0-4.8,1-6.5,2.8c-2.1-0.4-3.9-1.1-5.7-2.2c0.7,2.1,2.1,3.9,3.9,5c-1.8-0.3-3.5-0.7-5.1-1.4
			C338.1,216.8,339.6,218.4,341.3,219.7z"/>
		<path fill="#3F3D56" d="M319.4,231.8L319.4,231.8c0-19.6,15.9-35.5,35.5-35.5s35.5,15.9,35.5,35.5s-15.9,35.5-35.5,35.5
			S319.4,251.4,319.4,231.8z M320.4,231.8L320.4,231.8c0,19.1,15.5,34.6,34.6,34.6c19.1,0,34.6-15.5,34.6-34.6s-15.5-34.6-34.6-34.6
			C335.9,197.2,320.4,212.7,320.4,231.8z M337.1,224c0-0.3,0-0.6,0-1c-1.7-1.2-3.2-2.8-4.4-4.6l-1-1.4l1.5,0.7c1,0.4,1.9,0.8,3,1
			c-1.1-1.1-1.9-2.5-2.5-4l-0.4-1.2l1.1,0.7c1.7,1,3.5,1.7,5.3,2.1c1.8-1.8,4.1-2.8,6.8-2.8c5.3,0,9.4,4.3,9.4,9.4
			c0,0.6,0,1-0.1,1.5c6.8-0.6,13.1-3.9,17.4-9.1l0.4-0.6l0.4,0.6c2.2,3.7,1.5,8.4-1.5,11.5c0.8-0.1,1.5-0.4,2.2-0.8l0.7-0.4v1
			c0,3.7-2.2,7.1-5.5,8.6c0.6,0,1.2,0,1.8-0.1l0.8-0.1l-0.3,0.8c-1.1,3.3-4,5.8-7.5,6.5c2.9,1.9,6.2,3,9.8,2.9c0.7,0,1.4,0,2.1-0.1
			l2.1-0.3l-1.8,1.1c-4.1,2.8-9,4.1-14,4.1C346.8,250,337.1,236.9,337.1,224z M374.6,246.2c-4.1,0-8.2-1.4-11.5-3.9l-1.1-0.8h1.4
			c3.3,0,6.4-2.1,7.6-5.1c-1.1,0.1-2.4,0-3.5-0.3l-2.1-0.6l2.1-0.4c3.7-0.7,6.5-3.9,6.8-7.6c-1.1,0.6-2.4,0.8-3.6,0.8h-1.7l1.4-1
			c3.5-2.4,4.7-6.9,2.9-10.6c-4.6,5.4-11.2,8.6-18.3,9h-0.7l0.1-0.7c0.1-0.7,0.3-1.2,0.3-1.9c0-2.4-1-4.6-2.6-6.2
			c-3.5-3.2-8.7-3-11.9,0.4l-0.1,0.1h-0.3c-1.7-0.3-3.2-0.8-4.6-1.5c0.7,1.4,1.8,2.6,3.2,3.5l1.9,1.2l-2.4-0.3
			c-1.2-0.1-2.5-0.4-3.7-0.8c1,1.2,2.1,2.2,3.3,3.2l0.3,0.1v0.3c0,0.4,0,0.7,0,1.1c0,12.3,9.4,25,25,25
			C367.2,249.1,371.2,248.1,374.6,246.2C374.8,246.2,374.8,246.2,374.6,246.2z"/>
		<path fill="#3F3D56" d="M39.1,75.2c0-3.2,2.5-5.7,5.7-5.8c3.2,0,5.8,2.5,5.8,5.7c0,3.2-2.5,5.8-5.7,5.8
			C41.8,81,39.1,78.4,39.1,75.2z M40.1,75.2c0,2.6,2.1,4.7,4.7,4.7c2.6,0,4.8-2.1,4.8-4.7s-2.1-4.8-4.7-4.8
			C42.3,70.4,40.1,72.6,40.1,75.2z"/>
		<path fill="#3F3D56" d="M33.2,86.7c-1.4-1.2-2.1-3-2.1-5V68.6c0-1.9,0.7-3.7,2.1-5c1.4-1.4,3.2-2.1,5.1-2.1h13.4
			c1.9,0,3.7,0.7,5.1,2.1c1.4,1.2,2.1,3,2.1,5v13.1c0,1.9-0.7,3.7-2.1,5c-1.4,1.4-3.2,2.1-5.1,2.1H38.3
			C36.4,88.8,34.6,88.1,33.2,86.7z M38.3,62.6c-1.7,0-3.2,0.7-4.4,1.8c-1.1,1.1-1.8,2.6-1.8,4.3v13.1c0,1.7,0.7,3.2,1.8,4.3
			s2.8,1.8,4.4,1.8h13.4c1.7,0,3.2-0.7,4.4-1.8c1.1-1.1,1.8-2.6,1.8-4.3V68.7c0-1.7-0.7-3.2-1.8-4.3c-1.1-1.1-2.8-1.8-4.4-1.8H38.3z
			 M36.5,75.2c0-4.6,3.6-8.3,8.3-8.3c4.6-0.1,8.4,3.6,8.4,8.2c0.1,4.6-3.6,8.4-8.2,8.4C40.4,83.7,36.5,79.9,36.5,75.2z M37.5,75.2
			c0,4,3.2,7.3,7.2,7.3c4,0.1,7.5-3.2,7.5-7.2c0.1-4-3.2-7.5-7.2-7.5C40.9,67.8,37.5,71.1,37.5,75.2z M33.7,66.7
			c0-1.4,1.1-2.5,2.5-2.5c1.4,0,2.5,1.1,2.5,2.5s-1.1,2.5-2.5,2.5C35,69.1,33.9,68,33.7,66.7z M34.8,66.7c0,0.8,0.7,1.5,1.4,1.5
			c0.8,0,1.5-0.7,1.5-1.4c0-0.8-0.7-1.5-1.4-1.5C35.5,65.3,34.8,65.8,34.8,66.7z"/>
		<path fill="#3F3D56" d="M13.1,75.5c0-17.4,14.4-31.7,32.2-31.7c17.7,0,32.1,14.2,32.1,31.7s-14.4,31.7-32.1,31.7
			C27.5,107.2,13.1,92.9,13.1,75.5z M14.1,75.5c0,16.9,14,30.7,31.3,30.7c17.1,0,31.3-13.7,31.3-30.7c0-16.9-14-30.7-31.3-30.7
			S14.1,58.6,14.1,75.5z M38.3,91.4c-5.4,0-9.8-4.3-9.8-9.7V68.6c0-5.4,4.4-9.7,9.8-9.7h13.4c5.4,0,9.8,4.3,9.8,9.7v13.1
			c0,5.4-4.4,9.7-9.8,9.7H38.3L38.3,91.4z M38.3,60c-4.8,0-8.9,3.9-8.9,8.7v13.1c0,4.8,4,8.7,8.9,8.7h13.4c4.8,0,8.9-3.9,8.9-8.7
			V68.7c0-4.8-4-8.7-8.9-8.7H38.3z"/>
		<path fill="#3F3D56" d="M511.9,180.1c0-19.4,15.6-35,34.8-35c19.2,0,34.8,15.8,34.8,35s-15.6,35-34.8,35
			C527.6,215,511.9,199.3,511.9,180.1z M512.9,180.1c0,18.8,15.2,34,33.9,34c18.7,0,33.9-15.2,33.9-34s-15.2-34-33.9-34
			C528.1,146,512.9,161.2,512.9,180.1z M525.9,179.8L525.9,179.8c0-11.5,9.3-20.9,20.7-20.9c8.2,0,15.6,5,18.9,12.4
			c4.7,10.5-0.1,23-10.6,27.5l-0.7,0.3v-0.8c0.1-1.5,0-3-0.3-4.6c-0.4-1.7-2.6-11.1-2.6-11.1v-0.1l0.1-0.1c0.4-1,0.6-1.9,0.6-3
			c0-2.6-1.5-4.8-3.5-4.8c-2.1,0-2.2,1.9-2.2,2.6c0,1.1,0.4,2.6,1,4.3c0.3,1,0.6,1.9,0.8,2.9c0.3,1.1,0,2.2-0.7,3.2
			c-0.7,1-1.8,1.4-3,1.4c-4,0-6.9-4.8-6.9-11.3c0-5,3.5-8.3,9-8.3c6.8,0,10.5,5.3,10.5,10.2c0,1.5-0.4,3-1.5,4.3
			c-0.3,0.3-0.3,0.4-0.1,0.7c0,0.1,0.1,0.4,0.1,0.8c0.1,0.3,0.1,0.7,0.3,0.8c0,0.1,0,0.1,0.1,0.1c0.1,0,0.1,0,0.3,0
			c2.5-1,3.9-3.7,3.9-7.3c0-5.1-4.3-12.2-14-12.2c-7.7,0-12.3,5.7-12.3,11.2c0,7.9,4.3,13.4,10.5,13.4c2.1,0,3.9-1.1,4.6-2.2
			l0.6-1.1l0.3,1.2c0,0,1.2,4.7,1.4,5.5c0.4,1.5,1.1,2.9,1.9,4.3l0.3,0.6l-0.7,0.1c-1.9,0.6-3.9,0.8-5.9,0.8
			C535.2,200.7,525.8,191.3,525.9,179.8z M549.8,195.1c-0.1-0.7-0.8-3.2-1.2-4.6c-1.2,1.2-2.9,1.9-4.7,1.9
			c-6.6,0-11.5-6.1-11.5-14.5c0-5.9,5-12.2,13.3-12.2c9.4,0,14.9,6.8,14.9,13.3c0,4-1.7,7.1-4.4,8.3c-0.1,0-0.1,0.1-0.3,0.1
			c-0.7,0.1-1.2-0.3-1.4-1c0-0.1-0.1-0.6-0.3-0.8c-0.1-0.3-0.1-0.6-0.1-0.7c-0.1-0.6,0-1.2,0.4-1.5c0.8-1,1.2-2.4,1.2-3.7
			c0-4.4-3.3-9.3-9.5-9.3c-4.8,0-7.9,2.8-7.9,7.3c0,5.9,2.5,10.4,5.9,10.4c0.8,0,1.7-0.4,2.2-1c0.6-0.7,0.7-1.5,0.4-2.4
			c-0.3-1-0.6-1.9-0.8-2.8c-0.6-1.7-1-3.3-1-4.6c0-2.2,1.2-3.6,3.2-3.6c2.5,0,4.4,2.5,4.4,5.8c0,1.1-0.1,2.2-0.7,3.3
			c0.3,1.2,2.2,9.4,2.6,10.9c0.3,1.4,0.4,2.6,0.4,4c8.6-4.1,12.9-13.8,10.5-23c-2.8-10.6-13.7-17-24.3-14.1
			c-10.6,2.8-17,13.7-14.1,24.3c2.8,10.6,13.7,17,24.3,14.1C550.8,197.8,550.3,196.5,549.8,195.1z"/>
		<path fill="#3F3D56" d="M57.5,168c-12.9-10.9-19.1-29.3-15.2-45.8l1,0.3c-3.7,16.2,2.2,34.2,14.9,44.8
			c12.6,10.6,31.4,13.6,46.7,7.2c15.2-6.4,24.9-19.5,35.1-33.5c5.4-7.3,10.9-14.8,17.3-21.2c10.2-10.2,22.1-16.9,34.4-19.2
			c13.8-2.6,28.1,0.8,37.9,9c1.4,1.2,2.8,2.5,4,3.9c9.1-1.1,18.1-1.7,27.2-1.8v1c-8.9,0.1-17.7,0.7-26.6,1.7
			c7.3,8.9,10.2,21,7.3,31.4c-3.5,12.3-15.4,21.2-27.2,21.2c-1.1,0-2.2-0.1-3.3-0.3c-6.6-1-13-5.1-17-11.3c-3.7-5.7-5-12.3-3.3-18.3
			c4.3-15.4,22.7-20.9,37.3-23c1.4-0.1,2.8-0.4,4.1-0.6c-1.1-1.1-2.2-2.2-3.5-3.3c-9.5-8-23.5-11.2-37.1-8.7
			c-12,2.2-23.8,8.7-33.9,18.9c-6.4,6.4-11.9,13.8-17.1,21c-10,13.4-20.2,27.2-35.5,33.7c-5.5,2.2-11.5,3.5-17.4,3.5
			C76.8,178.8,65.8,175.1,57.5,168z M228.3,115.3c-14.4,1.9-32.4,7.5-36.5,22.3c-1.5,5.7-0.4,11.9,3.2,17.4c3.9,5.9,10,10,16.3,10.8
			c12.6,1.8,25.9-7.3,29.5-20.2c2.9-10.2-0.1-22.3-7.6-31C231.6,114.9,230,115.1,228.3,115.3z"/>
		<path fill="#3F3D56" d="M469.9,172.6c4.4,0,8.9-0.4,13.1-1.4c10.8-2.4,20.5-8.2,27.4-16.6c2.4-2.8,4.4-5.9,6.5-8.9
			c3-4.6,6.2-9.3,10.2-12.9c3.9-3.5,9-5.4,13.4-4.8c3.2,0.4,6.1,2.2,7.9,4.8l0.8-0.6c-1.9-2.9-5.1-4.8-8.6-5.3
			c-4.7-0.6-10.1,1.2-14.2,5c-4,3.6-7.2,8.3-10.4,13c-2.1,3-4.1,6.1-6.4,8.9c-13.3,15.9-34.4,21.4-57.9,15.2l-0.3,1
			C457.5,171.8,463.7,172.6,469.9,172.6z"/>
	</g>
</g>
</svg>
