<?xml version="1.0" encoding="utf-8"?>
<!-- Generator: Adobe Illustrator 18.0.0, SVG Export Plug-In . SVG Version: 6.00 Build 0)  -->
<!DOCTYPE svg PUBLIC "-//W3C//DTD SVG 1.1//EN" "http://www.w3.org/Graphics/SVG/1.1/DTD/svg11.dtd">
<svg version="1.1" id="Layer_1" xmlns="http://www.w3.org/2000/svg" xmlns:xlink="http://www.w3.org/1999/xlink" x="0px" y="0px"
	 viewBox="0 0 451.8 348.2" enable-background="new 0 0 451.8 348.2" xml:space="preserve">
<g>
	<linearGradient id="SVGID_1_" gradientUnits="userSpaceOnUse" x1="266.4119" y1="321.4397" x2="264.4119" y2="257.4397">
		<stop  offset="0" style="stop-color:#FFFFFF;stop-opacity:0"/>
		<stop  offset="8.634541e-002" style="stop-color:#F7F7F7;stop-opacity:8.634541e-002"/>
		<stop  offset="0.2175" style="stop-color:#E2E2E2;stop-opacity:0.2175"/>
		<stop  offset="0.3772" style="stop-color:#C0C0C0;stop-opacity:0.3772"/>
		<stop  offset="0.5593" style="stop-color:#909090;stop-opacity:0.5593"/>
		<stop  offset="0.7602" style="stop-color:#535353;stop-opacity:0.7602"/>
		<stop  offset="0.9742" style="stop-color:#090909;stop-opacity:0.9742"/>
		<stop  offset="1" style="stop-color:#000000"/>
	</linearGradient>
	<polygon fill="url(#SVGID_1_)" points="82.4,290.9 172.4,346.2 449.8,334 310.3,276.4 310.3,276.4 244.5,279.1 144.1,268.4 	"/>
	<path fill="#3F3D56" d="M285.2,279.7c0-0.1-1.9-8.8,2-16.1c3.9-7.3,12.3-10.5,12.4-10.5l0.4-0.1l0.1,0.4c0,0.1,1.9,8.8-2,16.1
		c-3.9,7.3-12.3,10.5-12.4,10.5l-0.4,0.1L285.2,279.7z M297.4,269.1c3.3-6.1,2.3-13.4,2-15.2c-1.7,0.7-8.3,3.9-11.6,10
		c-3.3,6.1-2.3,13.4-2,15.2C287.5,278.4,294.1,275.2,297.4,269.1L297.4,269.1z"/>
	<path fill="#727A6F" d="M295.1,266.9c-7,4.2-9.8,12.7-9.8,12.7s8.7,1.5,15.8-2.7c7-4.2,9.8-12.7,9.8-12.7S302.1,262.6,295.1,266.9z
		"/>
	<polygon fill="#FFB9B9" points="216.1,273.7 226.8,273 223.2,289.1 211.1,284.1 	"/>
	<path fill="#FFB9B9" d="M115.9,259.8l3.2,2.5l26-8.9l6.1-2.5l12.1,2.5c0,0,0-10-11.4-9.6l-11.8,2.9l-13.9,1.1L115.9,259.8z"/>
	<polygon fill="#2F2E41" points="92.7,286.2 100.6,291.2 109.8,291.2 153,275.1 216.1,286.6 217.9,273 160.1,247.7 109.5,264.5 	"/>
	<path fill="#2F2E41" d="M223.5,279.2c0,0-3.2-5.4-1.8-6c1.3-0.6,7.1-3.2,7.1-3.2l8.4-2.8c0,0,12.1-18,12.4-2.3
		c0.3,15.7-8.8,19.4-8.8,19.4s-8.1,17.5-12.7,14.7c-4.6-2.8-9.2-12.2-9.2-12.2S227.1,282.3,223.5,279.2z"/>
	<path fill="#727A6F" d="M379.9,127.7c0,5.8,3.2,10.1,7.9,10.1c1.6,0,3.1-0.9,3.6-1.8c0,0,0.9,3.4,1,4.1c0.3,1.1,0.8,2.1,1.4,3.1
		c0.3-0.1,1-0.5,1.8-0.8c0.1-1.1,0-2.2-0.3-3.2c-0.3-1.2-1.9-8-1.9-8c0.3-0.7,0.5-1.5,0.5-2.3c0-2.2-1.3-3.8-2.8-3.8
		c-1.3,0-2,1-2,2.2c0,1.3,0.9,3.4,1.3,5.2c0.3,1.2-0.4,2.5-1.6,2.8c-0.2,0.1-0.4,0.1-0.7,0.1c-2.8,0-4.6-3.6-4.6-7.8
		c0-3.2,2.2-5.6,6.1-5.6c4.4,0,7.2,3.3,7.2,7.1c0,1-0.3,2.1-1,2.9c-0.2,0.2-0.3,0.5-0.2,0.8c0.1,0.3,0.2,0.9,0.3,1.2
		c0,0.3,0.3,0.5,0.6,0.4c0.1,0,0.1,0,0.2-0.1c2.1-0.8,3-3.1,3-5.6c0-4.2-3.5-9.2-10.5-9.2C383.5,119.2,379.9,123.3,379.9,127.7z"/>
	<path fill="#727A6F" d="M17.9,47.6v9.5c0,3.7,3.1,6.7,6.8,6.6h9.7c3.7,0,6.7-2.9,6.8-6.6v-9.5c0-3.7-3.1-6.7-6.8-6.6h-9.7
		C20.9,40.9,17.9,43.9,17.9,47.6z M29.5,56.1c-2.1,0-3.8-1.7-3.9-3.8c0-2.1,1.7-3.8,3.7-3.8c2.1,0,3.8,1.6,3.9,3.7
		C33.2,54.4,31.5,56.1,29.5,56.1L29.5,56.1z M23.2,47.6C23.2,47.6,23.2,47.6,23.2,47.6c-0.8,0-1.4-0.6-1.4-1.4
		c0-0.8,0.6-1.4,1.4-1.4c0.8,0,1.4,0.6,1.4,1.4C24.6,46.9,24,47.6,23.2,47.6L23.2,47.6z"/>
	<path fill="#3F3D56" d="M188.2,277.2c-2.7-2.2-4.3-5.4-4.4-8.9V15c0-6.5,5.6-11.7,12.4-11.7h28v2.3c0,2.9,1.5,5.6,3.9,7.3
		c1.7,1.2,3.6,1.8,5.7,1.8h36c5.3,0,9.5-4,9.5-9V3.3h25.5c6.8,0,12.4,5.3,12.4,11.7v253.2c0,4-2.1,7.6-5.5,9.7c-2.1,1.3-4.5,2-6.9,2
		H196.2C193.3,280,190.4,279,188.2,277.2z M280,4v1.6c0,5.4-4.6,9.7-10.3,9.7h-36c-2.2,0-4.3-0.6-6.1-1.9c-2.6-1.8-4.1-4.7-4.2-7.8
		V4h-27.3c-6.4,0-11.7,4.9-11.7,11v253.2c0,3.3,1.5,6.4,4.1,8.4c2.1,1.7,4.8,2.7,7.6,2.6h108.6c2.3,0,4.6-0.6,6.5-1.9
		c3.2-2,5.1-5.4,5.1-9.1V15c0-6.1-5.2-11-11.7-11L280,4z"/>
	<path fill="#F2F2F2" d="M192.6,24.8v231.1c0,5.7,4.7,10.4,10.4,10.4h93.8c5.7,0,10.4-4.6,10.4-10.3c0,0,0,0,0,0V24.8
		c0-5.7-4.6-10.4-10.4-10.4c0,0,0,0,0,0h-14v1.8c0,4.7-3.8,8.6-8.6,8.6h-47.7c-1.8,0-3.6-0.6-5.1-1.7c-0.3-0.2-0.6-0.5-0.8-0.7
		c-1.7-1.6-2.6-3.8-2.6-6.2v-1.8h-15C197.3,14.4,192.6,19.1,192.6,24.8C192.6,24.8,192.6,24.8,192.6,24.8z"/>
	<path fill="#3F3D56" d="M218.4,132.5h62.7V200h-62.7V132.5z M280.3,133.3h-61.1v65.9h61.1V133.3z"/>
	<rect x="231.7" y="63.3" fill="#3F3D56" width="41.2" height="0.8"/>
	<rect x="231.7" y="74.3" fill="#3F3D56" width="41.2" height="0.8"/>
	<rect x="231.7" y="85.2" fill="#3F3D56" width="41.2" height="0.8"/>
	<polygon fill="#2F2E41" points="118,243.8 143,219.5 157.2,230.6 185.4,264.5 182.2,269.4 148,246.3 124.8,276.6 102.7,265.5 	"/>
	<polygon opacity="0.1" enable-background="new    " points="118,243.8 143,219.5 157.2,230.6 185.4,264.5 182.2,269.4 148,246.3 
		124.8,276.6 102.7,265.5 	"/>
	<path fill="#FFB9B9" d="M143.3,222.7l5.3,1.1l1.2-1.4c1.9-2.2,2.3-5.3,1-7.9l0,0l-15-19.6c0,0-4.3-9.6-11.1-5.7s5.7,10.3,5.7,10.3
		l7.5,11.8l-0.7,6.1L143.3,222.7z"/>
	<circle fill="#FFB9B9" cx="109.5" cy="185.7" r="13.9"/>
	<path fill="#FFB9B9" d="M115.7,195.8l-6.4,15.3L94,204.7c0,0,5-12.1,5-12.5S115.7,195.8,115.7,195.8z"/>
	<path fill="#859584" d="M73.5,241.2c0,8.4,1.3,16.7,3.9,24.7l1,3.2l5,22.8l5.3,1.4l3.9-5l7.8-5.7l5.7-9.3l4.9-8.2l1.5-2.5l5.3-26.7
		l20.3-11.4l6.8-1.1l-1.4-3.9l-6.1-8.2l-6.1-0.7l-1.8-1.4l-1.4,0.7l-5.7-3.2l-1.8,0.7l-10.4,1l-6.3-1.3l-9.1-4.9l-3.7,0.6
		l-12.8,10.7C75.2,222.3,73.5,231.7,73.5,241.2z"/>
	<polygon opacity="0.1" enable-background="new    " points="77.4,238.1 90.9,247 111.2,265.2 112.7,262.7 117,241.3 115.9,241.3 
		104.8,221 	"/>
	<polygon fill="#859584" points="104.8,218.8 115.9,239.1 119.8,239.1 122.3,246.3 128,247.7 112.7,264.5 90.9,244.8 77.4,235.9 	
		"/>
	<path fill="#2F2E41" d="M120.3,175.3l1.5,0.6c1-0.7,1.2-2,0.6-2.9c0,0,0,0,0,0l2.8-0.1c-7-9.3-20.2-11.2-29.4-4.2
		c-0.7,0.5-1.3,1.1-2,1.7c-0.1-0.4-1.5,0.4-2.1,1.3c-0.2-0.7-1.5,2.7-1.9,5.2c-0.2-0.8-1,0.5-0.3,1.7c-0.5-0.1-0.7,1.1-0.3,1.7
		c-0.5-0.2-0.4,1.2,0.1,2.1c-0.7-0.1,5.6,9.7,8.1,15.4c0.7-3.4,1.6-7,4-9.5c0.4-0.4,0.8-0.8,1.3-1.2l2.4-2.1c2.8-2.5,5.3-5.5,9-6.4
		c2.5-0.6,4.2-0.8,2.8-3.6c1.3,0.5,2.4,1.3,3.7,1.8C120.4,176.2,120.3,175.7,120.3,175.3z"/>
	<circle fill="#FFB9B9" cx="102.5" cy="187.3" r="2.5"/>
	<path fill="#727A6F" d="M239.8,158.9c0,0.3,0,0.6,0,0.8c0,8.6,6.5,18.4,18.4,18.4c3.5,0,7-1,9.9-2.9c-0.5,0.1-1,0.1-1.5,0.1
		c-2.9,0-5.7-1-8-2.8c2.8-0.1,5.2-1.9,6-4.5c-0.4,0.1-0.8,0.1-1.2,0.1c-0.6,0-1.1-0.1-1.7-0.2c3-0.6,5.2-3.3,5.2-6.3v-0.1
		c-0.9,0.5-1.9,0.8-2.9,0.8c2.8-1.9,3.7-5.7,2-8.6c-3.3,4-8.1,6.5-13.3,6.8c0.1-0.5,0.2-1,0.2-1.5c0-3.6-2.9-6.5-6.5-6.5
		c-1.8,0-3.5,0.7-4.7,2c-1.5-0.3-2.8-0.8-4.1-1.6c0.5,1.5,1.5,2.8,2.8,3.6c-1.3-0.2-2.5-0.5-3.7-1
		C237.5,156.9,238.6,158,239.8,158.9z"/>
	<path fill="#3F3D56" d="M224,167.7L224,167.7c0-14.2,11.5-25.7,25.7-25.7c14.2,0,25.7,11.5,25.7,25.7c0,14.2-11.5,25.7-25.7,25.7
		C235.5,193.4,224,181.9,224,167.7z M224.7,167.7L224.7,167.7c0,13.8,11.2,25,25,25c13.8,0,25-11.2,25-25c0-13.8-11.2-25-25-25
		C235.9,142.7,224.7,153.9,224.7,167.7z M236.8,162.1c0-0.2,0-0.4,0-0.7c-1.2-0.9-2.3-2-3.2-3.3l-0.7-1l1.1,0.5
		c0.7,0.3,1.4,0.6,2.2,0.7c-0.8-0.8-1.4-1.8-1.8-2.9l-0.3-0.9l0.8,0.5c1.2,0.7,2.5,1.2,3.8,1.5c1.3-1.3,3-2,4.9-2
		c3.8,0,6.8,3.1,6.8,6.8c0,0.4,0,0.7-0.1,1.1c4.9-0.4,9.5-2.8,12.6-6.6l0.3-0.4l0.3,0.4c1.6,2.7,1.1,6.1-1.1,8.3
		c0.6-0.1,1.1-0.3,1.6-0.6l0.5-0.3v0.7c0,2.7-1.6,5.1-4,6.2c0.4,0,0.9,0,1.3-0.1l0.6-0.1l-0.2,0.6c-0.8,2.4-2.9,4.2-5.4,4.7
		c2.1,1.4,4.5,2.2,7.1,2.1c0.5,0,1,0,1.5-0.1l1.5-0.2l-1.3,0.8c-3,2-6.5,3-10.1,3C243.8,180.9,236.8,171.3,236.8,162.1z M263.9,178
		c-3,0-5.9-1-8.3-2.8l-0.8-0.6l1,0c2.4,0,4.6-1.5,5.5-3.7c-0.8,0.1-1.7,0-2.5-0.2l-1.5-0.4l1.5-0.3c2.7-0.5,4.7-2.8,4.9-5.5
		c-0.8,0.4-1.7,0.6-2.6,0.6l-1.2,0l1-0.7c2.5-1.7,3.4-5,2.1-7.7c-3.3,3.9-8.1,6.2-13.2,6.5l-0.5,0l0.1-0.5c0.1-0.5,0.2-0.9,0.2-1.4
		c0-1.7-0.7-3.3-1.9-4.5c-2.5-2.3-6.3-2.2-8.6,0.3l-0.1,0.1l-0.2,0c-1.2-0.2-2.3-0.6-3.3-1.1c0.5,1,1.3,1.9,2.3,2.5l1.4,0.9
		l-1.7-0.2c-0.9-0.1-1.8-0.3-2.7-0.6c0.7,0.9,1.5,1.6,2.4,2.3l0.2,0.1l0,0.2c0,0.3,0,0.5,0,0.8c0,8.9,6.8,18.1,18.1,18.1
		C258.5,180.2,261.4,179.4,263.9,178C264,178,264,178,263.9,178z"/>
	<path fill="#3F3D56" d="M21.3,54.5c0-2.3,1.8-4.1,4.1-4.2c2.3,0,4.2,1.8,4.2,4.1c0,2.3-1.8,4.2-4.1,4.2
		C23.2,58.6,21.3,56.8,21.3,54.5z M22,54.5c0,1.9,1.5,3.4,3.4,3.4c1.9,0,3.5-1.5,3.5-3.4c0-1.9-1.5-3.5-3.4-3.5
		C23.6,51,22,52.6,22,54.5z"/>
	<path fill="#3F3D56" d="M17,62.8c-1-0.9-1.5-2.2-1.5-3.6v-9.5c0-1.4,0.5-2.7,1.5-3.6c1-1,2.3-1.5,3.7-1.5h9.7
		c1.4,0,2.7,0.5,3.7,1.5c1,0.9,1.5,2.2,1.5,3.6v9.5c0,1.4-0.5,2.7-1.5,3.6c-1,1-2.3,1.5-3.7,1.5h-9.7C19.3,64.3,18,63.8,17,62.8z
		 M20.7,45.3c-1.2,0-2.3,0.5-3.2,1.3c-0.8,0.8-1.3,1.9-1.3,3.1v9.5c0,1.2,0.5,2.3,1.3,3.1c0.8,0.8,2,1.3,3.2,1.3h9.7
		c1.2,0,2.3-0.5,3.2-1.3c0.8-0.8,1.3-1.9,1.3-3.1v-9.5c0-1.2-0.5-2.3-1.3-3.1c-0.8-0.8-2-1.3-3.2-1.3L20.7,45.3z M19.4,54.5
		c0-3.3,2.6-6,6-6c3.3-0.1,6.1,2.6,6.1,5.9c0.1,3.3-2.6,6.1-5.9,6.1C22.2,60.5,19.4,57.8,19.4,54.5z M20.1,54.5
		c0,2.9,2.3,5.3,5.2,5.3c2.9,0.1,5.4-2.3,5.4-5.2c0.1-2.9-2.3-5.4-5.2-5.4C22.6,49.1,20.1,51.5,20.1,54.5z M17.4,48.3
		c0-1,0.8-1.8,1.8-1.8c1,0,1.8,0.8,1.8,1.8c0,1-0.8,1.8-1.8,1.8C18.3,50.1,17.5,49.3,17.4,48.3z M18.2,48.3c0,0.6,0.5,1.1,1,1.1
		c0.6,0,1.1-0.5,1.1-1c0-0.6-0.5-1.1-1-1.1C18.7,47.2,18.2,47.7,18.2,48.3z"/>
	<path fill="#3F3D56" d="M2.5,54.7c0-12.6,10.4-22.9,23.3-22.9C38.6,31.8,49,42.1,49,54.7S38.6,77.5,25.8,77.5
		C12.9,77.5,2.5,67.3,2.5,54.7z M3.2,54.7c0,12.2,10.1,22.2,22.6,22.2c12.4,0,22.6-9.9,22.6-22.2c0-12.2-10.1-22.2-22.6-22.2
		C13.3,32.5,3.2,42.5,3.2,54.7z M20.7,66.2c-3.9,0-7.1-3.1-7.1-7v-9.5c0-3.9,3.2-7,7.1-7h9.7c3.9,0,7.1,3.1,7.1,7v9.5
		c0,3.9-3.2,7-7.1,7L20.7,66.2L20.7,66.2z M20.7,43.4c-3.5,0-6.4,2.8-6.4,6.3v9.5c0,3.5,2.9,6.3,6.4,6.3h9.7c3.5,0,6.4-2.8,6.4-6.3
		v-9.5c0-3.5-2.9-6.3-6.4-6.3L20.7,43.4z"/>
	<path fill="#3F3D56" d="M363.2,130.2c0-14,11.3-25.3,25.2-25.3s25.2,11.4,25.2,25.3s-11.3,25.3-25.2,25.3
		C374.5,155.6,363.2,144.2,363.2,130.2z M363.9,130.2c0,13.6,11,24.6,24.5,24.6s24.5-11,24.5-24.6s-11-24.6-24.5-24.6
		S363.9,116.7,363.9,130.2z M373.3,130.1C373.3,130.1,373.3,130.1,373.3,130.1c0-8.3,6.7-15.1,15-15.1c5.9,0,11.3,3.6,13.7,9
		c3.4,7.6-0.1,16.6-7.7,19.9l-0.5,0.2l0-0.6c0.1-1.1,0-2.2-0.2-3.3c-0.3-1.2-1.9-8-1.9-8l0-0.1l0.1-0.1c0.3-0.7,0.4-1.4,0.4-2.2
		c0-1.9-1.1-3.5-2.5-3.5c-1.5,0-1.6,1.4-1.6,1.9c0,0.8,0.3,1.9,0.7,3.1c0.2,0.7,0.4,1.4,0.6,2.1c0.2,0.8,0,1.6-0.5,2.3
		c-0.5,0.7-1.3,1-2.2,1c-2.9,0-5-3.5-5-8.2c0-3.6,2.5-6,6.5-6c4.9,0,7.6,3.8,7.6,7.4c0,1.1-0.3,2.2-1.1,3.1
		c-0.2,0.2-0.2,0.3-0.1,0.5c0,0.1,0.1,0.3,0.1,0.6c0.1,0.2,0.1,0.5,0.2,0.6c0,0.1,0,0.1,0.1,0.1c0.1,0,0.1,0,0.2,0
		c1.8-0.7,2.8-2.7,2.8-5.3c0-3.7-3.1-8.8-10.1-8.8c-5.6,0-8.9,4.1-8.9,8.1c0,5.7,3.1,9.7,7.6,9.7c1.5,0,2.8-0.8,3.3-1.6l0.4-0.8
		l0.2,0.9c0,0,0.9,3.4,1,4c0.3,1.1,0.8,2.1,1.4,3.1l0.2,0.4l-0.5,0.1c-1.4,0.4-2.8,0.6-4.3,0.6C380,145.2,373.2,138.4,373.3,130.1z
		 M390.6,141.2c-0.1-0.5-0.6-2.3-0.9-3.3c-0.9,0.9-2.1,1.4-3.4,1.4c-4.8,0-8.3-4.4-8.3-10.5c0-4.3,3.6-8.8,9.6-8.8
		c6.8,0,10.8,4.9,10.8,9.6c0,2.9-1.2,5.1-3.2,6c-0.1,0-0.1,0.1-0.2,0.1c-0.5,0.1-0.9-0.2-1-0.7c0-0.1-0.1-0.4-0.2-0.6
		c-0.1-0.2-0.1-0.4-0.1-0.5c-0.1-0.4,0-0.9,0.3-1.1c0.6-0.7,0.9-1.7,0.9-2.7c0-3.2-2.4-6.7-6.9-6.7c-3.5,0-5.7,2-5.7,5.3
		c0,4.3,1.8,7.5,4.3,7.5c0.6,0,1.2-0.3,1.6-0.7c0.4-0.5,0.5-1.1,0.3-1.7c-0.2-0.7-0.4-1.4-0.6-2c-0.4-1.2-0.7-2.4-0.7-3.3
		c0-1.6,0.9-2.6,2.3-2.6c1.8,0,3.2,1.8,3.2,4.2c0,0.8-0.1,1.6-0.5,2.4c0.2,0.9,1.6,6.8,1.9,7.9c0.2,1,0.3,1.9,0.3,2.9
		c6.2-3,9.3-10,7.6-16.6c-2-7.7-9.9-12.3-17.6-10.2c-7.7,2-12.3,9.9-10.2,17.6c2,7.7,9.9,12.3,17.6,10.2
		C391.3,143.1,390.9,142.2,390.6,141.2z"/>
	<path fill="#3F3D56" d="M34.6,121.6c-9.3-7.9-13.8-21.2-11-33.1l0.7,0.2c-2.7,11.7,1.6,24.7,10.8,32.4c9.1,7.7,22.7,9.8,33.8,5.2
		c11-4.6,18-14.1,25.4-24.2c3.9-5.3,7.9-10.7,12.5-15.3c7.4-7.4,16-12.2,24.9-13.9c10-1.9,20.3,0.6,27.4,6.5c1,0.9,2,1.8,2.9,2.8
		c6.6-0.8,13.1-1.2,19.7-1.3l0,0.7c-6.4,0.1-12.8,0.5-19.2,1.2c5.3,6.4,7.4,15.2,5.3,22.7c-2.5,8.9-11.1,15.3-19.7,15.3
		c-0.8,0-1.6-0.1-2.4-0.2c-4.8-0.7-9.4-3.7-12.3-8.2c-2.7-4.1-3.6-8.9-2.4-13.2c3.1-11.1,16.4-15.1,27-16.6c1-0.1,2-0.3,3-0.4
		c-0.8-0.8-1.6-1.6-2.5-2.4c-6.9-5.8-17-8.1-26.8-6.3c-8.7,1.6-17.2,6.3-24.5,13.7c-4.6,4.6-8.6,10-12.4,15.2
		c-7.2,9.7-14.6,19.7-25.7,24.4c-4,1.6-8.3,2.5-12.6,2.5C48.5,129.4,40.6,126.7,34.6,121.6z M158.1,83.5
		c-10.4,1.4-23.4,5.4-26.4,16.1c-1.1,4.1-0.3,8.6,2.3,12.6c2.8,4.3,7.2,7.2,11.8,7.8c9.1,1.3,18.7-5.3,21.3-14.6
		c2.1-7.4-0.1-16.1-5.5-22.4C160.5,83.1,159.3,83.3,158.1,83.5z"/>
	<path fill="#3F3D56" d="M332.8,124.9c3.2,0,6.4-0.3,9.5-1c7.8-1.7,14.8-5.9,19.8-12c1.7-2,3.2-4.3,4.7-6.4c2.2-3.3,4.5-6.7,7.4-9.3
		c2.8-2.5,6.5-3.9,9.7-3.5c2.3,0.3,4.4,1.6,5.7,3.5l0.6-0.4c-1.4-2.1-3.7-3.5-6.2-3.8c-3.4-0.4-7.3,0.9-10.3,3.6
		c-2.9,2.6-5.2,6-7.5,9.4c-1.5,2.2-3,4.4-4.6,6.4c-9.6,11.5-24.9,15.5-41.9,11l-0.2,0.7C323.8,124.2,328.3,124.8,332.8,124.9z"/>
</g>
</svg>
