<?xml version="1.0" encoding="utf-8"?>
<!-- Generator: Adobe Illustrator 18.0.0, SVG Export Plug-In . SVG Version: 6.00 Build 0)  -->
<!DOCTYPE svg PUBLIC "-//W3C//DTD SVG 1.1//EN" "http://www.w3.org/Graphics/SVG/1.1/DTD/svg11.dtd">
<svg version="1.1" id="Layer_1" xmlns="http://www.w3.org/2000/svg" xmlns:xlink="http://www.w3.org/1999/xlink" x="0px" y="0px"
	 viewBox="0 0 102.8 97.1" enable-background="new 0 0 102.8 97.1" xml:space="preserve">
<g>
	<ellipse fill="#F0F0F0" cx="51.4" cy="48.6" rx="51.4" ry="48.6"/>
	<ellipse opacity="0.49" fill="#727A6F" cx="52.2" cy="81.3" rx="18.6" ry="2.5"/>
	<g>
		<g>
			<g enable-background="new    ">
				<g enable-background="new    ">
					<defs>
						<path id="SVGID_1_" enable-background="new    " d="M62.5,34.7L61.3,34c1.2,0.6,2.5,0.9,4,0.7l1.3,0.7
							C65.1,35.6,63.7,35.4,62.5,34.7z"/>
					</defs>
					<clipPath id="SVGID_2_">
						<use xlink:href="#SVGID_1_"  overflow="visible"/>
					</clipPath>
					<g clip-path="url(#SVGID_2_)" enable-background="new    ">
						<path fill="#5A6157" d="M62.5,34.7L61.3,34c0.1,0,0.1,0.1,0.2,0.1l1.3,0.7C62.7,34.8,62.6,34.8,62.5,34.7"/>
						<path fill="#5D645A" d="M62.7,34.8l-1.3-0.7c0.4,0.2,0.8,0.3,1.2,0.4l1.3,0.7C63.5,35.2,63.1,35,62.7,34.8"/>
						<path fill="#60675D" d="M63.9,35.3l-1.3-0.7c0.8,0.2,1.7,0.3,2.6,0.1l1.3,0.7C65.6,35.5,64.7,35.5,63.9,35.3"/>
					</g>
				</g>
				<g enable-background="new    ">
					<defs>
						<path id="SVGID_3_" enable-background="new    " d="M59.6,40l-1.3-0.7c-0.2-0.1-0.4-0.2-0.6-0.3l1.3,0.7
							C59.2,39.7,59.4,39.9,59.6,40z"/>
					</defs>
					<clipPath id="SVGID_4_">
						<use xlink:href="#SVGID_3_"  overflow="visible"/>
					</clipPath>
					<g clip-path="url(#SVGID_4_)" enable-background="new    ">
						<path fill="#4B5149" d="M59.6,40l-1.3-0.7c-0.2-0.1-0.4-0.2-0.6-0.3l1.3,0.7C59.2,39.7,59.4,39.9,59.6,40"/>
					</g>
				</g>
				<g enable-background="new    ">
					<defs>
						<path id="SVGID_5_" enable-background="new    " d="M46.7,57.2l-1.3-0.7c0.3,0.2,0.7,0.3,1.1,0.4c0.5,0.1,0.9,0.1,1.4,0
							c1.9-0.3,3.7-1.9,4.3-4c0.1-0.5,0.2-1,0.2-1.5l1.3,0.7c0,0.5-0.1,1-0.2,1.5c-0.6,2.2-2.4,3.8-4.3,4c-0.5,0.1-0.9,0.1-1.4,0
							C47.3,57.5,47,57.4,46.7,57.2z"/>
					</defs>
					<clipPath id="SVGID_6_">
						<use xlink:href="#SVGID_5_"  overflow="visible"/>
					</clipPath>
					<g clip-path="url(#SVGID_6_)" enable-background="new    ">
						<path fill="#5A6157" d="M46.7,57.2l-1.3-0.7c0,0,0.1,0,0.1,0.1l1.3,0.7C46.7,57.3,46.7,57.2,46.7,57.2"/>
						<path fill="#5D645A" d="M46.8,57.3l-1.3-0.7c0.2,0.1,0.5,0.2,0.7,0.3l1.3,0.7C47.3,57.5,47,57.4,46.8,57.3"/>
						<path fill="#60675D" d="M47.5,57.5l-1.3-0.7c0.1,0,0.1,0,0.2,0c0.5,0.1,0.9,0.1,1.4,0c0.5-0.1,0.9-0.2,1.3-0.4l1.3,0.7
							c-0.4,0.2-0.9,0.3-1.3,0.4c-0.5,0.1-0.9,0.1-1.4,0C47.7,57.6,47.6,57.6,47.5,57.5"/>
						<path fill="#5D645A" d="M50.4,57.2l-1.3-0.7c0.3-0.1,0.5-0.3,0.7-0.4l1.3,0.7C50.9,57,50.7,57.1,50.4,57.2"/>
						<path fill="#5A6157" d="M51.1,56.8l-1.3-0.7c0.2-0.1,0.4-0.3,0.6-0.4l1.3,0.7C51.5,56.5,51.3,56.7,51.1,56.8"/>
						<path fill="#575E55" d="M51.7,56.4l-1.3-0.7c0.2-0.1,0.3-0.3,0.5-0.5l1.3,0.7C52,56.1,51.9,56.2,51.7,56.4"/>
						<path fill="#545A52" d="M52.2,55.9l-1.3-0.7c0.1-0.2,0.3-0.3,0.4-0.5l1.3,0.7C52.4,55.6,52.3,55.7,52.2,55.9"/>
						<path fill="#51574F" d="M52.6,55.4l-1.3-0.7c0.1-0.2,0.3-0.4,0.4-0.6l1.3,0.7C52.8,55,52.7,55.2,52.6,55.4"/>
						<path fill="#4E544C" d="M52.9,54.8l-1.3-0.7c0.1-0.2,0.2-0.5,0.3-0.8l1.3,0.7C53.2,54.3,53.1,54.5,52.9,54.8"/>
						<path fill="#4B5149" d="M53.3,54L52,53.3c0.1-0.1,0.1-0.3,0.1-0.4c0.1-0.5,0.2-1,0.2-1.5l1.3,0.7c0,0.5-0.1,1-0.2,1.5
							C53.4,53.7,53.3,53.9,53.3,54"/>
					</g>
				</g>
				<g>
					<polygon fill="#4A5048" points="53.6,52.1 52.4,51.4 52.4,28.5 53.7,29.2 					"/>
				</g>
				<g>
					<polygon fill="#666E64" points="53.7,29.2 52.4,28.5 57.8,27.7 59,28.4 					"/>
				</g>
				<g enable-background="new    ">
					<defs>
						<path id="SVGID_7_" enable-background="new    " d="M43.8,62.5l-1.3-0.7c-2.8-1.5-4.6-4.6-4.6-8.4c0-5.9,4.4-11.3,9.9-12
							c0.4-0.1,0.9-0.1,1.3-0.1l1.3,0.7c-0.4,0-0.9,0-1.3,0.1c-5.5,0.8-9.9,6.2-9.9,12C39.2,57.9,41,61,43.8,62.5z"/>
					</defs>
					<clipPath id="SVGID_8_">
						<use xlink:href="#SVGID_7_"  overflow="visible"/>
					</clipPath>
					<g clip-path="url(#SVGID_8_)" enable-background="new    ">
						<path fill="#4B5149" d="M43.8,62.5l-1.3-0.7c-2.8-1.5-4.6-4.6-4.6-8.4c0-1.4,0.3-2.9,0.8-4.2l1.3,0.7
							c-0.5,1.3-0.8,2.7-0.8,4.2C39.2,57.9,41,61,43.8,62.5"/>
						<path fill="#4E544C" d="M40,49.9l-1.3-0.7c0.2-0.6,0.5-1.1,0.7-1.7l1.3,0.7C40.4,48.8,40.2,49.3,40,49.9"/>
						<path fill="#51574F" d="M40.7,48.3l-1.3-0.7c0.2-0.5,0.5-0.9,0.8-1.3l1.3,0.7C41.2,47.4,41,47.8,40.7,48.3"/>
						<path fill="#545A52" d="M41.5,46.9l-1.3-0.7c0.3-0.4,0.6-0.8,0.9-1.1l1.3,0.7C42.1,46.2,41.8,46.6,41.5,46.9"/>
						<path fill="#575E55" d="M42.4,45.8l-1.3-0.7c0.3-0.4,0.7-0.7,1-1l1.3,0.7C43.1,45.1,42.7,45.5,42.4,45.8"/>
						<path fill="#5A6157" d="M43.4,44.8l-1.3-0.7c0.4-0.3,0.8-0.7,1.2-0.9l1.3,0.7C44.2,44.1,43.8,44.5,43.4,44.8"/>
						<path fill="#5D645A" d="M44.6,43.9l-1.3-0.7c0.5-0.4,1-0.7,1.6-0.9l1.3,0.7C45.7,43.2,45.1,43.5,44.6,43.9"/>
						<path fill="#60675D" d="M46.2,42.9L45,42.2c0.9-0.4,1.9-0.7,2.9-0.9c0.4-0.1,0.9-0.1,1.3-0.1l1.3,0.7c-0.4,0-0.9,0-1.3,0.1
							C48.1,42.2,47.1,42.5,46.2,42.9"/>
					</g>
				</g>
				<g>
					<path fill="#7F887B" d="M59,28.4c0,0.5,0,1,0.1,1.4c0.4,2.1,1.6,3.9,3.3,4.8c1.2,0.7,2.6,1,4.1,0.7l0,5.7
						c-2.7,0.4-5.3-0.2-7.5-1.5l0,11.7c0,5.9-4.4,11.3-9.9,12s-9.9-3.4-9.9-9.3c0-5.9,4.4-11.3,9.9-12C49.6,42,50,42,50.5,42l0,5.9
						c-0.5-0.1-0.9-0.1-1.4,0c-1.9,0.3-3.7,1.9-4.3,4c-0.7,2.7,0.6,5.2,3,5.7c0.5,0.1,0.9,0.1,1.4,0c1.9-0.3,3.7-1.9,4.3-4
						c0.1-0.5,0.2-1,0.2-1.5l0-22.9L59,28.4z"/>
				</g>
			</g>
		</g>
	</g>
</g>
</svg>
