<?xml version="1.0" encoding="utf-8"?>
<!-- Generator: Adobe Illustrator 18.0.0, SVG Export Plug-In . SVG Version: 6.00 Build 0)  -->
<!DOCTYPE svg PUBLIC "-//W3C//DTD SVG 1.1//EN" "http://www.w3.org/Graphics/SVG/1.1/DTD/svg11.dtd">
<svg version="1.1" id="Layer_1" focusable="false" xmlns="http://www.w3.org/2000/svg" xmlns:xlink="http://www.w3.org/1999/xlink"
	 x="0px" y="0px" viewBox="-42.6 -33.7 102.8 97.1" enable-background="new -42.6 -33.7 102.8 97.1" xml:space="preserve">
<g>
	<ellipse fill="#EAEAEA" cx="8.9" cy="14.8" rx="51.4" ry="48.6"/>
	<ellipse opacity="0.49" fill="#FECEAB" cx="9.7" cy="47.6" rx="18.6" ry="2.5"/>
	<g>
		<g>
			<g enable-background="new    ">
				<g enable-background="new    ">
					<defs>
						<path id="SVGID_1_" enable-background="new    " d="M19.9,1l-1.3-0.7C19.9,1,21.2,1.2,22.6,1l1.3,0.7
							C22.5,1.9,21.1,1.6,19.9,1z"/>
					</defs>
					<clipPath id="SVGID_2_">
						<use xlink:href="#SVGID_1_"  overflow="visible"/>
					</clipPath>
					<g clip-path="url(#SVGID_2_)" enable-background="new    ">
						<path fill="#9E8777" d="M19.9,1l-1.3-0.7c0.1,0,0.2,0.1,0.2,0.1l1.3,0.7C20.1,1.1,20,1,19.9,1"/>
						<path fill="#A38B7B" d="M20.2,1.1l-1.3-0.7c0.4,0.2,0.8,0.3,1.2,0.4l1.3,0.7C20.9,1.5,20.5,1.3,20.2,1.1"/>
						<path fill="#A88F7F" d="M21.4,1.6l-1.3-0.7c0.8,0.2,1.7,0.3,2.5,0.1l1.3,0.7C23,1.8,22.2,1.8,21.4,1.6"/>
					</g>
				</g>
				<g enable-background="new    ">
					<defs>
						<path id="SVGID_3_" enable-background="new    " d="M17,6.3l-1.3-0.7c-0.2-0.1-0.4-0.2-0.6-0.3l1.3,0.7
							C16.6,6,16.8,6.1,17,6.3z"/>
					</defs>
					<clipPath id="SVGID_4_">
						<use xlink:href="#SVGID_3_"  overflow="visible"/>
					</clipPath>
					<g clip-path="url(#SVGID_4_)" enable-background="new    ">
						<path fill="#857164" d="M17,6.3l-1.3-0.7c-0.2-0.1-0.4-0.2-0.6-0.3l1.3,0.7C16.6,6,16.8,6.1,17,6.3"/>
					</g>
				</g>
				<g enable-background="new    ">
					<defs>
						<path id="SVGID_5_" enable-background="new    " d="M4.1,23.5l-1.3-0.7c0.3,0.2,0.7,0.3,1.1,0.4c0.5,0.1,0.9,0.1,1.4,0
							c1.9-0.3,3.7-1.9,4.3-4c0.1-0.5,0.2-1,0.2-1.5l1.3,0.7c0,0.5-0.1,1-0.2,1.5c-0.6,2.2-2.4,3.8-4.3,4c-0.4,0.1-0.9,0.1-1.4,0
							C4.8,23.8,4.4,23.7,4.1,23.5z"/>
					</defs>
					<clipPath id="SVGID_6_">
						<use xlink:href="#SVGID_5_"  overflow="visible"/>
					</clipPath>
					<g clip-path="url(#SVGID_6_)" enable-background="new    ">
						<path fill="#9E8777" d="M4.1,23.5l-1.3-0.7c0,0,0.1,0,0.1,0.1l1.3,0.7C4.2,23.5,4.1,23.5,4.1,23.5"/>
						<path fill="#A38B7B" d="M4.2,23.6L3,22.9c0.2,0.1,0.5,0.2,0.7,0.3L5,23.8C4.7,23.8,4.5,23.7,4.2,23.6"/>
						<path fill="#A88F7F" d="M5,23.8l-1.3-0.7c0.1,0,0.1,0,0.2,0c0.5,0.1,0.9,0.1,1.4,0c0.5-0.1,0.9-0.2,1.3-0.4l1.3,0.7
							c-0.4,0.2-0.9,0.3-1.3,0.4c-0.4,0.1-0.9,0.1-1.4,0C5.1,23.9,5,23.8,5,23.8"/>
						<path fill="#A38B7B" d="M7.9,23.5l-1.3-0.7c0.3-0.1,0.5-0.3,0.7-0.4l1.3,0.7C8.4,23.2,8.1,23.4,7.9,23.5"/>
						<path fill="#9E8777" d="M8.6,23.1l-1.3-0.7c0.2-0.1,0.4-0.3,0.6-0.4l1.3,0.7C9,22.8,8.8,22.9,8.6,23.1"/>
						<path fill="#998273" d="M9.1,22.6L7.9,22c0.2-0.1,0.3-0.3,0.5-0.5l1.3,0.7C9.5,22.3,9.3,22.5,9.1,22.6"/>
						<path fill="#947E6F" d="M9.6,22.2l-1.3-0.7c0.1-0.2,0.3-0.3,0.4-0.5l1.3,0.7C9.9,21.8,9.7,22,9.6,22.2"/>
						<path fill="#8F7A6C" d="M10,21.7L8.8,21c0.1-0.2,0.3-0.4,0.4-0.6l1.3,0.7C10.3,21.3,10.1,21.5,10,21.7"/>
						<path fill="#8A7568" d="M10.4,21.1l-1.3-0.7c0.1-0.2,0.2-0.5,0.3-0.8l1.3,0.7C10.6,20.6,10.5,20.8,10.4,21.1"/>
						<path fill="#857164" d="M10.7,20.3l-1.3-0.7c0.1-0.1,0.1-0.3,0.1-0.4c0.1-0.5,0.2-1,0.2-1.5l1.3,0.7c0,0.5-0.1,1-0.2,1.5
							C10.8,20,10.8,20.2,10.7,20.3"/>
					</g>
				</g>
				<g>
					<polygon fill="#826F62" points="11.1,18.4 9.8,17.7 9.9,-5.2 11.1,-4.5 					"/>
				</g>
				<g>
					<polygon fill="#B49988" points="11.1,-4.5 9.9,-5.2 15.2,-6 16.5,-5.3 					"/>
				</g>
				<g enable-background="new    ">
					<defs>
						<path id="SVGID_7_" enable-background="new    " d="M1.2,28.8L0,28.1c-2.8-1.5-4.6-4.6-4.6-8.4c0-5.9,4.4-11.3,9.9-12
							c0.4-0.1,0.9-0.1,1.4-0.1l1.3,0.7c-0.4,0-0.9,0-1.4,0.1c-5.5,0.8-9.9,6.2-9.9,12C-3.3,24.2-1.5,27.3,1.2,28.8z"/>
					</defs>
					<clipPath id="SVGID_8_">
						<use xlink:href="#SVGID_7_"  overflow="visible"/>
					</clipPath>
					<g clip-path="url(#SVGID_8_)" enable-background="new    ">
						<path fill="#857164" d="M1.2,28.8L0,28.1c-2.8-1.5-4.6-4.6-4.6-8.4c0-1.4,0.3-2.9,0.8-4.2l1.3,0.7c-0.5,1.3-0.8,2.7-0.8,4.2
							C-3.3,24.2-1.5,27.3,1.2,28.8"/>
						<path fill="#8A7568" d="M-2.6,16.2l-1.3-0.7c0.2-0.6,0.5-1.1,0.7-1.7l1.3,0.7C-2.1,15.1-2.4,15.6-2.6,16.2"/>
						<path fill="#8F7A6C" d="M-1.8,14.5l-1.3-0.7c0.2-0.5,0.5-0.9,0.8-1.3l1.3,0.7C-1.3,13.7-1.6,14.1-1.8,14.5"/>
						<path fill="#947E6F" d="M-1,13.2l-1.3-0.7c0.3-0.4,0.6-0.8,0.9-1.1l1.3,0.7C-0.5,12.5-0.7,12.8-1,13.2"/>
						<path fill="#998273" d="M-0.1,12.1l-1.3-0.7c0.3-0.4,0.7-0.7,1-1l1.3,0.7C0.5,11.4,0.2,11.7-0.1,12.1"/>
						<path fill="#9E8777" d="M0.9,11.1l-1.3-0.7C0,10.1,0.4,9.7,0.8,9.5l1.3,0.7C1.7,10.4,1.3,10.7,0.9,11.1"/>
						<path fill="#A38B7B" d="M2.1,10.1L0.8,9.5c0.5-0.4,1-0.7,1.6-0.9l1.3,0.7C3.1,9.5,2.6,9.8,2.1,10.1"/>
						<path fill="#A88F7F" d="M3.7,9.2L2.4,8.5c0.9-0.4,1.9-0.7,2.9-0.9c0.4-0.1,0.9-0.1,1.4-0.1l1.3,0.7c-0.4,0-0.9,0-1.4,0.1
							C5.6,8.5,4.6,8.8,3.7,9.2"/>
					</g>
				</g>
				<g>
					<path fill="#DFBDA8" d="M23.9,1.7l0,5.7c-2.7,0.4-5.3-0.2-7.5-1.5l0,11.7c0,5.9-4.4,11.3-9.9,12c-5.5,0.8-9.9-3.4-9.9-9.3
						c0-5.9,4.4-11.3,9.9-12C7,8.3,7.5,8.3,7.9,8.3l0,5.9c-0.5-0.1-0.9-0.1-1.4,0c-1.9,0.3-3.7,1.9-4.3,4c-0.8,2.7,0.6,5.2,3,5.7
						c0.5,0.1,0.9,0.1,1.4,0c1.9-0.3,3.7-1.9,4.3-4c0.1-0.5,0.2-1,0.2-1.5l0-22.9l5.4-0.8c0,0.5,0,1,0.1,1.4
						c0.4,2.1,1.6,3.9,3.3,4.8C21,1.6,22.4,1.9,23.9,1.7z"/>
				</g>
			</g>
		</g>
	</g>
</g>
</svg>
