<?xml version="1.0" encoding="utf-8"?>
<!-- Generator: Adobe Illustrator 18.0.0, SVG Export Plug-In . SVG Version: 6.00 Build 0)  -->
<!DOCTYPE svg PUBLIC "-//W3C//DTD SVG 1.1//EN" "http://www.w3.org/Graphics/SVG/1.1/DTD/svg11.dtd">
<svg version="1.1" id="Layer_1" xmlns="http://www.w3.org/2000/svg" xmlns:xlink="http://www.w3.org/1999/xlink" x="0px" y="0px"
	 viewBox="0 0 102.8 97.1" enable-background="new 0 0 102.8 97.1" xml:space="preserve">
<g>
	<ellipse fill="#EAEAEA" cx="51.1" cy="48.8" rx="51.4" ry="48.6"/>
	<g>
		<g>
			<g enable-background="new    ">
				<g enable-background="new    ">
					<defs>
						<path id="SVGID_1_" enable-background="new    " d="M67.6,31.1l-1.6-0.9c1.7-0.4,3.3-1.2,4.7-2.2l1.6,0.9
							C70.8,29.8,69.2,30.6,67.6,31.1z"/>
					</defs>
					<clipPath id="SVGID_2_">
						<use xlink:href="#SVGID_1_"  overflow="visible"/>
					</clipPath>
					<g clip-path="url(#SVGID_2_)" enable-background="new    ">
						<path fill="#A69184" d="M67.6,31.1l-1.6-0.9c0.9-0.2,1.7-0.5,2.5-0.9l1.6,0.9C69.3,30.5,68.4,30.8,67.6,31.1"/>
						<path fill="#A18D80" d="M70.1,30.1l-1.6-0.9c0.8-0.4,1.5-0.8,2.2-1.3l1.6,0.9C71.6,29.3,70.8,29.8,70.1,30.1"/>
					</g>
				</g>
				<g enable-background="new    ">
					<defs>
						<path id="SVGID_3_" enable-background="new    " d="M66,28.2l-1.6-0.9c1.9-0.7,3.6-1.8,5.2-3.1l1.6,0.9
							C69.6,26.5,67.8,27.6,66,28.2z"/>
					</defs>
					<clipPath id="SVGID_4_">
						<use xlink:href="#SVGID_3_"  overflow="visible"/>
					</clipPath>
					<g clip-path="url(#SVGID_4_)" enable-background="new    ">
						<path fill="#A69184" d="M66,28.2l-1.6-0.9c0.4-0.2,0.9-0.3,1.3-0.5l1.6,0.9C66.8,27.9,66.4,28.1,66,28.2"/>
						<path fill="#A18D80" d="M67.3,27.7l-1.6-0.9c0.8-0.4,1.7-0.9,2.5-1.4l1.6,0.9C68.9,26.8,68.1,27.3,67.3,27.7"/>
						<path fill="#9C887C" d="M69.7,26.3l-1.6-0.9c0.5-0.4,1-0.7,1.5-1.1l1.6,0.9C70.7,25.5,70.2,25.9,69.7,26.3"/>
					</g>
				</g>
				<g enable-background="new    ">
					<defs>
						<path id="SVGID_5_" enable-background="new    " d="M62.4,25.8l1.6,0.9C62.9,26,61.5,25.8,60,26c-4.6,0.6-8.2,5.6-8.2,11
							c0,0.8,0.1,1.5,0.2,2.2l-1.6-0.9c-0.1-0.7-0.2-1.5-0.2-2.2c0-5.4,3.7-10.3,8.2-11C59.8,24.9,61.2,25.2,62.4,25.8z"/>
					</defs>
					<clipPath id="SVGID_6_">
						<use xlink:href="#SVGID_5_"  overflow="visible"/>
					</clipPath>
					<g clip-path="url(#SVGID_6_)" enable-background="new    ">
						<path fill="#837268" d="M51.9,39.2l-1.6-0.9c-0.1-0.7-0.2-1.5-0.2-2.2c0-1.5,0.3-2.9,0.8-4.2l1.6,0.9
							c-0.5,1.3-0.8,2.7-0.8,4.2C51.7,37.7,51.8,38.5,51.9,39.2"/>
						<path fill="#88776C" d="M52.5,32.8l-1.6-0.9c0.2-0.6,0.4-1.1,0.7-1.6l1.6,0.9C52.9,31.7,52.7,32.2,52.5,32.8"/>
						<path fill="#8D7B70" d="M53.2,31.2l-1.6-0.9c0.2-0.4,0.5-0.8,0.7-1.2L54,30C53.7,30.4,53.4,30.8,53.2,31.2"/>
						<path fill="#928074" d="M54,30l-1.6-0.9c0.2-0.3,0.5-0.7,0.8-1l1.6,0.9C54.5,29.3,54.2,29.6,54,30"/>
						<path fill="#978478" d="M54.7,29l-1.6-0.9c0.3-0.3,0.5-0.6,0.8-0.9l1.6,0.9C55.3,28.4,55,28.7,54.7,29"/>
						<path fill="#9C887C" d="M55.6,28.1l-1.6-0.9c0.3-0.3,0.6-0.5,1-0.8l1.6,0.9C56.2,27.6,55.9,27.9,55.6,28.1"/>
						<path fill="#A18D80" d="M56.5,27.4l-1.6-0.9c0.4-0.3,0.8-0.5,1.3-0.7l1.6,0.9C57.4,26.8,56.9,27.1,56.5,27.4"/>
						<path fill="#A69184" d="M57.8,26.6l-1.6-0.9c0.7-0.3,1.4-0.6,2.2-0.7c0.9-0.1,1.8-0.1,2.6,0.1l1.6,0.9
							c-0.8-0.2-1.7-0.3-2.6-0.1C59.2,26.1,58.5,26.3,57.8,26.6"/>
						<path fill="#A18D80" d="M62.6,26.1L61,25.2c0.4,0.1,0.8,0.3,1.2,0.5l1.6,0.9C63.4,26.4,63,26.2,62.6,26.1"/>
						<path fill="#9C887C" d="M63.8,26.6l-1.6-0.9c0.1,0,0.2,0.1,0.2,0.1l1.6,0.9C64,26.7,63.9,26.6,63.8,26.6"/>
					</g>
				</g>
				<g enable-background="new    ">
					<defs>
						<path id="SVGID_7_" enable-background="new    " d="M32.2,64.4l-1.6-0.9c0.7,0,1.3-0.1,2-0.2c3.8-0.5,7.4-2.6,10.2-5.6
							l1.6,0.9c-2.8,3-6.4,5.1-10.2,5.6C33.5,64.4,32.8,64.4,32.2,64.4z"/>
					</defs>
					<clipPath id="SVGID_8_">
						<use xlink:href="#SVGID_7_"  overflow="visible"/>
					</clipPath>
					<g clip-path="url(#SVGID_8_)" enable-background="new    ">
						<path fill="#A69184" d="M32.2,64.4l-1.6-0.9c0.7,0,1.3-0.1,2-0.2c1.5-0.2,3-0.7,4.4-1.3l1.6,0.9c-1.4,0.7-2.9,1.1-4.4,1.3
							C33.5,64.4,32.8,64.4,32.2,64.4"/>
						<path fill="#A18D80" d="M38.6,62.9L36.9,62c0.9-0.4,1.7-0.9,2.5-1.4l1.6,0.9C40.3,62,39.4,62.5,38.6,62.9"/>
						<path fill="#9C887C" d="M41.1,61.5l-1.6-0.9c0.7-0.5,1.3-1,1.9-1.5l1.6,0.9C42.4,60.5,41.8,61,41.1,61.5"/>
						<path fill="#978478" d="M43,59.9L41.4,59c0.5-0.4,0.9-0.8,1.3-1.3l1.6,0.9C43.9,59.1,43.5,59.5,43,59.9"/>
					</g>
				</g>
				<g enable-background="new    ">
					<defs>
						<path id="SVGID_9_" enable-background="new    " d="M33.2,65l-1.6-0.9c-0.4-0.2-0.7-0.4-1-0.6l1.6,0.9
							C32.5,64.6,32.8,64.8,33.2,65z"/>
					</defs>
					<clipPath id="SVGID_10_">
						<use xlink:href="#SVGID_9_"  overflow="visible"/>
					</clipPath>
					<g clip-path="url(#SVGID_10_)" enable-background="new    ">
						<path fill="#837268" d="M33.2,65l-1.6-0.9c-0.4-0.2-0.7-0.4-1-0.6l1.6,0.9C32.5,64.6,32.8,64.8,33.2,65"/>
					</g>
				</g>
				<g enable-background="new    ">
					<defs>
						<path id="SVGID_11_" enable-background="new    " d="M36.7,52.9L35,52c0.5,0,1,0,1.6-0.1c0.7-0.1,1.5-0.3,2.2-0.6l1.6,0.9
							c-0.7,0.3-1.4,0.5-2.2,0.6C37.7,52.9,37.2,52.9,36.7,52.9z"/>
					</defs>
					<clipPath id="SVGID_12_">
						<use xlink:href="#SVGID_11_"  overflow="visible"/>
					</clipPath>
					<g clip-path="url(#SVGID_12_)" enable-background="new    ">
						<path fill="#A69184" d="M36.7,52.9L35,52c0.5,0,1,0,1.6-0.1c0.7-0.1,1.5-0.3,2.2-0.6l1.6,0.9c-0.7,0.3-1.4,0.5-2.2,0.6
							C37.7,52.9,37.2,52.9,36.7,52.9"/>
					</g>
				</g>
				<g enable-background="new    ">
					<defs>
						<path id="SVGID_13_" enable-background="new    " d="M40.4,57.9L38.8,57c-1.8-1-3.1-2.7-3.7-5l1.6,0.9
							C37.3,55.2,38.7,56.9,40.4,57.9z"/>
					</defs>
					<clipPath id="SVGID_14_">
						<use xlink:href="#SVGID_13_"  overflow="visible"/>
					</clipPath>
					<g clip-path="url(#SVGID_14_)" enable-background="new    ">
						<path fill="#837268" d="M40.4,57.9L38.8,57c-1.8-1-3.1-2.7-3.7-5l1.6,0.9C37.3,55.2,38.7,56.9,40.4,57.9"/>
					</g>
				</g>
				<g enable-background="new    ">
					<defs>
						<path id="SVGID_15_" enable-background="new    " d="M41.5,37l-1.6-0.9c3.1,1.7,6.6,2.5,10.4,2.2l1.6,0.9
							C48.2,39.5,44.6,38.7,41.5,37z"/>
					</defs>
					<clipPath id="SVGID_16_">
						<use xlink:href="#SVGID_15_"  overflow="visible"/>
					</clipPath>
					<g clip-path="url(#SVGID_16_)" enable-background="new    ">
						<path fill="#9C887C" d="M41.5,37l-1.6-0.9c0.2,0.1,0.5,0.2,0.7,0.4l1.6,0.9C42,37.2,41.8,37.1,41.5,37"/>
						<path fill="#A18D80" d="M42.2,37.4l-1.6-0.9c1.1,0.5,2.3,1,3.5,1.3l1.6,0.9C44.5,38.3,43.3,37.9,42.2,37.4"/>
						<path fill="#A69184" d="M45.7,38.7l-1.6-0.9c2,0.5,4.1,0.7,6.2,0.5l1.6,0.9C49.8,39.4,47.7,39.2,45.7,38.7"/>
					</g>
				</g>
				<g enable-background="new    ">
					<defs>
						<path id="SVGID_17_" enable-background="new    " d="M38,51.4l-1.6-0.9c-2.5-1.3-4.1-4.3-4.1-8l1.6,0.9
							C33.8,47.1,35.5,50.1,38,51.4z"/>
					</defs>
					<clipPath id="SVGID_18_">
						<use xlink:href="#SVGID_17_"  overflow="visible"/>
					</clipPath>
					<g clip-path="url(#SVGID_18_)" enable-background="new    ">
						<path fill="#837268" d="M38,51.4l-1.6-0.9c-2.5-1.3-4.1-4.3-4.1-8l1.6,0.9C33.8,47.1,35.5,50.1,38,51.4"/>
					</g>
				</g>
				<g enable-background="new    ">
					<defs>
						<path id="SVGID_19_" enable-background="new    " d="M33.8,43.5l-1.6-0.9c1.1,0.5,2.4,0.7,3.7,0.6l1.6,0.9
							C36.2,44.2,34.9,43.9,33.8,43.5z"/>
					</defs>
					<clipPath id="SVGID_20_">
						<use xlink:href="#SVGID_19_"  overflow="visible"/>
					</clipPath>
					<g clip-path="url(#SVGID_20_)" enable-background="new    ">
						<path fill="#A18D80" d="M33.8,43.5l-1.6-0.9c0.4,0.2,0.7,0.3,1.1,0.4l1.6,0.9C34.6,43.8,34.2,43.6,33.8,43.5"/>
						<path fill="#A69184" d="M35,43.9L33.3,43c0.8,0.2,1.7,0.3,2.6,0.2l1.6,0.9C36.6,44.2,35.8,44.1,35,43.9"/>
					</g>
				</g>
				<g enable-background="new    ">
					<defs>
						<path id="SVGID_21_" enable-background="new    " d="M37.5,44.1l-1.6-0.9c-2.2-1.5-3.7-4.3-3.6-7.7c0-1.8,0.4-3.6,1.1-5.1
							l1.6,0.9c-0.7,1.6-1.1,3.3-1.1,5.1C33.9,39.8,35.3,42.6,37.5,44.1z"/>
					</defs>
					<clipPath id="SVGID_22_">
						<use xlink:href="#SVGID_21_"  overflow="visible"/>
					</clipPath>
					<g clip-path="url(#SVGID_22_)" enable-background="new    ">
						<path fill="#837268" d="M37.5,44.1l-1.6-0.9c-2.2-1.5-3.7-4.3-3.6-7.7c0-1.5,0.3-2.9,0.8-4.2l1.6,0.9
							c-0.5,1.3-0.8,2.7-0.8,4.2C33.9,39.8,35.3,42.6,37.5,44.1"/>
						<path fill="#88776C" d="M34.6,32.2L33,31.3c0.1-0.3,0.2-0.6,0.4-0.9l1.6,0.9C34.9,31.6,34.8,31.9,34.6,32.2"/>
					</g>
				</g>
				<g>
					<path fill="#DCC0AF" d="M72.3,28.9c-1.1,2.1-2.5,4-4.1,5.7c0,0.4,0,0.8,0,1.3c0,13-8.3,29.1-23.4,31.2c-4.7,0.7-9-0.3-12.6-2.6
						c0.7,0,1.3-0.1,2-0.2c3.8-0.5,7.4-2.6,10.2-5.6c-3.6,0.4-6.6-2-7.7-5.7c0.5,0,1,0,1.6-0.1c0.7-0.1,1.5-0.3,2.2-0.6
						c-3.8-0.4-6.6-3.9-6.6-8.7c1.1,0.5,2.4,0.7,3.7,0.6c-2.2-1.5-3.7-4.3-3.6-7.7c0-1.8,0.4-3.6,1.1-5.1c4,5.4,10.1,8.4,16.9,7.9
						c-0.1-0.7-0.2-1.5-0.2-2.2c0-5.4,3.7-10.3,8.2-11c2.4-0.3,4.5,0.6,6,2.3c1.9-0.7,3.6-1.8,5.2-3.1c-0.6,2.4-1.9,4.5-3.6,5.9
						C69.2,30.6,70.8,29.8,72.3,28.9z"/>
				</g>
			</g>
		</g>
	</g>
	<ellipse opacity="0.49" fill="#FECEAB" cx="51.9" cy="81.6" rx="18.6" ry="2.5"/>
</g>
</svg>
