<?xml version="1.0" encoding="utf-8"?>
<!-- Generator: Adobe Illustrator 18.0.0, SVG Export Plug-In . SVG Version: 6.00 Build 0)  -->
<!DOCTYPE svg PUBLIC "-//W3C//DTD SVG 1.1//EN" "http://www.w3.org/Graphics/SVG/1.1/DTD/svg11.dtd">
<svg version="1.1" id="Layer_1" xmlns="http://www.w3.org/2000/svg" xmlns:xlink="http://www.w3.org/1999/xlink" x="0px" y="0px"
	 viewBox="0 0 154 145" enable-background="new 0 0 154 145" xml:space="preserve">
<g>
	
		<image overflow="visible" opacity="0.28" width="173" height="165" xlink:href="FD7CB4B8.png"  transform="matrix(1 0 0 1 -8.7646 -9.7646)">
	</image>
	<g>
		<g>
			<g>
				<g>
					<g>
						<g>
							<defs>
								<path id="SVGID_1_" d="M99.5,48.1l-2.3-1.2c2.3-0.6,4.5-1.7,6.6-3l2.3,1.2C104,46.4,101.8,47.5,99.5,48.1z"/>
							</defs>
							<clipPath id="SVGID_2_">
								<use xlink:href="#SVGID_1_"  overflow="visible"/>
							</clipPath>
						</g>
						<g>
							<defs>
								<path id="SVGID_3_" d="M97.3,44.2L95,43c2.6-1,5.1-2.5,7.3-4.3l2.3,1.2C102.4,41.8,99.9,43.3,97.3,44.2z"/>
							</defs>
							<clipPath id="SVGID_4_">
								<use xlink:href="#SVGID_3_"  overflow="visible"/>
							</clipPath>
						</g>
						<g>
							<defs>
								<path id="SVGID_5_" d="M92.3,40.8l2.3,1.2c-1.7-0.9-3.6-1.3-5.7-1c-6.3,0.9-11.5,7.7-11.5,15.3c0,1.1,0.1,2.1,0.3,3.1
									l-2.3-1.2c-0.2-1-0.3-2-0.3-3.1c0-7.5,5.1-14.4,11.5-15.3C88.7,39.5,90.7,39.9,92.3,40.8z"/>
							</defs>
							<clipPath id="SVGID_6_">
								<use xlink:href="#SVGID_5_"  overflow="visible"/>
							</clipPath>
						</g>
						<g>
							<defs>
								<path id="SVGID_7_" d="M50.2,94.6l-2.3-1.2c0.9,0,1.8-0.1,2.8-0.2c5.4-0.8,10.3-3.6,14.2-7.8l2.3,1.2
									c-3.9,4.2-8.9,7.1-14.2,7.8C52,94.5,51.1,94.6,50.2,94.6z"/>
							</defs>
							<clipPath id="SVGID_8_">
								<use xlink:href="#SVGID_7_"  overflow="visible"/>
							</clipPath>
						</g>
						<g>
							<defs>
								<path id="SVGID_9_" d="M51.6,95.4l-2.3-1.2c-0.5-0.3-1-0.6-1.5-0.9l2.3,1.2C50.7,94.9,51.1,95.2,51.6,95.4z"/>
							</defs>
							<clipPath id="SVGID_10_">
								<use xlink:href="#SVGID_9_"  overflow="visible"/>
							</clipPath>
						</g>
						<g>
							<defs>
								<path id="SVGID_11_" d="M56.5,78.5l-2.3-1.2c0.7,0,1.4,0,2.2-0.1c1-0.1,2.1-0.5,3-0.9l2.3,1.2c-1,0.4-2,0.7-3,0.9
									C57.9,78.6,57.2,78.6,56.5,78.5z"/>
							</defs>
							<clipPath id="SVGID_12_">
								<use xlink:href="#SVGID_11_"  overflow="visible"/>
							</clipPath>
						</g>
						<g>
							<defs>
								<path id="SVGID_13_" d="M61.7,85.5l-2.3-1.2c-2.5-1.3-4.3-3.8-5.2-7l2.3,1.2C57.4,81.7,59.2,84.2,61.7,85.5z"/>
							</defs>
							<clipPath id="SVGID_14_">
								<use xlink:href="#SVGID_13_"  overflow="visible"/>
							</clipPath>
						</g>
						<g>
							<defs>
								<path id="SVGID_15_" d="M63.2,56.4L61,55.2c4.3,2.3,9.2,3.5,14.5,3l2.3,1.2C72.5,59.9,67.6,58.8,63.2,56.4z"/>
							</defs>
							<clipPath id="SVGID_16_">
								<use xlink:href="#SVGID_15_"  overflow="visible"/>
							</clipPath>
						</g>
						<g>
							<defs>
								<path id="SVGID_17_" d="M58.2,76.5L56,75.3c-3.4-1.9-5.8-6-5.7-11.1l2.3,1.2C52.5,70.5,54.8,74.6,58.2,76.5z"/>
							</defs>
							<clipPath id="SVGID_18_">
								<use xlink:href="#SVGID_17_"  overflow="visible"/>
							</clipPath>
						</g>
						<g>
							<defs>
								<path id="SVGID_19_" d="M52.5,65.4l-2.3-1.2c1.5,0.6,3.3,1,5.2,0.8l2.3,1.2C55.8,66.4,54,66.1,52.5,65.4z"/>
							</defs>
							<clipPath id="SVGID_20_">
								<use xlink:href="#SVGID_19_"  overflow="visible"/>
							</clipPath>
						</g>
						<g>
							<defs>
								<path id="SVGID_21_" d="M57.7,66.3L55.4,65c-3.1-2-5.1-5.9-5.1-10.7c0-2.5,0.6-5,1.6-7.1l2.3,1.2c-1,2.2-1.6,4.6-1.6,7.1
									C52.6,60.3,54.6,64.2,57.7,66.3z"/>
							</defs>
							<clipPath id="SVGID_22_">
								<use xlink:href="#SVGID_21_"  overflow="visible"/>
							</clipPath>
						</g>
					</g>
				</g>
			</g>
		</g>
		<g>
			<ellipse fill="#EAEAEA" cx="77" cy="72.5" rx="71.6" ry="67.6"/>
			<g>
				<g>
					<g enable-background="new    ">
						<g enable-background="new    ">
							<defs>
								<path id="SVGID_23_" enable-background="new    " d="M99.5,48.1l-2.3-1.2c2.3-0.6,4.5-1.7,6.6-3l2.3,1.2
									C104,46.4,101.8,47.5,99.5,48.1z"/>
							</defs>
							<clipPath id="SVGID_24_">
								<use xlink:href="#SVGID_23_"  overflow="visible"/>
							</clipPath>
							<g clip-path="url(#SVGID_24_)" enable-background="new    ">
								<path fill="#A88871" d="M99.5,48.1l-2.3-1.2c1.2-0.3,2.3-0.8,3.5-1.3l2.3,1.2C101.8,47.4,100.7,47.8,99.5,48.1"/>
								<path fill="#A3846D" d="M103,46.8l-2.3-1.2c1.1-0.5,2.1-1.1,3.1-1.8l2.3,1.2C105.1,45.8,104,46.3,103,46.8"/>
							</g>
						</g>
						<g enable-background="new    ">
							<defs>
								<path id="SVGID_25_" enable-background="new    " d="M97.3,44.2L95,43c2.6-1,5.1-2.5,7.3-4.3l2.3,1.2
									C102.4,41.8,99.9,43.3,97.3,44.2z"/>
							</defs>
							<clipPath id="SVGID_26_">
								<use xlink:href="#SVGID_25_"  overflow="visible"/>
							</clipPath>
							<g clip-path="url(#SVGID_26_)" enable-background="new    ">
								<path fill="#A88871" d="M97.3,44.2L95,43c0.6-0.2,1.2-0.5,1.7-0.7l2.3,1.2C98.4,43.8,97.9,44,97.3,44.2"/>
								<path fill="#A3846D" d="M99,43.5l-2.3-1.2c1.2-0.6,2.3-1.2,3.4-2l2.3,1.2C101.4,42.3,100.2,42.9,99,43.5"/>
								<path fill="#9D806A" d="M102.5,41.5l-2.3-1.2c0.7-0.5,1.4-1,2.1-1.6l2.3,1.2C103.9,40.5,103.2,41,102.5,41.5"/>
							</g>
						</g>
						<g enable-background="new    ">
							<defs>
								<path id="SVGID_27_" enable-background="new    " d="M92.3,40.8l2.3,1.2c-1.7-0.9-3.6-1.3-5.7-1
									c-6.3,0.9-11.5,7.7-11.5,15.3c0,1.1,0.1,2.1,0.3,3.1l-2.3-1.2c-0.2-1-0.3-2-0.3-3.1c0-7.5,5.1-14.4,11.5-15.3
									C88.7,39.5,90.7,39.9,92.3,40.8z"/>
							</defs>
							<clipPath id="SVGID_28_">
								<use xlink:href="#SVGID_27_"  overflow="visible"/>
							</clipPath>
							<g clip-path="url(#SVGID_28_)" enable-background="new    ">
								<path fill="#846B59" d="M77.7,59.5l-2.3-1.2c-0.2-1-0.3-2-0.3-3.1c0-2,0.4-4,1.1-5.9l2.3,1.2c-0.7,1.8-1,3.8-1.1,5.9
									C77.5,57.4,77.6,58.5,77.7,59.5"/>
								<path fill="#896F5C" d="M78.5,50.5l-2.3-1.2c0.3-0.8,0.6-1.5,1-2.2l2.3,1.2C79.1,49,78.8,49.7,78.5,50.5"/>
								<path fill="#8E7360" d="M79.5,48.3L77.2,47c0.3-0.6,0.7-1.1,1-1.7l2.3,1.2C80.2,47.2,79.8,47.7,79.5,48.3"/>
								<path fill="#937763" d="M80.5,46.6l-2.3-1.2c0.3-0.5,0.7-0.9,1.1-1.4l2.3,1.2C81.2,45.7,80.9,46.1,80.5,46.6"/>
								<path fill="#987C67" d="M81.6,45.2L79.3,44c0.4-0.4,0.8-0.8,1.2-1.2l2.3,1.2C82.4,44.4,82,44.8,81.6,45.2"/>
								<path fill="#9D806A" d="M82.8,44.1l-2.3-1.2c0.4-0.4,0.9-0.7,1.3-1.1l2.3,1.2C83.7,43.3,83.2,43.7,82.8,44.1"/>
								<path fill="#A3846D" d="M84.1,43l-2.3-1.2c0.6-0.4,1.1-0.7,1.7-1l2.3,1.2C85.3,42.3,84.7,42.6,84.1,43"/>
								<path fill="#A88871" d="M85.9,42l-2.3-1.2c1-0.5,2-0.8,3-0.9c1.3-0.2,2.5-0.1,3.7,0.2l2.3,1.2c-1.1-0.3-2.4-0.4-3.7-0.2
									C87.9,41.2,86.8,41.5,85.9,42"/>
								<path fill="#A3846D" d="M92.6,41.3L90.3,40c0.6,0.2,1.2,0.4,1.7,0.6l2.3,1.2C93.7,41.6,93.2,41.4,92.6,41.3"/>
								<path fill="#9D806A" d="M94.3,41.9L92,40.7c0.1,0.1,0.2,0.1,0.3,0.2l2.3,1.2C94.5,42,94.4,42,94.3,41.9"/>
							</g>
						</g>
						<g enable-background="new    ">
							<defs>
								<path id="SVGID_29_" enable-background="new    " d="M50.2,94.6l-2.3-1.2c0.9,0,1.8-0.1,2.8-0.2c5.4-0.8,10.3-3.6,14.2-7.8
									l2.3,1.2c-3.9,4.2-8.9,7.1-14.2,7.8C52,94.5,51.1,94.6,50.2,94.6z"/>
							</defs>
							<clipPath id="SVGID_30_">
								<use xlink:href="#SVGID_29_"  overflow="visible"/>
							</clipPath>
							<g clip-path="url(#SVGID_30_)" enable-background="new    ">
								<path fill="#A88871" d="M50.2,94.6l-2.3-1.2c0.9,0,1.8-0.1,2.8-0.2c2.1-0.3,4.2-0.9,6.2-1.9l2.3,1.2c-2,0.9-4,1.6-6.2,1.9
									C52,94.5,51.1,94.6,50.2,94.6"/>
								<path fill="#A3846D" d="M59.1,92.5l-2.3-1.2c1.2-0.6,2.4-1.2,3.5-2l2.3,1.2C61.5,91.3,60.3,91.9,59.1,92.5"/>
								<path fill="#9D806A" d="M62.6,90.5l-2.3-1.2c0.9-0.6,1.8-1.4,2.7-2.1l2.3,1.2C64.4,89.1,63.5,89.9,62.6,90.5"/>
								<path fill="#987C67" d="M65.3,88.4L63,87.1c0.6-0.6,1.3-1.2,1.9-1.8l2.3,1.2C66.6,87.2,65.9,87.8,65.3,88.4"/>
							</g>
						</g>
						<g enable-background="new    ">
							<defs>
								<path id="SVGID_31_" enable-background="new    " d="M51.6,95.4l-2.3-1.2c-0.5-0.3-1-0.6-1.5-0.9l2.3,1.2
									C50.7,94.9,51.1,95.2,51.6,95.4z"/>
							</defs>
							<clipPath id="SVGID_32_">
								<use xlink:href="#SVGID_31_"  overflow="visible"/>
							</clipPath>
							<g clip-path="url(#SVGID_32_)" enable-background="new    ">
								<path fill="#846B59" d="M51.6,95.4l-2.3-1.2c-0.5-0.3-1-0.6-1.5-0.9l2.3,1.2C50.7,94.9,51.1,95.2,51.6,95.4"/>
							</g>
						</g>
						<g enable-background="new    ">
							<defs>
								<path id="SVGID_33_" enable-background="new    " d="M56.5,78.5l-2.3-1.2c0.7,0,1.4,0,2.2-0.1c1-0.1,2.1-0.5,3-0.9l2.3,1.2
									c-1,0.4-2,0.7-3,0.9C57.9,78.6,57.2,78.6,56.5,78.5z"/>
							</defs>
							<clipPath id="SVGID_34_">
								<use xlink:href="#SVGID_33_"  overflow="visible"/>
							</clipPath>
							<g clip-path="url(#SVGID_34_)" enable-background="new    ">
								<path fill="#A88871" d="M56.5,78.5l-2.3-1.2c0.7,0,1.4,0,2.2-0.1c1-0.1,2.1-0.5,3-0.9l2.3,1.2c-1,0.4-2,0.7-3,0.9
									C57.9,78.6,57.2,78.6,56.5,78.5"/>
							</g>
						</g>
						<g enable-background="new    ">
							<defs>
								<path id="SVGID_35_" enable-background="new    " d="M61.7,85.5l-2.3-1.2c-2.5-1.3-4.3-3.8-5.2-7l2.3,1.2
									C57.4,81.7,59.2,84.2,61.7,85.5z"/>
							</defs>
							<clipPath id="SVGID_36_">
								<use xlink:href="#SVGID_35_"  overflow="visible"/>
							</clipPath>
							<g clip-path="url(#SVGID_36_)" enable-background="new    ">
								<path fill="#846B59" d="M61.7,85.5l-2.3-1.2c-2.5-1.3-4.3-3.8-5.2-7l2.3,1.2C57.4,81.7,59.2,84.2,61.7,85.5"/>
							</g>
						</g>
						<g enable-background="new    ">
							<defs>
								<path id="SVGID_37_" enable-background="new    " d="M63.2,56.4L61,55.2c4.3,2.3,9.2,3.5,14.5,3l2.3,1.2
									C72.5,59.9,67.6,58.8,63.2,56.4z"/>
							</defs>
							<clipPath id="SVGID_38_">
								<use xlink:href="#SVGID_37_"  overflow="visible"/>
							</clipPath>
							<g clip-path="url(#SVGID_38_)" enable-background="new    ">
								<path fill="#9D806A" d="M63.2,56.4L61,55.2c0.3,0.2,0.6,0.3,0.9,0.5l2.3,1.2C63.9,56.7,63.6,56.6,63.2,56.4"/>
								<path fill="#A3846D" d="M64.2,56.9l-2.3-1.2c1.6,0.8,3.2,1.4,4.9,1.8l2.3,1.2C67.4,58.3,65.8,57.7,64.2,56.9"/>
								<path fill="#A88871" d="M69.1,58.7l-2.3-1.2c2.7,0.7,5.6,1,8.7,0.7l2.3,1.2C74.7,59.7,71.8,59.4,69.1,58.7"/>
							</g>
						</g>
						<g enable-background="new    ">
							<defs>
								<path id="SVGID_39_" enable-background="new    " d="M58.2,76.5L56,75.3c-3.4-1.9-5.8-6-5.7-11.1l2.3,1.2
									C52.5,70.5,54.8,74.6,58.2,76.5z"/>
							</defs>
							<clipPath id="SVGID_40_">
								<use xlink:href="#SVGID_39_"  overflow="visible"/>
							</clipPath>
							<g clip-path="url(#SVGID_40_)" enable-background="new    ">
								<path fill="#846B59" d="M58.2,76.5L56,75.3c-3.4-1.9-5.8-6-5.7-11.1l2.3,1.2C52.5,70.5,54.8,74.6,58.2,76.5"/>
							</g>
						</g>
						<g enable-background="new    ">
							<defs>
								<path id="SVGID_41_" enable-background="new    " d="M52.5,65.4l-2.3-1.2c1.5,0.6,3.3,1,5.2,0.8l2.3,1.2
									C55.8,66.4,54,66.1,52.5,65.4z"/>
							</defs>
							<clipPath id="SVGID_42_">
								<use xlink:href="#SVGID_41_"  overflow="visible"/>
							</clipPath>
							<g clip-path="url(#SVGID_42_)" enable-background="new    ">
								<path fill="#A3846D" d="M52.5,65.4l-2.3-1.2c0.5,0.2,1,0.4,1.6,0.5l2.3,1.2C53.5,65.8,53,65.6,52.5,65.4"/>
								<path fill="#A88871" d="M54.1,66l-2.3-1.2c1.1,0.3,2.3,0.4,3.6,0.3l2.3,1.2C56.4,66.4,55.2,66.2,54.1,66"/>
							</g>
						</g>
						<g>
							<path fill="#DEB495" d="M106.1,45.1c-1.6,2.9-3.5,5.6-5.7,7.9c0,0.6,0,1.2,0,1.8c0,18.1-11.6,40.6-32.6,43.5
								c-6.5,0.9-12.5-0.5-17.6-3.7c0.9,0,1.8-0.1,2.8-0.2c5.4-0.8,10.3-3.6,14.2-7.8c-5,0.6-9.2-2.8-10.7-8c0.7,0,1.4,0,2.2-0.1
								c1-0.1,2.1-0.5,3-0.9c-5.2-0.5-9.2-5.5-9.2-12.1c1.5,0.6,3.3,1,5.2,0.8c-3.1-2-5.1-5.9-5.1-10.7c0-2.5,0.6-5,1.6-7.1
								c5.6,7.5,14.1,11.7,23.6,11c-0.2-1-0.3-2-0.3-3.1c0-7.5,5.1-14.4,11.5-15.3c3.3-0.5,6.3,0.8,8.4,3.1c2.6-1,5.1-2.5,7.3-4.3
								c-0.9,3.3-2.7,6.2-5,8.3C101.8,47.5,104,46.4,106.1,45.1z"/>
						</g>
						<g enable-background="new    ">
							<defs>
								<path id="SVGID_43_" enable-background="new    " d="M57.7,66.3L55.4,65c-3.1-2-5.1-5.9-5.1-10.7c0-2.5,0.6-5,1.6-7.1
									l2.3,1.2c-1,2.2-1.6,4.6-1.6,7.1C52.6,60.3,54.6,64.2,57.7,66.3z"/>
							</defs>
							<clipPath id="SVGID_44_">
								<use xlink:href="#SVGID_43_"  overflow="visible"/>
							</clipPath>
							<g clip-path="url(#SVGID_44_)" enable-background="new    ">
								<path fill="#846B59" d="M57.7,66.3L55.4,65c-3.1-2-5.1-5.9-5.1-10.7c0-2.1,0.4-4.1,1.1-5.9l2.3,1.2
									c-0.7,1.8-1.1,3.8-1.1,5.9C52.6,60.3,54.6,64.2,57.7,66.3"/>
								<path fill="#896F5C" d="M53.7,49.7l-2.3-1.2c0.2-0.4,0.3-0.8,0.5-1.2l2.3,1.2C54,48.9,53.8,49.3,53.7,49.7"/>
							</g>
						</g>
					</g>
				</g>
			</g>
			<ellipse opacity="0.49" fill="#FECEAB" cx="78.1" cy="118.1" rx="25.9" ry="3.5"/>
		</g>
		<g>
			<g>
				<g>
					<g>
						<g>
							<defs>
								<path id="SVGID_45_" d="M99.5,48.1l-2.3-1.2c2.3-0.6,4.5-1.7,6.6-3l2.3,1.2C104,46.4,101.8,47.5,99.5,48.1z"/>
							</defs>
							<clipPath id="SVGID_46_">
								<use xlink:href="#SVGID_45_"  overflow="visible"/>
							</clipPath>
						</g>
						<g>
							<defs>
								<path id="SVGID_47_" d="M97.3,44.2L95,43c2.6-1,5.1-2.5,7.3-4.3l2.3,1.2C102.4,41.8,99.9,43.3,97.3,44.2z"/>
							</defs>
							<clipPath id="SVGID_48_">
								<use xlink:href="#SVGID_47_"  overflow="visible"/>
							</clipPath>
						</g>
						<g>
							<defs>
								<path id="SVGID_49_" d="M92.3,40.8l2.3,1.2c-1.7-0.9-3.6-1.3-5.7-1c-6.3,0.9-11.5,7.7-11.5,15.3c0,1.1,0.1,2.1,0.3,3.1
									l-2.3-1.2c-0.2-1-0.3-2-0.3-3.1c0-7.5,5.1-14.4,11.5-15.3C88.7,39.5,90.7,39.9,92.3,40.8z"/>
							</defs>
							<clipPath id="SVGID_50_">
								<use xlink:href="#SVGID_49_"  overflow="visible"/>
							</clipPath>
						</g>
						<g>
							<defs>
								<path id="SVGID_51_" d="M50.2,94.6l-2.3-1.2c0.9,0,1.8-0.1,2.8-0.2c5.4-0.8,10.3-3.6,14.2-7.8l2.3,1.2
									c-3.9,4.2-8.9,7.1-14.2,7.8C52,94.5,51.1,94.6,50.2,94.6z"/>
							</defs>
							<clipPath id="SVGID_52_">
								<use xlink:href="#SVGID_51_"  overflow="visible"/>
							</clipPath>
						</g>
						<g>
							<defs>
								<path id="SVGID_53_" d="M51.6,95.4l-2.3-1.2c-0.5-0.3-1-0.6-1.5-0.9l2.3,1.2C50.7,94.9,51.1,95.2,51.6,95.4z"/>
							</defs>
							<clipPath id="SVGID_54_">
								<use xlink:href="#SVGID_53_"  overflow="visible"/>
							</clipPath>
						</g>
						<g>
							<defs>
								<path id="SVGID_55_" d="M56.5,78.5l-2.3-1.2c0.7,0,1.4,0,2.2-0.1c1-0.1,2.1-0.5,3-0.9l2.3,1.2c-1,0.4-2,0.7-3,0.9
									C57.9,78.6,57.2,78.6,56.5,78.5z"/>
							</defs>
							<clipPath id="SVGID_56_">
								<use xlink:href="#SVGID_55_"  overflow="visible"/>
							</clipPath>
						</g>
						<g>
							<defs>
								<path id="SVGID_57_" d="M61.7,85.5l-2.3-1.2c-2.5-1.3-4.3-3.8-5.2-7l2.3,1.2C57.4,81.7,59.2,84.2,61.7,85.5z"/>
							</defs>
							<clipPath id="SVGID_58_">
								<use xlink:href="#SVGID_57_"  overflow="visible"/>
							</clipPath>
						</g>
						<g>
							<defs>
								<path id="SVGID_59_" d="M63.2,56.4L61,55.2c4.3,2.3,9.2,3.5,14.5,3l2.3,1.2C72.5,59.9,67.6,58.8,63.2,56.4z"/>
							</defs>
							<clipPath id="SVGID_60_">
								<use xlink:href="#SVGID_59_"  overflow="visible"/>
							</clipPath>
						</g>
						<g>
							<defs>
								<path id="SVGID_61_" d="M58.2,76.5L56,75.3c-3.4-1.9-5.8-6-5.7-11.1l2.3,1.2C52.5,70.5,54.8,74.6,58.2,76.5z"/>
							</defs>
							<clipPath id="SVGID_62_">
								<use xlink:href="#SVGID_61_"  overflow="visible"/>
							</clipPath>
						</g>
						<g>
							<defs>
								<path id="SVGID_63_" d="M52.5,65.4l-2.3-1.2c1.5,0.6,3.3,1,5.2,0.8l2.3,1.2C55.8,66.4,54,66.1,52.5,65.4z"/>
							</defs>
							<clipPath id="SVGID_64_">
								<use xlink:href="#SVGID_63_"  overflow="visible"/>
							</clipPath>
						</g>
						<g>
							<defs>
								<path id="SVGID_65_" d="M57.7,66.3L55.4,65c-3.1-2-5.1-5.9-5.1-10.7c0-2.5,0.6-5,1.6-7.1l2.3,1.2c-1,2.2-1.6,4.6-1.6,7.1
									C52.6,60.3,54.6,64.2,57.7,66.3z"/>
							</defs>
							<clipPath id="SVGID_66_">
								<use xlink:href="#SVGID_65_"  overflow="visible"/>
							</clipPath>
						</g>
					</g>
				</g>
			</g>
		</g>
	</g>
</g>
</svg>
