<?xml version="1.0" encoding="utf-8"?>
<!-- Generator: Adobe Illustrator 18.0.0, SVG Export Plug-In . SVG Version: 6.00 Build 0)  -->
<!DOCTYPE svg PUBLIC "-//W3C//DTD SVG 1.1//EN" "http://www.w3.org/Graphics/SVG/1.1/DTD/svg11.dtd">
<svg version="1.1" id="Layer_1" xmlns="http://www.w3.org/2000/svg" xmlns:xlink="http://www.w3.org/1999/xlink" x="0px" y="0px"
	 viewBox="0 0 102.8 97.1" enable-background="new 0 0 102.8 97.1" xml:space="preserve">
<g>
	<ellipse fill="#EAEAEA" cx="51.4" cy="48.6" rx="51.4" ry="48.6"/>
	<ellipse opacity="0.49" fill="#FECEAB" cx="52.2" cy="81.3" rx="18.6" ry="2.5"/>
	<g>
		<g>
			<g enable-background="new    ">
				<g>
					<polygon fill="#A99384" points="49.1,52.7 47.5,51.8 57.5,43.7 59.1,44.6 					"/>
				</g>
				<g enable-background="new    ">
					<defs>
						<path id="SVGID_1_" enable-background="new    " d="M36.8,62l-1.6-0.9c-1.1-0.6-1.9-1.6-2.2-3l1.6,0.9
							C35,60.3,35.8,61.4,36.8,62z"/>
					</defs>
					<clipPath id="SVGID_2_">
						<use xlink:href="#SVGID_1_"  overflow="visible"/>
					</clipPath>
					<g clip-path="url(#SVGID_2_)" enable-background="new    ">
						<path fill="#837266" d="M36.8,62l-1.6-0.9c-1.1-0.6-1.9-1.6-2.2-3l1.6,0.9C35,60.3,35.8,61.4,36.8,62"/>
					</g>
				</g>
				<g enable-background="new    ">
					<defs>
						<path id="SVGID_3_" enable-background="new    " d="M67.5,28.1l1.6,0.9c-0.4-0.2-0.7-0.3-1.2-0.4c-3-0.5-14.3,1.1-14.9,1.2
							c-0.6,0.1-12,1.7-15,3l-1.6-0.9c3-1.4,14.4-3,15-3s12-1.7,14.9-1.2C66.8,27.7,67.2,27.9,67.5,28.1z"/>
					</defs>
					<clipPath id="SVGID_4_">
						<use xlink:href="#SVGID_3_"  overflow="visible"/>
					</clipPath>
					<g clip-path="url(#SVGID_4_)" enable-background="new    ">
						<path fill="#A69182" d="M38.1,32.7l-1.6-0.9c3-1.4,14.4-3,15-3s12-1.7,14.9-1.2c0.1,0,0.2,0,0.3,0.1l1.6,0.9
							c-0.1,0-0.2,0-0.3-0.1c-3-0.5-14.3,1.1-14.9,1.2C52.5,29.8,41.1,31.4,38.1,32.7"/>
						<path fill="#A18C7E" d="M68.3,28.6l-1.6-0.9c0.3,0.1,0.5,0.2,0.7,0.3l1.6,0.9C68.8,28.8,68.6,28.7,68.3,28.6"/>
						<path fill="#9C887A" d="M69,28.9L67.4,28c0,0,0.1,0,0.1,0.1l1.6,0.9C69.1,28.9,69.1,28.9,69,28.9"/>
					</g>
				</g>
				<g enable-background="new    ">
					<defs>
						<path id="SVGID_5_" enable-background="new    " d="M34.7,58.9L33,58c-0.8-3.4-0.8-10.4-0.8-10.7c0-0.4,0-7.3,0.8-11
							c0.4-2,1.7-3.7,3.4-4.5l1.6,0.9c-1.6,0.7-2.9,2.5-3.4,4.5c-0.8,3.6-0.8,10.6-0.8,11C33.9,48.5,33.9,55.5,34.7,58.9z"/>
					</defs>
					<clipPath id="SVGID_6_">
						<use xlink:href="#SVGID_5_"  overflow="visible"/>
					</clipPath>
					<g clip-path="url(#SVGID_6_)" enable-background="new    ">
						<path fill="#837266" d="M34.7,58.9L33,58c-0.8-3.4-0.8-10.4-0.8-10.7c0-0.4,0-7.3,0.8-11c0.1-0.3,0.2-0.6,0.3-0.9l1.6,0.9
							c-0.1,0.3-0.2,0.6-0.3,0.9c-0.8,3.6-0.8,10.6-0.8,11C33.9,48.5,33.9,55.5,34.7,58.9"/>
						<path fill="#88766A" d="M35,36.3l-1.6-0.9c0.1-0.3,0.3-0.6,0.4-0.9l1.6,0.9C35.2,35.7,35.1,36,35,36.3"/>
						<path fill="#8D7B6E" d="M35.4,35.4l-1.6-0.9c0.1-0.2,0.3-0.5,0.4-0.7l1.6,0.9C35.7,34.9,35.5,35.2,35.4,35.4"/>
						<path fill="#927F72" d="M35.8,34.7l-1.6-0.9c0.1-0.2,0.3-0.4,0.5-0.6l1.6,0.9C36.1,34.3,35.9,34.5,35.8,34.7"/>
						<path fill="#978376" d="M36.3,34.1l-1.6-0.9c0.2-0.2,0.3-0.3,0.5-0.5l1.6,0.9C36.6,33.8,36.4,34,36.3,34.1"/>
						<path fill="#9C887A" d="M36.8,33.6l-1.6-0.9c0.2-0.2,0.4-0.3,0.6-0.4l1.6,0.9C37.1,33.3,36.9,33.5,36.8,33.6"/>
						<path fill="#A18C7E" d="M37.3,33.2l-1.6-0.9c0.2-0.2,0.5-0.3,0.7-0.4l1.6,0.9C37.8,32.9,37.6,33,37.3,33.2"/>
						<path fill="#A69182" d="M38,32.8l-1.6-0.9c0,0,0,0,0.1,0L38,32.8C38.1,32.8,38.1,32.8,38,32.8"/>
					</g>
				</g>
				<g>
					<path fill="#DCBFAC" d="M71.4,32.1c0.8,3.4,0.8,10.4,0.8,10.7c0,0.4,0,7.3-0.8,11c-0.4,2-1.7,3.7-3.4,4.4c-3,1.4-14.4,3-14.9,3
						s-12,1.7-15,1.2c-1.6-0.3-2.9-1.6-3.4-3.5c-0.8-3.4-0.8-10.4-0.8-10.7c0-0.4,0-7.3,0.8-11c0.4-2,1.7-3.7,3.4-4.5
						c3-1.4,14.4-3,15-3c0.6-0.1,12-1.7,14.9-1.2C69.7,28.8,70.9,30.2,71.4,32.1z M49.1,52.7l10-8.1l-10-5.3L49.1,52.7"/>
				</g>
			</g>
		</g>
	</g>
</g>
</svg>
