<?xml version="1.0" encoding="utf-8"?>
<!-- Generator: Adobe Illustrator 18.0.0, SVG Export Plug-In . SVG Version: 6.00 Build 0)  -->
<!DOCTYPE svg PUBLIC "-//W3C//DTD SVG 1.1//EN" "http://www.w3.org/Graphics/SVG/1.1/DTD/svg11.dtd">
<svg version="1.1" id="Layer_1" xmlns="http://www.w3.org/2000/svg" xmlns:xlink="http://www.w3.org/1999/xlink" x="0px" y="0px"
	 viewBox="0 0 154 145" enable-background="new 0 0 154 145" xml:space="preserve">
<g>
	<g>
		
			<image overflow="visible" opacity="0.28" width="173" height="165" xlink:href="98B19779.png"  transform="matrix(1 0 0 1 -9.7646 -9.7646)">
		</image>
		<g>
			<g>
				<ellipse fill="#EAEAEA" cx="76.2" cy="72.7" rx="71.6" ry="67.6"/>
				<ellipse opacity="0.49" fill="#FECEAB" cx="77.3" cy="118.3" rx="25.9" ry="3.5"/>
			</g>
		</g>
	</g>
	<g>
		<g>
			<g enable-background="new    ">
				<g>
					<polygon fill="#AB8A73" points="73,78.4 70.7,77.2 84.7,66 87,67.2 					"/>
				</g>
				<g enable-background="new    ">
					<defs>
						<path id="SVGID_1_" enable-background="new    " d="M55.9,91.3l-2.3-1.2c-1.5-0.8-2.6-2.3-3-4.2l2.3,1.2
							C53.4,89,54.5,90.5,55.9,91.3z"/>
					</defs>
					<clipPath id="SVGID_2_">
						<use xlink:href="#SVGID_1_"  overflow="visible"/>
					</clipPath>
					<g clip-path="url(#SVGID_2_)" enable-background="new    ">
						<path fill="#846B59" d="M55.9,91.3l-2.3-1.2c-1.5-0.8-2.6-2.3-3-4.2l2.3,1.2C53.4,89,54.5,90.5,55.9,91.3"/>
					</g>
				</g>
				<g enable-background="new    ">
					<defs>
						<path id="SVGID_3_" enable-background="new    " d="M98.7,44.1l2.3,1.2c-0.5-0.3-1-0.5-1.6-0.6c-4.2-0.7-20,1.5-20.8,1.6
							c-0.8,0.1-16.7,2.3-20.8,4.2l-2.3-1.2c4.2-1.9,20-4.1,20.8-4.2c0.8-0.1,16.7-2.3,20.8-1.6C97.6,43.7,98.2,43.8,98.7,44.1z"/>
					</defs>
					<clipPath id="SVGID_4_">
						<use xlink:href="#SVGID_3_"  overflow="visible"/>
					</clipPath>
					<g clip-path="url(#SVGID_4_)" enable-background="new    ">
						<path fill="#A88871" d="M57.7,50.6l-2.3-1.2c4.2-1.9,20-4.1,20.8-4.2c0.8-0.1,16.7-2.3,20.8-1.6c0.1,0,0.3,0.1,0.4,0.1
							l2.3,1.2c-0.1,0-0.3-0.1-0.4-0.1c-4.2-0.7-20,1.5-20.8,1.6C77.7,46.5,61.9,48.8,57.7,50.6"/>
						<path fill="#A3846D" d="M99.8,44.9l-2.3-1.2c0.3,0.1,0.7,0.2,1,0.4l2.3,1.2C100.4,45.1,100.1,45,99.8,44.9"/>
						<path fill="#9D806A" d="M100.8,45.3L98.5,44c0.1,0,0.1,0.1,0.2,0.1l2.3,1.2C100.9,45.3,100.8,45.3,100.8,45.3"/>
					</g>
				</g>
				<g enable-background="new    ">
					<defs>
						<path id="SVGID_5_" enable-background="new    " d="M52.9,87.1l-2.3-1.2c-1.1-4.7-1.1-14.5-1.1-15c0-0.5,0-10.2,1.1-15.3
							c0.6-2.8,2.4-5.2,4.7-6.2l2.3,1.2c-2.3,1-4.1,3.4-4.7,6.2c-1.1,5.1-1.1,14.8-1.1,15.3C51.8,72.7,51.8,82.4,52.9,87.1z"/>
					</defs>
					<clipPath id="SVGID_6_">
						<use xlink:href="#SVGID_5_"  overflow="visible"/>
					</clipPath>
					<g clip-path="url(#SVGID_6_)" enable-background="new    ">
						<path fill="#846B59" d="M52.9,87.1l-2.3-1.2c-1.1-4.7-1.1-14.5-1.1-15c0-0.5,0-10.2,1.1-15.3c0.1-0.4,0.2-0.9,0.4-1.3l2.3,1.2
							c-0.2,0.4-0.3,0.8-0.4,1.3c-1.1,5.1-1.1,14.8-1.1,15.3C51.8,72.7,51.8,82.4,52.9,87.1"/>
						<path fill="#896F5C" d="M53.4,55.6l-2.3-1.2c0.2-0.4,0.4-0.9,0.6-1.3l2.3,1.2C53.7,54.7,53.5,55.2,53.4,55.6"/>
						<path fill="#8E7360" d="M53.9,54.3l-2.3-1.2c0.2-0.3,0.4-0.7,0.6-1l2.3,1.2C54.3,53.7,54.1,54,53.9,54.3"/>
						<path fill="#937763" d="M54.5,53.4l-2.3-1.2c0.2-0.3,0.4-0.5,0.6-0.8l2.3,1.2C54.9,52.8,54.7,53.1,54.5,53.4"/>
						<path fill="#987C67" d="M55.1,52.6l-2.3-1.2c0.2-0.2,0.4-0.5,0.7-0.7l2.3,1.2C55.6,52.1,55.4,52.3,55.1,52.6"/>
						<path fill="#9D806A" d="M55.8,51.9l-2.3-1.2c0.3-0.2,0.5-0.4,0.8-0.6l2.3,1.2C56.3,51.5,56.1,51.7,55.8,51.9"/>
						<path fill="#A3846D" d="M56.6,51.3L54.3,50c0.3-0.2,0.7-0.4,1-0.6l2.3,1.2C57.3,50.8,56.9,51,56.6,51.3"/>
						<path fill="#A88871" d="M57.6,50.7l-2.3-1.2c0,0,0,0,0.1,0L57.6,50.7C57.7,50.7,57.7,50.7,57.6,50.7"/>
					</g>
				</g>
				<g>
					<path fill="#DEB495" d="M104,49.7c1.1,4.7,1.1,14.4,1.1,15c0,0.5,0,10.2-1.1,15.3c-0.6,2.8-2.4,5.1-4.7,6.1
						c-4.2,1.9-20,4.1-20.8,4.2c-0.8,0.1-16.7,2.3-20.8,1.6c-2.3-0.4-4.1-2.2-4.7-4.8c-1.1-4.7-1.1-14.5-1.1-15
						c0-0.5,0-10.2,1.1-15.3c0.6-2.8,2.4-5.2,4.7-6.2c4.2-1.9,20-4.1,20.8-4.2c0.8-0.1,16.7-2.3,20.8-1.6
						C101.6,45.2,103.4,47.1,104,49.7z M73,78.4L87,67.2l-13.9-7.3L73,78.4"/>
				</g>
			</g>
		</g>
	</g>
</g>
</svg>
