<?xml version="1.0" encoding="utf-8"?>
<!-- Generator: Adobe Illustrator 18.0.0, SVG Export Plug-In . SVG Version: 6.00 Build 0)  -->
<!DOCTYPE svg PUBLIC "-//W3C//DTD SVG 1.1//EN" "http://www.w3.org/Graphics/SVG/1.1/DTD/svg11.dtd">
<svg version="1.1" id="Layer_1" xmlns="http://www.w3.org/2000/svg" xmlns:xlink="http://www.w3.org/1999/xlink" x="0px" y="0px"
	 viewBox="0 0 468.8 422" enable-background="new 0 0 468.8 422" xml:space="preserve">
<g>
	<polygon fill="#E6E6E6" points="452.3,390.9 452.6,371.1 466,346.7 452.7,368 452.8,359.2 462,341.5 452.9,356.8 452.9,356.8 
		453.1,340.8 463,326.8 453.2,338.3 453.3,309.1 452.3,347.8 452.4,346.2 442.4,330.9 452.2,349.3 451.3,367.1 451.3,366.6 
		439.7,350.5 451.2,368.3 451.1,370.5 451.1,370.6 451.1,370.8 448.7,416 451.9,416 452.3,392.6 463.8,374.9 	"/>
	<path fill="#92A391" d="M109.8,325.1c0,40.3-23.9,54.3-53.5,54.3S2.9,365.3,2.9,325.1s53.5-91.5,53.5-91.5S109.8,284.8,109.8,325.1
		z"/>
	<polyline fill="#EAEAEA" points="325.1,239.8 128,241.9 28.4,146.8 164.4,125.6 224.1,1.5 286.3,124.3 422.7,142.7 325.1,239.8 	
		"/>
	<polygon fill="#3F3D56" points="54.4,373.2 55,339.5 77.8,297.9 55.1,334.3 55.3,319.1 71,288.9 55.4,315.1 55.4,315.1 55.8,287.8 
		72.6,263.8 55.9,283.6 56.2,233.6 54.4,299.7 54.6,297 37.5,270.8 54.3,302.3 52.7,332.7 52.7,331.9 33,304.3 52.6,334.7 
		52.4,338.5 52.4,338.6 52.4,338.9 48.3,416.1 53.7,416.1 54.4,376.2 74,345.9 	"/>
	<polyline opacity="0.36" fill="#FECEAB" points="300.6,238.3 103.5,240.3 3.9,145.3 139.9,124.1 199.6,0 261.8,122.8 398.2,141.2 
		300.6,238.3 	"/>
	<path fill="#3F3D56" d="M155.2,235.4v2H99.8c-17.7,0-32.1,14.4-32.1,32.1v0v117.5c0,17.7,14.4,32.1,32.1,32.1h0H404
		c17.7,0,32.1-14.4,32.1-32.1v0V269.6c0-17.7-14.4-32.1-32.1-32.1h0H194.7v-2L155.2,235.4z"/>
	<path fill="#FFFFFF" d="M100,244.3h303.8c13.2,0,24,10.7,24,24v118.1c0,13.2-10.7,24-24,24H100c-13.2,0-24-10.7-24-24V372
		c5.8,2.4,12.5-0.4,14.8-6.3c0.6-1.4,0.8-2.8,0.8-4.3v-67.3c0-6.3-5.1-11.4-11.4-11.4c-1.5,0-2.9,0.3-4.3,0.8v-15.3
		C76,255,86.8,244.3,100,244.3z"/>
	<circle fill="#FF6584" cx="189.4" cy="306.9" r="33.6"/>
	<path fill="#FECEAB" d="M294.9,410.6H129.9c-0.2,0-0.4,0-0.6,0l78.1-135.2c1.5-2.6,4.8-3.6,7.4-2.1c0.9,0.5,1.6,1.2,2.1,2.1
		l52.4,90.7l2.5,4.3L294.9,410.6z"/>
	<polygon opacity="0.2" enable-background="new    " points="294.9,410.6 238.6,410.6 266.2,370.4 268.2,367.5 269.2,366.1 
		271.7,370.4 	"/>
	<path fill="#FECEAB" d="M386.8,410.6H244.1l27.7-40.2l2-2.9l36.1-52.4c2.4-3.4,8-3.6,10.8-0.6c0.2,0.2,0.4,0.4,0.5,0.6L386.8,410.6
		z"/>
	<path fill="#2F2E41" d="M253.1,132.6c0,18.1-7.8,18.7-20.5,18.7s-25.5-0.6-25.5-18.7s10.3-32.8,23-32.8S253.1,114.5,253.1,132.6z"
		/>
	<path fill="#A0616A" d="M221.5,133.3c0,0,5.4,22.7,3.5,25.2c-2,2.5,16.8,7.9,16.8,7.9l7.9-21.7l-4.4-0.5c0,0-6.4-1.5-4.4-13.8
		S221.5,133.3,221.5,133.3z"/>
	<circle fill="#A0616A" cx="230.2" cy="123.7" r="16"/>
	<path fill="#2F2E41" d="M214.4,214.1l-11.4,9.9c0,0-34.6,12.8-26.7,32.6c7.9,19.8,22.7,48.9,22.7,48.9l4,9.4h9.9l6.4-3l-1.5-4
		c0,0-3.5-5.4-3.5-8.4c0-3-5.9-37-9.9-39.5c0,0,19.8-19.3,34.1-20.2s18.3-4.4,26.2,0c7.9,4.4,39,12.8,39,12.8s16.8,30.6,25.2,36
		c8.4,5.4,15.3,23.7,15.3,23.7l13.8-2.5l-6.9-14.3c0,0-6.9-10.4-6.9-14.8c0-4.4-22.7-47.4-39-54.3c-16.3-6.9-24.2-13.3-24.2-13.3
		L243.7,203L214.4,214.1z"/>
	<path fill="#2F2E41" d="M203,307.9c0,0-3.5-2.5-5.9,2.5c-2.5,4.9-9.4,16.3-9.4,16.3s-20.2,15.3-4.9,19.3c0,0,7.4,0.5,20.2-8.4
		c12.8-8.9,22.2-13.3,22.7-14.8c0.5-1.5-3-18.3-6.4-18.3c-3.5,0-2.5,7.9-6.4,7.9c-2.8,0.1-5.6,0.4-8.4,1L203,307.9z"/>
	<path fill="#2F2E41" d="M362.6,312.7c-1.9-5.3-7.6-8-12.9-6.2c0,0-0.1,0-0.1,0c-0.8,0.3-1.3,0.6-1.4,0.9c-0.5,1.5-5,2.2-5.4,1.4
		c-0.5-0.9-3.9-3.3-1.5,6.1c2.5,9.4,9.9,29.6,13.8,33.1s17.8,3,18.8-0.5c1-3.5-0.5-9.9-2.5-12.3s-5.4-10.4-5.9-13.3
		C365.2,320.3,363.9,316.4,362.6,312.7z"/>
	<path fill="#A0616A" d="M274,243c0,0,3.9,16.7,11.5,12.8c7.6-3.9-8.4-19.6-8.4-19.6L274,243z"/>
	<path fill="#A0616A" d="M231.5,233.6c0,0,3.9,16.7,11.5,12.8s-8.4-19.6-8.4-19.6L231.5,233.6z"/>
	<path fill="#92A391" d="M268.5,206.9c-5.8,1.6-9.5,1.7-11.4,3.4c-0.2,0.2-0.4,0.4-0.6,0.7c-1.5,2.4-8,3.3-16.3,1.1
		c-2.8-0.8-5.7-1.1-8.6-0.8c-2.9,0.2-5.8,0.8-11.1,0.4c-9.4-0.7-13.1-31.5-15-39.7c-0.1-0.5-0.2-0.8-0.3-1.1
		c-1.8-6,8.7-11.6,10.2-13.1c1.5-1.4,6.1-7.3,10.2-7.8c4.1-0.5,10,8.3,10,8.3s9.9-11.4,9-14.4c-0.9-3,9.4-0.8,11.4-1.2
		c1.1-0.3,5.8,1.1,9.6,2.3c3.3,1,5.5,4,5.7,7.4c0,0.8,0.1,1.7,0.1,2.6C272.2,171.1,273.4,205.5,268.5,206.9z"/>
	<path opacity="0.1" enable-background="new    " d="M232.4,211.5c-2.9,0.3-5.8,0.9-11.1,0.6c-9.4-0.5-13.8-31.1-16-39.4
		c0.4-2.6,0.7-4.1,0.7-4.1l2.7,3.7c0,0,13.1,21.5,16.5,27.4C226.6,202.2,229.5,206.7,232.4,211.5z"/>
	<path fill="#92A391" d="M208.9,166.7l-4.4,2c0,0-5.9,29.6,4.4,44.4c10.4,14.8,14.3,17.3,16.3,19.8c1.2,1.5,3.1,2.2,4.9,2
		c0,0-2,4.9,1.5,4.9c3.5,0,16.3-4.9,12.8-6.4c-3.5-1.5-6.9-4-5.9-6.4c1-2.5-11.4-21.2-14.8-27.2
		C220.3,193.8,208.9,166.7,208.9,166.7z"/>
	<path opacity="0.1" enable-background="new    " d="M269.2,206.2c-5.7,1.8-9.5,2-11.3,3.7c-0.5-4.9-0.4-9.5,0.4-13.1
		c3-13,5.3-41.2,5.2-48.1c0-0.8,0.2,0.5,1,0.5v0.5c3.7,0,4.7-1.3,5.7,2.2c0.2,0.7,0.4,1.5,0.6,2.3
		C272.1,170.3,274.1,204.7,269.2,206.2z"/>
	<path fill="#92A391" d="M262.8,145.9h1.5c3.7,0,6.9,2.4,7.9,5.9c1.9,6.7,3.4,13.4,4.4,20.3c3,18.3,6.4,63.7,5.9,64.7
		c-0.5,1,5.9,5.9,3,6.9c-3,1-8.4,3-10.9,3.5c-2.5,0.5-7.4-4.4-7.4-4.4s-10.4-31.1-6.9-45.9C263.8,182,262.8,145.9,262.8,145.9z"/>
	<path fill="#2F2E41" d="M244,112.3c0,4.9-6.7,8.9-15.1,8.9c-8.3,0-16,2.6-16-2.3c0-4.9,7.7-15.5,16-15.5
		C237.3,103.4,244,107.4,244,112.3z"/>
	<path fill="#2F2E41" d="M207.2,135.7c0,0-0.6,16.5,15.8,15.6s-2.2-14.1-2.2-14.1L207.2,135.7z"/>
	<rect x="4.8" y="415.4" fill="#3F3D56" width="464" height="1.2"/>
</g>
</svg>
