<?xml version="1.0" encoding="utf-8"?>
<!-- Generator: Adobe Illustrator 18.0.0, SVG Export Plug-In . SVG Version: 6.00 Build 0)  -->
<!DOCTYPE svg PUBLIC "-//W3C//DTD SVG 1.1//EN" "http://www.w3.org/Graphics/SVG/1.1/DTD/svg11.dtd">
<svg version="1.1" id="Layer_1" xmlns="http://www.w3.org/2000/svg" xmlns:xlink="http://www.w3.org/1999/xlink" x="0px" y="0px"
	 viewBox="0 0 118 118" enable-background="new 0 0 118 118" xml:space="preserve">
<g>
	<circle opacity="0.47" fill="#F0F0F0" cx="59" cy="59" r="59"/>
	<circle fill="#F0F0F0" cx="59" cy="59" r="44.5"/>
	<ellipse opacity="0.24" fill="#666666" cx="59" cy="86.5" rx="14" ry="2.5"/>
	<g>
		<g>
			<g enable-background="new    ">
				<g enable-background="new    ">
					<defs>
						<path id="SVGID_1_" enable-background="new    " d="M64.1,64.4c1.7-1.8,2.6-4,2.6-6.6c0.8,0.4,1.5,0.8,2.3,1.2
							c0,2.6-0.9,4.8-2.6,6.6C65.7,65.2,64.8,64.7,64.1,64.4z"/>
					</defs>
					<clipPath id="SVGID_2_">
						<use xlink:href="#SVGID_1_"  overflow="visible"/>
					</clipPath>
					<g clip-path="url(#SVGID_2_)" enable-background="new    ">
						<path fill="#444943" d="M66.4,65.6l-2.3-1.2c0.1-0.1,0.2-0.2,0.2-0.3l2.3,1.2C66.6,65.4,66.5,65.5,66.4,65.6"/>
						<path fill="#424740" d="M66.7,65.3l-2.3-1.2c0.2-0.3,0.5-0.6,0.7-0.8l2.3,1.2C67.1,64.8,66.9,65.1,66.7,65.3"/>
						<path fill="#40443E" d="M67.3,64.5l-2.3-1.2c0.2-0.3,0.4-0.6,0.6-0.9l2.3,1.2C67.7,63.9,67.5,64.2,67.3,64.5"/>
						<path fill="#3E423C" d="M67.9,63.6l-2.3-1.2c0.2-0.4,0.4-0.8,0.5-1.2l2.3,1.2C68.3,62.8,68.1,63.2,67.9,63.6"/>
						<path fill="#3B3F3A" d="M68.4,62.4l-2.3-1.2c0.4-1.1,0.6-2.2,0.6-3.5c0-2.2-0.6-3.9-1.8-5.2c-0.6-0.6-1.3-1.2-2.2-1.7l2.3,1.2
							c0.9,0.5,1.6,1,2.2,1.7c1.2,1.3,1.9,3.1,1.8,5.2C69,60.2,68.8,61.4,68.4,62.4"/>
					</g>
				</g>
				<g enable-background="new    ">
					<defs>
						<path id="SVGID_3_" enable-background="new    " d="M58.8,67.2c2.2-0.5,4-1.4,5.3-2.9l2.3,1.2c-1.4,1.5-3.2,2.4-5.3,2.9
							C60.4,68.1,59.5,67.6,58.8,67.2z"/>
					</defs>
					<clipPath id="SVGID_4_">
						<use xlink:href="#SVGID_3_"  overflow="visible"/>
					</clipPath>
					<g clip-path="url(#SVGID_4_)" enable-background="new    ">
						<path fill="#4B5149" d="M61.1,68.5l-2.3-1.2c0.9-0.2,1.7-0.5,2.5-0.8l2.3,1.2C62.8,68,62,68.3,61.1,68.5"/>
						<path fill="#494E47" d="M63.6,67.7l-2.3-1.2c0.5-0.2,1-0.5,1.4-0.8l2.3,1.2C64.5,67.2,64.1,67.4,63.6,67.7"/>
						<path fill="#474C45" d="M65,66.8l-2.3-1.2c0.3-0.2,0.7-0.5,1-0.8l2.3,1.2C65.6,66.4,65.3,66.6,65,66.8"/>
						<path fill="#444943" d="M65.9,66.1l-2.3-1.2c0.2-0.2,0.3-0.3,0.5-0.5l2.3,1.2C66.3,65.8,66.1,65.9,65.9,66.1"/>
					</g>
				</g>
				<g>
					<polygon fill="#3A3E39" points="61.1,71.4 58.8,70.1 58.8,67.2 61.1,68.5 					"/>
				</g>
				<g>
					<polygon fill="#51564E" points="59.4,71.6 57.1,70.4 58.8,70.1 61.1,71.4 					"/>
				</g>
				<g>
					<polygon fill="#828282" points="59.4,71.6 57.1,70.4 57.1,67.5 59.4,68.7 					"/>
				</g>
				<g enable-background="new    ">
					<defs>
						<path id="SVGID_5_" enable-background="new    " d="M66.7,57.7c0-2.2-0.6-3.9-1.8-5.2c0.1,0,0.2,0.1,0.3,0.1
							c0.1,0,0.2,0.1,0.3,0.2c0.1,0,0.2,0.1,0.3,0.2c0.1,0,0.2,0.1,0.3,0.2c0.2,0.1,0.4,0.2,0.6,0.3c0.2,0.1,0.4,0.2,0.5,0.3
							c1.2,1.3,1.9,3.1,1.8,5.2C68.2,58.5,67.5,58.1,66.7,57.7z"/>
					</defs>
					<clipPath id="SVGID_6_">
						<use xlink:href="#SVGID_5_"  overflow="visible"/>
					</clipPath>
					<g clip-path="url(#SVGID_6_)" enable-background="new    ">
						<path fill="#3B3F3A" d="M68.4,62.4l-2.3-1.2c0.4-1.1,0.6-2.2,0.6-3.5c0-2.2-0.6-3.9-1.8-5.2c-0.6-0.6-1.3-1.2-2.2-1.7l2.3,1.2
							c0.9,0.5,1.6,1,2.2,1.7c1.2,1.3,1.9,3.1,1.8,5.2C69,60.2,68.8,61.4,68.4,62.4"/>
					</g>
				</g>
				<g enable-background="new    ">
					<defs>
						<path id="SVGID_7_" enable-background="new    " d="M64.9,52.5c-0.6-0.6-1.3-1.2-2.2-1.7l2.3,1.2c0.9,0.5,1.6,1,2.2,1.7
							c-0.4-0.2-0.8-0.4-1.1-0.6c-0.3-0.2-0.6-0.3-0.9-0.5C65.1,52.6,65,52.6,64.9,52.5z"/>
					</defs>
					<clipPath id="SVGID_8_">
						<use xlink:href="#SVGID_7_"  overflow="visible"/>
					</clipPath>
					<g clip-path="url(#SVGID_8_)" enable-background="new    ">
						<path fill="#3B3F3A" d="M68.4,62.4l-2.3-1.2c0.4-1.1,0.6-2.2,0.6-3.5c0-2.2-0.6-3.9-1.8-5.2c-0.6-0.6-1.3-1.2-2.2-1.7l2.3,1.2
							c0.9,0.5,1.6,1,2.2,1.7c1.2,1.3,1.9,3.1,1.8,5.2C69,60.2,68.8,61.4,68.4,62.4"/>
					</g>
				</g>
				<g enable-background="new    ">
					<defs>
						<path id="SVGID_9_" enable-background="new    " d="M59.9,54.1l2.3,1.2c1.8,1,2.6,2.3,2.6,4c0,2.8-1.2,4.5-3.7,5.2l-2.3-1.2
							c2.5-0.7,3.7-2.5,3.7-5.2C62.5,56.4,61.7,55.1,59.9,54.1z"/>
					</defs>
					<clipPath id="SVGID_10_">
						<use xlink:href="#SVGID_9_"  overflow="visible"/>
					</clipPath>
					<g clip-path="url(#SVGID_10_)" enable-background="new    ">
						<path fill="#A8A8A8" d="M61.1,64.6l-2.3-1.2c0.3-0.1,0.7-0.2,1-0.4l2.3,1.2C61.8,64.4,61.4,64.5,61.1,64.6"/>
						<path fill="#A3A3A3" d="M62,64.2L59.8,63c0.3-0.1,0.5-0.3,0.7-0.4l2.3,1.2C62.6,64,62.3,64.1,62,64.2"/>
						<path fill="#9E9E9E" d="M62.8,63.8l-2.3-1.2c0.2-0.1,0.3-0.2,0.5-0.4l2.3,1.2C63.1,63.6,63,63.7,62.8,63.8"/>
						<path fill="#999999" d="M63.3,63.4L61,62.2c0.1-0.1,0.2-0.2,0.3-0.3l2.3,1.2C63.5,63.2,63.4,63.3,63.3,63.4"/>
						<path fill="#949494" d="M63.6,63.1l-2.3-1.2c0.1-0.1,0.2-0.2,0.3-0.4l2.3,1.2C63.8,62.9,63.7,63,63.6,63.1"/>
						<path fill="#8F8F8F" d="M63.9,62.7l-2.3-1.2c0.1-0.1,0.2-0.3,0.3-0.4l2.3,1.2C64.1,62.4,64,62.6,63.9,62.7"/>
						<path fill="#8A8A8A" d="M64.2,62.3L61.9,61c0.1-0.2,0.2-0.4,0.3-0.6l2.3,1.2C64.4,61.9,64.3,62.1,64.2,62.3"/>
						<path fill="#858585" d="M64.4,61.7l-2.3-1.2c0.2-0.7,0.4-1.4,0.4-2.3c0-1.7-0.9-3-2.6-4l2.3,1.2c1.8,1,2.6,2.3,2.6,4
							C64.8,60.2,64.7,61,64.4,61.7"/>
					</g>
				</g>
				<g enable-background="new    ">
					<defs>
						<path id="SVGID_11_" enable-background="new    " d="M59.9,54.1l2.3,1.2c-0.3-0.2-0.7-0.3-1.1-0.5l-2.3-1.2
							C59.2,53.8,59.6,54,59.9,54.1z"/>
					</defs>
					<clipPath id="SVGID_12_">
						<use xlink:href="#SVGID_11_"  overflow="visible"/>
					</clipPath>
					<g clip-path="url(#SVGID_12_)" enable-background="new    ">
						<path fill="#494E47" d="M61.1,54.9l-2.3-1.2c0.3,0.1,0.5,0.2,0.8,0.3l2.3,1.2C61.6,55.1,61.4,55,61.1,54.9"/>
						<path fill="#474C45" d="M61.9,55.2L59.6,54c0.1,0.1,0.2,0.1,0.3,0.2l2.3,1.2C62.1,55.3,62,55.3,61.9,55.2"/>
					</g>
				</g>
				<g>
					<path fill="#646A61" d="M61.1,54.9c2.5,1,3.7,2.5,3.7,4.5c0,2.8-1.2,4.5-3.7,5.2L61.1,54.9z"/>
				</g>
				<g>
					<polygon fill="#3A3E39" points="61.1,64.6 58.8,63.4 58.8,53.7 61.1,54.9 					"/>
				</g>
				<g>
					<polygon fill="#454943" points="66.4,42.7 64.1,41.4 65.8,38.5 68.1,39.8 					"/>
				</g>
				<g enable-background="new    ">
					<defs>
						<path id="SVGID_13_" enable-background="new    " d="M65.3,38.3l2.3,1.2c-2-1.1-4.2-1.5-6.5-1.3L58.9,37
							C61.2,36.7,63.3,37.2,65.3,38.3z"/>
					</defs>
					<clipPath id="SVGID_14_">
						<use xlink:href="#SVGID_13_"  overflow="visible"/>
					</clipPath>
					<g clip-path="url(#SVGID_14_)" enable-background="new    ">
						<path fill="#A8A8A8" d="M61.1,38.2L58.9,37c1.4-0.1,2.7,0,4,0.3l2.3,1.2C63.8,38.2,62.5,38.1,61.1,38.2"/>
						<path fill="#A3A3A3" d="M65.1,38.5l-2.3-1.2c0.7,0.2,1.4,0.4,2.1,0.8l2.3,1.2C66.5,39,65.8,38.7,65.1,38.5"/>
						<path fill="#9E9E9E" d="M67.2,39.3L64.9,38c0.1,0.1,0.3,0.1,0.4,0.2l2.3,1.2C67.5,39.4,67.3,39.4,67.2,39.3"/>
					</g>
				</g>
				<g enable-background="new    ">
					<defs>
						<path id="SVGID_15_" enable-background="new    " d="M65.3,38.3l2.3,1.2c0.2,0.1,0.3,0.2,0.5,0.3l-2.3-1.2
							C65.7,38.5,65.5,38.4,65.3,38.3z"/>
					</defs>
					<clipPath id="SVGID_16_">
						<use xlink:href="#SVGID_15_"  overflow="visible"/>
					</clipPath>
					<g clip-path="url(#SVGID_16_)" enable-background="new    ">
						<path fill="#3B3F3A" d="M68.1,39.8l-2.3-1.2c-0.2-0.1-0.3-0.2-0.5-0.3l2.3,1.2C67.8,39.6,67.9,39.7,68.1,39.8"/>
					</g>
				</g>
				<g>
					<polygon fill="#828282" points="59.4,64.9 57.1,63.6 57.1,53.1 59.4,54.3 					"/>
				</g>
				<g enable-background="new    ">
					<defs>
						<path id="SVGID_17_" enable-background="new    " d="M62.7,50.8l2.3,1.2c-1.1-0.6-2.3-1.1-3.8-1.5l-2.3-1.2
							C60.3,49.8,61.6,50.3,62.7,50.8z"/>
					</defs>
					<clipPath id="SVGID_18_">
						<use xlink:href="#SVGID_17_"  overflow="visible"/>
					</clipPath>
					<g clip-path="url(#SVGID_18_)" enable-background="new    ">
						<path fill="#A3A3A3" d="M61.1,50.6l-2.3-1.2c1.3,0.4,2.4,0.8,3.4,1.2l2.3,1.2C63.5,51.4,62.4,51,61.1,50.6"/>
						<path fill="#9E9E9E" d="M64.5,51.8l-2.3-1.2c0.2,0.1,0.3,0.2,0.5,0.2l2.3,1.2C64.8,52,64.6,51.9,64.5,51.8"/>
					</g>
				</g>
				<g enable-background="new    ">
					<defs>
						<path id="SVGID_19_" enable-background="new    " d="M51.7,67l-2.3-1.2c2.5,1.4,5.1,2,7.6,1.8l2.3,1.2
							C56.8,68.9,54.3,68.3,51.7,67z"/>
					</defs>
					<clipPath id="SVGID_20_">
						<use xlink:href="#SVGID_19_"  overflow="visible"/>
					</clipPath>
					<g clip-path="url(#SVGID_20_)" enable-background="new    ">
						<path fill="#474C45" d="M51.7,67l-2.3-1.2c0.2,0.1,0.4,0.2,0.6,0.3l2.3,1.2C52.2,67.2,52,67.1,51.7,67"/>
						<path fill="#494E47" d="M52.4,67.3L50.1,66c0.9,0.5,1.9,0.8,2.8,1.1l2.3,1.2C54.3,68.1,53.3,67.7,52.4,67.3"/>
						<path fill="#4B5149" d="M55.2,68.3l-2.3-1.2c1.4,0.4,2.8,0.5,4.1,0.4l2.3,1.2C58,68.8,56.6,68.7,55.2,68.3"/>
					</g>
				</g>
				<g enable-background="new    ">
					<defs>
						<path id="SVGID_21_" enable-background="new    " d="M53.2,64l-2.3-1.2c1.7,0.8,3.8,1.1,6.2,0.9l2.3,1.2
							C57,65.1,54.9,64.8,53.2,64z"/>
					</defs>
					<clipPath id="SVGID_22_">
						<use xlink:href="#SVGID_21_"  overflow="visible"/>
					</clipPath>
					<g clip-path="url(#SVGID_22_)" enable-background="new    ">
						<polyline fill="#9E9E9E" points="53.2,64 50.9,62.7 50.9,62.8 53.2,64 53.2,64 						"/>
						<path fill="#A3A3A3" d="M53.2,64l-2.3-1.2c0.5,0.3,1.1,0.5,1.7,0.6l2.3,1.2C54.3,64.5,53.7,64.3,53.2,64"/>
						<path fill="#A8A8A8" d="M54.9,64.6l-2.3-1.2c1.3,0.3,2.8,0.4,4.5,0.3l2.3,1.2C57.7,65,56.2,65,54.9,64.6"/>
					</g>
				</g>
				<g enable-background="new    ">
					<defs>
						<path id="SVGID_23_" enable-background="new    " d="M51.7,67l-2.3-1.2c-0.1,0-0.2-0.1-0.2-0.1l2.3,1.2
							C51.6,66.9,51.7,66.9,51.7,67z"/>
					</defs>
					<clipPath id="SVGID_24_">
						<use xlink:href="#SVGID_23_"  overflow="visible"/>
					</clipPath>
					<g clip-path="url(#SVGID_24_)" enable-background="new    ">
						<path fill="#858585" d="M51.7,67l-2.3-1.2c-0.1,0-0.2-0.1-0.2-0.1l2.3,1.2C51.6,66.9,51.7,66.9,51.7,67"/>
					</g>
				</g>
				<g>
					<polygon fill="#9A9A9A" points="51.5,66.8 49.2,65.6 50.9,62.7 53.2,64 					"/>
				</g>
				<g enable-background="new    ">
					<defs>
						<path id="SVGID_25_" enable-background="new    " d="M58.2,49.5l-2.3-1.2c0.3,0.2,0.7,0.4,1.2,0.5l2.3,1.2
							C59,49.9,58.6,49.7,58.2,49.5z"/>
					</defs>
					<clipPath id="SVGID_26_">
						<use xlink:href="#SVGID_25_"  overflow="visible"/>
					</clipPath>
					<g clip-path="url(#SVGID_26_)" enable-background="new    ">
						<path fill="#9E9E9E" d="M58.2,49.5l-2.3-1.2c0.1,0,0.2,0.1,0.3,0.1l2.3,1.2C58.4,49.6,58.3,49.6,58.2,49.5"/>
						<path fill="#A3A3A3" d="M58.5,49.7l-2.3-1.2c0.3,0.1,0.6,0.3,0.9,0.4l2.3,1.2C59.1,49.9,58.8,49.8,58.5,49.7"/>
					</g>
				</g>
				<g enable-background="new    ">
					<defs>
						<path id="SVGID_27_" enable-background="new    " d="M55.3,52.8L53,51.6c1.1,0.6,2.5,1.1,4.1,1.5l2.3,1.2
							C57.7,53.9,56.3,53.4,55.3,52.8z"/>
					</defs>
					<clipPath id="SVGID_28_">
						<use xlink:href="#SVGID_27_"  overflow="visible"/>
					</clipPath>
					<g clip-path="url(#SVGID_28_)" enable-background="new    ">
						<path fill="#474C45" d="M55.3,52.8L53,51.6c0.1,0.1,0.3,0.2,0.4,0.2l2.3,1.2C55.5,53,55.4,52.9,55.3,52.8"/>
						<path fill="#494E47" d="M55.7,53l-2.3-1.2c1,0.5,2.2,0.9,3.7,1.3l2.3,1.2C57.9,54,56.7,53.5,55.7,53"/>
					</g>
				</g>
				<g enable-background="new    ">
					<defs>
						<path id="SVGID_29_" enable-background="new    " d="M61.1,41.9l-2.3-1.2c1.7-0.2,3.5,0.1,5.3,0.8l2.3,1.2
							C64.6,42,62.9,41.7,61.1,41.9z"/>
					</defs>
					<clipPath id="SVGID_30_">
						<use xlink:href="#SVGID_29_"  overflow="visible"/>
					</clipPath>
					<g clip-path="url(#SVGID_30_)" enable-background="new    ">
						<path fill="#4B5149" d="M61.1,41.9l-2.3-1.2c1.3-0.1,2.6,0,3.9,0.3l2.3,1.2C63.7,41.9,62.4,41.8,61.1,41.9"/>
						<path fill="#494E47" d="M65,42.2L62.7,41c0.5,0.1,0.9,0.3,1.4,0.5l2.3,1.2C65.9,42.5,65.4,42.3,65,42.2"/>
					</g>
				</g>
				<g>
					<polygon fill="#3A3E39" points="61.1,50.6 58.8,49.4 58.8,40.6 61.1,41.9 					"/>
				</g>
				<g>
					<polygon fill="#828282" points="59.4,50.1 57.1,48.8 57.1,40.9 59.4,42.2 					"/>
				</g>
				<g enable-background="new    ">
					<defs>
						<path id="SVGID_31_" enable-background="new    " d="M55.9,48.3c-1.5-0.8-2.2-1.9-2.2-3.3l2.3,1.2c0,1.4,0.7,2.5,2.2,3.3
							C57.5,49.2,56.6,48.7,55.9,48.3z"/>
					</defs>
					<clipPath id="SVGID_32_">
						<use xlink:href="#SVGID_31_"  overflow="visible"/>
					</clipPath>
					<g clip-path="url(#SVGID_32_)" enable-background="new    ">
						<path fill="#3B3F3A" d="M58.2,49.5l-2.3-1.2c-1.5-0.8-2.2-1.9-2.2-3.3l2.3,1.2C56,47.6,56.7,48.7,58.2,49.5"/>
					</g>
				</g>
				<g>
					<polygon fill="#3A3E39" points="61.1,38.2 58.9,37 58.9,34.4 61.1,35.6 					"/>
				</g>
				<g enable-background="new    ">
					<defs>
						<path id="SVGID_33_" enable-background="new    " d="M53.7,45c0-2,1.1-3.4,3.4-4.1l2.3,1.2c-2.3,0.7-3.4,2.1-3.4,4.1
							C55.3,45.9,54.4,45.4,53.7,45z"/>
					</defs>
					<clipPath id="SVGID_34_">
						<use xlink:href="#SVGID_33_"  overflow="visible"/>
					</clipPath>
					<g clip-path="url(#SVGID_34_)" enable-background="new    ">
						<path fill="#3B3F3A" d="M56,46.2L53.7,45c0-0.5,0.1-1,0.2-1.5l2.3,1.2C56.1,45.2,56,45.7,56,46.2"/>
						<path fill="#3E423C" d="M56.2,44.8l-2.3-1.2c0.1-0.2,0.1-0.3,0.2-0.5l2.3,1.2C56.4,44.5,56.3,44.6,56.2,44.8"/>
						<path fill="#40443E" d="M56.4,44.3l-2.3-1.2c0.1-0.1,0.1-0.2,0.2-0.4l2.3,1.2C56.6,44.1,56.5,44.2,56.4,44.3"/>
						<path fill="#424740" d="M56.7,44l-2.3-1.2c0.1-0.1,0.2-0.2,0.3-0.3l2.3,1.2C56.8,43.8,56.7,43.9,56.7,44"/>
						<path fill="#444943" d="M56.9,43.7l-2.3-1.2c0.1-0.1,0.2-0.2,0.3-0.3l2.3,1.2C57.1,43.4,57,43.5,56.9,43.7"/>
						<path fill="#474C45" d="M57.2,43.3l-2.3-1.2c0.1-0.1,0.3-0.2,0.4-0.4l2.3,1.2C57.5,43.1,57.4,43.2,57.2,43.3"/>
						<path fill="#494E47" d="M57.7,43l-2.3-1.2c0.2-0.2,0.5-0.3,0.8-0.5l2.3,1.2C58.2,42.7,57.9,42.8,57.7,43"/>
						<path fill="#4B5149" d="M58.5,42.5l-2.3-1.2c0.3-0.1,0.6-0.3,0.9-0.4l2.3,1.2C59.1,42.3,58.8,42.4,58.5,42.5"/>
					</g>
				</g>
				<g>
					<path fill="#646A61" d="M56,46.2c0-2,1.1-3.4,3.4-4.1l0,7.9C57.1,49.2,56,47.9,56,46.2z"/>
				</g>
				<g>
					<polygon fill="#B4B4B4" points="59.4,35.9 57.1,34.6 58.9,34.4 61.1,35.6 					"/>
				</g>
				<g>
					<polygon fill="#828282" points="59.4,38.5 57.1,37.2 57.1,34.6 59.4,35.9 					"/>
				</g>
				<g enable-background="new    ">
					<defs>
						<path id="SVGID_35_" enable-background="new    " d="M69.1,31.8l2.3,1.2c-3.2-1.7-7-2.5-11-1.9l-2.3-1.2
							C62.2,29.3,65.9,30,69.1,31.8z"/>
					</defs>
					<clipPath id="SVGID_36_">
						<use xlink:href="#SVGID_35_"  overflow="visible"/>
					</clipPath>
					<g clip-path="url(#SVGID_36_)" enable-background="new    ">
						<path fill="#4B5149" d="M60.4,31.1l-2.3-1.2c2.5-0.4,4.9-0.2,7.1,0.4l2.3,1.2C65.3,30.9,62.9,30.8,60.4,31.1"/>
						<path fill="#494E47" d="M67.5,31.5l-2.3-1.2c1.1,0.3,2.2,0.7,3.3,1.2l2.3,1.2C69.7,32.2,68.6,31.8,67.5,31.5"/>
						<path fill="#474C45" d="M70.8,32.7l-2.3-1.2c0.2,0.1,0.4,0.2,0.6,0.3l2.3,1.2C71.2,32.9,71,32.8,70.8,32.7"/>
					</g>
				</g>
				<g>
					<path fill="#DFDFDF" d="M67.2,53.7c1.2,1.3,1.9,3.1,1.8,5.2c0,2.6-0.9,4.8-2.6,6.6c-1.4,1.5-3.2,2.4-5.3,2.9l0,2.9l-1.7,0.2
						l0-2.9c-2.6,0.2-5.2-0.4-7.9-1.9l1.7-2.8c1.7,0.8,3.8,1.1,6.2,0.9l0-10.5c-2.7-0.7-4.7-1.6-5.9-2.8c-1.2-1.1-1.7-2.6-1.7-4.5
						c0-2.1,0.7-3.9,2.1-5.5c1.4-1.6,3.2-2.6,5.5-3.1l0-2.6l1.7-0.2l0,2.6c2.5-0.3,4.8,0.3,7,1.6l-1.7,2.9c-1.8-0.7-3.5-0.9-5.3-0.8
						l0,8.7C63.9,51.4,65.9,52.4,67.2,53.7z M61.1,64.6c2.5-0.7,3.7-2.5,3.7-5.2c0-2-1.2-3.5-3.7-4.5L61.1,64.6 M59.4,50.1l0-7.9
						c-2.3,0.7-3.4,2.1-3.4,4.1C56,47.9,57.1,49.2,59.4,50.1"/>
				</g>
				<g enable-background="new    ">
					<defs>
						<path id="SVGID_37_" enable-background="new    " d="M55.3,52.8L53,51.6c-0.7-0.4-1.3-0.8-1.7-1.2c-1.2-1.1-1.7-2.6-1.7-4.5
							c0-2.1,0.7-3.9,2.1-5.5c1.4-1.6,3.2-2.6,5.5-3.1l2.3,1.2c-2.3,0.5-4.2,1.5-5.5,3.1c-1.4,1.6-2.1,3.4-2.1,5.5
							c0,1.9,0.6,3.4,1.7,4.5C54,52,54.6,52.4,55.3,52.8z"/>
					</defs>
					<clipPath id="SVGID_38_">
						<use xlink:href="#SVGID_37_"  overflow="visible"/>
					</clipPath>
					<g clip-path="url(#SVGID_38_)" enable-background="new    ">
						<path fill="#858585" d="M55.3,52.8L53,51.6c-0.7-0.4-1.3-0.8-1.7-1.2c-1.2-1.1-1.7-2.6-1.7-4.5c0-1,0.2-2,0.5-2.9l2.3,1.2
							c-0.3,0.9-0.5,1.8-0.5,2.9c0,1.9,0.6,3.4,1.7,4.5C54,52,54.6,52.4,55.3,52.8"/>
						<path fill="#8A8A8A" d="M52.3,44.2L50,43c0.1-0.3,0.3-0.7,0.5-1l2.3,1.2C52.6,43.5,52.4,43.9,52.3,44.2"/>
						<path fill="#8F8F8F" d="M52.7,43.2L50.5,42c0.2-0.3,0.3-0.6,0.5-0.8l2.3,1.2C53,42.6,52.9,42.9,52.7,43.2"/>
						<path fill="#949494" d="M53.2,42.4L51,41.1c0.2-0.3,0.4-0.5,0.6-0.8l2.3,1.2C53.6,41.9,53.4,42.1,53.2,42.4"/>
						<path fill="#999999" d="M53.8,41.6l-2.3-1.2c0,0,0,0,0,0c0.2-0.3,0.5-0.5,0.7-0.7l2.3,1.2C54.4,41.1,54.1,41.3,53.8,41.6
							C53.9,41.6,53.9,41.6,53.8,41.6"/>
						<path fill="#9E9E9E" d="M54.6,40.8l-2.3-1.2c0.3-0.3,0.6-0.5,0.9-0.7l2.3,1.2C55.2,40.3,54.9,40.6,54.6,40.8"/>
						<path fill="#A3A3A3" d="M55.5,40.1l-2.3-1.2c0.4-0.3,0.9-0.6,1.4-0.8l2.3,1.2C56.4,39.5,56,39.8,55.5,40.1"/>
						<path fill="#A8A8A8" d="M56.9,39.3l-2.3-1.2c0.8-0.4,1.6-0.6,2.5-0.8l2.3,1.2C58.5,38.7,57.7,38.9,56.9,39.3"/>
					</g>
				</g>
				<g enable-background="new    ">
					<defs>
						<path id="SVGID_39_" enable-background="new    " d="M49.3,73.7L47,72.5c-5.8-3.1-9.6-9.5-9.6-17.5c0-12.3,9.3-23.6,20.7-25.2
							l2.3,1.2C49,32.7,39.7,44,39.7,56.3C39.7,64.2,43.5,70.6,49.3,73.7z"/>
					</defs>
					<clipPath id="SVGID_40_">
						<use xlink:href="#SVGID_39_"  overflow="visible"/>
					</clipPath>
					<g clip-path="url(#SVGID_40_)" enable-background="new    ">
						<path fill="#3B3F3A" d="M49.3,73.7L47,72.5c-5.8-3.1-9.6-9.5-9.6-17.5c0-3,0.6-6,1.6-8.8l2.3,1.2c-1,2.8-1.6,5.7-1.6,8.8
							C39.7,64.2,43.5,70.6,49.3,73.7"/>
						<path fill="#3E423C" d="M41.3,47.5L39,46.3c0.4-1.2,1-2.4,1.6-3.5l2.3,1.2C42.3,45.2,41.8,46.3,41.3,47.5"/>
						<path fill="#40443E" d="M42.9,44l-2.3-1.2c0.5-0.9,1.1-1.9,1.7-2.7l2.3,1.2C43.9,42.2,43.4,43.1,42.9,44"/>
						<path fill="#424740" d="M44.6,41.3l-2.3-1.2c0.6-0.8,1.2-1.6,1.9-2.4l2.3,1.2C45.8,39.7,45.1,40.5,44.6,41.3"/>
						<path fill="#444943" d="M46.4,39l-2.3-1.2c0.7-0.8,1.4-1.5,2.1-2.1l2.3,1.2C47.8,37.5,47.1,38.2,46.4,39"/>
						<path fill="#474C45" d="M48.5,36.8l-2.3-1.2c0.8-0.7,1.6-1.4,2.5-2l2.3,1.2C50.1,35.5,49.3,36.1,48.5,36.8"/>
						<path fill="#494E47" d="M51,34.9l-2.3-1.2c1.1-0.7,2.2-1.4,3.3-1.9l2.3,1.2C53.2,33.5,52.1,34.1,51,34.9"/>
						<path fill="#4B5149" d="M54.4,32.9l-2.3-1.2c1.9-0.9,3.9-1.5,6-1.8l2.3,1.2C58.3,31.4,56.3,32,54.4,32.9"/>
					</g>
				</g>
				<g>
					<path fill="#646A61" d="M60.4,31.1C71.8,29.5,81,38.2,81,50.5c0,12.3-9.3,23.6-20.7,25.2c-11.4,1.6-20.6-7.1-20.6-19.4
						C39.7,44,49,32.7,60.4,31.1z M66.4,65.6c1.7-1.8,2.6-4,2.6-6.6c0-2.2-0.6-3.9-1.8-5.2c-1.2-1.3-3.3-2.4-6-3.1l0-8.7
						c1.7-0.2,3.5,0.1,5.3,0.8l1.7-2.9c-2.2-1.3-4.5-1.8-7-1.6l0-2.6l-1.7,0.2l0,2.6c-2.3,0.5-4.2,1.5-5.5,3.1
						c-1.4,1.6-2.1,3.4-2.1,5.5c0,1.9,0.6,3.4,1.7,4.5c1.2,1.1,3.1,2.1,5.9,2.8l0,10.5c-2.4,0.2-4.5,0-6.2-0.9l-1.7,2.8
						c2.6,1.5,5.2,2.1,7.9,1.9l0,2.9l1.7-0.2l0-2.9C63.2,68,65,67.1,66.4,65.6"/>
				</g>
			</g>
		</g>
	</g>
</g>
</svg>
