<?xml version="1.0" encoding="utf-8"?>
<!-- Generator: Adobe Illustrator 18.0.0, SVG Export Plug-In . SVG Version: 6.00 Build 0)  -->
<!DOCTYPE svg PUBLIC "-//W3C//DTD SVG 1.1//EN" "http://www.w3.org/Graphics/SVG/1.1/DTD/svg11.dtd">
<svg version="1.1" id="Layer_1" xmlns="http://www.w3.org/2000/svg" xmlns:xlink="http://www.w3.org/1999/xlink" x="0px" y="0px"
	 viewBox="0 0 118 118" enable-background="new 0 0 118 118" xml:space="preserve">
<g>
	<circle opacity="0.47" fill="#EAEAEA" cx="58.8" cy="59.2" r="59"/>
	<circle fill="#EAEAEA" cx="58.8" cy="59.2" r="44.5"/>
	<ellipse opacity="0.24" fill="#666666" cx="58.8" cy="86.7" rx="14" ry="2.5"/>
	<g>
		<g>
			<g enable-background="new    ">
				<g enable-background="new    ">
					<defs>
						<path id="SVGID_1_" enable-background="new    " d="M64.1,64.1c1.7-1.8,2.6-4,2.6-6.6c0.8,0.4,1.5,0.8,2.3,1.2
							c0,2.6-0.9,4.8-2.6,6.6C65.7,65,64.8,64.5,64.1,64.1z"/>
					</defs>
					<clipPath id="SVGID_2_">
						<use xlink:href="#SVGID_1_"  overflow="visible"/>
					</clipPath>
					<g clip-path="url(#SVGID_2_)" enable-background="new    ">
						<path fill="#987C67" d="M66.4,65.3l-2.3-1.2c0.1-0.1,0.2-0.2,0.2-0.3l2.3,1.2C66.6,65.2,66.5,65.3,66.4,65.3"/>
						<path fill="#937763" d="M66.6,65.1l-2.3-1.2c0.2-0.3,0.5-0.6,0.7-0.8l2.3,1.2C67.1,64.5,66.9,64.8,66.6,65.1"/>
						<path fill="#8E7360" d="M67.3,64.2L65,63c0.2-0.3,0.4-0.6,0.6-0.9l2.3,1.2C67.7,63.6,67.5,63.9,67.3,64.2"/>
						<path fill="#896F5C" d="M67.9,63.3l-2.3-1.2c0.2-0.4,0.4-0.8,0.5-1.2l2.3,1.2C68.2,62.6,68.1,62.9,67.9,63.3"/>
						<path fill="#846B59" d="M68.4,62.2l-2.3-1.2c0.4-1.1,0.6-2.2,0.6-3.5c0-2.2-0.6-3.9-1.9-5.2c-0.6-0.6-1.3-1.2-2.2-1.7l2.3,1.2
							c0.9,0.5,1.7,1.1,2.2,1.7c1.2,1.3,1.9,3.1,1.9,5.2C69,59.9,68.8,61.1,68.4,62.2"/>
					</g>
				</g>
				<g enable-background="new    ">
					<defs>
						<path id="SVGID_3_" enable-background="new    " d="M58.8,67c2.2-0.5,4-1.4,5.3-2.9l2.3,1.2c-1.4,1.5-3.2,2.4-5.3,2.9
							C60.4,67.8,59.5,67.3,58.8,67z"/>
					</defs>
					<clipPath id="SVGID_4_">
						<use xlink:href="#SVGID_3_"  overflow="visible"/>
					</clipPath>
					<g clip-path="url(#SVGID_4_)" enable-background="new    ">
						<path fill="#A88871" d="M61.1,68.2L58.8,67c0.9-0.2,1.7-0.5,2.5-0.8l2.3,1.2C62.8,67.8,61.9,68,61.1,68.2"/>
						<path fill="#A3846D" d="M63.5,67.4l-2.3-1.2c0.5-0.2,1-0.5,1.4-0.8l2.3,1.2C64.5,66.9,64,67.2,63.5,67.4"/>
						<path fill="#9D806A" d="M64.9,66.6l-2.3-1.2c0.3-0.2,0.7-0.5,1-0.8l2.3,1.2C65.6,66.1,65.3,66.4,64.9,66.6"/>
						<path fill="#987C67" d="M65.9,65.8l-2.3-1.2c0.2-0.2,0.3-0.3,0.5-0.5l2.3,1.2C66.2,65.5,66.1,65.7,65.9,65.8"/>
					</g>
				</g>
				<g>
					<polygon fill="#826957" points="61,71.1 58.8,69.9 58.8,67 61.1,68.2 					"/>
				</g>
				<g>
					<polygon fill="#B49279" points="59.3,71.4 57.1,70.1 58.8,69.9 61,71.1 					"/>
				</g>
				<g>
					<polygon fill="#828282" points="59.3,71.4 57.1,70.1 57.1,67.2 59.3,68.5 					"/>
				</g>
				<g enable-background="new    ">
					<defs>
						<path id="SVGID_5_" enable-background="new    " d="M66.7,57.5c0-2.2-0.6-3.9-1.9-5.2c0.8,0.4,1.5,0.8,2.3,1.2
							c1.2,1.3,1.9,3.1,1.9,5.2C68.2,58.3,67.5,57.9,66.7,57.5z"/>
					</defs>
					<clipPath id="SVGID_6_">
						<use xlink:href="#SVGID_5_"  overflow="visible"/>
					</clipPath>
					<g clip-path="url(#SVGID_6_)" enable-background="new    ">
						<path fill="#846B59" d="M68.4,62.2l-2.3-1.2c0.4-1.1,0.6-2.2,0.6-3.5c0-2.2-0.6-3.9-1.9-5.2c-0.6-0.6-1.3-1.2-2.2-1.7l2.3,1.2
							c0.9,0.5,1.7,1.1,2.2,1.7c1.2,1.3,1.9,3.1,1.9,5.2C69,59.9,68.8,61.1,68.4,62.2"/>
					</g>
				</g>
				<g enable-background="new    ">
					<defs>
						<path id="SVGID_7_" enable-background="new    " d="M64.8,52.2c-0.6-0.6-1.3-1.2-2.2-1.7l2.3,1.2c0.9,0.5,1.7,1.1,2.2,1.7
							c-0.4-0.2-0.8-0.4-1.1-0.6c0,0-0.1-0.1-0.1-0.1c-0.1,0-0.2-0.1-0.3-0.2c-0.1,0-0.2-0.1-0.3-0.2c-0.1,0-0.2-0.1-0.3-0.1
							C64.9,52.3,64.9,52.3,64.8,52.2z"/>
					</defs>
					<clipPath id="SVGID_8_">
						<use xlink:href="#SVGID_7_"  overflow="visible"/>
					</clipPath>
					<g clip-path="url(#SVGID_8_)" enable-background="new    ">
						<path fill="#846B59" d="M68.4,62.2l-2.3-1.2c0.4-1.1,0.6-2.2,0.6-3.5c0-2.2-0.6-3.9-1.9-5.2c-0.6-0.6-1.3-1.2-2.2-1.7l2.3,1.2
							c0.9,0.5,1.7,1.1,2.2,1.7c1.2,1.3,1.9,3.1,1.9,5.2C69,59.9,68.8,61.1,68.4,62.2"/>
					</g>
				</g>
				<g enable-background="new    ">
					<defs>
						<path id="SVGID_9_" enable-background="new    " d="M59.9,53.9l2.3,1.2c1.8,1,2.6,2.3,2.6,4c0,2.8-1.2,4.5-3.7,5.2l-2.3-1.2
							c2.5-0.7,3.7-2.5,3.7-5.2C62.5,56.2,61.6,54.8,59.9,53.9z"/>
					</defs>
					<clipPath id="SVGID_10_">
						<use xlink:href="#SVGID_9_"  overflow="visible"/>
					</clipPath>
					<g clip-path="url(#SVGID_10_)" enable-background="new    ">
						<path fill="#A8A8A8" d="M61.1,64.3l-2.3-1.2c0.3-0.1,0.7-0.2,1-0.4L62,64C61.7,64.1,61.4,64.2,61.1,64.3"/>
						<path fill="#A3A3A3" d="M62,64l-2.3-1.2c0.3-0.1,0.5-0.3,0.7-0.4l2.3,1.2C62.5,63.7,62.3,63.8,62,64"/>
						<path fill="#9E9E9E" d="M62.8,63.5l-2.3-1.2c0.2-0.1,0.3-0.2,0.5-0.4l2.3,1.2C63.1,63.3,62.9,63.4,62.8,63.5"/>
						<path fill="#999999" d="M63.2,63.2l-2.3-1.2c0.1-0.1,0.2-0.2,0.3-0.4l2.3,1.2C63.5,63,63.3,63.1,63.2,63.2"/>
						<path fill="#949494" d="M63.6,62.8l-2.3-1.2c0.1-0.1,0.2-0.2,0.3-0.4l2.3,1.2C63.8,62.6,63.7,62.7,63.6,62.8"/>
						<path fill="#8F8F8F" d="M63.9,62.5l-2.3-1.2c0.1-0.1,0.2-0.3,0.3-0.4l2.3,1.2C64.1,62.2,64,62.3,63.9,62.5"/>
						<path fill="#8A8A8A" d="M64.1,62l-2.3-1.2c0.1-0.2,0.2-0.4,0.3-0.6l2.3,1.2C64.3,61.6,64.2,61.8,64.1,62"/>
						<path fill="#858585" d="M64.4,61.4l-2.3-1.2c0.2-0.7,0.4-1.4,0.4-2.3c0-1.7-0.9-3-2.6-4l2.3,1.2c1.8,1,2.6,2.3,2.6,4
							C64.8,60,64.7,60.7,64.4,61.4"/>
					</g>
				</g>
				<g enable-background="new    ">
					<defs>
						<path id="SVGID_11_" enable-background="new    " d="M59.9,53.9l2.3,1.2c-0.3-0.2-0.7-0.3-1.1-0.5l-2.3-1.2
							C59.2,53.5,59.5,53.7,59.9,53.9z"/>
					</defs>
					<clipPath id="SVGID_12_">
						<use xlink:href="#SVGID_11_"  overflow="visible"/>
					</clipPath>
					<g clip-path="url(#SVGID_12_)" enable-background="new    ">
						<path fill="#A3846D" d="M61.1,54.6l-2.3-1.2c0.3,0.1,0.5,0.2,0.8,0.3l2.3,1.2C61.6,54.8,61.3,54.7,61.1,54.6"/>
						<path fill="#9D806A" d="M61.8,55l-2.3-1.2c0.1,0.1,0.2,0.1,0.3,0.2l2.3,1.2C62,55.1,61.9,55,61.8,55"/>
					</g>
				</g>
				<g>
					<polygon fill="#826957" points="61.1,64.3 58.8,63.1 58.8,53.4 61.1,54.6 					"/>
				</g>
				<g>
					<polygon fill="#997C67" points="66.4,42.4 64.1,41.2 65.8,38.3 68.1,39.5 					"/>
				</g>
				<g enable-background="new    ">
					<defs>
						<path id="SVGID_13_" enable-background="new    " d="M62.6,50.6l2.3,1.2c-1-0.6-2.3-1.1-3.8-1.5l-2.3-1.2
							C60.3,49.5,61.6,50,62.6,50.6z"/>
					</defs>
					<clipPath id="SVGID_14_">
						<use xlink:href="#SVGID_13_"  overflow="visible"/>
					</clipPath>
					<g clip-path="url(#SVGID_14_)" enable-background="new    ">
						<path fill="#A3A3A3" d="M61.1,50.3l-2.3-1.2c1.3,0.4,2.4,0.8,3.3,1.2l2.3,1.2C63.5,51.1,62.4,50.7,61.1,50.3"/>
						<path fill="#9E9E9E" d="M64.4,51.6l-2.3-1.2c0.2,0.1,0.3,0.2,0.5,0.2l2.3,1.2C64.7,51.7,64.6,51.7,64.4,51.6"/>
					</g>
				</g>
				<g enable-background="new    ">
					<defs>
						<path id="SVGID_15_" enable-background="new    " d="M51.7,66.7l-2.3-1.2c2.5,1.4,5.1,2,7.6,1.8l2.3,1.2
							C56.8,68.7,54.3,68.1,51.7,66.7z"/>
					</defs>
					<clipPath id="SVGID_16_">
						<use xlink:href="#SVGID_15_"  overflow="visible"/>
					</clipPath>
					<g clip-path="url(#SVGID_16_)" enable-background="new    ">
						<path fill="#9D806A" d="M51.7,66.7l-2.3-1.2c0.2,0.1,0.4,0.2,0.6,0.3l2.3,1.2C52.1,66.9,51.9,66.8,51.7,66.7"/>
						<path fill="#A3846D" d="M52.4,67l-2.3-1.2c0.9,0.5,1.9,0.8,2.8,1.1l2.3,1.2C54.2,67.8,53.3,67.5,52.4,67"/>
						<path fill="#A88871" d="M55.2,68.1l-2.3-1.2c1.4,0.4,2.8,0.5,4.1,0.4l2.3,1.2C58,68.6,56.6,68.4,55.2,68.1"/>
					</g>
				</g>
				<g enable-background="new    ">
					<defs>
						<path id="SVGID_17_" enable-background="new    " d="M58.2,49.3L55.9,48c0.3,0.2,0.7,0.4,1.2,0.5l2.3,1.2
							C58.9,49.6,58.6,49.5,58.2,49.3z"/>
					</defs>
					<clipPath id="SVGID_18_">
						<use xlink:href="#SVGID_17_"  overflow="visible"/>
					</clipPath>
					<g clip-path="url(#SVGID_18_)" enable-background="new    ">
						<path fill="#9E9E9E" d="M58.2,49.3L55.9,48c0.1,0,0.2,0.1,0.3,0.1l2.3,1.2C58.4,49.4,58.3,49.3,58.2,49.3"/>
						<path fill="#A3A3A3" d="M58.5,49.4l-2.3-1.2c0.3,0.1,0.6,0.3,0.9,0.4l2.3,1.2C59.1,49.7,58.8,49.5,58.5,49.4"/>
					</g>
				</g>
				<g>
					<polygon fill="#828282" points="59.3,64.6 57.1,63.4 57.1,52.8 59.4,54.1 					"/>
				</g>
				<g enable-background="new    ">
					<defs>
						<path id="SVGID_19_" enable-background="new    " d="M55.2,52.5L53,51.3c1.1,0.6,2.5,1.1,4.1,1.5l2.3,1.2
							C57.7,53.6,56.3,53.1,55.2,52.5z"/>
					</defs>
					<clipPath id="SVGID_20_">
						<use xlink:href="#SVGID_19_"  overflow="visible"/>
					</clipPath>
					<g clip-path="url(#SVGID_20_)" enable-background="new    ">
						<path fill="#9D806A" d="M55.2,52.5L53,51.3c0.1,0.1,0.3,0.2,0.4,0.2l2.3,1.2C55.5,52.7,55.4,52.6,55.2,52.5"/>
						<path fill="#A3846D" d="M55.7,52.8l-2.3-1.2c1,0.5,2.2,0.9,3.7,1.3l2.3,1.2C57.9,53.7,56.7,53.3,55.7,52.8"/>
					</g>
				</g>
				<g enable-background="new    ">
					<defs>
						<path id="SVGID_21_" enable-background="new    " d="M61.1,41.6l-2.3-1.2c1.7-0.2,3.5,0.1,5.3,0.8l2.3,1.2
							C64.6,41.7,62.8,41.5,61.1,41.6z"/>
					</defs>
					<clipPath id="SVGID_22_">
						<use xlink:href="#SVGID_21_"  overflow="visible"/>
					</clipPath>
					<g clip-path="url(#SVGID_22_)" enable-background="new    ">
						<path fill="#A88871" d="M61.1,41.6l-2.3-1.2c1.3-0.1,2.6,0,3.9,0.3l2.3,1.2C63.7,41.6,62.4,41.5,61.1,41.6"/>
						<path fill="#A3846D" d="M65,41.9l-2.3-1.2c0.5,0.1,0.9,0.3,1.4,0.5l2.3,1.2C65.9,42.2,65.4,42.1,65,41.9"/>
					</g>
				</g>
				<g>
					<polygon fill="#826957" points="61.1,50.3 58.8,49.1 58.8,40.4 61.1,41.6 					"/>
				</g>
				<g>
					<polygon fill="#828282" points="59.4,49.8 57.1,48.5 57.1,40.7 59.4,41.9 					"/>
				</g>
				<g enable-background="new    ">
					<defs>
						<path id="SVGID_23_" enable-background="new    " d="M65.3,38l2.3,1.2c-2-1.1-4.2-1.5-6.5-1.3l-2.3-1.2
							C61.1,36.5,63.3,36.9,65.3,38z"/>
					</defs>
					<clipPath id="SVGID_24_">
						<use xlink:href="#SVGID_23_"  overflow="visible"/>
					</clipPath>
					<g clip-path="url(#SVGID_24_)" enable-background="new    ">
						<path fill="#A8A8A8" d="M61.1,38l-2.3-1.2c1.4-0.1,2.7,0,4,0.3l2.3,1.2C63.8,37.9,62.5,37.8,61.1,38"/>
						<path fill="#A3A3A3" d="M65.1,38.2L62.8,37c0.7,0.2,1.4,0.4,2.1,0.8l2.3,1.2C66.5,38.7,65.8,38.4,65.1,38.2"/>
						<path fill="#9E9E9E" d="M67.2,39l-2.3-1.2c0.1,0.1,0.3,0.1,0.4,0.2l2.3,1.2C67.5,39.2,67.3,39.1,67.2,39"/>
					</g>
				</g>
				<g enable-background="new    ">
					<defs>
						<path id="SVGID_25_" enable-background="new    " d="M55.9,48c-1.5-0.8-2.2-1.9-2.2-3.3L56,46c0,1.4,0.7,2.5,2.2,3.3
							C57.5,48.9,56.6,48.4,55.9,48z"/>
					</defs>
					<clipPath id="SVGID_26_">
						<use xlink:href="#SVGID_25_"  overflow="visible"/>
					</clipPath>
					<g clip-path="url(#SVGID_26_)" enable-background="new    ">
						<path fill="#846B59" d="M58.2,49.3L55.9,48c-1.5-0.8-2.2-1.9-2.2-3.3L56,46C56,47.4,56.7,48.4,58.2,49.3"/>
					</g>
				</g>
				<g>
					<polygon fill="#826957" points="61.1,38 58.8,36.7 58.8,34.1 61.1,35.4 					"/>
				</g>
				<g enable-background="new    ">
					<defs>
						<path id="SVGID_27_" enable-background="new    " d="M53.7,44.7c0-2,1.1-3.4,3.4-4.1l2.3,1.2C57.1,42.6,56,44,56,46
							C55.3,45.6,54.4,45.1,53.7,44.7z"/>
					</defs>
					<clipPath id="SVGID_28_">
						<use xlink:href="#SVGID_27_"  overflow="visible"/>
					</clipPath>
					<g clip-path="url(#SVGID_28_)" enable-background="new    ">
						<path fill="#846B59" d="M56,46l-2.3-1.2c0-0.5,0.1-1,0.2-1.5l2.3,1.2C56,45,56,45.5,56,46"/>
						<path fill="#896F5C" d="M56.2,44.5l-2.3-1.2c0.1-0.2,0.1-0.3,0.2-0.5l2.3,1.2C56.3,44.2,56.3,44.4,56.2,44.5"/>
						<path fill="#8E7360" d="M56.4,44.1l-2.3-1.2c0.1-0.1,0.1-0.2,0.2-0.4l2.3,1.2C56.5,43.8,56.5,43.9,56.4,44.1"/>
						<path fill="#937763" d="M56.6,43.7l-2.3-1.2c0.1-0.1,0.2-0.2,0.3-0.3l2.3,1.2C56.8,43.5,56.7,43.6,56.6,43.7"/>
						<path fill="#987C67" d="M56.9,43.4l-2.3-1.2c0.1-0.1,0.2-0.2,0.3-0.3l2.3,1.2C57.1,43.2,57,43.3,56.9,43.4"/>
						<path fill="#9D806A" d="M57.2,43.1l-2.3-1.2c0.1-0.1,0.3-0.2,0.4-0.4l2.3,1.2C57.5,42.8,57.3,42.9,57.2,43.1"/>
						<path fill="#A3846D" d="M57.6,42.7l-2.3-1.2c0.2-0.2,0.5-0.3,0.8-0.5l2.3,1.2C58.2,42.4,57.9,42.6,57.6,42.7"/>
						<path fill="#A88871" d="M58.4,42.3L56.2,41c0.3-0.1,0.6-0.3,0.9-0.4l2.3,1.2C59,42,58.7,42.1,58.4,42.3"/>
					</g>
				</g>
				<g enable-background="new    ">
					<defs>
						<path id="SVGID_29_" enable-background="new    " d="M65.3,38l2.3,1.2c0.2,0.1,0.3,0.2,0.5,0.3l-2.3-1.2
							C65.6,38.2,65.5,38.1,65.3,38z"/>
					</defs>
					<clipPath id="SVGID_30_">
						<use xlink:href="#SVGID_29_"  overflow="visible"/>
					</clipPath>
					<g clip-path="url(#SVGID_30_)" enable-background="new    ">
						<path fill="#846B59" d="M68.1,39.5l-2.3-1.2c-0.2-0.1-0.3-0.2-0.5-0.3l2.3,1.2C67.8,39.3,67.9,39.4,68.1,39.5"/>
					</g>
				</g>
				<g enable-background="new    ">
					<defs>
						<path id="SVGID_31_" enable-background="new    " d="M53.2,63.7l-2.3-1.2c1.7,0.8,3.8,1.1,6.2,0.9l2.3,1.2
							C57,64.9,54.9,64.6,53.2,63.7z"/>
					</defs>
					<clipPath id="SVGID_32_">
						<use xlink:href="#SVGID_31_"  overflow="visible"/>
					</clipPath>
					<g clip-path="url(#SVGID_32_)" enable-background="new    ">
						<polyline fill="#9E9E9E" points="53.2,63.7 50.9,62.5 50.9,62.5 53.2,63.7 53.2,63.7 						"/>
						<path fill="#A3A3A3" d="M53.2,63.7l-2.3-1.2c0.5,0.3,1.1,0.5,1.7,0.6l2.3,1.2C54.3,64.2,53.7,64,53.2,63.7"/>
						<path fill="#A8A8A8" d="M54.9,64.4l-2.3-1.2c1.3,0.3,2.8,0.4,4.5,0.3l2.3,1.2C57.7,64.8,56.2,64.7,54.9,64.4"/>
					</g>
				</g>
				<g enable-background="new    ">
					<defs>
						<path id="SVGID_33_" enable-background="new    " d="M51.7,66.7l-2.3-1.2c-0.1,0-0.2-0.1-0.3-0.1l2.3,1.2
							C51.6,66.6,51.6,66.6,51.7,66.7z"/>
					</defs>
					<clipPath id="SVGID_34_">
						<use xlink:href="#SVGID_33_"  overflow="visible"/>
					</clipPath>
					<g clip-path="url(#SVGID_34_)" enable-background="new    ">
						<path fill="#858585" d="M51.7,66.7l-2.3-1.2c-0.1,0-0.2-0.1-0.3-0.1l2.3,1.2C51.6,66.6,51.6,66.6,51.7,66.7"/>
					</g>
				</g>
				<g>
					<polygon fill="#9A9A9A" points="51.5,66.6 49.2,65.3 50.9,62.5 53.2,63.7 					"/>
				</g>
				<g>
					<polygon fill="#B4B4B4" points="59.4,35.6 57.1,34.4 58.8,34.1 61.1,35.4 					"/>
				</g>
				<g>
					<polygon fill="#828282" points="59.4,38.2 57.1,37 57.1,34.4 59.4,35.6 					"/>
				</g>
				<g enable-background="new    ">
					<defs>
						<path id="SVGID_35_" enable-background="new    " d="M55.2,52.5L53,51.3c-0.7-0.4-1.3-0.8-1.7-1.2c-1.2-1.1-1.7-2.6-1.7-4.5
							c0-2.1,0.7-3.9,2.1-5.5c1.4-1.6,3.2-2.6,5.5-3.1l2.3,1.2c-2.3,0.5-4.2,1.5-5.5,3.1c-1.4,1.6-2.1,3.4-2.1,5.5
							c0,1.9,0.6,3.4,1.7,4.5C54,51.8,54.5,52.2,55.2,52.5z"/>
					</defs>
					<clipPath id="SVGID_36_">
						<use xlink:href="#SVGID_35_"  overflow="visible"/>
					</clipPath>
					<g clip-path="url(#SVGID_36_)" enable-background="new    ">
						<path fill="#858585" d="M55.2,52.5L53,51.3c-0.7-0.4-1.3-0.8-1.7-1.2c-1.2-1.1-1.7-2.6-1.7-4.5c0-1,0.2-2,0.5-2.9l2.3,1.2
							c-0.3,0.9-0.5,1.8-0.5,2.9c0,1.9,0.6,3.4,1.7,4.5C54,51.8,54.5,52.2,55.2,52.5"/>
						<path fill="#8A8A8A" d="M52.3,43.9L50,42.7c0.1-0.3,0.3-0.7,0.5-1l2.3,1.2C52.5,43.3,52.4,43.6,52.3,43.9"/>
						<path fill="#8F8F8F" d="M52.7,42.9l-2.3-1.2c0.2-0.3,0.3-0.6,0.5-0.8l2.3,1.2C53,42.4,52.9,42.7,52.7,42.9"/>
						<path fill="#949494" d="M53.2,42.1l-2.3-1.2c0.2-0.3,0.4-0.5,0.6-0.8l2.3,1.2C53.6,41.6,53.4,41.9,53.2,42.1"/>
						<path fill="#999999" d="M53.8,41.3l-2.3-1.2c0,0,0,0,0,0c0.2-0.3,0.5-0.5,0.7-0.7l2.3,1.2C54.3,40.8,54.1,41.1,53.8,41.3
							C53.8,41.3,53.8,41.3,53.8,41.3"/>
						<path fill="#9E9E9E" d="M54.6,40.6l-2.3-1.2c0.3-0.3,0.6-0.5,0.9-0.7l2.3,1.2C55.2,40.1,54.9,40.3,54.6,40.6"/>
						<path fill="#A3A3A3" d="M55.5,39.8l-2.3-1.2c0.4-0.3,0.9-0.6,1.4-0.8l2.3,1.2C56.4,39.3,56,39.5,55.5,39.8"/>
						<path fill="#A8A8A8" d="M56.9,39l-2.3-1.2c0.8-0.4,1.6-0.6,2.5-0.8l2.3,1.2C58.5,38.4,57.7,38.7,56.9,39"/>
					</g>
				</g>
				<g enable-background="new    ">
					<defs>
						<path id="SVGID_37_" enable-background="new    " d="M49.1,74l-2.3-1.2c-5.8-3.1-9.6-9.5-9.6-17.5c0-12.3,9.3-23.6,20.7-25.2
							l2.3,1.2C48.8,33,39.5,44.2,39.5,56.5C39.5,64.4,43.3,70.8,49.1,74z"/>
					</defs>
					<clipPath id="SVGID_38_">
						<use xlink:href="#SVGID_37_"  overflow="visible"/>
					</clipPath>
					<g clip-path="url(#SVGID_38_)" enable-background="new    ">
						<path fill="#846B59" d="M49.1,74l-2.3-1.2c-5.8-3.1-9.6-9.5-9.6-17.5c0-3,0.6-6,1.6-8.8l2.3,1.2c-1,2.8-1.6,5.7-1.6,8.8
							C39.5,64.4,43.3,70.8,49.1,74"/>
						<path fill="#896F5C" d="M41.1,47.8l-2.3-1.2c0.4-1.2,1-2.4,1.6-3.5l2.3,1.2C42.1,45.4,41.5,46.6,41.1,47.8"/>
						<path fill="#8E7360" d="M42.7,44.3L40.4,43c0.5-0.9,1.1-1.9,1.7-2.7l2.3,1.2C43.7,42.4,43.2,43.3,42.7,44.3"/>
						<path fill="#937763" d="M44.3,41.6l-2.3-1.2c0.6-0.8,1.2-1.6,1.9-2.4l2.3,1.2C45.5,40,44.9,40.7,44.3,41.6"/>
						<path fill="#987C67" d="M46.2,39.2L43.9,38c0.7-0.8,1.4-1.5,2.1-2.1l2.3,1.2C47.6,37.7,46.9,38.5,46.2,39.2"/>
						<path fill="#9D806A" d="M48.3,37.1L46,35.8c0.8-0.7,1.6-1.4,2.5-2l2.3,1.2C49.9,35.7,49.1,36.4,48.3,37.1"/>
						<path fill="#A3846D" d="M50.8,35.1l-2.3-1.2c1.1-0.7,2.2-1.4,3.3-1.9l2.3,1.2C53,33.7,51.9,34.4,50.8,35.1"/>
						<path fill="#A88871" d="M54.1,33.2l-2.3-1.2c1.9-0.9,3.9-1.5,6-1.8l2.3,1.2C58.1,31.7,56,32.3,54.1,33.2"/>
					</g>
				</g>
				<g>
					<path fill="#DEB495" d="M60.2,31.4c11.4-1.6,20.6,7.1,20.6,19.4c0,12.3-9.3,23.6-20.7,25.2c-11.4,1.6-20.6-7.1-20.6-19.4
						C39.5,44.2,48.8,33,60.2,31.4z M66.4,65.3c1.7-1.8,2.6-4,2.6-6.6c0-2.2-0.6-3.9-1.9-5.2c-1.2-1.3-3.2-2.4-6-3.1l0-8.7
						c1.7-0.2,3.5,0.1,5.3,0.8l1.7-2.9c-2.2-1.3-4.5-1.8-7-1.6l0-2.6l-1.7,0.2l0,2.6c-2.3,0.5-4.2,1.5-5.5,3.1
						c-1.4,1.6-2.1,3.4-2.1,5.5c0,1.9,0.6,3.4,1.7,4.5c1.2,1.1,3.1,2.1,5.9,2.8l0,10.5c-2.4,0.2-4.5,0-6.2-0.9l-1.7,2.8
						c2.6,1.5,5.2,2.1,7.9,1.9l0,2.9l1.7-0.2l0-2.9C63.2,67.8,65,66.8,66.4,65.3"/>
				</g>
				<g>
					<path fill="#DEB495" d="M56,46c0-2,1.1-3.4,3.4-4.1l0,7.9C57.1,48.9,56,47.7,56,46z"/>
				</g>
				<g>
					<path fill="#DFDFDF" d="M61.1,50.3l0-8.7c1.7-0.2,3.5,0.1,5.3,0.8l1.7-2.9c-2.2-1.3-4.5-1.8-7-1.6l0-2.6l-1.7,0.2l0,2.6
						c-2.3,0.5-4.2,1.5-5.5,3.1c-1.4,1.6-2.1,3.4-2.1,5.5c0,1.9,0.6,3.4,1.7,4.5c1.2,1.1,3.1,2.1,5.9,2.8l0,10.5
						c-2.4,0.2-4.5,0-6.2-0.9l-1.7,2.8c2.6,1.5,5.2,2.1,7.9,1.9l0,2.9l1.7-0.2l0-2.9c2.2-0.5,4-1.4,5.3-2.9c1.7-1.8,2.6-4,2.6-6.6
						c0-2.2-0.6-3.9-1.9-5.2C65.9,52.2,63.9,51.1,61.1,50.3z M59.4,49.8C57.1,48.9,56,47.7,56,46c0-2,1.1-3.4,3.4-4.1L59.4,49.8
						 M61.1,64.3l0-9.7c2.5,1,3.7,2.5,3.7,4.5C64.8,61.9,63.5,63.6,61.1,64.3"/>
				</g>
				<g>
					<path fill="#DEB495" d="M61.1,54.6c2.5,1,3.7,2.5,3.7,4.5c0,2.8-1.2,4.5-3.7,5.2L61.1,54.6z"/>
				</g>
				<g enable-background="new    ">
					<defs>
						<path id="SVGID_39_" enable-background="new    " d="M68.9,32l2.3,1.2c-3.2-1.7-7-2.5-11-1.9l-2.3-1.2
							C61.9,29.6,65.7,30.3,68.9,32z"/>
					</defs>
					<clipPath id="SVGID_40_">
						<use xlink:href="#SVGID_39_"  overflow="visible"/>
					</clipPath>
					<g clip-path="url(#SVGID_40_)" enable-background="new    ">
						<path fill="#A88871" d="M60.2,31.4l-2.3-1.2c2.5-0.4,4.9-0.2,7.1,0.4l2.3,1.2C65.1,31.2,62.7,31,60.2,31.4"/>
						<path fill="#A3846D" d="M67.3,31.7L65,30.5c1.1,0.3,2.2,0.7,3.3,1.2l2.3,1.2C69.5,32.4,68.4,32,67.3,31.7"/>
						<path fill="#9D806A" d="M70.5,32.9l-2.3-1.2c0.2,0.1,0.4,0.2,0.6,0.3l2.3,1.2C71,33.1,70.8,33,70.5,32.9"/>
					</g>
				</g>
			</g>
		</g>
	</g>
</g>
</svg>
