<?xml version="1.0" encoding="utf-8"?>
<!-- Generator: Adobe Illustrator 18.0.0, SVG Export Plug-In . SVG Version: 6.00 Build 0)  -->
<!DOCTYPE svg PUBLIC "-//W3C//DTD SVG 1.1//EN" "http://www.w3.org/Graphics/SVG/1.1/DTD/svg11.dtd">
<svg version="1.1" id="Layer_1" xmlns="http://www.w3.org/2000/svg" xmlns:xlink="http://www.w3.org/1999/xlink" x="0px" y="0px"
	 viewBox="0 0 118 118" enable-background="new 0 0 118 118" xml:space="preserve">
<circle opacity="0.47" fill="#F0F0F0" cx="59" cy="59" r="59"/>
<circle fill="#F0F0F0" cx="59" cy="59" r="44.5"/>
<g>
	<g>
		<g enable-background="new    ">
			<g>
				<polygon fill="#383C37" points="73.8,74.9 71.5,73.7 58.6,62.9 60.9,64.1 				"/>
			</g>
			<g>
				<polygon fill="#1D1F1C" points="72.2,76 69.9,74.8 57.1,64.1 59.4,65.4 				"/>
			</g>
			<g>
				<polygon fill="#333631" points="60.9,64.1 73.8,74.9 72.2,76 59.4,65.4 				"/>
			</g>
			<g>
				<polygon fill="#272925" points="59.4,65.4 57.1,64.1 58.6,62.9 60.9,64.1 				"/>
			</g>
			<g>
				<polygon fill="#4E534C" points="65.9,46.7 63.7,45.5 79.7,45.4 81.9,46.6 				"/>
			</g>
			<g>
				<polygon fill="#3E413C" points="47.9,75.2 45.6,73.9 50.7,56.3 52.9,57.6 				"/>
			</g>
			<g>
				<polygon fill="#202320" points="46.3,76.3 44,75.1 49,57.5 51.3,58.7 				"/>
			</g>
			<g>
				<polygon fill="#282B28" points="51.3,58.7 49,57.5 50.7,56.3 52.9,57.6 				"/>
			</g>
			<g>
				<polygon fill="#333733" points="52.9,57.6 47.9,75.2 46.3,76.3 51.3,58.7 				"/>
			</g>
			<g>
				<polygon fill="#4E534C" points="54.7,46.8 52.4,45.6 53.8,45.6 56,46.8 				"/>
			</g>
			<g>
				<polygon fill="#3E413C" points="56,46.8 53.8,45.6 58.8,27.9 61.1,29.1 				"/>
			</g>
			<g>
				<polygon fill="#282B28" points="59.4,30.3 57.2,29 58.8,27.9 61.1,29.1 				"/>
			</g>
			<g>
				<polygon fill="#202320" points="54.7,46.8 52.4,45.6 57.2,29 59.4,30.3 				"/>
			</g>
			<g>
				<polygon fill="#333733" points="61.1,29.1 56,46.8 54.7,46.8 59.4,30.3 				"/>
			</g>
			<g>
				<polygon fill="#4E534C" points="40,46.9 37.8,45.7 52.4,45.6 54.7,46.8 				"/>
			</g>
			<g>
				<polygon fill="#383C37" points="52.9,57.6 50.7,56.3 37.8,45.7 40,46.9 				"/>
			</g>
			<g>
				<polygon fill="#62685F" points="61.1,29.1 65.9,46.7 81.9,46.6 68.9,57.4 73.8,74.9 60.9,64.1 59.4,65.4 47.9,75.2 52.9,57.6 
					40,46.9 54.7,46.8 56,46.8 				"/>
			</g>
			<g>
				<polygon fill="#1D1F1C" points="51.3,58.7 49,57.5 36.1,46.8 38.4,48.1 				"/>
			</g>
			<g>
				<polygon fill="#282A26" points="38.4,48.1 36.1,46.8 37.8,45.7 40,46.9 				"/>
			</g>
			<g>
				<polygon fill="#333631" points="40,46.9 52.9,57.6 51.3,58.7 38.4,48.1 				"/>
			</g>
		</g>
	</g>
</g>
<ellipse opacity="0.24" fill="#666666" cx="59" cy="86.5" rx="14" ry="2.5"/>
</svg>
