<?xml version="1.0" encoding="utf-8"?>
<!-- Generator: Adobe Illustrator 18.0.0, SVG Export Plug-In . SVG Version: 6.00 Build 0)  -->
<!DOCTYPE svg PUBLIC "-//W3C//DTD SVG 1.1//EN" "http://www.w3.org/Graphics/SVG/1.1/DTD/svg11.dtd">
<svg version="1.1" id="Layer_1" xmlns="http://www.w3.org/2000/svg" xmlns:xlink="http://www.w3.org/1999/xlink" x="0px" y="0px"
	 viewBox="0 0 118 118" enable-background="new 0 0 118 118" xml:space="preserve">
<g>
	<circle opacity="0.47" fill="#EAEAEA" cx="58.7" cy="59.2" r="59"/>
	<circle fill="#EAEAEA" cx="58.7" cy="59.2" r="44.5"/>
	<ellipse opacity="0.24" fill="#666666" cx="58.7" cy="86.7" rx="14" ry="2.5"/>
	<g>
		<g>
			<g enable-background="new    ">
				<g enable-background="new    ">
					<defs>
						<path id="SVGID_1_" enable-background="new    " d="M67.3,64.9l-2.3-1.2c2.3-0.3,4.2-2.6,4.2-5.1l2.3,1.2
							C71.5,62.3,69.7,64.6,67.3,64.9z"/>
					</defs>
					<clipPath id="SVGID_2_">
						<use xlink:href="#SVGID_1_"  overflow="visible"/>
					</clipPath>
					<g clip-path="url(#SVGID_2_)" enable-background="new    ">
						<path fill="#A88871" d="M67.3,64.9l-2.3-1.2c0.4-0.1,0.8-0.2,1.2-0.4l2.3,1.2C68.2,64.7,67.8,64.8,67.3,64.9"/>
						<path fill="#A3846D" d="M68.6,64.5l-2.3-1.2c0.2-0.1,0.5-0.2,0.7-0.4l2.3,1.2C69,64.3,68.8,64.4,68.6,64.5"/>
						<path fill="#9D806A" d="M69.3,64.1L67,62.9c0.2-0.1,0.3-0.3,0.5-0.4l2.3,1.2C69.6,63.9,69.4,64,69.3,64.1"/>
						<path fill="#987C67" d="M69.8,63.7l-2.3-1.2c0.1-0.1,0.3-0.3,0.4-0.4l2.3,1.2C70.1,63.5,69.9,63.6,69.8,63.7"/>
						<path fill="#937763" d="M70.2,63.3l-2.3-1.2c0.1-0.2,0.3-0.3,0.4-0.5l2.3,1.2C70.4,63,70.3,63.1,70.2,63.3"/>
						<path fill="#8E7360" d="M70.6,62.8l-2.3-1.2c0.1-0.2,0.2-0.4,0.3-0.6l2.3,1.2C70.8,62.5,70.7,62.6,70.6,62.8"/>
						<path fill="#896F5C" d="M70.9,62.3L68.6,61c0.1-0.2,0.2-0.5,0.3-0.7l2.3,1.2C71.1,61.8,71,62,70.9,62.3"/>
						<path fill="#846B59" d="M71.2,61.6l-2.3-1.2c0.2-0.6,0.3-1.2,0.3-1.8l2.3,1.2C71.5,60.4,71.4,61,71.2,61.6"/>
					</g>
				</g>
				<g>
					<polygon fill="#826957" points="71.5,59.8 69.3,58.6 69.3,50.3 71.6,51.5 					"/>
				</g>
				<g enable-background="new    ">
					<defs>
						<path id="SVGID_3_" enable-background="new    " d="M67.4,62.5l-2.3-1.2c1.1-0.2,2-1.2,2-2.4c0-0.4,0-8.2,0-8.3l2.3,1.2
							c0,0.1,0,7.9,0,8.3C69.3,61.3,68.4,62.3,67.4,62.5z"/>
					</defs>
					<clipPath id="SVGID_4_">
						<use xlink:href="#SVGID_3_"  overflow="visible"/>
					</clipPath>
					<g clip-path="url(#SVGID_4_)" enable-background="new    ">
						<path fill="#A8A8A8" d="M67.4,62.5l-2.3-1.2c0.2,0,0.4-0.1,0.6-0.2l2.3,1.2C67.7,62.4,67.6,62.5,67.4,62.5"/>
						<path fill="#A3A3A3" d="M67.9,62.3l-2.3-1.2c0.1-0.1,0.2-0.1,0.3-0.2l2.3,1.2C68.1,62.2,68,62.3,67.9,62.3"/>
						<path fill="#9E9E9E" d="M68.3,62.1L66,60.9c0.1-0.1,0.2-0.1,0.2-0.2l2.3,1.2C68.4,62,68.3,62.1,68.3,62.1"/>
						<path fill="#999999" d="M68.5,61.9l-2.3-1.2c0.1-0.1,0.1-0.1,0.2-0.2l2.3,1.2C68.6,61.8,68.6,61.9,68.5,61.9"/>
						<path fill="#949494" d="M68.7,61.7l-2.3-1.2c0.1-0.1,0.1-0.1,0.2-0.2l2.3,1.2C68.8,61.6,68.7,61.7,68.7,61.7"/>
						<path fill="#8F8F8F" d="M68.9,61.5l-2.3-1.2c0.1-0.1,0.1-0.2,0.2-0.3l2.3,1.2C69,61.4,68.9,61.4,68.9,61.5"/>
						<path fill="#8A8A8A" d="M69,61.3L66.7,60c0.1-0.1,0.1-0.2,0.1-0.3l2.3,1.2C69.1,61,69.1,61.2,69,61.3"/>
						<path fill="#858585" d="M69.2,60.9l-2.3-1.2c0.1-0.3,0.2-0.5,0.2-0.8c0-0.4,0-8.2,0-8.3l2.3,1.2c0,0.1,0,7.9,0,8.3
							C69.3,60.4,69.3,60.7,69.2,60.9"/>
					</g>
				</g>
				<g>
					<polygon fill="#B4B4B4" points="62.6,63.2 60.4,61.9 65.1,61.3 67.4,62.5 					"/>
				</g>
				<g enable-background="new    ">
					<defs>
						<path id="SVGID_5_" enable-background="new    " d="M64.9,57.2L62.6,56c1.6-0.2,3-1.9,3-3.6l2.3,1.2
							C67.8,55.4,66.5,57,64.9,57.2z"/>
					</defs>
					<clipPath id="SVGID_6_">
						<use xlink:href="#SVGID_5_"  overflow="visible"/>
					</clipPath>
					<g clip-path="url(#SVGID_6_)" enable-background="new    ">
						<path fill="#A88871" d="M64.9,57.2L62.6,56c0.3,0,0.6-0.1,0.9-0.3l2.3,1.2C65.5,57.1,65.2,57.2,64.9,57.2"/>
						<path fill="#A3846D" d="M65.7,57l-2.3-1.2c0.2-0.1,0.3-0.2,0.5-0.3l2.3,1.2C66.1,56.8,65.9,56.9,65.7,57"/>
						<path fill="#9D806A" d="M66.2,56.7l-2.3-1.2c0.1-0.1,0.2-0.2,0.4-0.3l2.3,1.2C66.5,56.5,66.3,56.6,66.2,56.7"/>
						<path fill="#987C67" d="M66.6,56.4l-2.3-1.2c0.1-0.1,0.2-0.2,0.3-0.3l2.3,1.2C66.8,56.2,66.7,56.3,66.6,56.4"/>
						<path fill="#937763" d="M66.9,56.1l-2.3-1.2c0.1-0.1,0.2-0.2,0.3-0.3l2.3,1.2C67.1,55.9,67,56,66.9,56.1"/>
						<path fill="#8E7360" d="M67.2,55.8l-2.3-1.2c0.1-0.1,0.2-0.3,0.2-0.4l2.3,1.2C67.3,55.5,67.2,55.6,67.2,55.8"/>
						<path fill="#896F5C" d="M67.4,55.4l-2.3-1.2c0.1-0.2,0.2-0.3,0.2-0.5l2.3,1.2C67.6,55,67.5,55.2,67.4,55.4"/>
						<path fill="#846B59" d="M67.6,54.9l-2.3-1.2c0.1-0.4,0.2-0.8,0.2-1.3l2.3,1.2C67.8,54.1,67.8,54.5,67.6,54.9"/>
					</g>
				</g>
				<g>
					<polygon fill="#826957" points="67.8,53.6 65.6,52.4 65.6,50 67.9,51.2 					"/>
				</g>
				<g>
					<polygon fill="#B49279" points="64.1,57.3 61.9,56.1 62.6,56 64.9,57.2 					"/>
				</g>
				<g enable-background="new    ">
					<defs>
						<path id="SVGID_7_" enable-background="new    " d="M59.3,60l2.3,1.2c0.6,0.3,1,1,1,1.9l-2.3-1.2C60.4,61.1,60,60.4,59.3,60z"
							/>
					</defs>
					<clipPath id="SVGID_8_">
						<use xlink:href="#SVGID_7_"  overflow="visible"/>
					</clipPath>
					<g clip-path="url(#SVGID_8_)" enable-background="new    ">
						<path fill="#846B59" d="M62.6,63.2l-2.3-1.2c0-0.9-0.4-1.5-1-1.9l2.3,1.2C62.2,61.6,62.6,62.3,62.6,63.2"/>
					</g>
				</g>
				<g>
					<polygon fill="#B49279" points="58.9,66.1 56.6,64.8 65.1,63.7 67.3,64.9 					"/>
				</g>
				<g enable-background="new    ">
					<defs>
						<path id="SVGID_9_" enable-background="new    " d="M63.3,57.2L61.1,56c0.2,0.1,0.5,0.2,0.8,0.1l2.3,1.2
							C63.8,57.4,63.6,57.3,63.3,57.2z"/>
					</defs>
					<clipPath id="SVGID_10_">
						<use xlink:href="#SVGID_9_"  overflow="visible"/>
					</clipPath>
					<g clip-path="url(#SVGID_10_)" enable-background="new    ">
						<path fill="#9D806A" d="M63.3,57.2L61.1,56c0,0,0,0,0,0L63.3,57.2C63.4,57.2,63.4,57.2,63.3,57.2"/>
						<path fill="#A3846D" d="M63.4,57.2L61.1,56c0.1,0,0.2,0.1,0.2,0.1l2.3,1.2C63.5,57.3,63.5,57.3,63.4,57.2"/>
						<path fill="#A88871" d="M63.6,57.3l-2.3-1.2c0.2,0,0.3,0.1,0.5,0l2.3,1.2C64,57.4,63.8,57.4,63.6,57.3"/>
					</g>
				</g>
				<g enable-background="new    ">
					<defs>
						<path id="SVGID_11_" enable-background="new    " d="M59.3,60l2.3,1.2c-0.3-0.2-0.8-0.3-1.2-0.2l-2.3-1.2
							C58.6,59.8,59,59.8,59.3,60z"/>
					</defs>
					<clipPath id="SVGID_12_">
						<use xlink:href="#SVGID_11_"  overflow="visible"/>
					</clipPath>
					<g clip-path="url(#SVGID_12_)" enable-background="new    ">
						<path fill="#A8A8A8" d="M60.4,61.1l-2.3-1.2c0.3,0,0.5,0,0.8,0l2.3,1.2C61,61,60.7,61,60.4,61.1"/>
						<path fill="#A3A3A3" d="M61.2,61.1l-2.3-1.2c0.1,0,0.2,0.1,0.4,0.1l2.3,1.2C61.4,61.2,61.3,61.1,61.2,61.1"/>
						<path fill="#9E9E9E" d="M61.5,61.2L59.3,60c0,0,0,0,0.1,0L61.5,61.2C61.6,61.3,61.6,61.3,61.5,61.2"/>
					</g>
				</g>
				<g enable-background="new    ">
					<defs>
						<path id="SVGID_13_" enable-background="new    " d="M57.7,65.9l-2.3-1.2c0.3,0.2,0.8,0.3,1.2,0.2l2.3,1.2
							C58.5,66.1,58.1,66.1,57.7,65.9z"/>
					</defs>
					<clipPath id="SVGID_14_">
						<use xlink:href="#SVGID_13_"  overflow="visible"/>
					</clipPath>
					<g clip-path="url(#SVGID_14_)" enable-background="new    ">
						<path fill="#9D806A" d="M57.7,65.9l-2.3-1.2c0,0,0,0,0.1,0L57.7,65.9C57.8,65.9,57.8,65.9,57.7,65.9"/>
						<path fill="#A3846D" d="M57.8,65.9l-2.3-1.2c0.1,0.1,0.2,0.1,0.4,0.1l2.3,1.2C58,66,57.9,66,57.8,65.9"/>
						<path fill="#A88871" d="M58.2,66l-2.3-1.2c0.2,0.1,0.5,0.1,0.8,0l2.3,1.2C58.7,66.1,58.4,66.1,58.2,66"/>
					</g>
				</g>
				<g enable-background="new    ">
					<defs>
						<path id="SVGID_15_" enable-background="new    " d="M63.3,57.2L61.1,56c-0.4-0.2-0.7-0.7-0.7-1.3l2.3,1.2
							C62.7,56.5,62.9,57,63.3,57.2z"/>
					</defs>
					<clipPath id="SVGID_16_">
						<use xlink:href="#SVGID_15_"  overflow="visible"/>
					</clipPath>
					<g clip-path="url(#SVGID_16_)" enable-background="new    ">
						<path fill="#858585" d="M63.3,57.2L61.1,56c-0.4-0.2-0.7-0.7-0.7-1.3l2.3,1.2C62.7,56.5,62.9,57,63.3,57.2"/>
					</g>
				</g>
				<g enable-background="new    ">
					<defs>
						<path id="SVGID_17_" enable-background="new    " d="M64.2,47.5l2.3,1.2c0.8,0.5,1.4,1.4,1.4,2.5L65.6,50
							C65.6,48.8,65,47.9,64.2,47.5z"/>
					</defs>
					<clipPath id="SVGID_18_">
						<use xlink:href="#SVGID_17_"  overflow="visible"/>
					</clipPath>
					<g clip-path="url(#SVGID_18_)" enable-background="new    ">
						<path fill="#846B59" d="M67.9,51.2L65.6,50c0-1.1-0.5-2.1-1.4-2.5l2.3,1.2C67.3,49.2,67.9,50.1,67.9,51.2"/>
					</g>
				</g>
				<g>
					<polygon fill="#B4B4B4" points="58.9,61.3 56.7,60 58.1,59.8 60.4,61.1 					"/>
				</g>
				<g enable-background="new    ">
					<defs>
						<path id="SVGID_19_" enable-background="new    " d="M64.2,47.5l2.3,1.2c-0.5-0.2-1-0.4-1.6-0.3l-2.3-1.2
							C63.2,47.1,63.7,47.2,64.2,47.5z"/>
					</defs>
					<clipPath id="SVGID_20_">
						<use xlink:href="#SVGID_19_"  overflow="visible"/>
					</clipPath>
					<g clip-path="url(#SVGID_20_)" enable-background="new    ">
						<path fill="#A8A8A8" d="M64.9,48.4l-2.3-1.2c0.4-0.1,0.7,0,1,0.1l2.3,1.2C65.6,48.4,65.3,48.4,64.9,48.4"/>
						<path fill="#A3A3A3" d="M65.9,48.5l-2.3-1.2c0.2,0,0.3,0.1,0.5,0.2l2.3,1.2C66.2,48.6,66.1,48.5,65.9,48.5"/>
						<path fill="#9E9E9E" d="M66.4,48.7l-2.3-1.2c0,0,0.1,0,0.1,0L66.4,48.7C66.4,48.7,66.4,48.7,66.4,48.7"/>
					</g>
				</g>
				<g enable-background="new    ">
					<defs>
						<path id="SVGID_21_" enable-background="new    " d="M57.7,65.9l-2.3-1.2c-0.6-0.3-1-1-1-1.9c0-1.3,1-2.5,2.2-2.7l2.3,1.2
							c-1.2,0.2-2.2,1.4-2.2,2.7C56.7,64.8,57.1,65.5,57.7,65.9z"/>
					</defs>
					<clipPath id="SVGID_22_">
						<use xlink:href="#SVGID_21_"  overflow="visible"/>
					</clipPath>
					<g clip-path="url(#SVGID_22_)" enable-background="new    ">
						<path fill="#858585" d="M57.7,65.9l-2.3-1.2c-0.6-0.3-1-1-1-1.9c0-0.3,0.1-0.6,0.2-0.9l2.3,1.2c-0.1,0.3-0.2,0.6-0.2,0.9
							C56.7,64.8,57.1,65.5,57.7,65.9"/>
						<path fill="#8A8A8A" d="M56.9,63l-2.3-1.2c0-0.1,0.1-0.3,0.2-0.4l2.3,1.2C57,62.8,56.9,62.9,56.9,63"/>
						<path fill="#8F8F8F" d="M57,62.7l-2.3-1.2c0.1-0.1,0.1-0.2,0.2-0.3l2.3,1.2C57.2,62.5,57.1,62.6,57,62.7"/>
						<path fill="#949494" d="M57.2,62.4l-2.3-1.2c0.1-0.1,0.1-0.2,0.2-0.3l2.3,1.2C57.4,62.2,57.3,62.3,57.2,62.4"/>
						<path fill="#999999" d="M57.4,62.1l-2.3-1.2c0.1-0.1,0.1-0.2,0.2-0.2l2.3,1.2C57.6,62,57.5,62,57.4,62.1"/>
						<path fill="#9E9E9E" d="M57.7,61.9l-2.3-1.2c0.1-0.1,0.2-0.1,0.3-0.2l2.3,1.2C57.8,61.7,57.7,61.8,57.7,61.9"/>
						<path fill="#A3A3A3" d="M57.9,61.7l-2.3-1.2c0.1-0.1,0.2-0.2,0.4-0.2l2.3,1.2C58.2,61.5,58,61.6,57.9,61.7"/>
						<path fill="#A8A8A8" d="M58.3,61.5L56,60.2c0.2-0.1,0.4-0.2,0.7-0.2l2.3,1.2C58.7,61.3,58.5,61.4,58.3,61.5"/>
					</g>
				</g>
				<g>
					<polygon fill="#B4B4B4" points="64.1,48.5 61.9,47.3 62.6,47.2 64.9,48.4 					"/>
				</g>
				<g>
					<polygon fill="#828282" points="62.7,56 60.4,54.7 60.4,49.1 62.7,50.3 					"/>
				</g>
				<g enable-background="new    ">
					<defs>
						<path id="SVGID_23_" enable-background="new    " d="M62.7,50.3l-2.3-1.2c0-0.9,0.7-1.7,1.5-1.8l2.3,1.2
							C63.3,48.7,62.7,49.5,62.7,50.3z"/>
					</defs>
					<clipPath id="SVGID_24_">
						<use xlink:href="#SVGID_23_"  overflow="visible"/>
					</clipPath>
					<g clip-path="url(#SVGID_24_)" enable-background="new    ">
						<path fill="#858585" d="M62.7,50.3l-2.3-1.2c0-0.2,0-0.4,0.1-0.6l2.3,1.2C62.7,49.9,62.7,50.1,62.7,50.3"/>
						<path fill="#8A8A8A" d="M62.8,49.7l-2.3-1.2c0-0.1,0.1-0.2,0.1-0.2l2.3,1.2C62.8,49.6,62.8,49.6,62.8,49.7"/>
						<path fill="#8F8F8F" d="M62.9,49.5l-2.3-1.2c0-0.1,0.1-0.1,0.1-0.2l2.3,1.2C63,49.3,62.9,49.4,62.9,49.5"/>
						<path fill="#949494" d="M63,49.3L60.7,48c0-0.1,0.1-0.1,0.1-0.2l2.3,1.2C63.1,49.2,63.1,49.2,63,49.3"/>
						<path fill="#999999" d="M63.1,49.1l-2.3-1.2c0-0.1,0.1-0.1,0.2-0.2l2.3,1.2C63.2,49,63.2,49,63.1,49.1"/>
						<path fill="#9E9E9E" d="M63.3,49L61,47.7c0.1-0.1,0.1-0.1,0.2-0.1l2.3,1.2C63.4,48.9,63.4,48.9,63.3,49"/>
						<path fill="#A3A3A3" d="M63.5,48.8l-2.3-1.2c0.1-0.1,0.2-0.1,0.2-0.1l2.3,1.2C63.6,48.7,63.6,48.8,63.5,48.8"/>
						<path fill="#A8A8A8" d="M63.7,48.7l-2.3-1.2c0.1-0.1,0.3-0.1,0.4-0.1l2.3,1.2C64,48.6,63.9,48.6,63.7,48.7"/>
					</g>
				</g>
				<g enable-background="new    ">
					<defs>
						<path id="SVGID_25_" enable-background="new    " d="M62.6,42.4l2.3,1.2c2.7,1.5,4.5,4.5,4.5,8.2L67,50.6
							C67.1,46.9,65.3,43.9,62.6,42.4z"/>
					</defs>
					<clipPath id="SVGID_26_">
						<use xlink:href="#SVGID_25_"  overflow="visible"/>
					</clipPath>
					<g clip-path="url(#SVGID_26_)" enable-background="new    ">
						<path fill="#858585" d="M69.3,51.8L67,50.6c0-3.7-1.8-6.7-4.5-8.2l2.3,1.2C67.5,45.1,69.3,48.1,69.3,51.8"/>
					</g>
				</g>
				<g>
					<path fill="#DFDFDF" d="M64.9,57.2l-0.7,0.1c-0.8,0.1-1.5-0.5-1.5-1.4l0-5.6c0-0.9,0.7-1.7,1.5-1.8l0.7-0.1c1.6-0.2,3,1,3,2.8
						l0,2.4C67.8,55.4,66.5,57,64.9,57.2z"/>
				</g>
				<g enable-background="new    ">
					<defs>
						<path id="SVGID_27_" enable-background="new    " d="M69.3,50.3c-0.1-4.5-2.3-8.3-5.7-10.1l2.3,1.2c3.4,1.8,5.5,5.6,5.7,10.1
							C70.9,51.1,70,50.6,69.3,50.3z"/>
					</defs>
					<clipPath id="SVGID_28_">
						<use xlink:href="#SVGID_27_"  overflow="visible"/>
					</clipPath>
					<g clip-path="url(#SVGID_28_)" enable-background="new    ">
						<path fill="#846B59" d="M71.6,51.5l-2.3-1.2c-0.1-4.5-2.3-8.3-5.7-10.1l2.3,1.2C69.2,43.2,71.4,47,71.6,51.5"/>
					</g>
				</g>
				<g enable-background="new    ">
					<defs>
						<path id="SVGID_29_" enable-background="new    " d="M55.2,58.6L53,57.4c0.8-0.1,1.5-0.9,1.5-1.8l2.3,1.2
							C56.7,57.7,56.1,58.5,55.2,58.6z"/>
					</defs>
					<clipPath id="SVGID_30_">
						<use xlink:href="#SVGID_29_"  overflow="visible"/>
					</clipPath>
					<g clip-path="url(#SVGID_30_)" enable-background="new    ">
						<path fill="#A88871" d="M55.2,58.6L53,57.4c0.2,0,0.3-0.1,0.4-0.1l2.3,1.2C55.5,58.5,55.4,58.6,55.2,58.6"/>
						<path fill="#A3846D" d="M55.7,58.5l-2.3-1.2c0.1,0,0.2-0.1,0.2-0.1l2.3,1.2C55.8,58.4,55.7,58.4,55.7,58.5"/>
						<path fill="#9D806A" d="M55.9,58.3l-2.3-1.2c0.1,0,0.1-0.1,0.2-0.1l2.3,1.2C56,58.2,56,58.3,55.9,58.3"/>
						<path fill="#987C67" d="M56.1,58.2l-2.3-1.2c0.1,0,0.1-0.1,0.2-0.2l2.3,1.2C56.2,58.1,56.1,58.1,56.1,58.2"/>
						<path fill="#937763" d="M56.2,58L54,56.8c0-0.1,0.1-0.1,0.1-0.2l2.3,1.2C56.3,57.9,56.3,58,56.2,58"/>
						<path fill="#8E7360" d="M56.4,57.9l-2.3-1.2c0-0.1,0.1-0.1,0.1-0.2l2.3,1.2C56.5,57.7,56.4,57.8,56.4,57.9"/>
						<path fill="#896F5C" d="M56.5,57.7l-2.3-1.2c0-0.1,0.1-0.2,0.1-0.2l2.3,1.2C56.6,57.5,56.5,57.6,56.5,57.7"/>
						<path fill="#846B59" d="M56.6,57.4l-2.3-1.2c0.1-0.2,0.1-0.4,0.1-0.6l2.3,1.2C56.7,57,56.7,57.2,56.6,57.4"/>
					</g>
				</g>
				<g>
					<polygon fill="#B49279" points="54.5,58.7 52.2,57.5 53,57.4 55.2,58.6 					"/>
				</g>
				<g enable-background="new    ">
					<defs>
						<path id="SVGID_31_" enable-background="new    " d="M52.9,58.4l-2.3-1.2c0.5,0.2,1,0.4,1.6,0.3l2.3,1.2
							C53.9,58.8,53.4,58.7,52.9,58.4z"/>
					</defs>
					<clipPath id="SVGID_32_">
						<use xlink:href="#SVGID_31_"  overflow="visible"/>
					</clipPath>
					<g clip-path="url(#SVGID_32_)" enable-background="new    ">
						<path fill="#9D806A" d="M52.9,58.4l-2.3-1.2c0,0,0.1,0,0.1,0L52.9,58.4C53,58.5,52.9,58.4,52.9,58.4"/>
						<path fill="#A3846D" d="M53,58.5l-2.3-1.2c0.1,0.1,0.3,0.1,0.5,0.2l2.3,1.2C53.3,58.6,53.1,58.5,53,58.5"/>
						<path fill="#A88871" d="M53.5,58.6l-2.3-1.2c0.3,0.1,0.7,0.1,1,0.1l2.3,1.2C54.1,58.7,53.8,58.7,53.5,58.6"/>
					</g>
				</g>
				<g>
					<polygon fill="#826957" points="56.7,56.8 54.4,55.5 54.5,49.9 56.7,51.2 					"/>
				</g>
				<g enable-background="new    ">
					<defs>
						<path id="SVGID_33_" enable-background="new    " d="M53.8,48.7l2.3,1.2c0.4,0.2,0.7,0.7,0.7,1.3l-2.3-1.2
							C54.5,49.4,54.2,48.9,53.8,48.7z"/>
					</defs>
					<clipPath id="SVGID_34_">
						<use xlink:href="#SVGID_33_"  overflow="visible"/>
					</clipPath>
					<g clip-path="url(#SVGID_34_)" enable-background="new    ">
						<path fill="#846B59" d="M56.7,51.2l-2.3-1.2c0-0.6-0.3-1-0.7-1.3l2.3,1.2C56.5,50.2,56.7,50.6,56.7,51.2"/>
					</g>
				</g>
				<g enable-background="new    ">
					<defs>
						<path id="SVGID_35_" enable-background="new    " d="M53.8,48.7l2.3,1.2c-0.2-0.1-0.5-0.2-0.8-0.1L53,48.6
							C53.3,48.5,53.5,48.6,53.8,48.7z"/>
					</defs>
					<clipPath id="SVGID_36_">
						<use xlink:href="#SVGID_35_"  overflow="visible"/>
					</clipPath>
					<g clip-path="url(#SVGID_36_)" enable-background="new    ">
						<path fill="#A8A8A8" d="M55.3,49.8L53,48.6c0.2,0,0.4,0,0.5,0l2.3,1.2C55.6,49.8,55.4,49.8,55.3,49.8"/>
						<path fill="#A3A3A3" d="M55.8,49.8l-2.3-1.2c0.1,0,0.2,0.1,0.2,0.1l2.3,1.2C55.9,49.9,55.8,49.8,55.8,49.8"/>
						<path fill="#9E9E9E" d="M56,49.9l-2.3-1.2c0,0,0,0,0,0L56,49.9C56,49.9,56,49.9,56,49.9"/>
					</g>
				</g>
				<g enable-background="new    ">
					<defs>
						<path id="SVGID_37_" enable-background="new    " d="M52.9,58.4l-2.3-1.2c-0.8-0.5-1.4-1.4-1.4-2.5l2.3,1.2
							C51.5,57,52.1,58,52.9,58.4z"/>
					</defs>
					<clipPath id="SVGID_38_">
						<use xlink:href="#SVGID_37_"  overflow="visible"/>
					</clipPath>
					<g clip-path="url(#SVGID_38_)" enable-background="new    ">
						<path fill="#858585" d="M52.9,58.4l-2.3-1.2c-0.8-0.5-1.4-1.4-1.4-2.5l2.3,1.2C51.5,57,52.1,58,52.9,58.4"/>
					</g>
				</g>
				<g enable-background="new    ">
					<defs>
						<path id="SVGID_39_" enable-background="new    " d="M63.6,40.2l2.3,1.2c-1.8-1-3.9-1.4-6.2-1.1l-2.3-1.2
							C59.7,38.8,61.8,39.2,63.6,40.2z"/>
					</defs>
					<clipPath id="SVGID_40_">
						<use xlink:href="#SVGID_39_"  overflow="visible"/>
					</clipPath>
					<g clip-path="url(#SVGID_40_)" enable-background="new    ">
						<path fill="#A8A8A8" d="M59.7,40.4l-2.3-1.2c1.4-0.2,2.8-0.1,4,0.2l2.3,1.2C62.5,40.2,61.1,40.2,59.7,40.4"/>
						<path fill="#A3A3A3" d="M63.7,40.6l-2.3-1.2c0.6,0.2,1.2,0.4,1.8,0.7l2.3,1.2C64.9,41,64.3,40.7,63.7,40.6"/>
						<path fill="#9E9E9E" d="M65.5,41.2L63.2,40c0.1,0.1,0.2,0.1,0.4,0.2l2.3,1.2C65.8,41.4,65.6,41.3,65.5,41.2"/>
					</g>
				</g>
				<g>
					<polygon fill="#B4B4B4" points="54.5,49.9 52.2,48.7 53,48.6 55.3,49.8 					"/>
				</g>
				<g>
					<polygon fill="#828282" points="51.5,55.9 49.3,54.7 49.3,52.3 51.5,53.5 					"/>
				</g>
				<g enable-background="new    ">
					<defs>
						<path id="SVGID_41_" enable-background="new    " d="M49.3,56.2L47,55c0.4-0.1,0.7-0.5,0.7-0.9l2.3,1.2
							C50,55.8,49.7,56.2,49.3,56.2z"/>
					</defs>
					<clipPath id="SVGID_42_">
						<use xlink:href="#SVGID_41_"  overflow="visible"/>
					</clipPath>
					<g clip-path="url(#SVGID_42_)" enable-background="new    ">
						<path fill="#A88871" d="M49.3,56.2L47,55c0.1,0,0.1,0,0.2-0.1l2.3,1.2C49.5,56.2,49.4,56.2,49.3,56.2"/>
						<path fill="#A3846D" d="M49.5,56.2l-2.3-1.2c0,0,0.1,0,0.1-0.1l2.3,1.2C49.6,56.1,49.6,56.1,49.5,56.2"/>
						<path fill="#9D806A" d="M49.6,56.1l-2.3-1.2c0,0,0.1,0,0.1-0.1L49.6,56.1C49.7,56,49.7,56.1,49.6,56.1"/>
						<path fill="#987C67" d="M49.7,56l-2.3-1.2c0,0,0.1,0,0.1-0.1L49.7,56C49.8,56,49.8,56,49.7,56"/>
						<path fill="#937763" d="M49.8,55.9l-2.3-1.2c0,0,0-0.1,0.1-0.1L49.8,55.9C49.9,55.9,49.8,55.9,49.8,55.9"/>
						<path fill="#8E7360" d="M49.9,55.9l-2.3-1.2c0,0,0-0.1,0.1-0.1L49.9,55.9C49.9,55.8,49.9,55.8,49.9,55.9"/>
						<path fill="#896F5C" d="M49.9,55.8l-2.3-1.2c0,0,0-0.1,0.1-0.1l2.3,1.2C50,55.7,50,55.7,49.9,55.8"/>
						<path fill="#846B59" d="M50,55.6l-2.3-1.2c0-0.1,0.1-0.2,0.1-0.3l2.3,1.2C50.1,55.4,50,55.5,50,55.6"/>
					</g>
				</g>
				<g>
					<polygon fill="#826957" points="50.1,55.3 47.8,54.1 47.8,53.3 50.1,54.5 					"/>
				</g>
				<g>
					<path fill="#DFDFDF" d="M56.7,51.2l0,5.6c0,0.9-0.7,1.7-1.5,1.8l-0.7,0.1c-1.6,0.2-3-1-3-2.8l0-2.4c0-1.8,1.3-3.4,3-3.6
						l0.7-0.1C56.1,49.7,56.7,50.3,56.7,51.2z"/>
				</g>
				<g enable-background="new    ">
					<defs>
						<path id="SVGID_43_" enable-background="new    " d="M51.5,53.5l-2.3-1.2c0-1.8,1.3-3.4,3-3.6l2.3,1.2
							C52.9,50.1,51.5,51.7,51.5,53.5z"/>
					</defs>
					<clipPath id="SVGID_44_">
						<use xlink:href="#SVGID_43_"  overflow="visible"/>
					</clipPath>
					<g clip-path="url(#SVGID_44_)" enable-background="new    ">
						<path fill="#858585" d="M51.5,53.5l-2.3-1.2c0-0.4,0.1-0.9,0.2-1.3l2.3,1.2C51.6,52.7,51.5,53.1,51.5,53.5"/>
						<path fill="#8A8A8A" d="M51.8,52.3L49.5,51c0.1-0.2,0.1-0.3,0.2-0.5l2.3,1.2C51.9,51.9,51.8,52.1,51.8,52.3"/>
						<path fill="#8F8F8F" d="M52,51.8l-2.3-1.2c0.1-0.1,0.2-0.3,0.2-0.4l2.3,1.2C52.1,51.5,52.1,51.6,52,51.8"/>
						<path fill="#949494" d="M52.2,51.4L50,50.1c0.1-0.1,0.2-0.2,0.3-0.3l2.3,1.2C52.4,51.1,52.3,51.2,52.2,51.4"/>
						<path fill="#999999" d="M52.5,51l-2.3-1.2c0.1-0.1,0.2-0.2,0.3-0.3l2.3,1.2C52.7,50.8,52.6,50.9,52.5,51"/>
						<path fill="#9E9E9E" d="M52.8,50.7l-2.3-1.2c0.1-0.1,0.2-0.2,0.4-0.3l2.3,1.2C53,50.5,52.9,50.6,52.8,50.7"/>
						<path fill="#A3A3A3" d="M53.2,50.4l-2.3-1.2c0.2-0.1,0.3-0.2,0.5-0.3l2.3,1.2C53.5,50.2,53.3,50.3,53.2,50.4"/>
						<path fill="#A8A8A8" d="M53.6,50.2l-2.3-1.2c0.3-0.1,0.6-0.2,0.9-0.3l2.3,1.2C54.2,49.9,53.9,50,53.6,50.2"/>
					</g>
				</g>
				<g>
					<polygon fill="#B49279" points="48.6,56.3 46.3,55.1 47,55 49.3,56.2 					"/>
				</g>
				<g enable-background="new    ">
					<defs>
						<path id="SVGID_45_" enable-background="new    " d="M48.2,56.3L45.9,55c0.1,0.1,0.2,0.1,0.4,0.1l2.3,1.2
							C48.4,56.4,48.3,56.3,48.2,56.3z"/>
					</defs>
					<clipPath id="SVGID_46_">
						<use xlink:href="#SVGID_45_"  overflow="visible"/>
					</clipPath>
					<g clip-path="url(#SVGID_46_)" enable-background="new    ">
						<path fill="#9D806A" d="M48.2,56.3L45.9,55c0,0,0,0,0,0L48.2,56.3C48.2,56.3,48.2,56.3,48.2,56.3"/>
						<path fill="#A3846D" d="M48.2,56.3L45.9,55c0,0,0.1,0,0.1,0l2.3,1.2C48.3,56.3,48.2,56.3,48.2,56.3"/>
						<path fill="#A88871" d="M48.3,56.3L46,55.1c0.1,0,0.2,0,0.3,0l2.3,1.2C48.5,56.3,48.4,56.3,48.3,56.3"/>
					</g>
				</g>
				<g enable-background="new    ">
					<defs>
						<path id="SVGID_47_" enable-background="new    " d="M48.2,56.3L45.9,55c-0.2-0.1-0.3-0.3-0.3-0.6l2.3,1.2
							C47.8,55.9,48,56.2,48.2,56.3z"/>
					</defs>
					<clipPath id="SVGID_48_">
						<use xlink:href="#SVGID_47_"  overflow="visible"/>
					</clipPath>
					<g clip-path="url(#SVGID_48_)" enable-background="new    ">
						<path fill="#858585" d="M48.2,56.3L45.9,55c-0.2-0.1-0.3-0.3-0.3-0.6l2.3,1.2C47.8,55.9,48,56.2,48.2,56.3"/>
					</g>
				</g>
				<g>
					<polygon fill="#828282" points="47.8,55.6 45.6,54.4 45.6,53.6 47.8,54.8 					"/>
				</g>
				<g enable-background="new    ">
					<defs>
						<path id="SVGID_49_" enable-background="new    " d="M68.5,31.9l2.3,1.2c-3.2-1.7-6.9-2.5-11-1.9L57.5,30
							C61.6,29.4,65.3,30.1,68.5,31.9z"/>
					</defs>
					<clipPath id="SVGID_50_">
						<use xlink:href="#SVGID_49_"  overflow="visible"/>
					</clipPath>
					<g clip-path="url(#SVGID_50_)" enable-background="new    ">
						<path fill="#A88871" d="M59.8,31.2L57.5,30c2.5-0.4,4.9-0.2,7.1,0.4l2.3,1.2C64.7,31,62.3,30.9,59.8,31.2"/>
						<path fill="#A3846D" d="M66.9,31.6l-2.3-1.2c1.1,0.3,2.2,0.7,3.2,1.2l2.3,1.2C69.1,32.3,68,31.9,66.9,31.6"/>
						<path fill="#9D806A" d="M70.1,32.8l-2.3-1.2c0.2,0.1,0.4,0.2,0.6,0.3l2.3,1.2C70.6,33,70.4,32.9,70.1,32.8"/>
					</g>
				</g>
				<g enable-background="new    ">
					<defs>
						<path id="SVGID_51_" enable-background="new    " d="M62.6,42.4l2.3,1.2c-1.5-0.8-3.2-1.2-5.1-0.9c-5.3,0.7-9.7,6-9.7,11.8
							l-2.3-1.2c0-5.7,4.3-11,9.7-11.8C59.3,41.3,61.1,41.6,62.6,42.4z"/>
					</defs>
					<clipPath id="SVGID_52_">
						<use xlink:href="#SVGID_51_"  overflow="visible"/>
					</clipPath>
					<g clip-path="url(#SVGID_52_)" enable-background="new    ">
						<path fill="#846B59" d="M50.1,54.5l-2.3-1.2c0-1.4,0.3-2.8,0.7-4.1l2.3,1.2C50.3,51.7,50.1,53.1,50.1,54.5"/>
						<path fill="#896F5C" d="M50.8,50.4l-2.3-1.2c0.2-0.6,0.5-1.1,0.7-1.6l2.3,1.2C51.2,49.3,51,49.9,50.8,50.4"/>
						<path fill="#8E7360" d="M51.5,48.8l-2.3-1.2c0.2-0.4,0.5-0.9,0.8-1.3l2.3,1.2C52,47.9,51.8,48.4,51.5,48.8"/>
						<path fill="#937763" d="M52.3,47.5L50,46.3c0.3-0.4,0.6-0.8,0.9-1.1l2.3,1.2C52.9,46.8,52.6,47.1,52.3,47.5"/>
						<path fill="#987C67" d="M53.2,46.4l-2.3-1.2c0.3-0.4,0.6-0.7,1-1l2.3,1.2C53.8,45.7,53.5,46.1,53.2,46.4"/>
						<path fill="#9D806A" d="M54.2,45.4l-2.3-1.2c0.4-0.3,0.8-0.6,1.2-0.9l2.3,1.2C54.9,44.8,54.5,45.1,54.2,45.4"/>
						<path fill="#A3846D" d="M55.3,44.5l-2.3-1.2c0.5-0.3,1-0.6,1.6-0.9l2.3,1.2C56.4,43.9,55.8,44.2,55.3,44.5"/>
						<path fill="#A88871" d="M56.9,43.6l-2.3-1.2c0.9-0.4,1.8-0.7,2.8-0.8c1.2-0.2,2.3-0.1,3.3,0.2l2.3,1.2c-1-0.3-2.2-0.3-3.3-0.2
							C58.7,42.9,57.8,43.2,56.9,43.6"/>
						<path fill="#A3846D" d="M63,42.9l-2.3-1.2c0.5,0.1,1,0.3,1.5,0.6l2.3,1.2C64.1,43.3,63.6,43.1,63,42.9"/>
						<path fill="#9D806A" d="M64.6,43.5l-2.3-1.2c0.1,0,0.2,0.1,0.3,0.2l2.3,1.2C64.8,43.6,64.7,43.5,64.6,43.5"/>
					</g>
				</g>
				<g>
					<path fill="#DFDFDF" d="M59.7,40.4c6.6-0.9,11.6,4.3,11.8,11.1l0,8.3c0,2.5-1.9,4.8-4.2,5.1l-8.4,1.2c-1.2,0.2-2.2-0.8-2.2-2.1
						c0-1.3,1-2.5,2.2-2.7l1.5-0.2c1.2-0.2,2.2,0.8,2.2,2.1l4.7-0.7c1.1-0.2,2-1.2,2-2.4c0-0.4,0-8.2,0-8.3c0-5.7-4.3-9.8-9.6-9.1
						c-5.3,0.7-9.7,6-9.7,11.8l0,0.8c0,0.4-0.3,0.9-0.7,0.9l-0.7,0.1c-0.4,0.1-0.7-0.3-0.7-0.7l0-0.8C48.1,47.9,53.1,41.3,59.7,40.4
						z"/>
				</g>
				<g enable-background="new    ">
					<defs>
						<path id="SVGID_53_" enable-background="new    " d="M47.8,54.8l-2.3-1.2c0.2-6.9,5.3-13.5,11.9-14.5l2.3,1.2
							C53.1,41.3,48.1,47.9,47.8,54.8z"/>
					</defs>
					<clipPath id="SVGID_54_">
						<use xlink:href="#SVGID_53_"  overflow="visible"/>
					</clipPath>
					<g clip-path="url(#SVGID_54_)" enable-background="new    ">
						<path fill="#858585" d="M47.8,54.8l-2.3-1.2c0.1-1.7,0.4-3.3,1-4.9l2.3,1.2C48.2,51.5,47.9,53.2,47.8,54.8"/>
						<path fill="#8A8A8A" d="M48.8,49.9l-2.3-1.2c0.3-0.7,0.6-1.4,1-2.1l2.3,1.2C49.4,48.5,49.1,49.2,48.8,49.9"/>
						<path fill="#8F8F8F" d="M49.8,47.8l-2.3-1.2c0.3-0.6,0.6-1.1,1-1.6l2.3,1.2C50.4,46.7,50.1,47.3,49.8,47.8"/>
						<path fill="#949494" d="M50.8,46.2l-2.3-1.2c0.3-0.5,0.7-0.9,1.1-1.4l2.3,1.2C51.5,45.2,51.1,45.7,50.8,46.2"/>
						<path fill="#999999" d="M51.9,44.8l-2.3-1.2c0.4-0.4,0.8-0.8,1.2-1.2l2.3,1.2C52.6,44,52.2,44.4,51.9,44.8"/>
						<path fill="#9E9E9E" d="M53.1,43.6l-2.3-1.2c0.4-0.4,0.9-0.8,1.4-1.1l2.3,1.2C54,42.8,53.5,43.2,53.1,43.6"/>
						<path fill="#A3A3A3" d="M54.5,42.5l-2.3-1.2c0.6-0.4,1.2-0.8,1.9-1.1l2.3,1.2C55.7,41.7,55.1,42,54.5,42.5"/>
						<path fill="#A8A8A8" d="M56.3,41.4l-2.3-1.2c1.1-0.5,2.2-0.8,3.4-1l2.3,1.2C58.5,40.5,57.4,40.9,56.3,41.4"/>
					</g>
				</g>
				<g enable-background="new    ">
					<defs>
						<path id="SVGID_55_" enable-background="new    " d="M48.8,73.6l-2.3-1.2C40.8,69.3,37,62.9,37,55c0-12.2,9.2-23.4,20.6-25
							l2.3,1.2c-11.3,1.6-20.5,12.8-20.6,25C39.2,64.1,43,70.5,48.8,73.6z"/>
					</defs>
					<clipPath id="SVGID_56_">
						<use xlink:href="#SVGID_55_"  overflow="visible"/>
					</clipPath>
					<g clip-path="url(#SVGID_56_)" enable-background="new    ">
						<path fill="#846B59" d="M48.8,73.6l-2.3-1.2C40.8,69.3,37,62.9,37,55c0-3,0.6-6,1.6-8.7l2.3,1.2c-1,2.8-1.6,5.7-1.6,8.7
							C39.2,64.1,43,70.5,48.8,73.6"/>
						<path fill="#896F5C" d="M40.8,47.5l-2.3-1.2c0.4-1.2,1-2.3,1.6-3.5l2.3,1.2C41.8,45.2,41.3,46.3,40.8,47.5"/>
						<path fill="#8E7360" d="M42.4,44.1l-2.3-1.2c0.5-0.9,1.1-1.8,1.7-2.7l2.3,1.2C43.4,42.2,42.9,43.1,42.4,44.1"/>
						<path fill="#937763" d="M44.1,41.4l-2.3-1.2c0.6-0.8,1.2-1.6,1.8-2.3l2.3,1.2C45.2,39.8,44.6,40.6,44.1,41.4"/>
						<path fill="#987C67" d="M45.9,39l-2.3-1.2c0.7-0.7,1.4-1.5,2.1-2.1l2.3,1.2C47.3,37.6,46.6,38.3,45.9,39"/>
						<path fill="#9D806A" d="M48,36.9l-2.3-1.2c0.8-0.7,1.6-1.4,2.5-2l2.3,1.2C49.6,35.5,48.8,36.2,48,36.9"/>
						<path fill="#A3846D" d="M50.5,35l-2.3-1.2c1.1-0.7,2.2-1.4,3.3-1.9l2.3,1.2C52.7,33.6,51.5,34.2,50.5,35"/>
						<path fill="#A88871" d="M53.8,33l-2.3-1.2c1.9-0.9,3.9-1.5,6-1.8l2.3,1.2C57.7,31.5,55.7,32.1,53.8,33"/>
					</g>
				</g>
				<g>
					<path fill="#DEB495" d="M59.8,31.2c11.3-1.6,20.5,7,20.5,19.3c0,12.2-9.2,23.4-20.6,25s-20.5-7-20.5-19.3
						C39.3,44,48.5,32.8,59.8,31.2z M71.5,59.8l0-8.3c-0.2-6.8-5.2-12.1-11.8-11.1c-6.6,0.9-11.7,7.6-11.9,14.5l0,0.8
						c0,0.4,0.3,0.8,0.7,0.7l0.7-0.1c0.4-0.1,0.7-0.5,0.7-0.9l0-0.8c0-5.7,4.3-11,9.7-11.8c5.3-0.7,9.6,3.3,9.6,9.1
						c0,0.1,0,7.9,0,8.3c0,1.2-0.9,2.2-2,2.4l-4.7,0.7c0-1.3-1-2.3-2.2-2.1l-1.5,0.2c-1.2,0.2-2.2,1.4-2.2,2.7c0,1.3,1,2.3,2.2,2.1
						l8.4-1.2C69.7,64.6,71.5,62.3,71.5,59.8 M55.2,58.6c0.8-0.1,1.5-0.9,1.5-1.8l0-5.6c0-0.9-0.7-1.5-1.5-1.4l-0.7,0.1
						c-1.6,0.2-3,1.9-3,3.6l0,2.4c0,1.8,1.3,3,3,2.8L55.2,58.6 M62.7,56c0,0.9,0.7,1.5,1.5,1.4l0.7-0.1c1.6-0.2,3-1.9,3-3.6l0-2.4
						c0-1.8-1.3-3-3-2.8l-0.7,0.1c-0.8,0.1-1.5,0.9-1.5,1.8L62.7,56"/>
				</g>
			</g>
		</g>
	</g>
</g>
</svg>
