<?xml version="1.0" encoding="utf-8"?>
<!-- Generator: Adobe Illustrator 18.0.0, SVG Export Plug-In . SVG Version: 6.00 Build 0)  -->
<!DOCTYPE svg PUBLIC "-//W3C//DTD SVG 1.1//EN" "http://www.w3.org/Graphics/SVG/1.1/DTD/svg11.dtd">
<svg version="1.1" id="Layer_1" xmlns="http://www.w3.org/2000/svg" xmlns:xlink="http://www.w3.org/1999/xlink" x="0px" y="0px"
	 viewBox="0 0 118 118" enable-background="new 0 0 118 118" xml:space="preserve">
<g>
	<circle opacity="0.47" fill="#F0F0F0" cx="59" cy="59" r="59"/>
	<circle fill="#F0F0F0" cx="59" cy="59" r="44.5"/>
	<ellipse opacity="0.24" fill="#666666" cx="59" cy="86.5" rx="14" ry="2.5"/>
	<g>
		<g>
			<g enable-background="new    ">
				<g enable-background="new    ">
					<defs>
						<path id="SVGID_1_" enable-background="new    " d="M67.7,64.6l-2.3-1.2c2.3-0.3,4.2-2.6,4.2-5.1l2.3,1.2
							C71.9,62,70,64.3,67.7,64.6z"/>
					</defs>
					<clipPath id="SVGID_2_">
						<use xlink:href="#SVGID_1_"  overflow="visible"/>
					</clipPath>
					<g clip-path="url(#SVGID_2_)" enable-background="new    ">
						<path fill="#4B5149" d="M67.7,64.6l-2.3-1.2c0.4-0.1,0.8-0.2,1.2-0.4l2.3,1.2C68.5,64.5,68.1,64.6,67.7,64.6"/>
						<path fill="#494E47" d="M68.9,64.3L66.6,63c0.2-0.1,0.5-0.2,0.7-0.4l2.3,1.2C69.4,64,69.2,64.2,68.9,64.3"/>
						<path fill="#474C45" d="M69.6,63.9l-2.3-1.2c0.2-0.1,0.3-0.3,0.5-0.4l2.3,1.2C69.9,63.6,69.8,63.8,69.6,63.9"/>
						<path fill="#444943" d="M70.1,63.5l-2.3-1.2c0.1-0.1,0.3-0.3,0.4-0.4l2.3,1.2C70.4,63.2,70.3,63.3,70.1,63.5"/>
						<path fill="#424740" d="M70.5,63.1l-2.3-1.2c0.1-0.2,0.3-0.3,0.4-0.5l2.3,1.2C70.8,62.7,70.7,62.9,70.5,63.1"/>
						<path fill="#40443E" d="M70.9,62.6l-2.3-1.2c0.1-0.2,0.2-0.4,0.3-0.6l2.3,1.2C71.1,62.2,71,62.4,70.9,62.6"/>
						<path fill="#3E423C" d="M71.2,62L69,60.8c0.1-0.2,0.2-0.5,0.3-0.7l2.3,1.2C71.5,61.6,71.4,61.8,71.2,62"/>
						<path fill="#3B3F3A" d="M71.6,61.3l-2.3-1.2c0.2-0.6,0.3-1.2,0.3-1.8l2.3,1.2C71.9,60.2,71.8,60.8,71.6,61.3"/>
					</g>
				</g>
				<g>
					<polygon fill="#3A3E39" points="71.9,59.5 69.6,58.3 69.6,50 71.9,51.2 					"/>
				</g>
				<g enable-background="new    ">
					<defs>
						<path id="SVGID_3_" enable-background="new    " d="M67.7,62.2L65.4,61c1.1-0.2,2-1.2,2-2.4c0-0.4,0-8.2,0-8.3l2.3,1.2
							c0,0.1,0,7.9,0,8.3C69.7,61,68.8,62.1,67.7,62.2z"/>
					</defs>
					<clipPath id="SVGID_4_">
						<use xlink:href="#SVGID_3_"  overflow="visible"/>
					</clipPath>
					<g clip-path="url(#SVGID_4_)" enable-background="new    ">
						<path fill="#A8A8A8" d="M67.7,62.2L65.4,61c0.2,0,0.4-0.1,0.6-0.2l2.3,1.2C68.1,62.2,67.9,62.2,67.7,62.2"/>
						<path fill="#A3A3A3" d="M68.3,62.1L66,60.8c0.1-0.1,0.2-0.1,0.3-0.2l2.3,1.2C68.5,62,68.4,62,68.3,62.1"/>
						<path fill="#9E9E9E" d="M68.6,61.9l-2.3-1.2c0.1-0.1,0.2-0.1,0.2-0.2l2.3,1.2C68.8,61.8,68.7,61.8,68.6,61.9"/>
						<path fill="#999999" d="M68.8,61.7l-2.3-1.2c0.1-0.1,0.1-0.1,0.2-0.2l2.3,1.2C69,61.6,68.9,61.6,68.8,61.7"/>
						<path fill="#949494" d="M69,61.5l-2.3-1.2c0.1-0.1,0.1-0.1,0.2-0.2l2.3,1.2C69.2,61.4,69.1,61.4,69,61.5"/>
						<path fill="#8F8F8F" d="M69.2,61.3L66.9,60c0.1-0.1,0.1-0.2,0.2-0.3l2.3,1.2C69.3,61.1,69.3,61.2,69.2,61.3"/>
						<path fill="#8A8A8A" d="M69.4,61l-2.3-1.2c0.1-0.1,0.1-0.2,0.1-0.3l2.3,1.2C69.5,60.8,69.4,60.9,69.4,61"/>
						<path fill="#858585" d="M69.5,60.7l-2.3-1.2c0.1-0.3,0.2-0.5,0.2-0.8c0-0.4,0-8.2,0-8.3l2.3,1.2c0,0.1,0,7.9,0,8.3
							C69.7,60.1,69.6,60.4,69.5,60.7"/>
					</g>
				</g>
				<g>
					<polygon fill="#B4B4B4" points="63,62.9 60.7,61.7 65.4,61 67.7,62.2 					"/>
				</g>
				<g enable-background="new    ">
					<defs>
						<path id="SVGID_5_" enable-background="new    " d="M65.2,57l-2.3-1.2c1.6-0.2,3-1.9,3-3.6l2.3,1.2
							C68.2,55.1,66.9,56.8,65.2,57z"/>
					</defs>
					<clipPath id="SVGID_6_">
						<use xlink:href="#SVGID_5_"  overflow="visible"/>
					</clipPath>
					<g clip-path="url(#SVGID_6_)" enable-background="new    ">
						<path fill="#4B5149" d="M65.2,57l-2.3-1.2c0.3,0,0.6-0.1,0.9-0.3l2.3,1.2C65.8,56.9,65.5,57,65.2,57"/>
						<path fill="#494E47" d="M66.1,56.7l-2.3-1.2c0.2-0.1,0.3-0.2,0.5-0.3l2.3,1.2C66.4,56.6,66.3,56.7,66.1,56.7"/>
						<path fill="#474C45" d="M66.6,56.5l-2.3-1.2c0.1-0.1,0.2-0.2,0.4-0.3l2.3,1.2C66.8,56.3,66.7,56.4,66.6,56.5"/>
						<path fill="#444943" d="M66.9,56.2l-2.3-1.2c0.1-0.1,0.2-0.2,0.3-0.3l2.3,1.2C67.1,56,67,56.1,66.9,56.2"/>
						<path fill="#424740" d="M67.2,55.9l-2.3-1.2c0.1-0.1,0.2-0.2,0.3-0.3l2.3,1.2C67.4,55.6,67.3,55.8,67.2,55.9"/>
						<path fill="#40443E" d="M67.5,55.5l-2.3-1.2c0.1-0.1,0.2-0.3,0.2-0.4l2.3,1.2C67.7,55.3,67.6,55.4,67.5,55.5"/>
						<path fill="#3E423C" d="M67.7,55.1l-2.3-1.2c0.1-0.2,0.2-0.3,0.2-0.5l2.3,1.2C67.9,54.8,67.8,55,67.7,55.1"/>
						<path fill="#3B3F3A" d="M68,54.6l-2.3-1.2c0.1-0.4,0.2-0.8,0.2-1.3l2.3,1.2C68.2,53.8,68.1,54.2,68,54.6"/>
					</g>
				</g>
				<g>
					<polygon fill="#3A3E39" points="68.2,53.4 65.9,52.1 65.9,49.7 68.2,51 					"/>
				</g>
				<g>
					<polygon fill="#51564E" points="64.5,57.1 62.2,55.9 62.9,55.8 65.2,57 					"/>
				</g>
				<g enable-background="new    ">
					<defs>
						<path id="SVGID_7_" enable-background="new    " d="M59.7,59.8L62,61c0.6,0.3,1,1,1,1.9l-2.3-1.2
							C60.7,60.8,60.3,60.1,59.7,59.8z"/>
					</defs>
					<clipPath id="SVGID_8_">
						<use xlink:href="#SVGID_7_"  overflow="visible"/>
					</clipPath>
					<g clip-path="url(#SVGID_8_)" enable-background="new    ">
						<path fill="#3B3F3A" d="M63,62.9l-2.3-1.2c0-0.9-0.4-1.6-1-1.9L62,61C62.6,61.4,63,62.1,63,62.9"/>
					</g>
				</g>
				<g>
					<polygon fill="#51564E" points="59.3,65.8 57,64.6 65.4,63.4 67.7,64.6 					"/>
				</g>
				<g enable-background="new    ">
					<defs>
						<path id="SVGID_9_" enable-background="new    " d="M63.7,57l-2.3-1.2c0.2,0.1,0.5,0.2,0.8,0.1l2.3,1.2
							C64.2,57.1,63.9,57.1,63.7,57z"/>
					</defs>
					<clipPath id="SVGID_10_">
						<use xlink:href="#SVGID_9_"  overflow="visible"/>
					</clipPath>
					<g clip-path="url(#SVGID_10_)" enable-background="new    ">
						<path fill="#474C45" d="M63.7,57l-2.3-1.2c0,0,0,0,0,0L63.7,57C63.7,57,63.7,57,63.7,57"/>
						<path fill="#494E47" d="M63.7,57l-2.3-1.2c0.1,0,0.2,0.1,0.2,0.1l2.3,1.2C63.9,57.1,63.8,57,63.7,57"/>
						<path fill="#4B5149" d="M64,57.1l-2.3-1.2c0.2,0,0.3,0.1,0.5,0l2.3,1.2C64.3,57.1,64.1,57.1,64,57.1"/>
					</g>
				</g>
				<g enable-background="new    ">
					<defs>
						<path id="SVGID_11_" enable-background="new    " d="M59.7,59.8L62,61c-0.3-0.2-0.7-0.3-1.2-0.2l-2.3-1.2
							C58.9,59.5,59.3,59.6,59.7,59.8z"/>
					</defs>
					<clipPath id="SVGID_12_">
						<use xlink:href="#SVGID_11_"  overflow="visible"/>
					</clipPath>
					<g clip-path="url(#SVGID_12_)" enable-background="new    ">
						<path fill="#A8A8A8" d="M60.8,60.8l-2.3-1.2c0.3,0,0.5,0,0.8,0l2.3,1.2C61.3,60.8,61,60.8,60.8,60.8"/>
						<path fill="#A3A3A3" d="M61.5,60.9l-2.3-1.2c0.1,0,0.2,0.1,0.4,0.1l2.3,1.2C61.8,60.9,61.7,60.9,61.5,60.9"/>
						<path fill="#9E9E9E" d="M61.9,61l-2.3-1.2c0,0,0,0,0.1,0L61.9,61C61.9,61,61.9,61,61.9,61"/>
					</g>
				</g>
				<g enable-background="new    ">
					<defs>
						<path id="SVGID_13_" enable-background="new    " d="M58.1,65.6l-2.3-1.2c0.3,0.2,0.8,0.3,1.2,0.2l2.3,1.2
							C58.8,65.9,58.4,65.8,58.1,65.6z"/>
					</defs>
					<clipPath id="SVGID_14_">
						<use xlink:href="#SVGID_13_"  overflow="visible"/>
					</clipPath>
					<g clip-path="url(#SVGID_14_)" enable-background="new    ">
						<path fill="#474C45" d="M58.1,65.6l-2.3-1.2c0,0,0,0,0.1,0L58.1,65.6C58.1,65.6,58.1,65.6,58.1,65.6"/>
						<path fill="#494E47" d="M58.2,65.7l-2.3-1.2c0.1,0.1,0.2,0.1,0.4,0.1l2.3,1.2C58.4,65.8,58.3,65.7,58.2,65.7"/>
						<path fill="#4B5149" d="M58.5,65.8l-2.3-1.2c0.2,0.1,0.5,0.1,0.8,0l2.3,1.2C59,65.9,58.7,65.8,58.5,65.8"/>
					</g>
				</g>
				<g enable-background="new    ">
					<defs>
						<path id="SVGID_15_" enable-background="new    " d="M63.7,57l-2.3-1.2c-0.4-0.2-0.7-0.7-0.7-1.3l2.3,1.2
							C63,56.3,63.3,56.7,63.7,57z"/>
					</defs>
					<clipPath id="SVGID_16_">
						<use xlink:href="#SVGID_15_"  overflow="visible"/>
					</clipPath>
					<g clip-path="url(#SVGID_16_)" enable-background="new    ">
						<path fill="#858585" d="M63.7,57l-2.3-1.2c-0.4-0.2-0.7-0.7-0.7-1.3l2.3,1.2C63,56.3,63.3,56.7,63.7,57"/>
					</g>
				</g>
				<g enable-background="new    ">
					<defs>
						<path id="SVGID_17_" enable-background="new    " d="M64.5,47.2l2.3,1.2c0.8,0.5,1.4,1.4,1.4,2.5l-2.3-1.2
							C65.9,48.6,65.4,47.7,64.5,47.2z"/>
					</defs>
					<clipPath id="SVGID_18_">
						<use xlink:href="#SVGID_17_"  overflow="visible"/>
					</clipPath>
					<g clip-path="url(#SVGID_18_)" enable-background="new    ">
						<path fill="#3B3F3A" d="M68.2,51l-2.3-1.2c0-1.1-0.5-2.1-1.4-2.5l2.3,1.2C67.6,48.9,68.2,49.8,68.2,51"/>
					</g>
				</g>
				<g>
					<polygon fill="#B4B4B4" points="59.3,61 57,59.8 58.5,59.6 60.8,60.8 					"/>
				</g>
				<g enable-background="new    ">
					<defs>
						<path id="SVGID_19_" enable-background="new    " d="M64.5,47.2l2.3,1.2c-0.5-0.2-1-0.4-1.6-0.3L63,46.9
							C63.5,46.9,64.1,47,64.5,47.2z"/>
					</defs>
					<clipPath id="SVGID_20_">
						<use xlink:href="#SVGID_19_"  overflow="visible"/>
					</clipPath>
					<g clip-path="url(#SVGID_20_)" enable-background="new    ">
						<path fill="#A8A8A8" d="M65.2,48.2L63,46.9c0.4-0.1,0.7,0,1,0.1l2.3,1.2C65.9,48.2,65.6,48.1,65.2,48.2"/>
						<path fill="#A3A3A3" d="M66.3,48.2L64,47c0.2,0,0.3,0.1,0.5,0.2l2.3,1.2C66.6,48.3,66.4,48.3,66.3,48.2"/>
						<path fill="#9E9E9E" d="M66.7,48.4l-2.3-1.2c0,0,0.1,0,0.1,0L66.7,48.4C66.8,48.4,66.8,48.4,66.7,48.4"/>
					</g>
				</g>
				<g enable-background="new    ">
					<defs>
						<path id="SVGID_21_" enable-background="new    " d="M58.1,65.6l-2.3-1.2c-0.6-0.3-1-1-1-1.9c0-1.3,1-2.5,2.2-2.7l2.3,1.2
							c-1.2,0.2-2.2,1.4-2.2,2.7C57.1,64.6,57.5,65.3,58.1,65.6z"/>
					</defs>
					<clipPath id="SVGID_22_">
						<use xlink:href="#SVGID_21_"  overflow="visible"/>
					</clipPath>
					<g clip-path="url(#SVGID_22_)" enable-background="new    ">
						<path fill="#858585" d="M58.1,65.6l-2.3-1.2c-0.6-0.3-1-1-1-1.9c0-0.3,0.1-0.7,0.2-1l2.3,1.2c-0.1,0.3-0.2,0.6-0.2,1
							C57.1,64.6,57.5,65.3,58.1,65.6"/>
						<path fill="#8A8A8A" d="M57.2,62.8l-2.3-1.2c0-0.1,0.1-0.3,0.2-0.4l2.3,1.2C57.3,62.5,57.3,62.7,57.2,62.8"/>
						<path fill="#8F8F8F" d="M57.4,62.4l-2.3-1.2c0.1-0.1,0.1-0.2,0.2-0.3l2.3,1.2C57.5,62.2,57.4,62.3,57.4,62.4"/>
						<path fill="#949494" d="M57.6,62.1l-2.3-1.2c0.1-0.1,0.1-0.2,0.2-0.3l2.3,1.2C57.7,62,57.6,62,57.6,62.1"/>
						<path fill="#999999" d="M57.8,61.9l-2.3-1.2c0.1-0.1,0.1-0.2,0.2-0.2l2.3,1.2C57.9,61.7,57.8,61.8,57.8,61.9"/>
						<path fill="#9E9E9E" d="M58,61.6l-2.3-1.2c0.1-0.1,0.2-0.1,0.3-0.2l2.3,1.2C58.2,61.5,58.1,61.6,58,61.6"/>
						<path fill="#A3A3A3" d="M58.3,61.4L56,60.2c0.1-0.1,0.2-0.1,0.4-0.2l2.3,1.2C58.5,61.3,58.4,61.4,58.3,61.4"/>
						<path fill="#A8A8A8" d="M58.6,61.2L56.4,60c0.2-0.1,0.4-0.2,0.7-0.2l2.3,1.2C59.1,61.1,58.8,61.1,58.6,61.2"/>
					</g>
				</g>
				<g>
					<polygon fill="#B4B4B4" points="64.5,48.3 62.2,47 63,46.9 65.2,48.2 					"/>
				</g>
				<g>
					<polygon fill="#828282" points="63,55.7 60.7,54.5 60.7,48.9 63,50.1 					"/>
				</g>
				<g enable-background="new    ">
					<defs>
						<path id="SVGID_23_" enable-background="new    " d="M63,50.1l-2.3-1.2c0-0.9,0.7-1.7,1.5-1.8l2.3,1.2
							C63.7,48.4,63,49.2,63,50.1z"/>
					</defs>
					<clipPath id="SVGID_24_">
						<use xlink:href="#SVGID_23_"  overflow="visible"/>
					</clipPath>
					<g clip-path="url(#SVGID_24_)" enable-background="new    ">
						<path fill="#858585" d="M63,50.1l-2.3-1.2c0-0.2,0-0.4,0.1-0.6l2.3,1.2C63,49.7,63,49.9,63,50.1"/>
						<path fill="#8A8A8A" d="M63.1,49.5l-2.3-1.2c0-0.1,0.1-0.2,0.1-0.3l2.3,1.2C63.2,49.3,63.2,49.4,63.1,49.5"/>
						<path fill="#8F8F8F" d="M63.2,49.2L61,48c0-0.1,0.1-0.1,0.1-0.2l2.3,1.2C63.3,49.1,63.3,49.2,63.2,49.2"/>
						<path fill="#949494" d="M63.4,49l-2.3-1.2c0-0.1,0.1-0.1,0.1-0.2l2.3,1.2C63.4,48.9,63.4,49,63.4,49"/>
						<path fill="#999999" d="M63.5,48.9l-2.3-1.2c0-0.1,0.1-0.1,0.2-0.2l2.3,1.2C63.6,48.7,63.5,48.8,63.5,48.9"/>
						<path fill="#9E9E9E" d="M63.6,48.7l-2.3-1.2c0.1-0.1,0.1-0.1,0.2-0.1l2.3,1.2C63.8,48.6,63.7,48.7,63.6,48.7"/>
						<path fill="#A3A3A3" d="M63.8,48.6l-2.3-1.2c0.1-0.1,0.2-0.1,0.2-0.1l2.3,1.2C64,48.5,63.9,48.5,63.8,48.6"/>
						<path fill="#A8A8A8" d="M64.1,48.4l-2.3-1.2c0.1-0.1,0.3-0.1,0.4-0.1l2.3,1.2C64.3,48.3,64.2,48.4,64.1,48.4"/>
					</g>
				</g>
				<g enable-background="new    ">
					<defs>
						<path id="SVGID_25_" enable-background="new    " d="M62.9,42.2l2.3,1.2c2.7,1.5,4.5,4.5,4.5,8.2l-2.3-1.2
							C67.4,46.6,65.6,43.6,62.9,42.2z"/>
					</defs>
					<clipPath id="SVGID_26_">
						<use xlink:href="#SVGID_25_"  overflow="visible"/>
					</clipPath>
					<g clip-path="url(#SVGID_26_)" enable-background="new    ">
						<path fill="#858585" d="M69.7,51.6l-2.3-1.2c0-3.7-1.8-6.7-4.5-8.2l2.3,1.2C67.9,44.9,69.7,47.9,69.7,51.6"/>
					</g>
				</g>
				<g enable-background="new    ">
					<defs>
						<path id="SVGID_27_" enable-background="new    " d="M69.6,50c-0.1-4.5-2.3-8.3-5.7-10.1l2.3,1.2c3.4,1.8,5.5,5.6,5.7,10.1
							C71.2,50.9,70.3,50.4,69.6,50z"/>
					</defs>
					<clipPath id="SVGID_28_">
						<use xlink:href="#SVGID_27_"  overflow="visible"/>
					</clipPath>
					<g clip-path="url(#SVGID_28_)" enable-background="new    ">
						<path fill="#3B3F3A" d="M71.9,51.2L69.6,50c-0.1-4.5-2.3-8.3-5.7-10.1l2.3,1.2C69.6,43,71.8,46.8,71.9,51.2"/>
					</g>
				</g>
				<g enable-background="new    ">
					<defs>
						<path id="SVGID_29_" enable-background="new    " d="M55.6,58.3l-2.3-1.2c0.8-0.1,1.5-0.9,1.5-1.8l2.3,1.2
							C57.1,57.4,56.4,58.2,55.6,58.3z"/>
					</defs>
					<clipPath id="SVGID_30_">
						<use xlink:href="#SVGID_29_"  overflow="visible"/>
					</clipPath>
					<g clip-path="url(#SVGID_30_)" enable-background="new    ">
						<path fill="#4B5149" d="M55.6,58.3l-2.3-1.2c0.2,0,0.3-0.1,0.4-0.1l2.3,1.2C55.9,58.3,55.7,58.3,55.6,58.3"/>
						<path fill="#494E47" d="M56,58.2L53.7,57c0.1,0,0.2-0.1,0.2-0.1l2.3,1.2C56.2,58.1,56.1,58.2,56,58.2"/>
						<path fill="#474C45" d="M56.3,58.1L54,56.8c0.1,0,0.1-0.1,0.2-0.1l2.3,1.2C56.4,58,56.3,58,56.3,58.1"/>
						<path fill="#444943" d="M56.4,57.9l-2.3-1.2c0.1,0,0.1-0.1,0.2-0.2l2.3,1.2C56.5,57.8,56.5,57.9,56.4,57.9"/>
						<path fill="#424740" d="M56.6,57.8l-2.3-1.2c0-0.1,0.1-0.1,0.1-0.2l2.3,1.2C56.7,57.7,56.6,57.7,56.6,57.8"/>
						<path fill="#40443E" d="M56.7,57.6l-2.3-1.2c0-0.1,0.1-0.1,0.1-0.2l2.3,1.2C56.8,57.5,56.8,57.6,56.7,57.6"/>
						<path fill="#3E423C" d="M56.8,57.4l-2.3-1.2c0-0.1,0.1-0.2,0.1-0.2l2.3,1.2C56.9,57.3,56.9,57.3,56.8,57.4"/>
						<path fill="#3B3F3A" d="M57,57.2l-2.3-1.2c0.1-0.2,0.1-0.4,0.1-0.6l2.3,1.2C57.1,56.8,57,57,57,57.2"/>
					</g>
				</g>
				<g>
					<polygon fill="#51564E" points="54.8,58.5 52.6,57.2 53.3,57.1 55.6,58.3 					"/>
				</g>
				<g enable-background="new    ">
					<defs>
						<path id="SVGID_31_" enable-background="new    " d="M53.3,58.2L51,56.9c0.5,0.2,1,0.4,1.6,0.3l2.3,1.2
							C54.3,58.5,53.7,58.4,53.3,58.2z"/>
					</defs>
					<clipPath id="SVGID_32_">
						<use xlink:href="#SVGID_31_"  overflow="visible"/>
					</clipPath>
					<g clip-path="url(#SVGID_32_)" enable-background="new    ">
						<path fill="#474C45" d="M53.3,58.2L51,56.9c0,0,0.1,0,0.1,0L53.3,58.2C53.3,58.2,53.3,58.2,53.3,58.2"/>
						<path fill="#494E47" d="M53.3,58.2L51.1,57c0.1,0.1,0.3,0.1,0.5,0.2l2.3,1.2C53.7,58.4,53.5,58.3,53.3,58.2"/>
						<path fill="#4B5149" d="M53.8,58.4l-2.3-1.2c0.3,0.1,0.7,0.1,1,0.1l2.3,1.2C54.5,58.5,54.1,58.5,53.8,58.4"/>
					</g>
				</g>
				<g>
					<polygon fill="#3A3E39" points="57.1,56.5 54.8,55.3 54.8,49.7 57.1,50.9 					"/>
				</g>
				<g enable-background="new    ">
					<defs>
						<path id="SVGID_33_" enable-background="new    " d="M54.1,48.4l2.3,1.2c0.4,0.2,0.7,0.7,0.7,1.3l-2.3-1.2
							C54.8,49.1,54.5,48.7,54.1,48.4z"/>
					</defs>
					<clipPath id="SVGID_34_">
						<use xlink:href="#SVGID_33_"  overflow="visible"/>
					</clipPath>
					<g clip-path="url(#SVGID_34_)" enable-background="new    ">
						<path fill="#3B3F3A" d="M57.1,50.9l-2.3-1.2c0-0.6-0.3-1-0.7-1.3l2.3,1.2C56.8,49.9,57.1,50.4,57.1,50.9"/>
					</g>
				</g>
				<g enable-background="new    ">
					<defs>
						<path id="SVGID_35_" enable-background="new    " d="M54.1,48.4l2.3,1.2c-0.2-0.1-0.5-0.2-0.8-0.1l-2.3-1.2
							C53.6,48.3,53.9,48.3,54.1,48.4z"/>
					</defs>
					<clipPath id="SVGID_36_">
						<use xlink:href="#SVGID_35_"  overflow="visible"/>
					</clipPath>
					<g clip-path="url(#SVGID_36_)" enable-background="new    ">
						<path fill="#A8A8A8" d="M55.6,49.5l-2.3-1.2c0.2,0,0.4,0,0.5,0l2.3,1.2C56,49.5,55.8,49.5,55.6,49.5"/>
						<path fill="#A3A3A3" d="M56.1,49.6l-2.3-1.2c0.1,0,0.2,0,0.2,0.1l2.3,1.2C56.3,49.6,56.2,49.6,56.1,49.6"/>
						<path fill="#9E9E9E" d="M56.3,49.7l-2.3-1.2c0,0,0,0,0,0L56.3,49.7C56.4,49.7,56.4,49.7,56.3,49.7"/>
					</g>
				</g>
				<g enable-background="new    ">
					<defs>
						<path id="SVGID_37_" enable-background="new    " d="M53.3,58.2L51,56.9c-0.8-0.5-1.4-1.4-1.4-2.5l2.3,1.2
							C51.9,56.8,52.4,57.7,53.3,58.2z"/>
					</defs>
					<clipPath id="SVGID_38_">
						<use xlink:href="#SVGID_37_"  overflow="visible"/>
					</clipPath>
					<g clip-path="url(#SVGID_38_)" enable-background="new    ">
						<path fill="#858585" d="M53.3,58.2L51,56.9c-0.8-0.5-1.4-1.4-1.4-2.5l2.3,1.2C51.9,56.8,52.4,57.7,53.3,58.2"/>
					</g>
				</g>
				<g enable-background="new    ">
					<defs>
						<path id="SVGID_39_" enable-background="new    " d="M63.9,39.9l2.3,1.2c-1.8-1-3.9-1.4-6.2-1.1l-2.3-1.2
							C60.1,38.6,62.2,39,63.9,39.9z"/>
					</defs>
					<clipPath id="SVGID_40_">
						<use xlink:href="#SVGID_39_"  overflow="visible"/>
					</clipPath>
					<g clip-path="url(#SVGID_40_)" enable-background="new    ">
						<path fill="#A8A8A8" d="M60.1,40.1l-2.3-1.2c1.4-0.2,2.7-0.1,4,0.2l2.3,1.2C62.8,40,61.5,39.9,60.1,40.1"/>
						<path fill="#A3A3A3" d="M64,40.3l-2.3-1.2c0.6,0.2,1.2,0.4,1.8,0.7l2.3,1.2C65.3,40.7,64.7,40.5,64,40.3"/>
						<path fill="#9E9E9E" d="M65.9,41l-2.3-1.2c0.1,0.1,0.2,0.1,0.4,0.2l2.3,1.2C66.1,41.1,66,41,65.9,41"/>
					</g>
				</g>
				<g>
					<polygon fill="#B4B4B4" points="54.9,49.6 52.6,48.4 53.3,48.3 55.6,49.5 					"/>
				</g>
				<g>
					<polygon fill="#828282" points="51.9,55.7 49.6,54.4 49.6,52 51.9,53.3 					"/>
				</g>
				<g enable-background="new    ">
					<defs>
						<path id="SVGID_41_" enable-background="new    " d="M49.7,56l-2.3-1.2c0.4-0.1,0.7-0.5,0.7-0.9l2.3,1.2
							C50.4,55.5,50.1,55.9,49.7,56z"/>
					</defs>
					<clipPath id="SVGID_42_">
						<use xlink:href="#SVGID_41_"  overflow="visible"/>
					</clipPath>
					<g clip-path="url(#SVGID_42_)" enable-background="new    ">
						<path fill="#4B5149" d="M49.7,56l-2.3-1.2c0.1,0,0.1,0,0.2-0.1l2.3,1.2C49.8,55.9,49.7,56,49.7,56"/>
						<path fill="#494E47" d="M49.9,55.9l-2.3-1.2c0,0,0.1,0,0.1-0.1l2.3,1.2C50,55.9,49.9,55.9,49.9,55.9"/>
						<path fill="#474C45" d="M50,55.8l-2.3-1.2c0,0,0.1,0,0.1-0.1L50,55.8C50.1,55.8,50,55.8,50,55.8"/>
						<path fill="#444943" d="M50.1,55.8l-2.3-1.2c0,0,0.1,0,0.1-0.1L50.1,55.8C50.1,55.7,50.1,55.7,50.1,55.8"/>
						<path fill="#424740" d="M50.2,55.7l-2.3-1.2c0,0,0-0.1,0.1-0.1L50.2,55.7C50.2,55.6,50.2,55.7,50.2,55.7"/>
						<path fill="#40443E" d="M50.2,55.6l-2.3-1.2c0,0,0-0.1,0.1-0.1L50.2,55.6C50.3,55.5,50.2,55.6,50.2,55.6"/>
						<path fill="#3E423C" d="M50.3,55.5L48,54.3c0,0,0-0.1,0.1-0.1l2.3,1.2C50.3,55.4,50.3,55.5,50.3,55.5"/>
						<path fill="#3B3F3A" d="M50.3,55.4l-2.3-1.2c0-0.1,0.1-0.2,0.1-0.3l2.3,1.2C50.4,55.2,50.4,55.3,50.3,55.4"/>
					</g>
				</g>
				<g>
					<polygon fill="#3A3E39" points="50.4,55.1 48.1,53.8 48.1,53 50.4,54.3 					"/>
				</g>
				<g>
					<path fill="#DFDFDF" d="M57.1,50.9l0,5.6c0,0.9-0.7,1.7-1.5,1.8l-0.7,0.1c-1.6,0.2-3-1-3-2.8l0-2.4c0-1.8,1.3-3.4,3-3.6
						l0.7-0.1C56.4,49.4,57.1,50,57.1,50.9z"/>
				</g>
				<g enable-background="new    ">
					<defs>
						<path id="SVGID_43_" enable-background="new    " d="M51.9,53.3L49.6,52c0-1.8,1.3-3.4,3-3.6l2.3,1.2
							C53.2,49.9,51.9,51.5,51.9,53.3z"/>
					</defs>
					<clipPath id="SVGID_44_">
						<use xlink:href="#SVGID_43_"  overflow="visible"/>
					</clipPath>
					<g clip-path="url(#SVGID_44_)" enable-background="new    ">
						<path fill="#858585" d="M51.9,53.3L49.6,52c0-0.4,0.1-0.9,0.2-1.3l2.3,1.2C52,52.4,51.9,52.8,51.9,53.3"/>
						<path fill="#8A8A8A" d="M52.1,52l-2.3-1.2c0.1-0.2,0.1-0.3,0.2-0.5l2.3,1.2C52.3,51.7,52.2,51.8,52.1,52"/>
						<path fill="#8F8F8F" d="M52.3,51.5l-2.3-1.2c0.1-0.1,0.2-0.3,0.2-0.4l2.3,1.2C52.5,51.2,52.4,51.4,52.3,51.5"/>
						<path fill="#949494" d="M52.6,51.1l-2.3-1.2c0.1-0.1,0.2-0.2,0.3-0.3l2.3,1.2C52.8,50.9,52.7,51,52.6,51.1"/>
						<path fill="#999999" d="M52.8,50.8l-2.3-1.2c0.1-0.1,0.2-0.2,0.3-0.3l2.3,1.2C53,50.6,52.9,50.7,52.8,50.8"/>
						<path fill="#9E9E9E" d="M53.2,50.5l-2.3-1.2c0.1-0.1,0.2-0.2,0.4-0.3l2.3,1.2C53.4,50.3,53.3,50.4,53.2,50.5"/>
						<path fill="#A3A3A3" d="M53.5,50.2l-2.3-1.2c0.2-0.1,0.3-0.2,0.5-0.3l2.3,1.2C53.8,50,53.7,50.1,53.5,50.2"/>
						<path fill="#A8A8A8" d="M54,49.9l-2.3-1.2c0.3-0.1,0.6-0.2,0.9-0.3l2.3,1.2C54.6,49.7,54.3,49.8,54,49.9"/>
					</g>
				</g>
				<g>
					<polygon fill="#51564E" points="48.9,56.1 46.6,54.8 47.4,54.7 49.7,56 					"/>
				</g>
				<g enable-background="new    ">
					<defs>
						<path id="SVGID_45_" enable-background="new    " d="M48.5,56l-2.3-1.2c0.1,0.1,0.3,0.1,0.4,0.1l2.3,1.2
							C48.8,56.1,48.6,56.1,48.5,56z"/>
					</defs>
					<clipPath id="SVGID_46_">
						<use xlink:href="#SVGID_45_"  overflow="visible"/>
					</clipPath>
					<g clip-path="url(#SVGID_46_)" enable-background="new    ">
						<path fill="#474C45" d="M48.5,56l-2.3-1.2c0,0,0,0,0,0L48.5,56C48.5,56,48.5,56,48.5,56"/>
						<path fill="#494E47" d="M48.5,56l-2.3-1.2c0,0,0.1,0,0.1,0l2.3,1.2C48.6,56.1,48.6,56,48.5,56"/>
						<path fill="#4B5149" d="M48.7,56.1l-2.3-1.2c0.1,0,0.2,0,0.3,0l2.3,1.2C48.8,56.1,48.7,56.1,48.7,56.1"/>
					</g>
				</g>
				<g enable-background="new    ">
					<defs>
						<path id="SVGID_47_" enable-background="new    " d="M48.5,56l-2.3-1.2c-0.2-0.1-0.3-0.3-0.3-0.6l2.3,1.2
							C48.2,55.7,48.3,55.9,48.5,56z"/>
					</defs>
					<clipPath id="SVGID_48_">
						<use xlink:href="#SVGID_47_"  overflow="visible"/>
					</clipPath>
					<g clip-path="url(#SVGID_48_)" enable-background="new    ">
						<path fill="#858585" d="M48.5,56l-2.3-1.2c-0.2-0.1-0.3-0.3-0.3-0.6l2.3,1.2C48.2,55.7,48.3,55.9,48.5,56"/>
					</g>
				</g>
				<g>
					<polygon fill="#828282" points="48.2,55.4 45.9,54.1 45.9,53.3 48.2,54.6 					"/>
				</g>
				<g enable-background="new    ">
					<defs>
						<path id="SVGID_49_" enable-background="new    " d="M62.9,42.2l2.3,1.2c-1.5-0.8-3.3-1.2-5.1-0.9c-5.3,0.7-9.6,6-9.7,11.8
							L48.1,53c0-5.7,4.3-11,9.7-11.8C59.7,41,61.4,41.4,62.9,42.2z"/>
					</defs>
					<clipPath id="SVGID_50_">
						<use xlink:href="#SVGID_49_"  overflow="visible"/>
					</clipPath>
					<g clip-path="url(#SVGID_50_)" enable-background="new    ">
						<path fill="#3B3F3A" d="M50.4,54.3L48.1,53c0-1.4,0.3-2.8,0.7-4.1l2.3,1.2C50.7,51.5,50.4,52.9,50.4,54.3"/>
						<path fill="#3E423C" d="M51.1,50.2L48.9,49c0.2-0.6,0.5-1.1,0.7-1.6l2.3,1.2C51.6,49.1,51.3,49.6,51.1,50.2"/>
						<path fill="#40443E" d="M51.9,48.6l-2.3-1.2c0.2-0.4,0.5-0.9,0.8-1.3l2.3,1.2C52.4,47.7,52.1,48.1,51.9,48.6"/>
						<path fill="#424740" d="M52.7,47.3L50.4,46c0.3-0.4,0.6-0.8,0.9-1.1l2.3,1.2C53.2,46.5,52.9,46.9,52.7,47.3"/>
						<path fill="#444943" d="M53.5,46.2l-2.3-1.2c0.3-0.4,0.6-0.7,1-1l2.3,1.2C54.2,45.5,53.8,45.8,53.5,46.2"/>
						<path fill="#474C45" d="M54.5,45.2l-2.3-1.2c0.4-0.3,0.8-0.6,1.2-0.9l2.3,1.2C55.3,44.5,54.9,44.9,54.5,45.2"/>
						<path fill="#494E47" d="M55.7,44.3L53.4,43c0.5-0.3,1-0.6,1.6-0.9l2.3,1.2C56.7,43.6,56.2,43.9,55.7,44.3"/>
						<path fill="#4B5149" d="M57.3,43.4L55,42.1c0.9-0.4,1.8-0.7,2.8-0.8c1.2-0.2,2.3-0.1,3.3,0.2l2.3,1.2c-1-0.3-2.2-0.3-3.3-0.2
							C59.1,42.7,58.1,42.9,57.3,43.4"/>
						<path fill="#494E47" d="M63.4,42.7l-2.3-1.2c0.5,0.1,1,0.3,1.5,0.6l2.3,1.2C64.4,43,63.9,42.8,63.4,42.7"/>
						<path fill="#474C45" d="M64.9,43.3L62.6,42c0.1,0,0.2,0.1,0.3,0.2l2.3,1.2C65.1,43.4,65,43.3,64.9,43.3"/>
					</g>
				</g>
				<g enable-background="new    ">
					<defs>
						<path id="SVGID_51_" enable-background="new    " d="M48.2,54.6l-2.3-1.2c0.2-6.9,5.3-13.5,11.9-14.5l2.3,1.2
							C53.4,41,48.4,47.7,48.2,54.6z"/>
					</defs>
					<clipPath id="SVGID_52_">
						<use xlink:href="#SVGID_51_"  overflow="visible"/>
					</clipPath>
					<g clip-path="url(#SVGID_52_)" enable-background="new    ">
						<path fill="#858585" d="M48.2,54.6l-2.3-1.2c0.1-1.7,0.4-3.3,1-4.9l2.3,1.2C48.6,51.3,48.2,52.9,48.2,54.6"/>
						<path fill="#8A8A8A" d="M49.1,49.7l-2.3-1.2c0.3-0.7,0.6-1.4,1-2.1l2.3,1.2C49.7,48.3,49.4,49,49.1,49.7"/>
						<path fill="#8F8F8F" d="M50.1,47.6l-2.3-1.2c0.3-0.6,0.6-1.1,1-1.6l2.3,1.2C50.7,46.5,50.4,47,50.1,47.6"/>
						<path fill="#949494" d="M51.1,45.9l-2.3-1.2c0.3-0.5,0.7-0.9,1.1-1.4l2.3,1.2C51.8,45,51.4,45.4,51.1,45.9"/>
						<path fill="#999999" d="M52.2,44.5l-2.3-1.2c0.4-0.4,0.8-0.8,1.2-1.2l2.3,1.2C53,43.7,52.6,44.1,52.2,44.5"/>
						<path fill="#9E9E9E" d="M53.4,43.3l-2.3-1.2c0.4-0.4,0.9-0.8,1.4-1.1l2.3,1.2C54.3,42.5,53.9,42.9,53.4,43.3"/>
						<path fill="#A3A3A3" d="M54.8,42.2L52.5,41c0.6-0.4,1.2-0.8,1.9-1.1l2.3,1.2C56,41.4,55.4,41.8,54.8,42.2"/>
						<path fill="#A8A8A8" d="M56.7,41.1l-2.3-1.2c1.1-0.5,2.2-0.8,3.4-1l2.3,1.2C58.9,40.3,57.8,40.6,56.7,41.1"/>
					</g>
				</g>
				<g enable-background="new    ">
					<defs>
						<path id="SVGID_53_" enable-background="new    " d="M49.1,73.4l-2.3-1.2c-5.7-3.1-9.5-9.5-9.5-17.4c0-12.2,9.2-23.4,20.6-25
							l2.3,1.2c-11.3,1.6-20.5,12.8-20.6,25C39.6,63.9,43.4,70.3,49.1,73.4z"/>
					</defs>
					<clipPath id="SVGID_54_">
						<use xlink:href="#SVGID_53_"  overflow="visible"/>
					</clipPath>
					<g clip-path="url(#SVGID_54_)" enable-background="new    ">
						<path fill="#3B3F3A" d="M49.1,73.4l-2.3-1.2c-5.7-3.1-9.5-9.5-9.5-17.4c0-3,0.6-6,1.6-8.7l2.3,1.2c-1,2.8-1.6,5.7-1.6,8.7
							C39.6,63.9,43.4,70.3,49.1,73.4"/>
						<path fill="#3E423C" d="M41.2,47.3L38.9,46c0.4-1.2,1-2.3,1.6-3.5l2.3,1.2C42.1,44.9,41.6,46.1,41.2,47.3"/>
						<path fill="#40443E" d="M42.7,43.8l-2.3-1.2c0.5-0.9,1.1-1.8,1.7-2.7l2.3,1.2C43.8,42,43.2,42.9,42.7,43.8"/>
						<path fill="#424740" d="M44.4,41.1l-2.3-1.2c0.6-0.8,1.2-1.6,1.8-2.3l2.3,1.2C45.6,39.5,45,40.3,44.4,41.1"/>
						<path fill="#444943" d="M46.2,38.8L44,37.5c0.7-0.7,1.4-1.5,2.1-2.1l2.3,1.2C47.6,37.3,46.9,38,46.2,38.8"/>
						<path fill="#474C45" d="M48.3,36.7l-2.3-1.2c0.8-0.7,1.6-1.4,2.5-2l2.3,1.2C50,35.3,49.1,36,48.3,36.7"/>
						<path fill="#494E47" d="M50.8,34.7l-2.3-1.2c1.1-0.7,2.2-1.4,3.3-1.9l2.3,1.2C53,33.3,51.9,34,50.8,34.7"/>
						<path fill="#4B5149" d="M54.2,32.8l-2.3-1.2c1.9-0.9,3.9-1.5,6-1.8l2.3,1.2C58.1,31.3,56,31.9,54.2,32.8"/>
					</g>
				</g>
				<g>
					<path fill="#646A61" d="M60.2,31c11.3-1.6,20.5,7,20.5,19.3c0,12.2-9.2,23.4-20.6,25c-11.3,1.6-20.5-7-20.5-19.3
						C39.6,43.8,48.8,32.6,60.2,31z M71.9,59.5l0-8.3c-0.2-6.8-5.2-12.1-11.8-11.1s-11.7,7.6-11.9,14.5l0,0.8c0,0.4,0.3,0.7,0.7,0.7
						l0.7-0.1c0.4-0.1,0.7-0.5,0.7-0.9l0-0.8c0-5.7,4.3-11,9.7-11.8c5.3-0.7,9.6,3.3,9.6,9c0,0.1,0,7.9,0,8.3c0,1.2-0.9,2.2-2,2.4
						L63,62.9c0-1.3-1-2.3-2.2-2.1L59.3,61c-1.2,0.2-2.2,1.4-2.2,2.7c0,1.3,1,2.3,2.2,2.1l8.4-1.2C70,64.3,71.9,62,71.9,59.5
						 M63,55.7c0,0.9,0.7,1.5,1.5,1.4l0.7-0.1c1.6-0.2,3-1.9,3-3.6l0-2.4c0-1.8-1.3-3-3-2.8l-0.7,0.1c-0.8,0.1-1.5,0.9-1.5,1.8
						L63,55.7 M55.6,58.3c0.8-0.1,1.5-0.9,1.5-1.8l0-5.6c0-0.9-0.7-1.5-1.5-1.4l-0.7,0.1c-1.6,0.2-3,1.9-3,3.6l0,2.4
						c0,1.8,1.3,3,3,2.8L55.6,58.3"/>
				</g>
				<g>
					<path fill="#DFDFDF" d="M65.2,57l-0.7,0.1c-0.8,0.1-1.5-0.5-1.5-1.4l0-5.6c0-0.9,0.7-1.7,1.5-1.8l0.7-0.1c1.6-0.2,3,1,3,2.8
						l0,2.4C68.2,55.1,66.9,56.8,65.2,57z"/>
				</g>
				<g enable-background="new    ">
					<defs>
						<path id="SVGID_55_" enable-background="new    " d="M68.8,31.6l2.3,1.2c-3.2-1.7-6.9-2.5-11-1.9l-2.3-1.2
							C61.9,29.2,65.7,29.9,68.8,31.6z"/>
					</defs>
					<clipPath id="SVGID_56_">
						<use xlink:href="#SVGID_55_"  overflow="visible"/>
					</clipPath>
					<g clip-path="url(#SVGID_56_)" enable-background="new    ">
						<path fill="#4B5149" d="M60.2,31l-2.3-1.2c2.5-0.4,4.9-0.2,7.1,0.4l2.3,1.2C65,30.8,62.6,30.6,60.2,31"/>
						<path fill="#494E47" d="M67.2,31.3L65,30.1c1.1,0.3,2.2,0.7,3.2,1.2l2.3,1.2C69.5,32,68.4,31.6,67.2,31.3"/>
						<path fill="#474C45" d="M70.5,32.5l-2.3-1.2c0.2,0.1,0.4,0.2,0.6,0.3l2.3,1.2C70.9,32.7,70.7,32.6,70.5,32.5"/>
					</g>
				</g>
				<g>
					<path fill="#DFDFDF" d="M60.1,40.1c6.6-0.9,11.6,4.3,11.8,11.1l0,8.3c0,2.5-1.9,4.8-4.2,5.1l-8.4,1.2c-1.2,0.2-2.2-0.8-2.2-2.1
						c0-1.3,1-2.5,2.2-2.7l1.5-0.2c1.2-0.2,2.2,0.8,2.2,2.1l4.7-0.7c1.1-0.2,2-1.2,2-2.4c0-0.4,0-8.2,0-8.3c0-5.7-4.3-9.8-9.6-9
						c-5.3,0.7-9.6,6-9.7,11.8l0,0.8c0,0.4-0.3,0.8-0.7,0.9l-0.7,0.1c-0.4,0.1-0.7-0.2-0.7-0.7l0-0.8C48.4,47.7,53.4,41,60.1,40.1z"
						/>
				</g>
			</g>
		</g>
	</g>
</g>
</svg>
